<?xml version="1.0" encoding="utf-8"?>
<!-- Generator: Adobe Illustrator 24.1.3, SVG Export Plug-In . SVG Version: 6.00 Build 0)  -->
<svg version="1.1" id="Layer_1" xmlns="http://www.w3.org/2000/svg" xmlns:xlink="http://www.w3.org/1999/xlink" x="0px" y="0px"
	 viewBox="0 0 67 22" style="enable-background:new 0 0 67 22;" xml:space="preserve">
<style type="text/css">
	.st0{fill:#222E5E;}
	.st1{fill:#FFFFFF;}
	.st2{fill:#808080;}
	.st3{fill:#18B900;}
	.st4{fill:#EBBB10;}
	.st5{fill:#666666;}
	.st6{fill:#277FB6;}
	.st7{fill:#22AF80;}
	.st8{fill:none;stroke:#222E5E;stroke-linecap:round;stroke-linejoin:round;stroke-miterlimit:10;}
	.st9{fill:#BEBEBE;}
	.st10{fill:#1E3565;}
	.st11{clip-path:url(#SVGID_2_);}
	.st12{fill:none;stroke:#222E5E;stroke-miterlimit:10;}
	.st13{fill:#A5A5A5;}
	.st14{fill:#C0C0C0;}
	.st15{opacity:0.1;}
	.st16{fill:none;stroke:#FFFFFF;stroke-width:0.5;stroke-linecap:round;stroke-linejoin:round;stroke-miterlimit:10;}
	.st17{fill:none;stroke:#808080;stroke-linecap:round;stroke-linejoin:round;stroke-miterlimit:10;}
	.st18{fill:#808012;}
	.st19{clip-path:url(#SVGID_4_);}
	.st20{fill:none;stroke:#FFFFFF;stroke-linecap:round;stroke-linejoin:round;stroke-miterlimit:10;}
	.st21{fill:none;stroke:#FFFFFF;stroke-miterlimit:10;}
	.st22{fill:none;stroke:#FFFFFF;stroke-width:0.5;stroke-miterlimit:10;}
</style>
<g>
	<path class="st1" d="M16.98,13.93c-1.19,0-2.25,0.59-2.9,1.5L7.94,12.2c0.14-0.38,0.22-0.78,0.22-1.2s-0.09-0.82-0.22-1.2
		l6.14-3.22c0.65,0.9,1.7,1.5,2.9,1.5c1.98,0,3.58-1.61,3.58-3.58S18.96,0.9,16.98,0.9S13.4,2.51,13.4,4.49
		c0,0.42,0.09,0.82,0.22,1.2L7.48,8.91c-0.65-0.9-1.7-1.5-2.9-1.5C2.61,7.42,1,9.02,1,11s1.61,3.58,3.58,3.58
		c1.19,0,2.25-0.59,2.9-1.5l6.14,3.22c-0.14,0.38-0.22,0.78-0.22,1.2c0,1.98,1.61,3.58,3.58,3.58s3.58-1.61,3.58-3.58
		S18.96,13.93,16.98,13.93z M16.98,1.9c1.42,0,2.58,1.16,2.58,2.58s-1.16,2.58-2.58,2.58S14.4,5.91,14.4,4.49S15.56,1.9,16.98,1.9z
		 M4.58,13.58C3.16,13.58,2,12.42,2,11s1.16-2.58,2.58-2.58S7.17,9.58,7.17,11S6.01,13.58,4.58,13.58z M16.98,20.1
		c-1.42,0-2.58-1.16-2.58-2.58s1.16-2.58,2.58-2.58s2.58,1.16,2.58,2.58S18.41,20.1,16.98,20.1z"/>
	<g>
		<path class="st1" d="M29.78,7.85C29.74,7.92,29.7,7.97,29.66,8s-0.1,0.05-0.17,0.05c-0.07,0-0.15-0.03-0.25-0.1
			c-0.09-0.07-0.21-0.14-0.35-0.22c-0.14-0.08-0.3-0.16-0.5-0.22c-0.19-0.07-0.42-0.1-0.69-0.1c-0.25,0-0.47,0.03-0.66,0.1
			c-0.19,0.07-0.35,0.16-0.48,0.27c-0.13,0.11-0.22,0.25-0.29,0.4c-0.07,0.15-0.1,0.32-0.1,0.5c0,0.23,0.06,0.42,0.18,0.58
			c0.12,0.15,0.27,0.28,0.46,0.39c0.19,0.11,0.41,0.2,0.65,0.28s0.49,0.16,0.75,0.25s0.51,0.19,0.75,0.3
			c0.24,0.11,0.46,0.25,0.65,0.42c0.19,0.17,0.35,0.38,0.46,0.62c0.12,0.25,0.18,0.55,0.18,0.9c0,0.38-0.06,0.74-0.19,1.07
			c-0.13,0.33-0.32,0.62-0.57,0.87s-0.55,0.44-0.92,0.58c-0.36,0.14-0.77,0.21-1.23,0.21c-0.28,0-0.54-0.03-0.8-0.08
			s-0.51-0.13-0.74-0.23c-0.23-0.1-0.45-0.22-0.65-0.35s-0.38-0.29-0.54-0.46L25,13.42c0.04-0.05,0.08-0.09,0.13-0.12
			c0.05-0.03,0.11-0.05,0.17-0.05c0.08,0,0.18,0.04,0.29,0.13c0.11,0.09,0.25,0.19,0.41,0.29c0.16,0.11,0.36,0.2,0.58,0.29
			c0.23,0.09,0.5,0.13,0.82,0.13c0.26,0,0.5-0.03,0.71-0.1s0.38-0.17,0.53-0.3c0.14-0.13,0.25-0.29,0.33-0.47
			c0.08-0.18,0.11-0.39,0.11-0.61c0-0.25-0.06-0.46-0.17-0.62s-0.27-0.29-0.46-0.4c-0.19-0.11-0.41-0.2-0.65-0.28
			c-0.24-0.08-0.49-0.15-0.75-0.24c-0.26-0.08-0.51-0.18-0.75-0.29c-0.24-0.11-0.46-0.25-0.65-0.42c-0.19-0.17-0.35-0.39-0.46-0.65
			C25.05,9.45,25,9.13,25,8.74c0-0.31,0.06-0.61,0.18-0.89s0.29-0.54,0.52-0.76c0.23-0.22,0.51-0.4,0.85-0.53s0.72-0.2,1.15-0.2
			c0.48,0,0.93,0.08,1.33,0.23c0.41,0.15,0.76,0.38,1.06,0.66L29.78,7.85z"/>
		<path class="st1" d="M39.88,10.75c0,0.64-0.1,1.24-0.31,1.77s-0.5,1-0.87,1.39s-0.83,0.69-1.35,0.91
			c-0.52,0.22-1.11,0.32-1.75,0.32c-0.64,0-1.22-0.11-1.74-0.32c-0.53-0.22-0.98-0.52-1.35-0.91s-0.67-0.85-0.87-1.39
			s-0.31-1.13-0.31-1.77c0-0.64,0.1-1.23,0.31-1.77s0.5-1,0.87-1.4c0.37-0.39,0.82-0.69,1.35-0.91c0.53-0.22,1.11-0.33,1.74-0.33
			c0.64,0,1.22,0.11,1.75,0.33c0.52,0.22,0.97,0.52,1.35,0.91c0.38,0.39,0.67,0.86,0.87,1.4S39.88,10.11,39.88,10.75z M38.57,10.75
			c0-0.51-0.07-0.97-0.21-1.38c-0.14-0.41-0.34-0.75-0.6-1.04c-0.26-0.28-0.57-0.5-0.94-0.65c-0.37-0.15-0.78-0.23-1.23-0.23
			c-0.45,0-0.86,0.08-1.23,0.23c-0.37,0.15-0.68,0.37-0.94,0.65c-0.26,0.28-0.46,0.63-0.6,1.04s-0.21,0.87-0.21,1.38
			c0,0.52,0.07,0.98,0.21,1.38c0.14,0.41,0.34,0.75,0.6,1.04c0.26,0.28,0.57,0.5,0.94,0.65c0.37,0.15,0.78,0.22,1.23,0.22
			c0.45,0,0.86-0.08,1.23-0.22c0.37-0.15,0.68-0.37,0.94-0.65c0.26-0.28,0.46-0.63,0.6-1.04C38.5,11.73,38.57,11.27,38.57,10.75z"/>
		<path class="st1" d="M47.5,13.21c0.07,0,0.13,0.03,0.19,0.08l0.5,0.55c-0.35,0.42-0.78,0.74-1.29,0.97
			c-0.51,0.23-1.12,0.34-1.83,0.34c-0.62,0-1.19-0.11-1.7-0.32s-0.94-0.52-1.3-0.91c-0.36-0.39-0.63-0.85-0.83-1.39
			s-0.29-1.13-0.29-1.78c0-0.65,0.1-1.24,0.31-1.78s0.5-1,0.87-1.39s0.82-0.69,1.33-0.91c0.52-0.22,1.09-0.32,1.72-0.32
			c0.61,0,1.16,0.1,1.63,0.3c0.48,0.2,0.89,0.47,1.24,0.8l-0.42,0.59c-0.03,0.04-0.06,0.08-0.1,0.11c-0.04,0.03-0.1,0.04-0.17,0.04
			c-0.08,0-0.17-0.04-0.27-0.11c-0.1-0.08-0.24-0.16-0.4-0.25s-0.37-0.18-0.62-0.25c-0.24-0.08-0.55-0.11-0.91-0.11
			c-0.43,0-0.82,0.08-1.18,0.22c-0.36,0.15-0.66,0.37-0.92,0.65s-0.46,0.63-0.6,1.04c-0.14,0.41-0.21,0.87-0.21,1.39
			c0,0.52,0.07,0.99,0.22,1.4c0.15,0.41,0.35,0.75,0.61,1.04c0.26,0.28,0.57,0.5,0.92,0.65c0.35,0.15,0.73,0.22,1.14,0.22
			c0.25,0,0.47-0.01,0.67-0.04c0.2-0.03,0.38-0.07,0.55-0.13c0.17-0.06,0.32-0.14,0.47-0.23c0.15-0.09,0.29-0.21,0.44-0.34
			c0.03-0.03,0.07-0.05,0.1-0.07C47.42,13.22,47.46,13.21,47.5,13.21z"/>
		<path class="st1" d="M50.77,15.06h-1.28V6.44h1.28V15.06z"/>
		<path class="st1" d="M59.99,15.06h-0.98c-0.11,0-0.2-0.03-0.28-0.08c-0.07-0.06-0.12-0.13-0.16-0.22l-0.76-2h-3.8l-0.76,2
			c-0.03,0.08-0.08,0.15-0.16,0.21c-0.08,0.06-0.17,0.09-0.28,0.09h-0.98l3.43-8.62h1.29L59.99,15.06z M57.47,11.85l-1.28-3.34
			c-0.09-0.23-0.18-0.52-0.28-0.86c-0.04,0.17-0.09,0.33-0.13,0.48s-0.09,0.28-0.13,0.4l-1.27,3.33H57.47z"/>
		<path class="st1" d="M66,13.99v1.07h-4.93V6.44h1.28v7.54H66z"/>
	</g>
</g>
</svg>
