<?xml version="1.0" encoding="utf-8"?>
<!-- Generator: Adobe Illustrator 24.0.1, SVG Export Plug-In . SVG Version: 6.00 Build 0)  -->
<svg version="1.1" id="Layer_1" xmlns="http://www.w3.org/2000/svg" xmlns:xlink="http://www.w3.org/1999/xlink" x="0px" y="0px"
	 viewBox="0 0 20 20" style="enable-background:new 0 0 20 20;" xml:space="preserve">
<style type="text/css">
	.st0{fill:#232F5D;}
	.st1{fill:none;stroke:#FFFFFF;stroke-linecap:round;stroke-linejoin:round;stroke-miterlimit:10;}
	.st2{fill:none;stroke:#232F5D;stroke-linecap:round;stroke-linejoin:round;stroke-miterlimit:10;}
	.st3{fill:none;stroke:#232F5D;stroke-width:0.9317;stroke-linecap:round;stroke-linejoin:round;stroke-miterlimit:10;}
	.st4{fill:none;stroke:#FFFFFF;stroke-miterlimit:10;}
</style>
<rect class="st0" width="20" height="20"/>
<path id="XMLID_5_" class="st1" d="M1.5,15.34c1.54,0.99,3.38,1.57,5.35,1.57c6.48,0,10.13-5.47,9.91-10.38
	c0.68-0.49,1.27-1.11,1.74-1.81c-0.63,0.28-1.3,0.47-2,0.55c0.72-0.43,1.27-1.11,1.53-1.93c-0.67,0.4-1.42,0.69-2.21,0.85
	c-0.64-0.68-1.54-1.1-2.55-1.1c-2.25,0-3.91,2.1-3.4,4.28C6.97,7.23,4.4,5.84,2.68,3.73C1.77,5.3,2.21,7.35,3.76,8.39
	C3.19,8.37,2.65,8.21,2.18,7.95c-0.04,1.62,1.12,3.13,2.8,3.46c-0.49,0.13-1.03,0.16-1.57,0.06c0.44,1.39,1.73,2.39,3.26,2.42
	C5.2,15.05,3.35,15.56,1.5,15.34z"/>
</svg>
