<?xml version="1.0" encoding="utf-8"?>
<!-- Generator: Adobe Illustrator 24.0.1, SVG Export Plug-In . SVG Version: 6.00 Build 0)  -->
<svg version="1.1" id="Layer_1" xmlns="http://www.w3.org/2000/svg" xmlns:xlink="http://www.w3.org/1999/xlink" x="0px" y="0px"
	 viewBox="0 0 20 20" style="enable-background:new 0 0 20 20;" xml:space="preserve">
<style type="text/css">
	.st0{fill:#232F5D;}
	.st1{fill:none;stroke:#FFFFFF;stroke-linecap:round;stroke-linejoin:round;stroke-miterlimit:10;}
	.st2{fill:none;stroke:#232F5D;stroke-linecap:round;stroke-linejoin:round;stroke-miterlimit:10;}
	.st3{fill:none;stroke:#232F5D;stroke-width:0.9317;stroke-linecap:round;stroke-linejoin:round;stroke-miterlimit:10;}
	.st4{fill:none;stroke:#FFFFFF;stroke-miterlimit:10;}
</style>
<rect class="st0" width="20" height="20"/>
<path class="st4" d="M18.99,8.02c-0.01-0.21-0.02-0.43-0.03-0.64c-0.07-0.9-0.17-1.94-0.77-2.66c-0.51-0.62-1.3-0.76-2.05-0.84
	c-0.95-0.11-1.9-0.17-2.86-0.21C11.34,3.6,9.41,3.64,7.47,3.68C6.48,3.71,5.48,3.73,4.49,3.81C3.27,3.9,2.02,4.08,1.46,5.3
	C0.95,6.39,1.01,7.78,1,8.95C1,10,0.99,11.06,1.04,12.11c0.05,1.37,0.14,3.14,1.61,3.74c0.79,0.32,1.74,0.39,2.58,0.45
	c0.89,0.06,1.78,0.05,2.68,0.06c1.87,0.03,3.74-0.04,5.61-0.07c1.3-0.03,2.63-0.04,3.88-0.46c1.07-0.37,1.35-1.53,1.5-2.54
	c0.14-1,0.11-2.02,0.11-3.03C18.99,9.51,19.01,8.76,18.99,8.02z M8.18,12.72c0-1.83,0-3.64,0-5.48c1.55,0.91,3.09,1.81,4.66,2.74
	C11.27,10.9,9.73,11.8,8.18,12.72z"/>
</svg>
