<?xml version="1.0" encoding="UTF-8" standalone="no"?>
<svg
   xmlns:dc="http://purl.org/dc/elements/1.1/"
   xmlns:cc="http://creativecommons.org/ns#"
   xmlns:rdf="http://www.w3.org/1999/02/22-rdf-syntax-ns#"
   xmlns:svg="http://www.w3.org/2000/svg"
   xmlns="http://www.w3.org/2000/svg"
   xmlns:sodipodi="http://sodipodi.sourceforge.net/DTD/sodipodi-0.dtd"
   xmlns:inkscape="http://www.inkscape.org/namespaces/inkscape"
   inkscape:version="1.0 (6e3e5246a0, 2020-05-07)"
   sodipodi:docname="icone_menu_governo.svg"
   xml:space="preserve"
   style="enable-background:new 0 0 31.9 21.8;"
   viewBox="0 0 31.9 21.8"
   y="0px"
   x="0px"
   id="Layer_1"
   version="1.1"><metadata
   id="metadata43"><rdf:RDF><cc:Work
       rdf:about=""><dc:format>image/svg+xml</dc:format><dc:type
         rdf:resource="http://purl.org/dc/dcmitype/StillImage" /></cc:Work></rdf:RDF></metadata><defs
   id="defs41" /><sodipodi:namedview
   inkscape:current-layer="Layer_1"
   inkscape:window-maximized="0"
   inkscape:window-y="274"
   inkscape:window-x="3188"
   inkscape:cy="7.6242301"
   inkscape:cx="21.69604"
   inkscape:zoom="9.8510973"
   showgrid="false"
   id="namedview39"
   inkscape:window-height="685"
   inkscape:window-width="1287"
   inkscape:pageshadow="2"
   inkscape:pageopacity="0"
   guidetolerance="10"
   gridtolerance="10"
   objecttolerance="10"
   borderopacity="1"
   bordercolor="#666666"
   pagecolor="#ffffff" />
<style
   id="style2"
   type="text/css">
	.st0{fill:none;stroke:#FFFFFF;stroke-miterlimit:10;}
	.st1{fill:none;stroke:#FFFFFF;stroke-width:1.06;stroke-miterlimit:10;}
</style>
<title
   id="title4">Icones Homepage</title>
<path
   style="stroke:#232f5d;stroke-opacity:1"
   id="path6"
   d="M12.5,12.9h-1.7V9.3c0-0.5,0.4-0.8,0.8-0.8l0,0l0,0c0.5,0,0.8,0.4,0.8,0.8V12.9z"
   class="st0" />
<path
   style="stroke:#232f5d;stroke-opacity:1"
   id="path8"
   d="M17,12.9h-2V8.5c0-0.6,0.4-1,1-1l0,0c0.6,0,1,0.4,1,1V12.9z"
   class="st0" />
<path
   style="stroke:#232f5d;stroke-opacity:1"
   id="path10"
   d="M21.1,12.9h-1.7V9.3c0-0.5,0.4-0.8,0.8-0.8l0,0c0.5,0,0.8,0.4,0.8,0.8l0,0V12.9z"
   class="st0" />
<rect
   style="stroke:#232f5d;stroke-opacity:1"
   id="rect12"
   height="4.5"
   width="1.7"
   class="st0"
   y="14.9"
   x="10.8" />
<rect
   style="stroke:#232f5d;stroke-opacity:1"
   id="rect14"
   height="4.5"
   width="1.7"
   class="st0"
   y="14.9"
   x="19.4" />
<rect
   style="stroke:#232f5d;stroke-opacity:1"
   id="rect16"
   height="6.3"
   width="3.4"
   class="st0"
   y="14.9"
   x="14.2" />
<polygon
   style="stroke:#232f5d;stroke-opacity:1"
   id="polygon18"
   points="23.8,7.2 23.8,4.7 19.4,4.7 19.4,3.8 12.5,3.8 12.5,4.7 8.1,4.7 8.1,7.2 8.4,7.2 8.4,14 8.1,14   8.1,14.4 8.4,14.4 8.4,21.3 23.6,21.3 23.6,14.4 23.8,14.4 23.8,14 23.6,14 23.6,7.2 "
   class="st0" />
<path
   style="stroke:#232f5d;stroke-opacity:1"
   id="path20"
   d="M18.1,1.8V1.3c0-0.5-0.4-0.8-0.8-0.8h-2.5c-0.5,0-0.8,0.4-0.8,0.8v0.4c-0.8,0-1.4,0.6-1.4,1.4v0.7h7V3.1  C19.5,2.4,18.9,1.8,18.1,1.8C18.1,1.8,18.1,1.8,18.1,1.8z"
   class="st0" />
<path
   style="stroke:#232f5d;stroke-opacity:1"
   id="path22"
   d="M8.8,2.3c-0.4,0-0.7,0.3-0.7,0.7v1.8h1.3V2.9C9.4,2.5,9.1,2.3,8.8,2.3z"
   class="st0" />
<path
   style="stroke:#232f5d;stroke-opacity:1"
   id="path24"
   d="M23.2,2.3c-0.4,0-0.6,0.3-0.6,0.7v1.8h1.3V2.9C23.8,2.5,23.5,2.2,23.2,2.3z"
   class="st0" />
<rect
   style="stroke:#232f5d;stroke-opacity:1"
   id="rect26"
   height="14.6"
   width="7.9"
   class="st1"
   y="6.6"
   x="23.5" />
<rect
   style="stroke:#232f5d;stroke-opacity:1"
   id="rect28"
   height="4.5"
   width="2"
   class="st0"
   y="8.4"
   x="26.5" />
<rect
   style="stroke:#232f5d;stroke-opacity:1"
   id="rect30"
   height="4.5"
   width="2"
   class="st0"
   y="14.9"
   x="26.5" />
<rect
   style="stroke:#232f5d;stroke-opacity:1"
   id="rect32"
   height="14.6"
   width="7.9"
   class="st1"
   y="6.6"
   x="0.5" />
<rect
   style="stroke:#232f5d;stroke-opacity:1"
   id="rect34"
   height="4.5"
   width="2"
   class="st0"
   y="8.4"
   x="3.4" />
<rect
   style="stroke:#232f5d;stroke-opacity:1"
   id="rect36"
   height="4.5"
   width="2"
   class="st0"
   y="14.9"
   x="3.4" />
</svg>
