<?xml version="1.0" encoding="UTF-8" standalone="no"?>
<!-- Generator: Adobe Illustrator 24.0.1, SVG Export Plug-In . SVG Version: 6.00 Build 0)  -->

<svg
   xmlns:dc="http://purl.org/dc/elements/1.1/"
   xmlns:cc="http://creativecommons.org/ns#"
   xmlns:rdf="http://www.w3.org/1999/02/22-rdf-syntax-ns#"
   xmlns:svg="http://www.w3.org/2000/svg"
   xmlns="http://www.w3.org/2000/svg"
   xmlns:sodipodi="http://sodipodi.sourceforge.net/DTD/sodipodi-0.dtd"
   xmlns:inkscape="http://www.inkscape.org/namespaces/inkscape"
   version="1.1"
   id="Layer_1"
   x="0px"
   y="0px"
   viewBox="0 0 40 40"
   style="enable-background:new 0 0 40 40;"
   xml:space="preserve"
   sodipodi:docname="Utilizador e Senha.svg"
   inkscape:version="0.92.4 (f8dce91, 2019-08-02)"><metadata
   id="metadata1477"><rdf:RDF><cc:Work
       rdf:about=""><dc:format>image/svg+xml</dc:format><dc:type
         rdf:resource="http://purl.org/dc/dcmitype/StillImage" /><dc:title></dc:title></cc:Work></rdf:RDF></metadata><defs
   id="defs1475" /><sodipodi:namedview
   pagecolor="#ffffff"
   bordercolor="#666666"
   borderopacity="1"
   objecttolerance="10"
   gridtolerance="10"
   guidetolerance="10"
   inkscape:pageopacity="0"
   inkscape:pageshadow="2"
   inkscape:window-width="3440"
   inkscape:window-height="1440"
   id="namedview1473"
   showgrid="false"
   inkscape:zoom="21.690501"
   inkscape:cx="10.689478"
   inkscape:cy="26.056228"
   inkscape:window-x="0"
   inkscape:window-y="0"
   inkscape:window-maximized="0"
   inkscape:current-layer="Layer_1" />
<style
   type="text/css"
   id="style1460">
	.st0{fill:none;stroke:#222E5E;stroke-linecap:round;stroke-linejoin:round;stroke-miterlimit:10;}
</style>
<g
   id="g1470"
   transform="matrix(0.97076387,0,0,0.97076387,0.58472264,0.58472264)">
	<g
   id="g1466">
		<path
   class="st0"
   d="m 14.01,13.98 c 0,3.21 2.69,5.82 6,5.82 3.31,0 6,-2.61 6,-5.82 0,-3.21 -2.69,-5.82 -6,-5.82 -3.31,0 -6,2.61 -6,5.82 z"
   id="path1462"
   inkscape:connector-curvature="0"
   style="fill:none;stroke:#222e5e;stroke-linecap:round;stroke-linejoin:round;stroke-miterlimit:10" />
		<path
   class="st0"
   d="m 20,20.09 c -5.26,0 -9.53,4.14 -9.53,9.23 v 1.44 c 0,0.6 0.49,1.09 1.1,1.09 0.01,0 0.02,0 0.02,0 h 16.85 c 0.59,0.01 1.08,-0.45 1.1,-1.04 0,-0.01 0,-0.03 0,-0.04 V 29.33 C 29.53,24.23 25.26,20.09 20,20.09 Z"
   id="path1464"
   inkscape:connector-curvature="0"
   style="fill:none;stroke:#222e5e;stroke-linecap:round;stroke-linejoin:round;stroke-miterlimit:10" />
	</g>
	<circle
   class="st0"
   cx="20"
   cy="20"
   r="20"
   id="circle1468"
   style="fill:none;stroke:#222e5e;stroke-linecap:round;stroke-linejoin:round;stroke-miterlimit:10" />
</g>
</svg>