<?xml version="1.0" encoding="UTF-8" standalone="no"?>
<svg
   xmlns:dc="http://purl.org/dc/elements/1.1/"
   xmlns:cc="http://creativecommons.org/ns#"
   xmlns:rdf="http://www.w3.org/1999/02/22-rdf-syntax-ns#"
   xmlns:svg="http://www.w3.org/2000/svg"
   xmlns="http://www.w3.org/2000/svg"
   viewBox="0 0 627.40161 166.2991"
   height="44mm"
   width="166mm"
   xml:space="preserve"
   id="svg869"
   version="1.1"><metadata
     id="metadata875"><rdf:RDF><cc:Work
         rdf:about=""><dc:format>image/svg+xml</dc:format><dc:type
           rdf:resource="http://purl.org/dc/dcmitype/StillImage" /><dc:title></dc:title></cc:Work></rdf:RDF></metadata><defs
     id="defs873"><clipPath
       id="clipPath885"
       clipPathUnits="userSpaceOnUse"><path
         id="path883"
         d="M 0,841.89 H 595.276 V 0 H 0 Z" /></clipPath><clipPath
       id="clipPath1347"
       clipPathUnits="userSpaceOnUse"><rect
         transform="scale(1,-1)"
         y="-500.6402"
         x="46.342575"
         height="151.6666"
         width="508.36395"
         id="rect1349"
         style="fill:#fffb4e;fill-opacity:1;stroke:none;stroke-width:0.75;stroke-opacity:1" /></clipPath></defs><g
     transform="matrix(1.3333333,0,0,-1.3333333,0,166.29904)"
     id="g877"><g
       clip-path="url(#clipPath1347)"
       transform="translate(-72.322499,-361.61248)"
       id="g879"><g
         clip-path="url(#clipPath885)"
         id="g881"><g
           transform="translate(233.7158,611.7183)"
           id="g887"><path
             id="path889"
             style="fill:#5788c2;fill-opacity:1;fill-rule:nonzero;stroke:none"
             d="m 0,0 c -2.642,0 -4.718,0.904 -6.422,2.611 -2.416,2.414 -2.344,5.392 -2.344,9.506 0,4.12 -0.072,7.098 2.344,9.508 1.704,1.71 3.78,2.615 6.422,2.615 4.42,0 7.966,-2.549 8.772,-7.534 H 4.051 c -0.502,1.908 -1.638,3.38 -4.015,3.38 -1.304,0 -2.311,-0.468 -2.978,-1.234 -0.905,-1.011 -1.175,-2.113 -1.175,-6.735 0,-4.617 0.27,-5.722 1.175,-6.729 0.667,-0.766 1.674,-1.235 2.978,-1.235 2.377,0 3.513,1.472 4.015,3.381 H 8.772 C 7.966,2.542 4.42,0 0,0" /></g><g
           transform="translate(258.3833,611.9194)"
           id="g891"><path
             id="path893"
             style="fill:#5788c2;fill-opacity:1;fill-rule:nonzero;stroke:none"
             d="M 0,0 V 9.978 H -8.064 V 0 h -4.652 v 23.84 h 4.652 V 14.094 H 0 V 23.84 H 4.655 V 0 Z" /></g><g
           transform="translate(275.7559,628.7275)"
           id="g895"><path
             id="path897"
             style="fill:#5788c2;fill-opacity:1;fill-rule:nonzero;stroke:none"
             d="m 0,0 -3.011,-8.67 h 5.923 z m 5.56,-16.808 -1.407,4.216 h -8.471 l -1.44,-4.216 h -4.854 l 8.671,23.84 H 1.71 l 8.703,-23.84 z" /></g><g
           transform="translate(295.77,611.9194)"
           id="g899"><path
             id="path901"
             style="fill:#5788c2;fill-opacity:1;fill-rule:nonzero;stroke:none"
             d="m 0,0 h -3.48 l -7.865,23.84 h 4.821 L -1.737,8.303 3.044,23.84 h 4.86 z" /></g><g
           transform="translate(305.7139,611.9194)"
           id="g903"><path
             id="path905"
             style="fill:#5788c2;fill-opacity:1;fill-rule:nonzero;stroke:none"
             d="M 0,0 V 23.84 H 15.695 V 19.687 H 4.648 v -5.593 h 9.41 V 9.941 H 4.648 V 4.153 H 15.695 V 0 Z" /></g><g
           transform="translate(348.9902,611.9194)"
           id="g907"><path
             id="path909"
             style="fill:#5788c2;fill-opacity:1;fill-rule:nonzero;stroke:none"
             d="M 0,0 V 13.893 L -4.549,4.856 h -3.15 l -4.589,9.037 V 0 h -4.649 v 23.84 h 4.583 L -6.128,10.948 0.065,23.84 h 4.59 V 0 Z" /></g><g
           transform="translate(367.4326,638.0645)"
           id="g911"><path
             id="path913"
             style="fill:#5788c2;fill-opacity:1;fill-rule:nonzero;stroke:none"
             d="m 0,0 h -2.912 l 2.14,5.688 h 4.583 z m 1.902,-7.534 c -0.667,0.772 -1.671,1.274 -2.978,1.274 -1.301,0 -2.344,-0.502 -3.011,-1.274 -0.904,-0.971 -1.142,-2.14 -1.142,-6.695 0,-4.55 0.238,-5.722 1.142,-6.693 0.667,-0.769 1.71,-1.271 3.011,-1.271 1.307,0 2.311,0.502 2.978,1.271 0.904,1.001 1.175,2.11 1.175,6.693 0,4.588 -0.271,5.691 -1.175,6.695 m 3.447,-16.201 c -1.703,-1.707 -3.711,-2.611 -6.425,-2.611 -2.707,0 -4.755,0.904 -6.458,2.611 -2.41,2.414 -2.344,5.392 -2.344,9.506 0,4.12 -0.066,7.098 2.344,9.508 1.703,1.71 3.751,2.615 6.458,2.615 2.714,0 4.722,-0.905 6.425,-2.615 2.417,-2.41 2.383,-5.388 2.383,-9.508 0,-4.114 0.034,-7.092 -2.383,-9.506" /></g><g
           transform="translate(387.4072,611.9194)"
           id="g915"><path
             id="path917"
             style="fill:#5788c2;fill-opacity:1;fill-rule:nonzero;stroke:none"
             d="m 0,0 h -3.48 l -7.865,23.84 h 4.821 L -1.736,8.303 3.051,23.84 h 4.852 z" /></g><g
           transform="translate(397.3516,611.9194)"
           id="g919"><path
             id="path921"
             style="fill:#5788c2;fill-opacity:1;fill-rule:nonzero;stroke:none"
             d="M 0,0 V 23.84 H 15.695 V 19.687 H 4.655 v -5.593 h 9.403 V 9.941 H 4.655 V 4.153 h 11.04 V 0 Z" /></g><g
           transform="translate(416.7637,611.9194)"
           id="g923"><path
             id="path925"
             style="fill:#5788c2;fill-opacity:1;fill-rule:nonzero;stroke:none"
             d="M 0,0 V 23.84 H 4.656 V 4.153 H 15.465 V 0 Z" /></g><g
           transform="translate(76.4863,580.7329)"
           id="g927"><path
             id="path929"
             style="fill:#5788c2;fill-opacity:1;fill-rule:nonzero;stroke:none"
             d="M 0,0 C 0,1.875 1.522,3.394 3.407,3.394 5.282,3.394 6.801,1.875 6.801,0 6.801,-1.882 5.282,-3.407 3.407,-3.407 1.522,-3.407 0,-1.882 0,0" /></g><g
           transform="translate(90.3066,580.7329)"
           id="g931"><path
             id="path933"
             style="fill:#5788c2;fill-opacity:1;fill-rule:nonzero;stroke:none"
             d="M 0,0 C 0,1.875 1.519,3.394 3.397,3.394 5.276,3.394 6.805,1.875 6.805,0 6.805,-1.882 5.276,-3.407 3.397,-3.407 1.519,-3.407 0,-1.882 0,0" /></g><g
           transform="translate(105.6455,580.7329)"
           id="g935"><path
             id="path937"
             style="fill:#5788c2;fill-opacity:1;fill-rule:nonzero;stroke:none"
             d="M 0,0 C 0,1.875 1.519,3.394 3.4,3.394 5.286,3.394 6.811,1.875 6.811,0 6.811,-1.882 5.286,-3.407 3.4,-3.407 1.519,-3.407 0,-1.882 0,0" /></g><g
           transform="translate(119.4658,580.7329)"
           id="g939"><path
             id="path941"
             style="fill:#5788c2;fill-opacity:1;fill-rule:nonzero;stroke:none"
             d="M 0,0 C 0,1.875 1.522,3.394 3.404,3.394 5.269,3.394 6.801,1.875 6.801,0 6.801,-1.882 5.269,-3.407 3.404,-3.407 1.522,-3.407 0,-1.882 0,0" /></g><g
           transform="translate(80.8179,599.938)"
           id="g943"><path
             id="path945"
             style="fill:#5788c2;fill-opacity:1;fill-rule:nonzero;stroke:none"
             d="M 0,0 -1.152,-3.321 H 1.119 Z M 2.133,-6.441 1.591,-4.82 H -1.65 l -0.555,-1.621 h -1.859 l 3.324,9.135 h 1.397 l 3.335,-9.135 z" /></g><g
           transform="translate(88.8374,593.4243)"
           id="g947"><path
             id="path949"
             style="fill:#5788c2;fill-opacity:1;fill-rule:nonzero;stroke:none"
             d="m 0,0 c -1.872,0 -3.357,1.268 -3.357,3.206 v 6.002 h 1.782 V 3.269 c 0,-1.063 0.601,-1.681 1.575,-1.681 0.974,0 1.588,0.618 1.588,1.681 V 9.208 H 3.364 V 3.206 C 3.364,1.268 1.872,0 0,0" /></g><g
           transform="translate(97.355,601.041)"
           id="g951"><path
             id="path953"
             style="fill:#5788c2;fill-opacity:1;fill-rule:nonzero;stroke:none"
             d="M 0,0 V -7.544 H -1.779 V 0 h -2.39 V 1.591 H 2.388 V 0 Z" /></g><g
           transform="translate(100.8716,593.4966)"
           id="g955"><path
             id="path957"
             style="fill:#5788c2;fill-opacity:1;fill-rule:nonzero;stroke:none"
             d="M 0,0 V 9.136 H 6.015 V 7.544 H 1.783 V 5.402 H 5.388 V 3.813 H 1.783 V 1.595 H 6.015 V 0 Z" /></g><g
           transform="translate(113.7144,593.4966)"
           id="g959"><path
             id="path961"
             style="fill:#5788c2;fill-opacity:1;fill-rule:nonzero;stroke:none"
             d="M 0,0 -3.619,5.606 V 0 h -1.782 v 9.136 h 1.588 L -0.198,3.543 V 9.136 H 1.585 V 0 Z" /></g><g
           transform="translate(120.6016,601.041)"
           id="g963"><path
             id="path965"
             style="fill:#5788c2;fill-opacity:1;fill-rule:nonzero;stroke:none"
             d="M 0,0 V -7.544 H -1.783 V 0 H -4.17 V 1.591 H 2.384 V 0 Z" /></g><path
           id="path967"
           style="fill:#5788c2;fill-opacity:1;fill-rule:nonzero;stroke:none"
           d="m 124.118,602.632 h 1.78 v -9.136 h -1.78 z" /><g
           transform="translate(130.7603,593.4243)"
           id="g969"><path
             id="path971"
             style="fill:#5788c2;fill-opacity:1;fill-rule:nonzero;stroke:none"
             d="m 0,0 c -1.013,0 -1.806,0.343 -2.459,1 -0.925,0.918 -0.902,2.067 -0.902,3.639 0,1.578 -0.023,2.72 0.902,3.645 0.653,0.654 1.446,1 2.459,1 1.694,0 3.054,-0.977 3.361,-2.889 H 1.552 C 1.357,7.128 0.928,7.689 0.017,7.689 c -0.502,0 -0.889,-0.178 -1.143,-0.468 -0.35,-0.39 -0.449,-0.813 -0.449,-2.582 0,-1.77 0.099,-2.192 0.449,-2.576 0.254,-0.297 0.641,-0.475 1.143,-0.475 0.911,0 1.34,0.564 1.535,1.294 H 3.361 C 3.054,0.974 1.694,0 0,0" /></g><g
           transform="translate(138.2783,599.938)"
           id="g973"><path
             id="path975"
             style="fill:#5788c2;fill-opacity:1;fill-rule:nonzero;stroke:none"
             d="M 0,0 -1.156,-3.321 H 1.115 Z M 2.132,-6.441 1.591,-4.82 h -3.245 l -0.552,-1.621 h -1.862 l 3.328,9.135 h 1.393 l 3.338,-9.135 z" /></g><g
           transform="translate(146.1821,590.8555)"
           id="g977"><path
             id="path979"
             style="fill:#5788c2;fill-opacity:1;fill-rule:nonzero;stroke:none"
             d="m 0,0 h -1.552 l 0.882,1.872 h 1.231 z m -0.182,2.569 c -1.013,0 -1.806,0.343 -2.46,1 -0.924,0.918 -0.898,2.067 -0.898,3.639 0,1.578 -0.026,2.72 0.898,3.645 0.654,0.653 1.447,1 2.46,1 1.694,0 3.054,-0.978 3.365,-2.889 h -1.81 c -0.195,0.733 -0.63,1.294 -1.541,1.294 -0.502,0 -0.885,-0.178 -1.14,-0.468 -0.35,-0.391 -0.449,-0.813 -0.449,-2.582 0,-1.77 0.099,-2.192 0.449,-2.576 0.255,-0.297 0.638,-0.475 1.14,-0.475 0.911,0 1.346,0.564 1.541,1.294 h 1.81 C 2.872,3.543 1.512,2.569 -0.182,2.569" /></g><g
           transform="translate(153.6465,599.938)"
           id="g981"><path
             id="path983"
             style="fill:#5788c2;fill-opacity:1;fill-rule:nonzero;stroke:none"
             d="m 0,0 -1.155,-3.321 h 2.271 z m 0.796,3.718 c -0.373,0 -0.628,0.093 -0.987,0.294 -0.248,0.141 -0.466,0.234 -0.72,0.234 -0.215,0 -0.41,-0.026 -0.756,-0.373 l -0.72,0.73 c 0.568,0.567 0.938,0.759 1.439,0.759 0.397,0 0.628,-0.079 0.985,-0.297 0.26,-0.152 0.449,-0.232 0.706,-0.232 0.218,0 0.409,0.027 0.759,0.37 L 2.249,4.477 C 1.681,3.909 1.294,3.718 0.796,3.718 M 2.129,-6.441 1.588,-4.82 h -3.242 l -0.551,-1.621 h -1.859 l 3.321,9.135 h 1.397 l 3.334,-9.135 z" /></g><g
           transform="translate(162.5244,600.6313)"
           id="g985"><path
             id="path987"
             style="fill:#5788c2;fill-opacity:1;fill-rule:nonzero;stroke:none"
             d="m 0,0 c -0.258,0.291 -0.644,0.482 -1.142,0.482 -0.503,0 -0.899,-0.191 -1.156,-0.482 -0.347,-0.376 -0.435,-0.818 -0.435,-2.568 0,-1.744 0.088,-2.192 0.435,-2.562 0.257,-0.297 0.653,-0.489 1.156,-0.489 0.498,0 0.884,0.192 1.142,0.489 0.344,0.382 0.449,0.805 0.449,2.562 C 0.449,-0.812 0.344,-0.39 0,0 m 1.321,-6.207 c -0.657,-0.657 -1.426,-1 -2.463,-1 -1.037,0 -1.823,0.343 -2.477,1 -0.921,0.918 -0.898,2.067 -0.898,3.639 0,1.578 -0.023,2.72 0.898,3.645 0.654,0.653 1.44,1 2.477,1 1.037,0 1.806,-0.347 2.463,-1 0.924,-0.925 0.911,-2.067 0.911,-3.645 0,-1.572 0.013,-2.721 -0.911,-3.639" /></g><path
           id="path989"
           style="fill:#5788c2;fill-opacity:1;fill-rule:nonzero;stroke:none"
           d="m 166.41,594.448 h 0.948 v -0.951 h -0.948 z" /><g
           transform="translate(174.8389,594.4712)"
           id="g991"><path
             id="path993"
             style="fill:#5788c2;fill-opacity:1;fill-rule:nonzero;stroke:none"
             d="m 0,0 c -0.601,-0.664 -1.479,-1.047 -2.396,-1.047 -0.875,0 -1.681,0.33 -2.286,0.931 -0.835,0.835 -0.848,1.658 -0.848,3.708 0,2.067 0.013,2.872 0.848,3.704 0.605,0.604 1.411,0.941 2.286,0.941 1.587,0 2.845,-1.067 3.116,-2.671 H 0.023 C -0.244,6.837 -1.168,7.62 -2.396,7.62 -3.054,7.62 -3.671,7.375 -4.13,6.913 -4.784,6.263 -4.836,5.54 -4.836,3.592 c 0,-1.948 0.052,-2.664 0.706,-3.321 0.459,-0.463 1.076,-0.707 1.734,-0.707 0.716,0 1.419,0.31 1.895,0.884 0.396,0.503 0.554,1.031 0.554,1.81 v 0.819 h -2.449 v 0.62 H 0.743 V 2.205 C 0.743,1.244 0.555,0.581 0,0" /></g><g
           transform="translate(182.2017,601.3843)"
           id="g995"><path
             id="path997"
             style="fill:#5788c2;fill-opacity:1;fill-rule:nonzero;stroke:none"
             d="M 0,0 C -0.462,0.462 -1.077,0.707 -1.73,0.707 -2.384,0.707 -3.004,0.462 -3.463,0 -4.12,-0.65 -4.167,-1.374 -4.167,-3.321 c 0,-1.949 0.047,-2.664 0.704,-3.322 0.459,-0.462 1.079,-0.706 1.733,-0.706 0.653,0 1.268,0.244 1.73,0.706 0.654,0.658 0.707,1.373 0.707,3.322 C 0.707,-1.374 0.654,-0.65 0,0 M 0.555,-7.029 C -0.053,-7.63 -0.858,-7.96 -1.73,-7.96 c -0.872,0 -1.684,0.33 -2.285,0.931 -0.832,0.835 -0.845,1.657 -0.845,3.708 0,2.067 0.013,2.872 0.845,3.704 0.601,0.604 1.413,0.941 2.285,0.941 0.872,0 1.677,-0.337 2.285,-0.941 C 1.386,-0.449 1.4,-1.254 1.4,-3.321 1.4,-5.372 1.386,-6.194 0.555,-7.029" /></g><g
           transform="translate(187.9199,593.4966)"
           id="g999"><path
             id="path1001"
             style="fill:#5788c2;fill-opacity:1;fill-rule:nonzero;stroke:none"
             d="m 0,0 h -0.584 l -3.005,9.136 h 0.733 l 2.565,-7.914 2.566,7.914 h 0.729 z" /></g><path
           id="path1003"
           style="fill:#5788c2;fill-opacity:1;fill-rule:nonzero;stroke:none"
           d="m 190.924,594.448 h 0.951 v -0.951 h -0.951 z" /><g
           transform="translate(197.4546,602.0146)"
           id="g1005"><path
             id="path1007"
             style="fill:#5788c2;fill-opacity:1;fill-rule:nonzero;stroke:none"
             d="M 0,0 H -2.578 V -4.024 H 0 c 1.271,0 2.143,0.637 2.143,2.007 C 2.143,-0.644 1.271,0 0,0 m 0.076,-4.645 h -2.654 v -3.873 h -0.694 v 9.136 h 3.348 c 1.582,0 2.757,-0.951 2.757,-2.635 0,-1.664 -1.175,-2.628 -2.757,-2.628" /></g><g
           transform="translate(204.3418,602.0146)"
           id="g1009"><path
             id="path1011"
             style="fill:#5788c2;fill-opacity:1;fill-rule:nonzero;stroke:none"
             d="M 0,0 V -8.518 H -0.69 V 0 H -3.411 V 0.618 H 2.734 V 0 Z" /></g><g
           transform="translate(77.7241,703.0732)"
           id="g1013"><path
             id="path1015"
             style="fill:#5788c2;fill-opacity:1;fill-rule:nonzero;stroke:none"
             d="m 0,0 c 0,4.234 3.431,7.683 7.676,7.683 l 110.103,0.003 c 4.24,0 7.683,-3.452 7.683,-7.698 v -84.205 c 0,-4.246 -3.443,-7.673 -7.683,-7.673 H 7.676 C 3.431,-91.89 0,-88.463 0,-84.217 Z" /></g><g
           transform="translate(187.1675,652.6836)"
           id="g1017"><path
             id="path1019"
             style="fill:#ffffff;fill-opacity:1;fill-rule:evenodd;stroke:none"
             d="m 0,0 h 8.178 l 0.049,-6.362 c 0,0 -0.356,-3.866 -4.121,-3.866 -3.813,0 -4.106,3.78 -4.106,3.78 z" /></g><g
           transform="translate(187.1675,665.4292)"
           id="g1021"><path
             id="path1023"
             style="fill:#ffffff;fill-opacity:1;fill-rule:evenodd;stroke:none"
             d="m 0,0 h 8.178 l 0.049,-6.349 c 0,0 -0.356,-3.863 -4.121,-3.863 C 0.293,-10.212 0,-6.441 0,-6.441 Z" /></g><g
           transform="translate(197.4976,665.4292)"
           id="g1025"><path
             id="path1027"
             style="fill:#ffffff;fill-opacity:1;fill-rule:evenodd;stroke:none"
             d="m 0,0 h 8.204 l 0.037,-6.346 c 0,0 -0.36,-3.866 -4.127,-3.866 C 0.301,-10.212 0,-6.441 0,-6.441 Z" /></g><g
           transform="translate(176.833,665.4292)"
           id="g1029"><path
             id="path1031"
             style="fill:#ffffff;fill-opacity:1;fill-rule:evenodd;stroke:none"
             d="m 0,0 h 8.178 l 0.043,-6.349 c 0,0 -0.34,-3.863 -4.107,-3.863 C 0.291,-10.212 0,-6.441 0,-6.441 Z" /></g><g
           transform="translate(187.1675,678.1865)"
           id="g1033"><path
             id="path1035"
             style="fill:#ffffff;fill-opacity:1;fill-rule:evenodd;stroke:none"
             d="m 0,0 h 8.178 l 0.049,-6.362 c 0,0 -0.356,-3.86 -4.121,-3.86 C 0.293,-10.222 0,-6.443 0,-6.443 Z" /></g><g
           transform="translate(138.7139,660.9326)"
           id="g1037"><path
             id="path1039"
             style="fill:#ffffff;fill-opacity:1;fill-rule:nonzero;stroke:none"
             d="M 0,0 C 0,20.758 16.831,37.593 37.591,37.593 H 38.08 V 22.845 H 37.604 C 24.973,22.845 14.745,12.627 14.745,0 c 0,-12.642 10.228,-22.868 22.859,-22.868 H 38.08 V -37.616 H 37.591 C 16.831,-37.616 0,-20.771 0,0" /></g><g
           transform="translate(187.0845,652.6538)"
           id="g1041"><path
             id="path1043"
             style="fill:#ffffff;fill-opacity:1;fill-rule:evenodd;stroke:none"
             d="M 0,0 H 8.191 L 8.23,-6.359 c 0,0 -0.349,-3.859 -4.126,-3.859 C 0.294,-10.225 0,-6.451 0,-6.451 Z" /></g><g
           transform="translate(187.0845,665.4043)"
           id="g1045"><path
             id="path1047"
             style="fill:#ffffff;fill-opacity:1;fill-rule:evenodd;stroke:none"
             d="M 0,0 H 8.191 L 8.23,-6.351 c 0,0 -0.349,-3.869 -4.126,-3.869 C 0.294,-10.22 0,-6.438 0,-6.438 Z" /></g><g
           transform="translate(197.4219,665.4043)"
           id="g1049"><path
             id="path1051"
             style="fill:#ffffff;fill-opacity:1;fill-rule:evenodd;stroke:none"
             d="m 0,0 h 8.191 l 0.026,-6.351 c 0,0 -0.346,-3.869 -4.11,-3.869 C 0.291,-10.22 0,-6.438 0,-6.438 Z" /></g><g
           transform="translate(176.7339,665.4043)"
           id="g1053"><path
             id="path1055"
             style="fill:#ffffff;fill-opacity:1;fill-rule:evenodd;stroke:none"
             d="m 0,0 h 8.211 l 0.043,-6.351 c 0,0 -0.343,-3.869 -4.133,-3.869 C 0.304,-10.22 0,-6.438 0,-6.438 Z" /></g><g
           transform="translate(187.0845,678.1519)"
           id="g1057"><path
             id="path1059"
             style="fill:#ffffff;fill-opacity:1;fill-rule:evenodd;stroke:none"
             d="M 0,0 H 8.191 L 8.23,-6.347 c 0,0 -0.349,-3.86 -4.126,-3.861 -3.81,0 -4.104,3.77 -4.104,3.77 z" /></g><g
           transform="translate(138.6777,660.9043)"
           id="g1061"><path
             id="path1063"
             style="fill:#ffffff;fill-opacity:1;fill-rule:nonzero;stroke:none"
             d="m 0,0 c 0,20.769 16.828,37.621 37.587,37.621 0.169,0 0.337,0 0.49,-0.012 V 22.865 c -0.153,0 -0.321,0.009 -0.47,0.009 C 24.969,22.874 14.721,12.632 14.721,0 c 0,-12.624 10.248,-22.86 22.886,-22.86 h 0.47 v -14.744 h -0.49 C 16.828,-37.604 0,-20.767 0,0" /></g><g
           transform="translate(76.4863,367.8359)"
           id="g1065"><path
             id="path1067"
             style="fill:#5788c2;fill-opacity:1;fill-rule:nonzero;stroke:none"
             d="M 0,0 C 0,1.875 1.522,3.394 3.407,3.394 5.282,3.394 6.801,1.875 6.801,0 6.801,-1.882 5.282,-3.407 3.407,-3.407 1.522,-3.407 0,-1.882 0,0" /></g><g
           transform="translate(90.3066,367.8359)"
           id="g1069"><path
             id="path1071"
             style="fill:#5788c2;fill-opacity:1;fill-rule:nonzero;stroke:none"
             d="M 0,0 C 0,1.875 1.519,3.394 3.397,3.394 5.276,3.394 6.805,1.875 6.805,0 6.805,-1.882 5.276,-3.407 3.397,-3.407 1.519,-3.407 0,-1.882 0,0" /></g><g
           transform="translate(105.6455,367.8359)"
           id="g1073"><path
             id="path1075"
             style="fill:#5788c2;fill-opacity:1;fill-rule:nonzero;stroke:none"
             d="M 0,0 C 0,1.875 1.519,3.394 3.4,3.394 5.286,3.394 6.811,1.875 6.811,0 6.811,-1.882 5.286,-3.407 3.4,-3.407 1.519,-3.407 0,-1.882 0,0" /></g><g
           transform="translate(119.4658,367.8359)"
           id="g1077"><path
             id="path1079"
             style="fill:#5788c2;fill-opacity:1;fill-rule:nonzero;stroke:none"
             d="M 0,0 C 0,1.875 1.522,3.394 3.404,3.394 5.269,3.394 6.801,1.875 6.801,0 6.801,-1.882 5.269,-3.407 3.404,-3.407 1.522,-3.407 0,-1.882 0,0" /></g><g
           transform="translate(77.7241,472.5044)"
           id="g1081"><path
             id="path1083"
             transform="matrix(0.75000002,0,0,-0.75000002,-5.401601,13.832363)"
             d="M 164.24023 8.1953125 L 17.4375 8.1992188 C 11.7775 8.1992188 7.2011719 12.798026 7.2011719 18.443359 L 7.2011719 130.73242 C 7.2011719 136.39376 11.7775 140.96289 17.4375 140.96289 L 164.24023 140.96289 C 169.89357 140.96289 174.48437 136.39376 174.48438 130.73242 L 174.48438 81.876953 C 173.86753 82.132527 173.14401 82.294922 172.27539 82.294922 C 167.18739 82.294922 166.79883 77.251953 166.79883 77.251953 L 166.79883 68.667969 L 174.48438 68.667969 L 174.48438 18.458984 C 174.48432 12.797651 169.89357 8.1953125 164.24023 8.1953125 z M 138.58984 24.507812 C 138.81518 24.507812 139.03819 24.507433 139.24219 24.523438 L 139.24219 44.183594 C 139.03819 44.183594 138.81585 44.171875 138.61719 44.171875 C 121.76652 44.171875 108.10156 57.826636 108.10156 74.667969 C 108.10156 91.499968 121.76652 105.14844 138.61719 105.14844 L 139.24219 105.14844 L 139.24219 124.80859 L 138.58984 124.80859 C 110.91118 124.80859 88.472656 102.3573 88.472656 74.667969 C 88.472656 46.975969 110.91118 24.507812 138.58984 24.507812 z M 153.01562 51.671875 L 163.9375 51.671875 L 163.99023 60.134766 C 163.99023 60.134766 163.52428 65.28187 158.48828 65.283203 C 153.40828 65.283203 153.01563 60.257817 153.01562 60.257812 L 153.01562 51.671875 z M 139.21484 68.667969 L 150.16406 68.667969 L 150.2207 77.136719 C 150.2207 77.136719 149.76232 82.294922 144.70898 82.294922 C 139.61965 82.294922 139.21484 77.251953 139.21484 77.251953 L 139.21484 68.667969 z M 153.01562 68.667969 L 163.9375 68.667969 L 163.99023 77.136719 C 163.99023 77.136719 163.52428 82.294922 158.48828 82.294922 C 153.40828 82.294922 153.01563 77.251953 153.01562 77.251953 L 153.01562 68.667969 z M 153.01562 85.669922 L 163.9375 85.669922 L 163.99023 94.146484 C 163.99023 94.146484 163.52428 99.294922 158.48828 99.294922 C 153.40828 99.304255 153.01563 94.271484 153.01562 94.271484 L 153.01562 85.669922 z "
             style="fill:#5788c2;fill-opacity:1;fill-rule:nonzero;stroke:none;stroke-width:1.33333325" /></g><g
           transform="translate(187.0845,422.085)"
           id="g1109" /><g
           transform="translate(187.0845,434.8354)"
           id="g1113" /><g
           transform="translate(197.4219,434.8354)"
           id="g1117" /><g
           transform="translate(176.7339,434.8354)"
           id="g1121" /><g
           transform="translate(187.0845,447.583)"
           id="g1125" /><g
           transform="translate(138.6777,430.3354)"
           id="g1129" /><g
           transform="translate(231.3896,399.0117)"
           id="g1133"><path
             id="path1135"
             style="fill:#5788c2;fill-opacity:1;fill-rule:nonzero;stroke:none"
             d="m 0,0 -2.721,-7.845 h 5.364 z m 5.037,-15.211 -1.28,3.827 h -7.654 l -1.311,-3.827 h -4.39 l 7.852,21.572 h 3.297 l 7.876,-21.572 z" /></g><g
           transform="translate(250.3286,383.6299)"
           id="g1137"><path
             id="path1139"
             style="fill:#5788c2;fill-opacity:1;fill-rule:nonzero;stroke:none"
             d="m 0,0 c -4.421,0 -7.93,2.992 -7.93,7.568 v 14.175 h 4.211 V 7.716 C -3.719,5.207 -2.301,3.75 0,3.75 c 2.299,0 3.75,1.457 3.75,3.966 V 21.743 H 7.944 V 7.568 C 7.944,2.992 4.42,0 0,0" /></g><g
           transform="translate(270.4438,401.6152)"
           id="g1141"><path
             id="path1143"
             style="fill:#5788c2;fill-opacity:1;fill-rule:nonzero;stroke:none"
             d="M 0,0 V -17.814 H -4.204 V 0 H -9.847 V 3.758 H 5.637 V 0 Z" /></g><g
           transform="translate(278.7471,383.8008)"
           id="g1145"><path
             id="path1147"
             style="fill:#5788c2;fill-opacity:1;fill-rule:nonzero;stroke:none"
             d="M 0,0 V 21.572 H 14.206 V 17.814 H 4.21 v -5.06 h 8.513 V 9.005 H 4.21 v -5.24 h 9.996 V 0 Z" /></g><g
           transform="translate(309.0771,383.8008)"
           id="g1149"><path
             id="path1151"
             style="fill:#5788c2;fill-opacity:1;fill-rule:nonzero;stroke:none"
             d="M 0,0 -8.546,13.239 V 0 h -4.211 v 21.572 h 3.75 L -0.469,8.364 V 21.572 H 3.742 V 0 Z" /></g><g
           transform="translate(325.3398,401.6152)"
           id="g1153"><path
             id="path1155"
             style="fill:#5788c2;fill-opacity:1;fill-rule:nonzero;stroke:none"
             d="M 0,0 V -17.814 H -4.21 V 0 H -9.847 V 3.758 H 5.63 V 0 Z" /></g><path
           id="path1157"
           style="fill:#5788c2;fill-opacity:1;fill-rule:nonzero;stroke:none"
           d="m 333.644,405.373 h 4.203 v -21.572 h -4.203 z" /><g
           transform="translate(349.3291,383.6299)"
           id="g1159"><path
             id="path1161"
             style="fill:#5788c2;fill-opacity:1;fill-rule:nonzero;stroke:none"
             d="m 0,0 c -2.392,0 -4.262,0.81 -5.808,2.36 -2.184,2.17 -2.127,4.882 -2.127,8.594 0,3.726 -0.057,6.423 2.127,8.608 1.546,1.543 3.416,2.362 5.808,2.362 4.001,0 7.215,-2.307 7.938,-6.821 H 3.666 c -0.462,1.729 -1.475,3.053 -3.624,3.053 -1.188,0 -2.1,-0.418 -2.7,-1.105 -0.824,-0.92 -1.059,-1.917 -1.059,-6.097 0,-4.181 0.235,-5.179 1.059,-6.083 0.6,-0.702 1.512,-1.121 2.7,-1.121 2.149,0 3.162,1.331 3.624,3.055 H 7.938 C 7.215,2.298 4.001,0 0,0" /></g><g
           transform="translate(367.084,399.0117)"
           id="g1163"><path
             id="path1165"
             style="fill:#5788c2;fill-opacity:1;fill-rule:nonzero;stroke:none"
             d="m 0,0 -2.729,-7.845 h 5.363 z m 5.033,-15.211 -1.276,3.827 h -7.664 l -1.301,-3.827 h -4.398 l 7.859,21.572 h 3.291 l 7.879,-21.572 z" /></g><g
           transform="translate(385.748,377.5635)"
           id="g1167"><path
             id="path1169"
             style="fill:#5788c2;fill-opacity:1;fill-rule:nonzero;stroke:none"
             d="m 0,0 h -3.663 l 2.079,4.421 h 2.908 z m -0.431,6.066 c -2.389,0 -4.261,0.81 -5.805,2.361 -2.186,2.17 -2.124,4.882 -2.124,8.594 0,3.725 -0.062,6.422 2.124,8.607 1.544,1.544 3.416,2.362 5.805,2.362 4.003,0 7.211,-2.306 7.946,-6.821 H 3.242 c -0.46,1.729 -1.487,3.054 -3.641,3.054 -1.185,0 -2.087,-0.418 -2.689,-1.106 -0.829,-0.92 -1.061,-1.917 -1.061,-6.096 0,-4.181 0.232,-5.179 1.061,-6.083 0.602,-0.703 1.504,-1.122 2.689,-1.122 2.154,0 3.181,1.331 3.641,3.055 H 7.515 C 6.78,8.364 3.572,6.066 -0.431,6.066" /></g><g
           transform="translate(403.3779,399.0117)"
           id="g1171"><path
             id="path1173"
             style="fill:#5788c2;fill-opacity:1;fill-rule:nonzero;stroke:none"
             d="m 0,0 -2.729,-7.845 h 5.364 z m 1.877,8.779 c -0.881,0 -1.481,0.218 -2.333,0.695 -0.581,0.335 -1.098,0.551 -1.699,0.551 -0.505,0 -0.966,-0.062 -1.785,-0.88 l -1.701,1.723 c 1.343,1.342 2.217,1.793 3.401,1.793 0.934,0 1.483,-0.186 2.324,-0.701 0.618,-0.358 1.062,-0.545 1.67,-0.545 0.512,0 0.966,0.063 1.793,0.873 L 5.309,10.572 C 3.966,9.231 3.054,8.779 1.877,8.779 m 3.147,-23.99 -1.275,3.827 H -3.909 L -5.21,-15.211 H -9.6 l 7.845,21.572 h 3.294 l 7.876,-21.572 z" /></g><g
           transform="translate(424.3389,400.6494)"
           id="g1175"><path
             id="path1177"
             style="fill:#5788c2;fill-opacity:1;fill-rule:nonzero;stroke:none"
             d="m 0,0 c -0.605,0.686 -1.518,1.137 -2.696,1.137 -1.183,0 -2.119,-0.451 -2.729,-1.137 -0.818,-0.889 -1.028,-1.933 -1.028,-6.065 0,-4.12 0.21,-5.179 1.028,-6.052 0.61,-0.7 1.546,-1.153 2.729,-1.153 1.178,0 2.091,0.453 2.696,1.153 0.812,0.904 1.065,1.902 1.065,6.052 C 1.065,-1.917 0.812,-0.919 0,0 m 3.12,-14.659 c -1.55,-1.551 -3.367,-2.361 -5.816,-2.361 -2.447,0 -4.305,0.81 -5.845,2.361 -2.177,2.17 -2.124,4.882 -2.124,8.594 0,3.725 -0.053,6.422 2.124,8.607 1.54,1.544 3.398,2.362 5.845,2.362 2.449,0 4.266,-0.818 5.816,-2.362 2.183,-2.185 2.152,-4.882 2.152,-8.607 0,-3.712 0.031,-6.424 -2.152,-8.594" /></g><path
           id="path1179"
           style="fill:#5788c2;fill-opacity:1;fill-rule:nonzero;stroke:none"
           d="m 433.519,386.045 h 2.236 v -2.244 h -2.236 z" /><g
           transform="translate(453.4229,386.1006)"
           id="g1181"><path
             id="path1183"
             style="fill:#5788c2;fill-opacity:1;fill-rule:nonzero;stroke:none"
             d="m 0,0 c -1.417,-1.565 -3.494,-2.471 -5.66,-2.471 -2.069,0 -3.97,0.779 -5.394,2.198 -1.975,1.971 -2.007,3.914 -2.007,8.756 0,4.88 0.032,6.785 2.007,8.748 1.424,1.426 3.325,2.222 5.394,2.222 3.75,0 6.719,-2.519 7.36,-6.308 H 0.053 c -0.627,3.003 -2.813,4.851 -5.713,4.851 -1.553,0 -3.012,-0.579 -4.095,-1.669 -1.543,-1.538 -1.668,-3.245 -1.668,-7.844 0,-4.599 0.125,-6.292 1.668,-7.844 1.083,-1.091 2.542,-1.669 4.095,-1.669 1.692,0 3.353,0.733 4.476,2.09 0.935,1.185 1.307,2.431 1.307,4.273 V 7.266 H -5.66 V 8.73 H 1.753 V 5.207 C 1.753,2.94 1.311,1.372 0,0" /></g><g
           transform="translate(470.8096,402.4277)"
           id="g1185"><path
             id="path1187"
             style="fill:#5788c2;fill-opacity:1;fill-rule:nonzero;stroke:none"
             d="M 0,0 C -1.09,1.09 -2.542,1.669 -4.085,1.669 -5.631,1.669 -7.094,1.09 -8.177,0 c -1.552,-1.538 -1.661,-3.245 -1.661,-7.844 0,-4.599 0.109,-6.292 1.661,-7.844 1.083,-1.091 2.546,-1.669 4.092,-1.669 1.543,0 2.995,0.578 4.085,1.669 1.546,1.552 1.671,3.245 1.671,7.844 C 1.671,-3.245 1.546,-1.538 0,0 m 1.309,-16.601 c -1.431,-1.419 -3.334,-2.197 -5.394,-2.197 -2.058,0 -3.976,0.778 -5.396,2.197 -1.964,1.972 -1.996,3.914 -1.996,8.757 0,4.88 0.032,6.784 1.996,8.748 1.42,1.426 3.338,2.222 5.396,2.222 2.06,0 3.963,-0.796 5.394,-2.222 1.964,-1.964 1.999,-3.868 1.999,-8.748 0,-4.843 -0.035,-6.785 -1.999,-8.757" /></g><g
           transform="translate(484.3125,383.8008)"
           id="g1189"><path
             id="path1191"
             style="fill:#5788c2;fill-opacity:1;fill-rule:nonzero;stroke:none"
             d="m 0,0 h -1.382 l -7.094,21.572 h 1.731 L -0.686,2.884 5.372,21.572 h 1.724 z" /></g><path
           id="path1193"
           style="fill:#5788c2;fill-opacity:1;fill-rule:nonzero;stroke:none"
           d="m 491.408,386.045 h 2.246 v -2.244 h -2.246 z" /><g
           transform="translate(506.8281,403.916)"
           id="g1195"><path
             id="path1197"
             style="fill:#5788c2;fill-opacity:1;fill-rule:nonzero;stroke:none"
             d="M 0,0 H -6.085 V -9.503 H 0 c 3.004,0 5.062,1.503 5.062,4.738 C 5.062,-1.52 3.004,0 0,0 m 0.183,-10.971 h -6.268 v -9.144 h -1.64 V 1.457 h 7.908 c 3.733,0 6.508,-2.243 6.508,-6.222 0,-3.927 -2.775,-6.206 -6.508,-6.206" /></g><g
           transform="translate(523.0947,403.916)"
           id="g1199"><path
             id="path1201"
             style="fill:#5788c2;fill-opacity:1;fill-rule:nonzero;stroke:none"
             d="M 0,0 V -20.115 H -1.63 V 0 H -8.055 V 1.457 H 6.455 V 0 Z" /></g><g
           transform="translate(76.4863,211.3184)"
           id="g1203"><path
             id="path1205"
             style="fill:#5788c2;fill-opacity:1;fill-rule:nonzero;stroke:none"
             d="M 0,0 C 0,1.875 1.522,3.394 3.407,3.394 5.282,3.394 6.801,1.875 6.801,0 6.801,-1.882 5.282,-3.407 3.407,-3.407 1.522,-3.407 0,-1.882 0,0" /></g><g
           transform="translate(90.3066,211.3184)"
           id="g1207"><path
             id="path1209"
             style="fill:#5788c2;fill-opacity:1;fill-rule:nonzero;stroke:none"
             d="M 0,0 C 0,1.875 1.519,3.394 3.397,3.394 5.276,3.394 6.805,1.875 6.805,0 6.805,-1.882 5.276,-3.407 3.397,-3.407 1.519,-3.407 0,-1.882 0,0" /></g><g
           transform="translate(105.6455,211.3184)"
           id="g1211"><path
             id="path1213"
             style="fill:#5788c2;fill-opacity:1;fill-rule:nonzero;stroke:none"
             d="M 0,0 C 0,1.875 1.519,3.394 3.4,3.394 5.286,3.394 6.811,1.875 6.811,0 6.811,-1.882 5.286,-3.407 3.4,-3.407 1.519,-3.407 0,-1.882 0,0" /></g><g
           transform="translate(119.4658,211.3184)"
           id="g1215"><path
             id="path1217"
             style="fill:#5788c2;fill-opacity:1;fill-rule:nonzero;stroke:none"
             d="M 0,0 C 0,1.875 1.522,3.394 3.404,3.394 5.269,3.394 6.801,1.875 6.801,0 6.801,-1.882 5.269,-3.407 3.404,-3.407 1.522,-3.407 0,-1.882 0,0" /></g><g
           transform="translate(77.7241,315.9873)"
           id="g1219"><path
             id="path1221"
             style="fill:#5788c2;fill-opacity:1;fill-rule:nonzero;stroke:none"
             d="m 0,0 c 0,4.233 3.431,7.682 7.676,7.682 l 110.103,0.003 c 4.24,0 7.683,-3.452 7.683,-7.697 v -84.206 c 0,-4.246 -3.443,-7.673 -7.683,-7.673 H 7.676 C 3.431,-91.891 0,-88.464 0,-84.218 Z" /></g><g
           transform="translate(187.1675,265.5967)"
           id="g1223"><path
             id="path1225"
             style="fill:#ffffff;fill-opacity:1;fill-rule:evenodd;stroke:none"
             d="m 0,0 h 8.178 l 0.049,-6.362 c 0,0 -0.356,-3.867 -4.121,-3.867 C 0.293,-10.229 0,-6.448 0,-6.448 Z" /></g><g
           transform="translate(187.1675,278.3428)"
           id="g1227"><path
             id="path1229"
             style="fill:#ffffff;fill-opacity:1;fill-rule:evenodd;stroke:none"
             d="m 0,0 h 8.178 l 0.049,-6.35 c 0,0 -0.356,-3.862 -4.121,-3.862 -3.813,0 -4.106,3.77 -4.106,3.77 z" /></g><g
           transform="translate(197.4976,278.3428)"
           id="g1231"><path
             id="path1233"
             style="fill:#ffffff;fill-opacity:1;fill-rule:evenodd;stroke:none"
             d="m 0,0 h 8.204 l 0.037,-6.346 c 0,0 -0.36,-3.866 -4.127,-3.866 -3.813,0 -4.114,3.77 -4.114,3.77 z" /></g><g
           transform="translate(176.833,278.3428)"
           id="g1235"><path
             id="path1237"
             style="fill:#ffffff;fill-opacity:1;fill-rule:evenodd;stroke:none"
             d="m 0,0 h 8.178 l 0.043,-6.35 c 0,0 -0.34,-3.862 -4.107,-3.862 -3.823,0 -4.114,3.77 -4.114,3.77 z" /></g><g
           transform="translate(187.1675,291.0996)"
           id="g1239"><path
             id="path1241"
             style="fill:#ffffff;fill-opacity:1;fill-rule:evenodd;stroke:none"
             d="m 0,0 h 8.178 l 0.049,-6.362 c 0,0 -0.356,-3.86 -4.121,-3.86 C 0.293,-10.222 0,-6.443 0,-6.443 Z" /></g><g
           transform="translate(138.7139,273.8457)"
           id="g1243"><path
             id="path1245"
             style="fill:#ffffff;fill-opacity:1;fill-rule:nonzero;stroke:none"
             d="M 0,0 C 0,20.759 16.831,37.594 37.591,37.594 H 38.08 V 22.846 H 37.604 C 24.973,22.846 14.745,12.627 14.745,0 c 0,-12.642 10.228,-22.868 22.859,-22.868 H 38.08 V -37.616 H 37.591 C 16.831,-37.616 0,-20.771 0,0" /></g><g
           transform="translate(187.0845,265.5674)"
           id="g1247"><path
             id="path1249"
             style="fill:#ffffff;fill-opacity:1;fill-rule:evenodd;stroke:none"
             d="M 0,0 H 8.191 L 8.23,-6.359 c 0,0 -0.349,-3.86 -4.126,-3.86 C 0.294,-10.226 0,-6.452 0,-6.452 Z" /></g><g
           transform="translate(187.0845,278.3174)"
           id="g1251"><path
             id="path1253"
             style="fill:#ffffff;fill-opacity:1;fill-rule:evenodd;stroke:none"
             d="M 0,0 H 8.191 L 8.23,-6.351 c 0,0 -0.349,-3.869 -4.126,-3.869 C 0.294,-10.22 0,-6.438 0,-6.438 Z" /></g><g
           transform="translate(197.4219,278.3174)"
           id="g1255"><path
             id="path1257"
             style="fill:#ffffff;fill-opacity:1;fill-rule:evenodd;stroke:none"
             d="m 0,0 h 8.191 l 0.026,-6.351 c 0,0 -0.346,-3.869 -4.11,-3.869 C 0.291,-10.22 0,-6.438 0,-6.438 Z" /></g><g
           transform="translate(176.7339,278.3174)"
           id="g1259"><path
             id="path1261"
             style="fill:#ffffff;fill-opacity:1;fill-rule:evenodd;stroke:none"
             d="m 0,0 h 8.211 l 0.043,-6.351 c 0,0 -0.343,-3.869 -4.133,-3.869 C 0.304,-10.22 0,-6.438 0,-6.438 Z" /></g><g
           transform="translate(187.0845,291.0654)"
           id="g1263"><path
             id="path1265"
             style="fill:#ffffff;fill-opacity:1;fill-rule:evenodd;stroke:none"
             d="M 0,0 H 8.191 L 8.23,-6.348 c 0,0 -0.349,-3.859 -4.126,-3.861 -3.81,0 -4.104,3.771 -4.104,3.771 z" /></g><g
           transform="translate(138.6777,273.8174)"
           id="g1267"><path
             id="path1269"
             style="fill:#ffffff;fill-opacity:1;fill-rule:nonzero;stroke:none"
             d="m 0,0 c 0,20.77 16.828,37.622 37.587,37.622 0.169,0 0.337,0 0.49,-0.013 V 22.864 c -0.153,0 -0.321,0.01 -0.47,0.01 C 24.969,22.874 14.721,12.632 14.721,0 c 0,-12.623 10.248,-22.859 22.886,-22.859 h 0.47 v -14.745 h -0.49 C 16.828,-37.604 0,-20.767 0,0" /></g><g
           transform="translate(231.3896,242.4932)"
           id="g1271"><path
             id="path1273"
             style="fill:#5788c2;fill-opacity:1;fill-rule:nonzero;stroke:none"
             d="m 0,0 -2.721,-7.844 h 5.364 z m 5.037,-15.21 -1.28,3.827 h -7.654 l -1.311,-3.827 h -4.39 L -1.746,6.361 H 1.551 L 9.427,-15.21 Z" /></g><g
           transform="translate(250.3286,227.1123)"
           id="g1275"><path
             id="path1277"
             style="fill:#5788c2;fill-opacity:1;fill-rule:nonzero;stroke:none"
             d="m 0,0 c -4.421,0 -7.93,2.992 -7.93,7.568 v 14.174 h 4.211 V 7.716 C -3.719,5.207 -2.301,3.75 0,3.75 c 2.299,0 3.75,1.457 3.75,3.966 V 21.742 H 7.944 V 7.568 C 7.944,2.992 4.42,0 0,0" /></g><g
           transform="translate(270.4438,245.0977)"
           id="g1279"><path
             id="path1281"
             style="fill:#5788c2;fill-opacity:1;fill-rule:nonzero;stroke:none"
             d="M 0,0 V -17.814 H -4.204 V 0 H -9.847 V 3.757 H 5.637 V 0 Z" /></g><g
           transform="translate(278.7471,227.2832)"
           id="g1283"><path
             id="path1285"
             style="fill:#5788c2;fill-opacity:1;fill-rule:nonzero;stroke:none"
             d="M 0,0 V 21.571 H 14.206 V 17.814 H 4.21 v -5.06 h 8.513 V 9.005 H 4.21 v -5.24 h 9.996 V 0 Z" /></g><g
           transform="translate(309.0771,227.2832)"
           id="g1287"><path
             id="path1289"
             style="fill:#5788c2;fill-opacity:1;fill-rule:nonzero;stroke:none"
             d="M 0,0 -8.546,13.239 V 0 h -4.211 v 21.571 h 3.75 L -0.469,8.364 V 21.571 H 3.742 V 0 Z" /></g><g
           transform="translate(325.3398,245.0977)"
           id="g1291"><path
             id="path1293"
             style="fill:#5788c2;fill-opacity:1;fill-rule:nonzero;stroke:none"
             d="M 0,0 V -17.814 H -4.21 V 0 H -9.847 V 3.757 H 5.63 V 0 Z" /></g><path
           id="path1295"
           style="fill:#5788c2;fill-opacity:1;fill-rule:nonzero;stroke:none"
           d="m 333.644,248.854 h 4.203 v -21.571 h -4.203 z" /><g
           transform="translate(349.3291,227.1123)"
           id="g1297"><path
             id="path1299"
             style="fill:#5788c2;fill-opacity:1;fill-rule:nonzero;stroke:none"
             d="m 0,0 c -2.392,0 -4.262,0.81 -5.808,2.36 -2.184,2.17 -2.127,4.882 -2.127,8.593 0,3.727 -0.057,6.424 2.127,8.609 1.546,1.542 3.416,2.362 5.808,2.362 4.001,0 7.215,-2.307 7.938,-6.821 H 3.666 c -0.462,1.729 -1.475,3.053 -3.624,3.053 -1.188,0 -2.1,-0.418 -2.7,-1.105 -0.824,-0.92 -1.059,-1.917 -1.059,-6.098 0,-4.18 0.235,-5.178 1.059,-6.082 0.6,-0.702 1.512,-1.121 2.7,-1.121 2.149,0 3.162,1.331 3.624,3.055 H 7.938 C 7.215,2.298 4.001,0 0,0" /></g><g
           transform="translate(367.084,242.4932)"
           id="g1301"><path
             id="path1303"
             style="fill:#5788c2;fill-opacity:1;fill-rule:nonzero;stroke:none"
             d="m 0,0 -2.729,-7.844 h 5.363 z m 5.033,-15.21 -1.276,3.827 H -3.907 L -5.208,-15.21 H -9.606 L -1.747,6.361 H 1.544 L 9.423,-15.21 Z" /></g><g
           transform="translate(385.748,221.0459)"
           id="g1305"><path
             id="path1307"
             style="fill:#5788c2;fill-opacity:1;fill-rule:nonzero;stroke:none"
             d="m 0,0 h -3.663 l 2.079,4.421 h 2.908 z m -0.431,6.066 c -2.389,0 -4.261,0.81 -5.805,2.361 -2.186,2.17 -2.124,4.882 -2.124,8.593 0,3.726 -0.062,6.423 2.124,8.608 1.544,1.543 3.416,2.362 5.805,2.362 4.003,0 7.211,-2.306 7.946,-6.821 H 3.242 c -0.46,1.729 -1.487,3.054 -3.641,3.054 -1.185,0 -2.087,-0.418 -2.689,-1.106 -0.829,-0.92 -1.061,-1.917 -1.061,-6.097 0,-4.18 0.232,-5.178 1.061,-6.082 0.602,-0.703 1.504,-1.122 2.689,-1.122 2.154,0 3.181,1.331 3.641,3.055 H 7.515 C 6.78,8.364 3.572,6.066 -0.431,6.066" /></g><g
           transform="translate(403.3779,242.4932)"
           id="g1309"><path
             id="path1311"
             style="fill:#5788c2;fill-opacity:1;fill-rule:nonzero;stroke:none"
             d="m 0,0 -2.729,-7.844 h 5.364 z m 1.877,8.78 c -0.881,0 -1.481,0.218 -2.333,0.695 -0.581,0.335 -1.098,0.551 -1.699,0.551 -0.505,0 -0.966,-0.062 -1.785,-0.88 l -1.701,1.723 c 1.343,1.342 2.217,1.793 3.401,1.793 0.934,0 1.483,-0.186 2.324,-0.701 0.618,-0.358 1.062,-0.545 1.67,-0.545 0.512,0 0.966,0.063 1.793,0.873 L 5.309,10.573 C 3.966,9.232 3.054,8.78 1.877,8.78 m 3.147,-23.99 -1.275,3.827 H -3.909 L -5.21,-15.21 H -9.6 L -1.755,6.361 H 1.539 L 9.415,-15.21 Z" /></g><g
           transform="translate(424.3389,244.1318)"
           id="g1313"><path
             id="path1315"
             style="fill:#5788c2;fill-opacity:1;fill-rule:nonzero;stroke:none"
             d="m 0,0 c -0.605,0.686 -1.518,1.137 -2.696,1.137 -1.183,0 -2.119,-0.451 -2.729,-1.137 -0.818,-0.889 -1.028,-1.933 -1.028,-6.066 0,-4.119 0.21,-5.178 1.028,-6.051 0.61,-0.7 1.546,-1.153 2.729,-1.153 1.178,0 2.091,0.453 2.696,1.153 0.812,0.904 1.065,1.902 1.065,6.051 C 1.065,-1.917 0.812,-0.919 0,0 m 3.12,-14.659 c -1.55,-1.551 -3.367,-2.361 -5.816,-2.361 -2.447,0 -4.305,0.81 -5.845,2.361 -2.177,2.17 -2.124,4.882 -2.124,8.593 0,3.726 -0.053,6.423 2.124,8.608 1.54,1.543 3.398,2.362 5.845,2.362 2.449,0 4.266,-0.819 5.816,-2.362 2.183,-2.185 2.152,-4.882 2.152,-8.608 0,-3.711 0.031,-6.423 -2.152,-8.593" /></g><path
           id="path1317"
           style="fill:#5788c2;fill-opacity:1;fill-rule:nonzero;stroke:none"
           d="m 433.519,229.527 h 2.236 v -2.244 h -2.236 z" /><g
           transform="translate(453.4229,229.583)"
           id="g1319"><path
             id="path1321"
             style="fill:#5788c2;fill-opacity:1;fill-rule:nonzero;stroke:none"
             d="m 0,0 c -1.417,-1.565 -3.494,-2.471 -5.66,-2.471 -2.069,0 -3.97,0.779 -5.394,2.198 -1.975,1.971 -2.007,3.914 -2.007,8.755 0,4.881 0.032,6.786 2.007,8.749 1.424,1.426 3.325,2.222 5.394,2.222 3.75,0 6.719,-2.519 7.36,-6.309 H 0.053 c -0.627,3.004 -2.813,4.852 -5.713,4.852 -1.553,0 -3.012,-0.579 -4.095,-1.669 -1.543,-1.538 -1.668,-3.246 -1.668,-7.845 0,-4.598 0.125,-6.291 1.668,-7.843 1.083,-1.091 2.542,-1.669 4.095,-1.669 1.692,0 3.353,0.733 4.476,2.09 0.935,1.185 1.307,2.431 1.307,4.273 V 7.266 H -5.66 V 8.73 H 1.753 V 5.206 C 1.753,2.94 1.311,1.372 0,0" /></g><g
           transform="translate(470.8096,245.9102)"
           id="g1323"><path
             id="path1325"
             style="fill:#5788c2;fill-opacity:1;fill-rule:nonzero;stroke:none"
             d="M 0,0 C -1.09,1.09 -2.542,1.669 -4.085,1.669 -5.631,1.669 -7.094,1.09 -8.177,0 c -1.552,-1.538 -1.661,-3.246 -1.661,-7.845 0,-4.598 0.109,-6.291 1.661,-7.843 1.083,-1.091 2.546,-1.669 4.092,-1.669 1.543,0 2.995,0.578 4.085,1.669 1.546,1.552 1.671,3.245 1.671,7.843 C 1.671,-3.246 1.546,-1.538 0,0 m 1.309,-16.601 c -1.431,-1.419 -3.334,-2.197 -5.394,-2.197 -2.058,0 -3.976,0.778 -5.396,2.197 -1.964,1.972 -1.996,3.914 -1.996,8.756 0,4.881 0.032,6.785 1.996,8.749 1.42,1.426 3.338,2.222 5.396,2.222 2.06,0 3.963,-0.796 5.394,-2.222 1.964,-1.964 1.999,-3.868 1.999,-8.749 0,-4.842 -0.035,-6.784 -1.999,-8.756" /></g><g
           transform="translate(484.3125,227.2832)"
           id="g1327"><path
             id="path1329"
             style="fill:#5788c2;fill-opacity:1;fill-rule:nonzero;stroke:none"
             d="m 0,0 h -1.382 l -7.094,21.571 h 1.731 L -0.686,2.884 5.372,21.571 h 1.724 z" /></g><path
           id="path1331"
           style="fill:#5788c2;fill-opacity:1;fill-rule:nonzero;stroke:none"
           d="m 491.408,229.527 h 2.246 v -2.244 h -2.246 z" /><g
           transform="translate(506.8281,247.3975)"
           id="g1333"><path
             id="path1335"
             style="fill:#5788c2;fill-opacity:1;fill-rule:nonzero;stroke:none"
             d="M 0,0 H -6.085 V -9.503 H 0 c 3.004,0 5.062,1.504 5.062,4.739 C 5.062,-1.519 3.004,0 0,0 m 0.183,-10.97 h -6.268 v -9.144 h -1.64 V 1.457 h 7.908 c 3.733,0 6.508,-2.242 6.508,-6.221 0,-3.927 -2.775,-6.206 -6.508,-6.206" /></g><g
           transform="translate(523.0947,247.3975)"
           id="g1337"><path
             id="path1339"
             style="fill:#5788c2;fill-opacity:1;fill-rule:nonzero;stroke:none"
             d="M 0,0 V -20.114 H -1.63 V 0 H -8.055 V 1.457 H 6.455 V 0 Z" /></g><text
           id="text1343"
           style="font-variant:normal;font-weight:normal;font-stretch:normal;font-size:10.55060005px;font-family:AauxBold;-inkscape-font-specification:AauxBold;writing-mode:lr-tb;fill:#5788c2;fill-opacity:1;fill-rule:nonzero;stroke:none"
           transform="matrix(1,0,0,-1,273.8052,208.0381)"><tspan
             id="tspan1341"
             y="0"
             x="0 3.0702245 6.277607 13.388711 20.183298 26.397602 33.255489 39.754662 42.592773 49.703876 52.911259 58.492527 65.60363 72.208305 79.319412 82.526794 89.637901 92.845284 100.73713 107.76383 114.61117 120.82547 127.43015 134.28804 137.12614 143.46706 150.57817 157.07733 164.18843 171.21513 174.42252 181.53363 188.38097 196.27281 199.11092 205.96881 208.80693 215.4538 221.40434 228.00902 234.06506 240.01559 242.85371 248.38223">| AGÊNCIA PARA A MODERNIZAÇÃO ADMINISTRATIVA</tspan></text>
</g></g></g></svg>