<?xml version="1.0" encoding="utf-8"?>
<!-- Generator: Adobe Illustrator 24.0.1, SVG Export Plug-In . SVG Version: 6.00 Build 0)  -->
<svg version="1.1" id="Layer_1" xmlns="http://www.w3.org/2000/svg" xmlns:xlink="http://www.w3.org/1999/xlink" x="0px" y="0px"
	 viewBox="0 0 165.59 37.11" style="enable-background:new 0 0 165.59 37.11;" xml:space="preserve">
<style type="text/css">
	.st0{fill:#FFFFFF;}
	.st1{fill:#222E5E;}
	.st2{fill:#FFCE00;}
	.st3{fill:#6B4021;}
	.st4{fill:#E4230B;}
	.st5{fill:#1D1D1B;}
	.st6{fill:#1E3565;}
	.st7{fill-rule:evenodd;clip-rule:evenodd;fill:#FEE200;}
	.st8{fill-rule:evenodd;clip-rule:evenodd;fill:#1D1D1B;}
</style>
<g>
	<g>
		<g>
			<rect x="0.38" y="0.38" class="st0" width="54.16" height="36.36"/>
			<path class="st0" d="M54.16,0.75v35.61H0.75V0.75H54.16 M54.92,0h-0.75H0.75H0v0.75v35.61v0.75h0.75h53.41h0.75v-0.75V0.75V0
				L54.92,0z"/>
		</g>
		<rect x="0.75" y="0.75" class="st1" width="21.36" height="35.61"/>
		<g>
			<polygon class="st2" points="22.5,9.87 23.11,9.42 22.35,9.42 22.12,8.7 21.88,9.42 21.13,9.42 21.74,9.87 21.51,10.58 
				22.12,10.14 22.73,10.58 			"/>
			<path class="st3" d="M22.76,10.63l-0.64-0.46l-0.64,0.46l0.24-0.75l-0.64-0.47l0.79,0l0.24-0.75l0.24,0.75l0.79,0l-0.64,0.47
				L22.76,10.63z M21.18,9.44l0.58,0.42l-0.22,0.68l0.58-0.42l0.58,0.42l-0.22-0.68l0.58-0.42l-0.72,0l-0.22-0.68L21.9,9.44
				L21.18,9.44z"/>
		</g>
		<g>
			<polygon class="st2" points="11.94,15.44 12.65,15.19 11.93,14.97 11.92,14.22 11.49,14.84 10.76,14.61 11.22,15.22 10.78,15.84 
				11.5,15.59 11.95,16.19 			"/>
			<path class="st3" d="M11.97,16.24l-0.48-0.63l-0.75,0.26l0.46-0.65l-0.48-0.63l0.76,0.23l0.46-0.65l0.01,0.79l0.76,0.23
				l-0.75,0.26L11.97,16.24z M11.5,15.57l0.43,0.57l-0.01-0.72l0.68-0.23l-0.68-0.21l-0.01-0.72l-0.41,0.59l-0.69-0.21l0.43,0.57
				l-0.41,0.59L11.5,15.57z"/>
		</g>
		<g>
			<polygon class="st2" points="13.93,13.22 14.68,13.15 14.03,12.77 14.2,12.03 13.63,12.53 12.98,12.14 13.28,12.84 12.71,13.34 
				13.46,13.27 13.76,13.96 			"/>
			<path class="st3" d="M13.76,14.01l-0.31-0.73l-0.79,0.07l0.6-0.52l-0.31-0.73l0.68,0.41l0.6-0.52l-0.18,0.77l0.68,0.4l-0.79,0.07
				L13.76,14.01z M13.47,13.25l0.28,0.66l0.16-0.7l0.01,0l0.7-0.06l-0.61-0.37l0-0.01l0.16-0.69l-0.54,0.47l-0.62-0.37l0.28,0.66
				l-0.01,0.01l-0.53,0.47L13.47,13.25z"/>
		</g>
		<g>
			<polygon class="st2" points="16.38,11.54 17.13,11.66 16.59,11.13 16.93,10.45 16.26,10.8 15.72,10.27 15.84,11.01 15.17,11.36 
				15.92,11.47 16.04,12.22 			"/>
			<path class="st3" d="M16.04,12.27l-0.13-0.78l-0.79-0.12l0.7-0.37l-0.13-0.78l0.57,0.56l0.7-0.37l-0.35,0.71l0.56,0.55
				l-0.78-0.12L16.04,12.27z M15.22,11.35l0.71,0.11l0.12,0.71l0.32-0.64l0.71,0.11l-0.51-0.5l0.32-0.64l-0.64,0.33l-0.51-0.5
				l0.12,0.71L15.22,11.35z"/>
		</g>
		<g>
			<polygon class="st2" points="19.47,10.14 19.96,9.57 19.22,9.74 18.82,9.1 18.77,9.85 18.03,10.03 18.73,10.32 18.68,11.07 
				19.17,10.5 19.86,10.78 			"/>
			<path class="st3" d="M18.66,11.12l0.06-0.79l-0.74-0.3l0.77-0.19l0.06-0.79l0.42,0.67L20,9.54l-0.51,0.6l0.42,0.67l-0.73-0.3
				L18.66,11.12z M18.08,10.04l0.67,0.27l-0.05,0.71l0.46-0.55l0.66,0.27l-0.38-0.61l0.46-0.55l-0.7,0.17l-0.38-0.61l-0.05,0.72
				l-0.01,0L18.08,10.04z"/>
		</g>
		<g>
			<polygon class="st2" points="25.5,10.32 26.2,10.04 25.47,9.86 25.41,9.1 25.02,9.74 24.28,9.56 24.77,10.14 24.37,10.78 
				25.07,10.5 25.56,11.07 			"/>
			<path class="st3" d="M25.58,11.12l-0.51-0.6l-0.73,0.3l0.42-0.67l-0.51-0.61l0.77,0.19l0.42-0.67l0.06,0.79l0.77,0.19l-0.73,0.3
				L25.58,11.12z M25.08,10.48l0.46,0.55l-0.05-0.71l0.66-0.27l-0.7-0.17L25.4,9.15l-0.38,0.61l-0.7-0.17l0.46,0.55l-0.38,0.61
				L25.08,10.48z"/>
		</g>
		<g>
			<polygon class="st2" points="28.32,11.48 29.06,11.37 28.39,11.02 28.52,10.27 27.98,10.8 27.31,10.45 27.65,11.13 27.11,11.66 
				27.86,11.55 28.19,12.22 			"/>
			<path class="st3" d="M28.2,12.27l-0.35-0.71l-0.78,0.12l0.56-0.56l-0.35-0.71l0.7,0.37l0.57-0.56l-0.13,0.78l0.7,0.37l-0.78,0.12
				L28.2,12.27z M27.86,11.53l0.01,0.01l0.31,0.63l0.12-0.71l0.71-0.11l-0.64-0.33l0-0.01l0.12-0.7l-0.51,0.5l-0.01-0.01l-0.63-0.33
				l0.32,0.64l-0.51,0.5L27.86,11.53z"/>
		</g>
		<g>
			<polygon class="st2" points="30.77,13.27 31.53,13.34 30.96,12.84 31.26,12.15 30.61,12.53 30.04,12.03 30.21,12.77 29.56,13.16 
				30.31,13.23 30.48,13.96 			"/>
			<path class="st3" d="M30.47,14.01l-0.17-0.77l-0.79-0.07l0.68-0.4l-0.18-0.78l0.6,0.52l0.68-0.41l-0.31,0.73l0.6,0.52l-0.79-0.07
				L30.47,14.01z M29.61,13.14l0.71,0.07l0.16,0.7l0.28-0.66l0.01,0l0.7,0.07l-0.54-0.47l0-0.01l0.28-0.65l-0.62,0.37l-0.01-0.01
				l-0.53-0.47l0.16,0.7l-0.01,0.01L29.61,13.14z"/>
		</g>
		<g>
			<polygon class="st2" points="33.02,15.22 33.47,14.62 32.75,14.84 32.32,14.22 32.3,14.97 31.58,15.19 32.3,15.44 32.28,16.19 
				32.74,15.59 33.45,15.84 			"/>
			<path class="st3" d="M32.27,16.24l0.01-0.79l-0.75-0.26l0.76-0.23l0.01-0.79l0.45,0.65l0.76-0.23l-0.48,0.63l0.45,0.65
				l-0.75-0.26L32.27,16.24z M31.63,15.2l0.68,0.23l0,0.01l-0.01,0.7l0.43-0.57l0.68,0.23L33,15.22l0.43-0.57l-0.69,0.21l-0.01-0.01
				l-0.4-0.58l-0.01,0.72l-0.01,0L31.63,15.2z"/>
		</g>
		<g>
			<g>
				<path class="st2" d="M21.3,19.58c0.4-1.04,1.23-1.11,1.71-1.69c0.19-0.23,0.65-0.13,0.97-0.2c0.31-0.07,0.41,0.07,0.44,0.36
					c0.57-0.02,0.56,0.22,0.5,0.46c-0.02-0.1-0.28-0.11-0.41-0.1c0,0.21-0.15,0.22-0.38,0.28c-0.18,0.05-0.21,0.33-0.22,0.53
					c0.5,0.01,0.95-0.44,1.41-0.93c0.46-0.49,1.21-0.92,2.43-0.85c1.48,0.08,4.41,0.13,5.39-0.16c0.98-0.29,1.2,0.12,0.48,0.58
					c0.08,0.18-0.11,0.5-0.46,0.64c0.17,0.2-0.1,0.48-0.61,0.68c0.02,0.32-0.49,0.7-1.15,0.76c0.17,0.41-0.83,0.77-1.91,0.7
					c0.11,0.16-0.25,0.43-0.66,0.43c0.14,0.17-0.23,0.36-0.49,0.37c0.16,0.14-0.61,0.37-1.02,0.29c0.01,0.14-0.44,0.25-0.74,0.18
					c-0.04,0.13-0.36,0.18-0.55,0.05c-0.05,0.13-0.28,0.16-0.48,0.02c-0.13,0.13-0.36,0.12-0.49-0.04
					c-0.08,0.14-0.29,0.19-0.43,0.01c-0.12,0.16-0.29,0.11-0.42-0.05c-0.02,0.14-0.45,0.38-0.69-0.48
					c-0.06,0.41-0.17,0.66-0.27,0.83c0.08,0.25,0.13,0.8,0.11,1.29c0.07,0.48,0.29,1.18,0.43,1.62c0.14,0.44-0.08,0.4-0.2,0.33
					c0.02,0.06,0.02,0.14,0,0.23c-0.05-0.06-0.17-0.16-0.28-0.16c0,0.07-0.03,0.13-0.09,0.2c-0.11-0.14-0.23-0.32-0.36-0.32
					c-0.13,0.03-0.38,0.16-0.46,0.37c-0.02-0.05-0.04-0.12-0.04-0.18c-0.1,0.08-0.39,0.09-0.45-0.01c0,0.04-0.01,0.09-0.02,0.15
					c-0.05-0.07-0.16-0.18-0.28-0.18c0,0.07-0.03,0.14-0.09,0.2c-0.11-0.15-0.24-0.28-0.37-0.29c-0.13,0.02-0.39,0.14-0.47,0.35
					c-0.04-0.1-0.06-0.25,0.01-0.37c-0.08-0.01-0.16-0.05-0.13-0.15c-0.23,0.4-0.53,0.31-0.65,0.12c-0.24,0.26-0.73,0.11-0.52-0.23
					c0.86-1.35,0.97-1.78,1.21-2.49c0.09-0.28,0.04-0.72,0.17-1.14c-0.3,0.53-0.67,0.61-0.76,0.49c-0.1,0.12-0.42,0.24-0.5,0.05
					c-0.1,0.07-0.31,0.07-0.4-0.02c-0.16,0.12-0.38,0.13-0.42,0.02c-0.16,0.1-0.48,0.08-0.54-0.02c-0.24,0.2-0.77,0.1-0.74-0.2
					c-0.56,0.26-1.07,0.12-1.04-0.16c-0.34,0.04-0.53-0.13-0.5-0.29c-0.36,0.02-0.58-0.2-0.52-0.44c-0.77,0.07-2.68-0.16-2.55-0.76
					c-0.54-0.1-1.35-0.49-1.08-0.8c-0.35-0.1-0.74-0.38-0.71-0.66c-0.49-0.11-0.59-0.52-0.43-0.6c-0.47-0.16-0.54-0.75,0.28-0.54
					c1.14,0.29,4.2,0.24,5.86,0.14c1.66-0.1,1.65,0.35,3.1,1.37C20.44,19.63,20.99,19.52,21.3,19.58L21.3,19.58z"/>
				<path class="st3" d="M20.64,25.86c-0.01,0-0.01,0-0.01-0.01c-0.04-0.1-0.06-0.25,0-0.37c-0.05-0.01-0.09-0.03-0.11-0.06
					c-0.01-0.01-0.01-0.02-0.02-0.04c-0.13,0.19-0.26,0.23-0.35,0.24c0,0,0,0-0.01,0c-0.11,0-0.21-0.06-0.28-0.15
					c-0.15,0.15-0.38,0.15-0.5,0.06c-0.1-0.07-0.11-0.2-0.02-0.32c0.79-1.23,0.95-1.69,1.15-2.32c0.02-0.05,0.04-0.11,0.06-0.17
					c0.04-0.13,0.05-0.29,0.07-0.47c0.01-0.17,0.03-0.37,0.07-0.56c-0.21,0.32-0.44,0.44-0.58,0.45c-0.06,0-0.1-0.01-0.13-0.04
					c-0.08,0.08-0.24,0.16-0.37,0.14c-0.06-0.01-0.11-0.04-0.14-0.09c-0.1,0.06-0.3,0.06-0.39-0.03c-0.11,0.08-0.25,0.11-0.35,0.08
					c-0.04-0.01-0.06-0.03-0.08-0.06c-0.12,0.06-0.3,0.07-0.42,0.04c-0.05-0.01-0.09-0.04-0.12-0.06c-0.16,0.13-0.42,0.12-0.59,0.04
					c-0.11-0.06-0.17-0.14-0.17-0.24c-0.41,0.18-0.77,0.15-0.93,0.03c-0.07-0.05-0.11-0.12-0.11-0.2c-0.19,0.02-0.35-0.03-0.44-0.13
					c-0.05-0.05-0.07-0.11-0.07-0.16c-0.19,0.01-0.35-0.05-0.44-0.17c-0.07-0.08-0.09-0.18-0.07-0.28c-0.66,0.06-2.1-0.1-2.46-0.51
					c-0.07-0.08-0.1-0.16-0.08-0.25c-0.4-0.07-1.01-0.33-1.12-0.61c-0.03-0.07-0.02-0.14,0.03-0.2c-0.36-0.11-0.72-0.39-0.7-0.66
					c-0.31-0.07-0.47-0.27-0.5-0.44c-0.01-0.07,0.01-0.13,0.05-0.17c-0.24-0.09-0.36-0.3-0.32-0.43c0.02-0.06,0.12-0.26,0.63-0.13
					c1.13,0.29,4.19,0.24,5.86,0.14c1.26-0.07,1.56,0.16,2.27,0.73c0.23,0.18,0.49,0.39,0.84,0.64c0.49,0.34,0.93,0.37,1.24,0.39
					c0.1,0.01,0.19,0.01,0.26,0.02c0.25-0.65,0.67-0.92,1.07-1.18c0.23-0.15,0.45-0.29,0.63-0.5c0.13-0.15,0.38-0.16,0.62-0.17
					c0.12,0,0.25-0.01,0.36-0.03c0.14-0.03,0.24-0.02,0.32,0.03c0.08,0.06,0.12,0.16,0.14,0.33c0.24-0.01,0.4,0.03,0.47,0.12
					c0.08,0.09,0.06,0.23,0.03,0.36c0,0.01-0.01,0.01-0.02,0.01c0,0,0,0,0,0c-0.01,0-0.01-0.01-0.02-0.01
					c-0.02-0.08-0.24-0.1-0.38-0.09c-0.01,0.19-0.13,0.22-0.32,0.26c-0.02,0.01-0.05,0.01-0.08,0.02c-0.13,0.03-0.2,0.2-0.2,0.5
					c0,0,0,0,0,0c0.48,0,0.91-0.42,1.37-0.92c0.58-0.63,1.4-0.92,2.44-0.86c1.57,0.09,4.42,0.13,5.39-0.16
					c0.49-0.14,0.84-0.13,0.91,0.04c0.06,0.14-0.09,0.35-0.41,0.56c0.02,0.06,0.02,0.14-0.01,0.23c-0.07,0.17-0.23,0.33-0.44,0.41
					c0.04,0.06,0.05,0.12,0.03,0.18c-0.04,0.17-0.28,0.36-0.65,0.51c0.01,0.34-0.53,0.7-1.15,0.76c0.03,0.08,0.01,0.16-0.04,0.24
					c-0.22,0.31-1.03,0.51-1.86,0.46c0.01,0.04,0.01,0.08-0.01,0.12c-0.07,0.14-0.34,0.3-0.64,0.31c0.02,0.04,0.02,0.08,0.01,0.12
					c-0.06,0.13-0.3,0.24-0.5,0.25c0.01,0.02,0.01,0.04,0,0.06c-0.07,0.14-0.68,0.3-1.03,0.23c0,0.02-0.02,0.05-0.05,0.07
					c-0.12,0.11-0.47,0.16-0.7,0.11c-0.02,0.04-0.06,0.07-0.12,0.1c-0.12,0.04-0.3,0.04-0.44-0.04c-0.02,0.04-0.06,0.07-0.11,0.09
					c-0.11,0.04-0.25,0.01-0.37-0.07c-0.06,0.06-0.15,0.09-0.24,0.09c-0.09,0-0.19-0.05-0.25-0.12c-0.05,0.07-0.12,0.11-0.2,0.12
					c-0.09,0-0.17-0.03-0.23-0.11c-0.05,0.06-0.11,0.09-0.17,0.09c0,0,0,0,0,0c-0.08,0-0.16-0.05-0.24-0.13
					c-0.03,0.06-0.11,0.12-0.2,0.13c-0.12,0.01-0.33-0.06-0.49-0.57c-0.06,0.38-0.18,0.61-0.26,0.76c0.08,0.25,0.13,0.8,0.11,1.28
					c0.07,0.48,0.29,1.19,0.42,1.62c0.06,0.2,0.06,0.32,0,0.37c-0.06,0.04-0.14,0.02-0.19-0.01c0.01,0.06,0.01,0.13-0.01,0.2
					c0,0.01-0.01,0.01-0.01,0.01c-0.01,0-0.01,0-0.02-0.01c-0.05-0.06-0.16-0.15-0.25-0.15c-0.01,0.07-0.04,0.13-0.09,0.19
					c0,0-0.01,0.01-0.01,0.01c0,0-0.01,0-0.01-0.01c-0.02-0.02-0.03-0.04-0.05-0.06c-0.1-0.12-0.2-0.25-0.3-0.25
					c-0.13,0.03-0.37,0.15-0.44,0.36c0,0.01-0.01,0.01-0.01,0.01c-0.01,0-0.01,0-0.02-0.01c-0.02-0.05-0.04-0.1-0.04-0.16
					c-0.07,0.04-0.2,0.06-0.3,0.04c-0.04-0.01-0.09-0.02-0.12-0.04c0,0.03-0.01,0.07-0.02,0.11c0,0.01-0.01,0.01-0.01,0.01
					c-0.01,0-0.01,0-0.02-0.01c-0.04-0.06-0.14-0.16-0.25-0.17c-0.01,0.08-0.04,0.14-0.09,0.19c0,0-0.01,0.01-0.01,0
					c0,0-0.01,0-0.01-0.01c-0.13-0.18-0.25-0.28-0.36-0.28c-0.13,0.02-0.38,0.14-0.46,0.34C20.66,25.86,20.65,25.86,20.64,25.86
					C20.65,25.86,20.64,25.86,20.64,25.86z M20.52,25.31C20.53,25.31,20.53,25.31,20.52,25.31c0.01,0,0.02,0.01,0.02,0.02
					c-0.01,0.03-0.01,0.06,0.01,0.08c0.02,0.03,0.06,0.05,0.11,0.05c0.01,0,0.01,0,0.01,0.01c0,0,0,0.01,0,0.02
					c-0.06,0.1-0.05,0.23-0.02,0.32c0.1-0.19,0.33-0.29,0.47-0.32c0.12,0.01,0.24,0.1,0.38,0.28c0.04-0.05,0.07-0.11,0.07-0.18
					c0-0.01,0.01-0.02,0.02-0.02c0.11,0.01,0.21,0.09,0.27,0.16c0.01-0.04,0.01-0.08,0.01-0.11c0-0.01,0-0.01,0.01-0.02
					c0.01,0,0.01,0,0.02,0.01c0.02,0.03,0.06,0.05,0.12,0.06c0.11,0.02,0.25-0.01,0.3-0.05c0,0,0.01,0,0.02,0
					c0.01,0,0.01,0.01,0.01,0.01c0,0.05,0.01,0.1,0.02,0.14c0.09-0.19,0.32-0.31,0.45-0.34c0,0,0,0,0,0c0.13,0,0.23,0.14,0.33,0.27
					c0.01,0.01,0.02,0.03,0.03,0.04c0.04-0.05,0.07-0.11,0.07-0.17c0-0.01,0.01-0.02,0.02-0.02c0.1,0,0.21,0.08,0.27,0.14
					c0.01-0.07,0.01-0.14,0-0.19c0-0.01,0-0.01,0.01-0.02c0.01,0,0.01,0,0.02,0c0.03,0.02,0.13,0.07,0.19,0.03
					c0.04-0.03,0.06-0.11-0.01-0.34c-0.13-0.43-0.35-1.14-0.43-1.62c0.02-0.48-0.03-1.03-0.11-1.28c0,0,0-0.01,0-0.01
					c0.09-0.15,0.21-0.4,0.27-0.82c0-0.01,0.01-0.01,0.01-0.01c0.01,0,0.01,0,0.02,0.01c0.16,0.57,0.38,0.62,0.47,0.61
					c0.1-0.01,0.17-0.08,0.18-0.13c0-0.01,0.01-0.01,0.01-0.01c0.01,0,0.01,0,0.02,0.01c0.08,0.09,0.16,0.14,0.24,0.14
					c0.06,0,0.11-0.03,0.16-0.09c0,0,0.01-0.01,0.01-0.01c0,0,0.01,0,0.01,0.01c0.06,0.08,0.14,0.12,0.22,0.11
					c0.08-0.01,0.15-0.05,0.19-0.12c0,0,0.01-0.01,0.01-0.01c0.01,0,0.01,0,0.01,0.01c0.06,0.07,0.15,0.12,0.24,0.12
					c0.09,0,0.17-0.03,0.23-0.09c0.01-0.01,0.01-0.01,0.02,0c0.12,0.08,0.26,0.11,0.36,0.07c0.05-0.02,0.08-0.05,0.1-0.09
					c0,0,0.01-0.01,0.01-0.01c0,0,0.01,0,0.01,0c0.13,0.09,0.31,0.09,0.42,0.05c0.06-0.02,0.09-0.05,0.1-0.09
					c0-0.01,0.01-0.01,0.02-0.01c0.25,0.06,0.58-0.01,0.69-0.1c0.03-0.02,0.04-0.04,0.04-0.06c0-0.01,0-0.01,0.01-0.01
					c0,0,0.01,0,0.01,0c0.36,0.07,0.95-0.09,1.02-0.21c0.01-0.02,0.01-0.03-0.01-0.05c0,0-0.01-0.01,0-0.02
					c0-0.01,0.01-0.01,0.01-0.01c0.19-0.01,0.45-0.11,0.5-0.24c0.02-0.04,0.01-0.07-0.02-0.11c0,0-0.01-0.01,0-0.02
					c0-0.01,0.01-0.01,0.01-0.01c0.3,0,0.57-0.15,0.65-0.29c0.02-0.05,0.02-0.08,0-0.12c0-0.01,0-0.01,0-0.02s0.01-0.01,0.02-0.01
					c0.82,0.05,1.64-0.14,1.86-0.45c0.05-0.08,0.07-0.15,0.03-0.23c0,0,0-0.01,0-0.01c0,0,0.01-0.01,0.01-0.01
					c0.56-0.05,1.17-0.38,1.14-0.74c0-0.01,0-0.01,0.01-0.02c0.36-0.14,0.6-0.33,0.65-0.49c0.02-0.06,0-0.12-0.04-0.17
					c0,0,0-0.01,0-0.01c0-0.01,0-0.01,0.01-0.01c0.2-0.08,0.37-0.23,0.44-0.4c0.03-0.08,0.04-0.16,0.01-0.22
					c0-0.01,0-0.02,0.01-0.02c0.31-0.2,0.46-0.4,0.41-0.52c-0.05-0.11-0.31-0.19-0.87-0.02c-0.97,0.28-3.82,0.25-5.4,0.16
					c-1.03-0.06-1.84,0.23-2.41,0.85c-0.47,0.51-0.91,0.93-1.4,0.93c-0.01,0-0.01,0-0.02,0c-0.01,0-0.02-0.01-0.02-0.02
					c0.01-0.33,0.08-0.51,0.23-0.55c0.03-0.01,0.05-0.01,0.08-0.02c0.19-0.05,0.29-0.07,0.29-0.24c0-0.01,0.01-0.02,0.01-0.02
					c0.07-0.01,0.32-0.01,0.4,0.07c0.02-0.12,0.03-0.22-0.03-0.29c-0.07-0.09-0.22-0.12-0.46-0.11c-0.01,0-0.02-0.01-0.02-0.01
					c-0.02-0.17-0.06-0.27-0.13-0.32c-0.06-0.05-0.16-0.06-0.29-0.03c-0.11,0.02-0.24,0.03-0.36,0.03c-0.23,0.01-0.48,0.02-0.6,0.16
					c-0.18,0.21-0.4,0.36-0.64,0.51c-0.4,0.26-0.82,0.53-1.07,1.18c0,0.01-0.01,0.01-0.02,0.01c-0.08-0.02-0.17-0.02-0.27-0.03
					c-0.32-0.02-0.76-0.04-1.26-0.39c-0.35-0.25-0.61-0.46-0.84-0.64c-0.7-0.56-1-0.8-2.25-0.73c-1.66,0.1-4.73,0.14-5.87-0.14
					c-0.39-0.1-0.56-0.01-0.6,0.1c-0.04,0.13,0.09,0.32,0.33,0.41c0.01,0,0.01,0.01,0.01,0.01c0,0.01,0,0.01-0.01,0.02
					c-0.05,0.03-0.07,0.08-0.06,0.16c0.02,0.16,0.18,0.35,0.49,0.41c0.01,0,0.01,0.01,0.01,0.02c-0.03,0.26,0.34,0.54,0.7,0.64
					c0.01,0,0.01,0.01,0.01,0.01c0,0.01,0,0.01,0,0.02c-0.05,0.06-0.06,0.12-0.04,0.18c0.09,0.24,0.66,0.51,1.11,0.59
					c0,0,0.01,0,0.01,0.01c0,0,0,0.01,0,0.01c-0.02,0.08,0.01,0.17,0.07,0.24c0.16,0.18,0.55,0.33,1.12,0.42
					c0.46,0.08,1,0.11,1.34,0.07c0.01,0,0.01,0,0.01,0.01s0,0.01,0,0.01c-0.02,0.1,0,0.19,0.06,0.27c0.09,0.11,0.25,0.17,0.44,0.15
					c0,0,0.01,0,0.01,0.01c0,0,0,0.01,0,0.01c-0.01,0.05,0.01,0.11,0.06,0.16c0.09,0.09,0.25,0.13,0.43,0.11c0.01,0,0.01,0,0.01,0
					c0,0,0.01,0.01,0,0.01c-0.01,0.07,0.03,0.14,0.1,0.19c0.16,0.11,0.52,0.14,0.92-0.05c0.01,0,0.01,0,0.02,0
					c0,0,0.01,0.01,0.01,0.01c-0.01,0.13,0.09,0.2,0.15,0.23c0.15,0.08,0.41,0.08,0.57-0.04c0,0,0.01,0,0.01,0c0,0,0.01,0,0.01,0.01
					c0.02,0.03,0.05,0.05,0.11,0.06c0.12,0.03,0.3,0.02,0.41-0.05c0,0,0.01,0,0.01,0c0,0,0.01,0.01,0.01,0.01
					c0.01,0.03,0.04,0.05,0.06,0.05c0.09,0.03,0.23-0.01,0.33-0.09c0.01-0.01,0.02,0,0.02,0c0.08,0.09,0.28,0.09,0.37,0.02
					c0,0,0.01,0,0.01,0c0,0,0.01,0,0.01,0.01c0.02,0.05,0.06,0.08,0.13,0.09c0.12,0.02,0.29-0.06,0.35-0.14c0,0,0.01-0.01,0.01-0.01
					c0.01,0,0.01,0,0.01,0.01c0.02,0.03,0.06,0.04,0.11,0.04c0.15-0.01,0.4-0.15,0.62-0.53c0-0.01,0.01-0.01,0.02-0.01
					c0.01,0,0.01,0.01,0.01,0.02c-0.07,0.23-0.09,0.46-0.1,0.67c-0.01,0.18-0.02,0.34-0.07,0.47c-0.02,0.06-0.04,0.11-0.06,0.17
					c-0.21,0.63-0.36,1.08-1.16,2.32c-0.07,0.11-0.07,0.22,0.02,0.28c0.11,0.09,0.34,0.08,0.47-0.07c0,0,0.01-0.01,0.01-0.01
					c0,0,0.01,0,0.01,0.01c0.06,0.1,0.16,0.15,0.26,0.15c0.09,0,0.23-0.05,0.36-0.27C20.51,25.31,20.52,25.31,20.52,25.31z"/>
			</g>
			<g>
				<path class="st3" d="M23.28,25.58C23.28,25.58,23.28,25.58,23.28,25.58c-0.01,0-0.02-0.01-0.02-0.02c0-0.09-0.03-0.18-0.1-0.24
					c-0.01-0.01-0.01-0.02,0-0.02c0.01-0.01,0.02-0.01,0.02,0c0.07,0.07,0.11,0.17,0.11,0.27C23.29,25.58,23.29,25.58,23.28,25.58z"
					/>
			</g>
			<g>
				<path class="st3" d="M23.56,25.51c-0.01,0-0.01,0-0.02-0.01c-0.06-0.21-0.29-0.19-0.37-0.17c0,0,0,0-0.01,0
					c-0.15-0.04-0.22-0.15-0.22-0.33c0-0.14,0.09-0.36,0.24-0.68c0.09-0.19,0.12-0.53,0.13-0.77c0-0.01,0.01-0.02,0.02-0.02
					c0,0,0,0,0,0c0.01,0,0.02,0.01,0.02,0.02c-0.01,0.25-0.04,0.59-0.13,0.79c-0.15,0.32-0.24,0.53-0.24,0.67
					c0,0.17,0.06,0.26,0.19,0.3c0.21-0.04,0.36,0.03,0.4,0.2C23.57,25.5,23.57,25.51,23.56,25.51
					C23.56,25.51,23.56,25.51,23.56,25.51z"/>
			</g>
			<g>
				<path class="st3" d="M22.33,25.65L22.33,25.65c-0.01,0-0.02-0.01-0.02-0.02c0-0.09,0.03-0.3,0.32-0.36
					c0.11-0.02,0.16-0.05,0.16-0.21c0-0.21-0.1-0.36-0.23-0.54c-0.21-0.29-0.47-0.66-0.47-1.51c0-0.01,0.01-0.02,0.02-0.02
					s0.02,0.01,0.02,0.02c0,0.84,0.25,1.2,0.46,1.49c0.13,0.18,0.24,0.34,0.24,0.56c0,0.18-0.05,0.22-0.18,0.24
					c-0.26,0.05-0.29,0.25-0.29,0.33C22.35,25.64,22.34,25.65,22.33,25.65z"/>
			</g>
			<g>
				<path class="st3" d="M22.84,22.8C22.84,22.8,22.84,22.8,22.84,22.8c-0.01,0-0.02-0.01-0.01-0.02c0.05-0.12,0.13-0.21,0.21-0.3
					c0.06-0.07,0.12-0.14,0.17-0.22c0-0.01,0.01-0.01,0.02-0.01c0.01,0,0.01,0.01,0.01,0.02c-0.05,0.08-0.11,0.15-0.17,0.22
					c-0.08,0.09-0.16,0.18-0.21,0.29C22.86,22.79,22.85,22.8,22.84,22.8z"/>
			</g>
			<g>
				<path class="st3" d="M21.54,19.76c-0.01,0-0.01,0-0.01-0.01c-0.04-0.08-0.11-0.13-0.23-0.15c-0.01,0-0.01-0.01-0.01-0.02
					c0-0.01,0.01-0.01,0.02-0.01c0.13,0.03,0.21,0.08,0.25,0.17C21.56,19.74,21.56,19.75,21.54,19.76
					C21.55,19.76,21.55,19.76,21.54,19.76z"/>
			</g>
			<g>
				<path class="st3" d="M21.58,25.61C21.58,25.61,21.58,25.61,21.58,25.61c-0.01,0-0.02-0.01-0.02-0.02
					c0.01-0.09-0.03-0.2-0.1-0.26c-0.01-0.01-0.01-0.02,0-0.02c0.01-0.01,0.02-0.01,0.02,0c0.07,0.07,0.11,0.18,0.1,0.29
					C21.59,25.6,21.59,25.61,21.58,25.61z"/>
			</g>
			<g>
				<path class="st3" d="M21.88,25.64C21.88,25.64,21.88,25.64,21.88,25.64c-0.01,0-0.02-0.01-0.02-0.02c0-0.09-0.03-0.17-0.09-0.22
					c-0.07-0.06-0.18-0.09-0.29-0.07c0,0,0,0-0.01,0c-0.11-0.03-0.19-0.06-0.18-0.27c0.02-0.33,0.14-0.57,0.27-0.83
					c0.2-0.4,0.43-0.86,0.33-1.78c0-0.01,0.01-0.02,0.01-0.02c0.01,0,0.02,0.01,0.02,0.01c0.1,0.93-0.13,1.39-0.33,1.8
					c-0.13,0.25-0.25,0.5-0.26,0.82c-0.01,0.19,0.05,0.21,0.16,0.24c0.12-0.02,0.24,0.01,0.31,0.08c0.07,0.06,0.1,0.14,0.1,0.25
					C21.9,25.63,21.89,25.64,21.88,25.64z"/>
			</g>
			<g>
				<path class="st3" d="M20.65,25.49C20.65,25.49,20.65,25.49,20.65,25.49c-0.02-0.01-0.02-0.02-0.01-0.02
					c0.05-0.09,0.14-0.15,0.27-0.17c0.11-0.02,0.16-0.04,0.16-0.21c0.01-0.11-0.05-0.18-0.1-0.24c-0.02-0.02-0.04-0.04-0.05-0.07
					c-0.27-0.41-0.51-1.61-0.36-2.06c0-0.01,0.01-0.01,0.02-0.01c0.01,0,0.01,0.01,0.01,0.02c-0.15,0.44,0.1,1.62,0.36,2.03
					c0.01,0.02,0.03,0.04,0.05,0.06c0.05,0.07,0.11,0.14,0.11,0.26c-0.01,0.18-0.06,0.22-0.19,0.24c-0.11,0.02-0.2,0.07-0.24,0.15
					C20.66,25.49,20.66,25.49,20.65,25.49z"/>
			</g>
			<g>
				<path class="st3" d="M23.5,21.45C23.5,21.45,23.5,21.45,23.5,21.45c-0.01,0-0.02-0.01-0.02-0.02c0.03-0.2,0.04-0.43,0.04-0.69
					c0-0.24,0.08-0.42,0.17-0.61c0.1-0.2,0.2-0.42,0.2-0.72c0-0.02,0-0.04,0-0.06c0-0.04,0-0.08,0-0.11c0-0.01,0.01-0.02,0.02-0.02
					c0.01,0,0.02,0.01,0.02,0.02c0,0.04,0,0.08,0,0.11c0,0.02,0,0.04,0,0.06c0,0.31-0.1,0.52-0.2,0.73
					c-0.09,0.19-0.17,0.37-0.17,0.6c0,0.26-0.01,0.5-0.04,0.7C23.51,21.45,23.51,21.45,23.5,21.45z"/>
			</g>
			<g>
				<path class="st3" d="M21.44,19.97C21.44,19.97,21.44,19.97,21.44,19.97c-1.39-0.06-2.28-0.42-2.8-1.16
					c-0.57-0.81-1.54-0.83-2.51-0.74c-1.06,0.11-2.1,0.06-2.79,0c-0.01,0-0.02-0.01-0.01-0.02c0-0.01,0.01-0.02,0.02-0.01
					c0.68,0.06,1.72,0.11,2.78,0c0.97-0.1,1.95-0.07,2.54,0.75c0.51,0.73,1.39,1.09,2.77,1.15c0.01,0,0.02,0.01,0.02,0.02
					C21.45,19.97,21.44,19.97,21.44,19.97z"/>
			</g>
			<g>
				<path class="st3" d="M15.75,18.58c-0.47,0-0.92-0.06-1.07-0.26c-0.05-0.06-0.06-0.14-0.04-0.21c0-0.01,0.01-0.01,0.02-0.01
					c0.01,0,0.01,0.01,0.01,0.02c-0.02,0.06-0.01,0.12,0.03,0.18c0.11,0.14,0.5,0.34,1.92,0.19c0.01,0,0.02,0.01,0.02,0.01
					c0,0.01-0.01,0.02-0.01,0.02C16.38,18.56,16.06,18.58,15.75,18.58z"/>
			</g>
			<g>
				<path class="st3" d="M16.11,18.97c-0.43,0-0.85-0.07-1.11-0.26c-0.12-0.08-0.19-0.18-0.2-0.29c0-0.01,0.01-0.02,0.01-0.02
					c0.01,0,0.02,0.01,0.02,0.01c0.01,0.1,0.08,0.19,0.18,0.27c0.43,0.31,1.29,0.31,1.96,0.16c0.01,0,0.02,0,0.02,0.01
					c0,0.01,0,0.02-0.01,0.02C16.71,18.94,16.41,18.97,16.11,18.97z"/>
			</g>
			<g>
				<path class="st3" d="M16.4,19.36c-0.26,0-0.51-0.01-0.69-0.04c-0.28-0.03-0.5-0.21-0.49-0.35c0-0.04,0.02-0.12,0.19-0.12
					c0,0,0,0,0,0c0.01,0,0.02,0.01,0.02,0.02c0,0.01-0.01,0.02-0.02,0.02c-0.1,0-0.16,0.04-0.16,0.09c0,0.1,0.18,0.28,0.46,0.31
					c0.4,0.05,1.15,0.06,1.57-0.05c0.01,0,0.02,0,0.02,0.01c0,0.01,0,0.02-0.01,0.02C17.05,19.34,16.72,19.36,16.4,19.36z"/>
			</g>
			<g>
				<path class="st3" d="M16.57,19.85c-0.09,0-0.16,0-0.21-0.01c-0.44-0.03-0.72-0.14-0.77-0.3c-0.03-0.08,0.01-0.17,0.11-0.25
					c0.01-0.01,0.02,0,0.02,0c0.01,0.01,0,0.02,0,0.02c-0.09,0.07-0.12,0.14-0.1,0.21c0.02,0.07,0.14,0.23,0.74,0.28
					c0.24,0.02,0.84,0.01,1.36-0.14c0.01,0,0.02,0,0.02,0.01c0,0.01,0,0.02-0.01,0.02C17.32,19.82,16.86,19.85,16.57,19.85z"/>
			</g>
			<g>
				<path class="st3" d="M16.87,20.25c-0.29,0-0.48-0.13-0.52-0.25c-0.02-0.07,0.01-0.14,0.08-0.19c0.01,0,0.02,0,0.02,0
					c0,0.01,0,0.02,0,0.02c-0.06,0.04-0.09,0.09-0.07,0.15c0.03,0.11,0.22,0.22,0.49,0.22c0.45,0,0.89-0.08,1.17-0.23
					c0.01,0,0.02,0,0.02,0.01c0,0.01,0,0.02-0.01,0.02C17.77,20.16,17.33,20.25,16.87,20.25z"/>
			</g>
			<g>
				<path class="st3" d="M17.24,20.63c-0.21,0-0.34-0.07-0.4-0.15c-0.05-0.08-0.04-0.17,0.02-0.25c0.01-0.01,0.02-0.01,0.02,0
					c0.01,0.01,0.01,0.02,0,0.02c-0.05,0.07-0.06,0.15-0.02,0.22c0.07,0.11,0.3,0.19,0.64,0.11c0.21-0.05,0.68-0.24,0.82-0.36
					c0.01-0.01,0.02,0,0.02,0c0.01,0.01,0,0.02,0,0.02c-0.14,0.12-0.63,0.31-0.84,0.36C17.41,20.62,17.32,20.63,17.24,20.63z"/>
			</g>
			<g>
				<path class="st3" d="M17.67,20.93c-0.11,0-0.18-0.04-0.21-0.1c-0.05-0.09-0.01-0.2,0.09-0.27c0.01,0,0.02,0,0.02,0.01
					c0,0.01,0,0.02,0,0.02c-0.09,0.06-0.12,0.15-0.08,0.22c0.05,0.09,0.2,0.13,0.43,0.03c0.08-0.04,0.37-0.18,0.58-0.39
					c0.01-0.01,0.02-0.01,0.02,0c0.01,0.01,0.01,0.02,0,0.02c-0.21,0.21-0.51,0.36-0.59,0.4C17.83,20.91,17.74,20.93,17.67,20.93z"
					/>
			</g>
			<g>
				<path class="st3" d="M18.1,21.09c-0.06,0-0.11-0.02-0.14-0.04c-0.06-0.05-0.08-0.13-0.05-0.21c0-0.01,0.01-0.01,0.02-0.01
					c0.01,0,0.01,0.01,0.01,0.02c-0.02,0.07-0.01,0.13,0.04,0.17c0.06,0.05,0.18,0.06,0.34-0.03c0.22-0.13,0.38-0.29,0.5-0.48
					c0-0.01,0.01-0.01,0.02,0c0.01,0,0.01,0.01,0,0.02c-0.12,0.19-0.29,0.35-0.51,0.49C18.24,21.07,18.16,21.09,18.1,21.09z"/>
			</g>
			<g>
				<path class="st3" d="M18.45,21.19c-0.03,0-0.05-0.01-0.07-0.02c-0.07-0.04-0.08-0.12-0.07-0.18c0-0.01,0.01-0.01,0.02-0.01
					c0.01,0,0.01,0.01,0.01,0.02c-0.01,0.05,0,0.11,0.05,0.14c0.06,0.03,0.24,0.05,0.69-0.46c0.01-0.01,0.02-0.01,0.02,0
					s0.01,0.02,0,0.02C18.76,21.1,18.56,21.19,18.45,21.19z"/>
			</g>
			<g>
				<path class="st3" d="M18.75,21.3c-0.03,0-0.05-0.01-0.07-0.02c-0.06-0.03-0.08-0.09-0.06-0.16c0-0.01,0.01-0.01,0.02-0.01
					c0.01,0,0.01,0.01,0.01,0.02c-0.01,0.06,0,0.1,0.05,0.13c0.11,0.05,0.34-0.06,0.62-0.42c0.01-0.01,0.02-0.01,0.02,0
					c0.01,0.01,0.01,0.02,0,0.02C19.08,21.18,18.87,21.3,18.75,21.3z"/>
			</g>
			<g>
				<path class="st3" d="M19.13,21.35c-0.01,0-0.01,0-0.02,0c-0.07-0.01-0.12-0.05-0.17-0.12c0-0.01,0-0.02,0.01-0.02
					c0.01-0.01,0.02,0,0.02,0.01c0.04,0.07,0.09,0.1,0.15,0.11c0.12,0.01,0.29-0.11,0.55-0.39c0.01-0.01,0.02-0.01,0.02,0
					c0.01,0.01,0.01,0.02,0,0.02C19.43,21.23,19.26,21.35,19.13,21.35z"/>
			</g>
			<g>
				<path class="st3" d="M19.39,21.46c-0.03,0-0.06-0.01-0.09-0.02c-0.05-0.03-0.08-0.08-0.07-0.14c0-0.01,0.01-0.02,0.02-0.01
					c0.01,0,0.01,0.01,0.01,0.02c-0.01,0.05,0.01,0.09,0.05,0.1c0.1,0.05,0.31-0.02,0.53-0.26c0.01-0.01,0.02-0.01,0.02,0
					c0.01,0.01,0.01,0.02,0,0.02C19.69,21.37,19.52,21.46,19.39,21.46z"/>
			</g>
			<g>
				<path class="st3" d="M19.72,21.47c-0.02,0-0.04,0-0.06-0.01c-0.04-0.02-0.06-0.05-0.05-0.1c0-0.01,0.01-0.02,0.02-0.01
					c0.01,0,0.02,0.01,0.01,0.02c0,0.03,0.01,0.06,0.03,0.07c0.09,0.04,0.34-0.06,0.54-0.3c0.01-0.01,0.02-0.01,0.02,0
					c0.01,0.01,0.01,0.02,0,0.02C20.07,21.36,19.86,21.47,19.72,21.47z"/>
			</g>
			<g>
				<path class="st3" d="M20.16,21.49c-0.09,0-0.17-0.04-0.21-0.1c0-0.01,0-0.02,0-0.02c0.01-0.01,0.02,0,0.02,0
					c0.04,0.06,0.11,0.09,0.2,0.09c0.15,0,0.29-0.11,0.39-0.28c0-0.01,0.01-0.01,0.02-0.01c0.01,0,0.01,0.01,0.01,0.02
					C20.48,21.37,20.33,21.48,20.16,21.49C20.17,21.49,20.16,21.49,20.16,21.49z"/>
			</g>
			<g>
				<path class="st3" d="M20.58,21.53c-0.04,0-0.08-0.01-0.11-0.03c-0.06-0.05-0.05-0.14,0.03-0.24c0.01-0.01,0.02-0.01,0.02,0
					c0.01,0.01,0.01,0.02,0,0.02c-0.06,0.08-0.07,0.15-0.03,0.19c0.06,0.05,0.22,0.04,0.37-0.12c0.01-0.01,0.02-0.01,0.02,0
					c0.01,0.01,0.01,0.02,0,0.02C20.78,21.48,20.67,21.53,20.58,21.53z"/>
			</g>
			<g>
				<path class="st3" d="M20.74,21.61c0,0-0.01,0-0.01-0.01c-0.01-0.01,0-0.02,0-0.02c0.21-0.16,0.27-0.43,0.31-0.64
					c0.04-0.2,0.08-0.38,0.24-0.38c0.01,0,0.02,0.01,0.02,0.02c0,0.01-0.01,0.02-0.02,0.02c-0.14,0-0.17,0.16-0.21,0.36
					C21.03,21.16,20.97,21.43,20.74,21.61C20.75,21.61,20.74,21.61,20.74,21.61z"/>
			</g>
			<g>
				<path class="st3" d="M13.88,18.59c-1.26,0-2.71-0.16-3.34-0.39c-0.01,0-0.01-0.01-0.01-0.02c0-0.01,0.01-0.01,0.02-0.01
					c0.79,0.29,2.92,0.46,4.3,0.35c0.01,0,0.02,0.01,0.02,0.01c0,0.01-0.01,0.02-0.01,0.02C14.56,18.58,14.22,18.59,13.88,18.59z"/>
			</g>
			<g>
				<path class="st3" d="M14.63,19.11c-1.24,0-2.89-0.08-3.65-0.3c-0.01,0-0.01-0.01-0.01-0.02c0-0.01,0.01-0.01,0.02-0.01
					c0.91,0.26,3.05,0.32,4.29,0.29c0.01,0,0.02,0.01,0.02,0.02c0,0.01-0.01,0.02-0.02,0.02C15.07,19.11,14.86,19.11,14.63,19.11z"
					/>
			</g>
			<g>
				<path class="st3" d="M14.62,19.78c-1.19,0-2.48-0.2-2.94-0.31c-0.01,0-0.01-0.01-0.01-0.02c0-0.01,0.01-0.01,0.02-0.01
					c0.61,0.14,2.7,0.46,4.05,0.23c0.01,0,0.02,0,0.02,0.01c0,0.01,0,0.02-0.01,0.02C15.41,19.76,15.02,19.78,14.62,19.78z"/>
			</g>
			<g>
				<path class="st3" d="M14.62,20.43c-0.82,0-1.57-0.08-1.86-0.16c-0.01,0-0.01-0.01-0.01-0.02s0.01-0.01,0.02-0.01
					c0.52,0.13,2.64,0.31,3.79-0.08c0.01,0,0.02,0,0.02,0.01c0,0.01,0,0.02-0.01,0.02C16.04,20.37,15.31,20.43,14.62,20.43z"/>
			</g>
			<g>
				<path class="st3" d="M15.31,21.03c-0.01,0-0.02-0.01-0.02-0.02c0-0.01,0.01-0.02,0.02-0.02c0.35-0.01,1.17-0.22,1.6-0.48
					c0.01,0,0.02,0,0.02,0.01c0,0.01,0,0.02-0.01,0.02C16.49,20.81,15.66,21.02,15.31,21.03C15.31,21.03,15.31,21.03,15.31,21.03z"
					/>
			</g>
			<g>
				<path class="st3" d="M15.83,21.48c-0.01,0-0.01-0.01-0.02-0.01c0-0.01,0-0.02,0.01-0.02c0.48-0.07,1.19-0.28,1.63-0.64
					c0.01-0.01,0.02,0,0.02,0c0.01,0.01,0,0.02,0,0.02C17.03,21.19,16.31,21.4,15.83,21.48C15.83,21.48,15.83,21.48,15.83,21.48z"/>
			</g>
			<g>
				<path class="st3" d="M16.33,21.76c-0.01,0-0.02-0.01-0.02-0.02c0-0.01,0.01-0.02,0.02-0.02c0.35-0.01,1.26-0.39,1.65-0.69
					c0.01-0.01,0.02,0,0.02,0c0.01,0.01,0,0.02,0,0.02C17.6,21.37,16.69,21.75,16.33,21.76C16.33,21.76,16.33,21.76,16.33,21.76z"/>
			</g>
			<g>
				<path class="st3" d="M17.38,21.92c-0.01,0-0.01,0-0.01-0.01c0-0.01,0-0.02,0.01-0.02c0.33-0.14,0.78-0.43,1.11-0.72
					c0.01-0.01,0.02-0.01,0.02,0c0.01,0.01,0.01,0.02,0,0.02C18.17,21.49,17.72,21.78,17.38,21.92
					C17.38,21.92,17.38,21.92,17.38,21.92z"/>
			</g>
			<g>
				<path class="st3" d="M18.12,22.12c-0.01,0-0.01,0-0.01-0.01c-0.01-0.01,0-0.02,0-0.02c0.29-0.2,0.54-0.49,0.76-0.75
					c0.03-0.03,0.06-0.07,0.09-0.1c0.01-0.01,0.02-0.01,0.02,0c0.01,0.01,0.01,0.02,0,0.02c-0.03,0.03-0.06,0.07-0.09,0.1
					C18.68,21.62,18.42,21.92,18.12,22.12C18.13,22.12,18.12,22.12,18.12,22.12z"/>
			</g>
			<g>
				<path class="st3" d="M18.66,22.15c-0.01,0-0.01,0-0.01-0.01c0-0.01,0-0.02,0.01-0.02c0.24-0.13,0.42-0.39,0.61-0.66l0.03-0.05
					c0.01-0.01,0.02-0.01,0.02,0c0.01,0.01,0.01,0.02,0,0.02l-0.03,0.05C19.09,21.75,18.91,22.01,18.66,22.15
					C18.67,22.15,18.66,22.15,18.66,22.15z"/>
			</g>
			<g>
				<path class="st3" d="M19.08,22.12c-0.01,0-0.01,0-0.01-0.01c-0.01-0.01,0-0.02,0-0.02c0.19-0.14,0.44-0.41,0.6-0.65
					c0-0.01,0.01-0.01,0.02-0.01c0.01,0,0.01,0.01,0,0.02C19.54,21.7,19.29,21.98,19.08,22.12C19.09,22.12,19.09,22.12,19.08,22.12z
					"/>
			</g>
			<g>
				<path class="st3" d="M19.48,22.15c0,0-0.01,0-0.01-0.01c-0.01-0.01,0-0.02,0-0.02c0.2-0.17,0.41-0.44,0.54-0.69
					c0-0.01,0.01-0.01,0.02-0.01c0.01,0,0.01,0.01,0.01,0.02c-0.12,0.26-0.33,0.53-0.54,0.7C19.49,22.15,19.48,22.15,19.48,22.15z"
					/>
			</g>
			<g>
				<path class="st3" d="M19.98,22.1c0,0-0.01,0-0.01-0.01c-0.01-0.01,0-0.02,0-0.02c0.19-0.16,0.34-0.37,0.47-0.66
					c0-0.01,0.01-0.01,0.02-0.01c0.01,0,0.01,0.01,0.01,0.02c-0.13,0.29-0.28,0.5-0.48,0.67C19.99,22.1,19.99,22.1,19.98,22.1z"/>
			</g>
			<g>
				<path class="st3" d="M19.87,25.46C19.87,25.46,19.87,25.46,19.87,25.46c-0.02-0.01-0.02-0.02-0.01-0.02
					c0.24-0.42,0.55-0.94,0.77-1.44c0-0.01,0.01-0.01,0.02-0.01c0.01,0,0.01,0.01,0.01,0.02c-0.22,0.5-0.52,1.02-0.77,1.44
					C19.89,25.46,19.88,25.46,19.87,25.46z"/>
			</g>
			<g>
				<path class="st3" d="M20.52,25.34C20.52,25.34,20.52,25.34,20.52,25.34c-0.02-0.01-0.02-0.02-0.01-0.03
					c0.09-0.13,0.16-0.28,0.23-0.42c0.04-0.09,0.08-0.17,0.12-0.24c0-0.01,0.01-0.01,0.02-0.01c0.01,0,0.01,0.01,0.01,0.02
					c-0.04,0.07-0.08,0.16-0.12,0.24c-0.07,0.14-0.14,0.29-0.23,0.42C20.53,25.34,20.53,25.34,20.52,25.34z"/>
			</g>
			<g>
				<path class="st3" d="M21.78,25.33c-0.01,0-0.02-0.01-0.02-0.02c0-0.07-0.01-0.18-0.01-0.31c-0.01-0.35-0.04-0.88-0.02-1.17
					c0-0.01,0.01-0.01,0.02-0.02c0.01,0,0.02,0.01,0.02,0.02c-0.01,0.29,0.01,0.82,0.02,1.17c0.01,0.13,0.01,0.24,0.01,0.31
					C21.8,25.32,21.79,25.33,21.78,25.33C21.78,25.33,21.78,25.33,21.78,25.33z"/>
			</g>
			<g>
				<path class="st3" d="M22.37,25.41C22.37,25.41,22.37,25.41,22.37,25.41c-0.01,0-0.02-0.01-0.02-0.02c0-0.14-0.02-0.34-0.05-0.58
					c-0.03-0.29-0.07-0.62-0.07-0.89c0-0.01,0.01-0.02,0.02-0.02c0,0,0,0,0,0c0.01,0,0.02,0.01,0.02,0.02c0,0.27,0.04,0.6,0.07,0.89
					c0.03,0.24,0.05,0.45,0.05,0.59C22.38,25.4,22.38,25.41,22.37,25.41z"/>
			</g>
			<g>
				<path class="st3" d="M23.33,25.32c-0.01,0-0.01,0-0.02-0.01c-0.02-0.06-0.15-0.62-0.17-0.87c0-0.01,0.01-0.02,0.01-0.02
					c0.01,0,0.02,0.01,0.02,0.01c0.03,0.24,0.16,0.8,0.17,0.86C23.35,25.31,23.34,25.32,23.33,25.32
					C23.33,25.32,23.33,25.32,23.33,25.32z"/>
			</g>
			<g>
				<path class="st3" d="M23.91,19.76c-0.01,0-0.02-0.01-0.02-0.02c0-0.01,0.01-0.02,0.02-0.02c0.54-0.01,0.9-0.38,1.31-0.81
					c0.53-0.54,1.13-1.16,2.24-1.16c0.02,0,0.05,0,0.07,0c0.76,0.02,1.41,0.05,1.98,0.08c0.97,0.05,1.67,0.08,2.27,0.02
					c0.01,0,0.02,0.01,0.02,0.01c0,0.01-0.01,0.02-0.01,0.02c-0.6,0.06-1.31,0.03-2.28-0.02c-0.57-0.03-1.22-0.06-1.97-0.08
					c-0.02,0-0.05,0-0.07,0c-1.1,0-1.7,0.61-2.22,1.15C24.84,19.35,24.46,19.75,23.91,19.76C23.91,19.76,23.91,19.76,23.91,19.76z"
					/>
			</g>
			<g>
				<path class="st3" d="M28.54,18.29c-0.18,0-0.39-0.01-0.61-0.03c-0.01,0-0.02-0.01-0.01-0.02c0-0.01,0.01-0.01,0.02-0.01
					c0.89,0.07,1.49,0,1.7-0.2c0.05-0.05,0.08-0.11,0.08-0.18c0-0.01,0.01-0.02,0.02-0.02c0.01,0,0.02,0.01,0.02,0.02
					c0,0.08-0.03,0.14-0.09,0.2C29.49,18.21,29.11,18.29,28.54,18.29z"/>
			</g>
			<g>
				<path class="st3" d="M28.54,18.73c-0.25,0-0.54-0.03-0.83-0.07c-0.01,0-0.01-0.01-0.01-0.02c0-0.01,0.01-0.01,0.02-0.01
					c0.6,0.08,1.2,0.14,1.44-0.08c0.08-0.08,0.12-0.18,0.11-0.32c0-0.01,0.01-0.02,0.02-0.02c0.01,0,0.02,0.01,0.02,0.02
					c0.01,0.15-0.03,0.26-0.12,0.35C29.04,18.68,28.81,18.73,28.54,18.73z"/>
			</g>
			<g>
				<path class="st3" d="M28.27,19.17c-0.27,0-0.6-0.05-0.93-0.12c-0.01,0-0.01-0.01-0.01-0.02c0-0.01,0.01-0.01,0.02-0.01
					c0.38,0.08,1.16,0.24,1.46-0.02c0.09-0.08,0.14-0.19,0.13-0.34c0-0.01,0.01-0.02,0.02-0.02c0,0,0,0,0,0
					c0.01,0,0.02,0.01,0.02,0.02c0.01,0.16-0.04,0.28-0.14,0.36C28.7,19.13,28.5,19.17,28.27,19.17z"/>
			</g>
			<g>
				<path class="st3" d="M27.99,19.63c-0.28,0-0.66-0.07-1.13-0.2c-0.01,0-0.01-0.01-0.01-0.02c0-0.01,0.01-0.01,0.02-0.01
					c0.84,0.24,1.38,0.26,1.61,0.07c0.1-0.08,0.14-0.2,0.12-0.36c0-0.01,0.01-0.02,0.01-0.02c0.01,0,0.02,0.01,0.02,0.01
					c0.02,0.17-0.03,0.3-0.13,0.39C28.39,19.59,28.22,19.63,27.99,19.63z"/>
			</g>
			<g>
				<path class="st3" d="M27.53,20.09c-0.31,0-0.69-0.09-1.03-0.22c-0.01,0-0.01-0.01-0.01-0.02c0-0.01,0.01-0.01,0.02-0.01
					c0.64,0.25,1.23,0.29,1.46,0.11c0.09-0.07,0.12-0.18,0.1-0.32c0-0.01,0-0.02,0.01-0.02c0.01,0,0.02,0,0.02,0.01
					c0.03,0.15-0.01,0.27-0.11,0.35C27.89,20.05,27.72,20.09,27.53,20.09z"/>
			</g>
			<g>
				<path class="st3" d="M27.02,20.44c-0.25,0-0.58-0.11-0.91-0.33c-0.01,0-0.01-0.01,0-0.02c0-0.01,0.01-0.01,0.02,0
					c0.45,0.29,0.9,0.4,1.15,0.27c0.1-0.06,0.16-0.15,0.16-0.28c0-0.01,0.01-0.02,0.02-0.02c0.01,0,0.02,0.01,0.02,0.02
					c0,0.14-0.06,0.25-0.18,0.31C27.22,20.42,27.12,20.44,27.02,20.44z"/>
			</g>
			<g>
				<path class="st3" d="M26.6,20.71c-0.21,0-0.49-0.12-0.83-0.36c-0.01-0.01-0.01-0.02,0-0.02c0.01-0.01,0.02-0.01,0.02,0
					c0.41,0.29,0.75,0.41,0.94,0.33c0.09-0.04,0.14-0.12,0.16-0.24c0-0.01,0.01-0.02,0.02-0.01c0.01,0,0.01,0.01,0.01,0.02
					c-0.02,0.13-0.08,0.22-0.18,0.26C26.71,20.7,26.66,20.71,26.6,20.71z"/>
			</g>
			<g>
				<path class="st3" d="M26.17,20.87c-0.18,0-0.4-0.13-0.61-0.37c-0.01-0.01-0.01-0.02,0-0.02c0.01-0.01,0.02-0.01,0.02,0
					c0.23,0.26,0.47,0.39,0.65,0.35c0.09-0.02,0.15-0.08,0.18-0.17c0-0.01,0.01-0.01,0.02-0.01c0.01,0,0.01,0.01,0.01,0.02
					c-0.03,0.1-0.1,0.17-0.2,0.19C26.21,20.86,26.19,20.87,26.17,20.87z"/>
			</g>
			<g>
				<path class="st3" d="M25.85,20.98c-0.16,0-0.4-0.16-0.58-0.45c0-0.01,0-0.02,0.01-0.02c0.01,0,0.02,0,0.02,0.01
					c0.19,0.3,0.46,0.46,0.59,0.43c0.06-0.01,0.09-0.05,0.1-0.12c0-0.01,0.01-0.01,0.02-0.01c0.01,0,0.01,0.01,0.01,0.02
					c-0.01,0.08-0.05,0.13-0.12,0.15C25.88,20.98,25.87,20.98,25.85,20.98z"/>
			</g>
			<g>
				<path class="st3" d="M25.6,21.09c-0.16,0-0.39-0.19-0.56-0.46c0-0.01,0-0.02,0.01-0.02c0.01,0,0.02,0,0.02,0.01
					c0.19,0.31,0.44,0.46,0.57,0.44c0.05-0.01,0.08-0.05,0.09-0.12c0-0.01,0.01-0.01,0.02-0.01c0.01,0,0.01,0.01,0.01,0.02
					c-0.01,0.1-0.07,0.14-0.11,0.15C25.63,21.09,25.62,21.09,25.6,21.09z"/>
			</g>
			<g>
				<path class="st3" d="M25.32,21.19c-0.16,0-0.37-0.19-0.52-0.46c0-0.01,0-0.02,0.01-0.02c0.01,0,0.02,0,0.02,0.01
					c0.17,0.31,0.39,0.46,0.51,0.44c0.06-0.01,0.09-0.05,0.11-0.12c0-0.01,0.01-0.01,0.02-0.01c0.01,0,0.01,0.01,0.01,0.02
					c-0.02,0.09-0.06,0.14-0.13,0.15C25.33,21.19,25.32,21.19,25.32,21.19z"/>
			</g>
			<g>
				<path class="st3" d="M24.98,21.28c-0.14,0-0.34-0.15-0.45-0.5c0-0.01,0-0.02,0.01-0.02c0.01,0,0.02,0,0.02,0.01
					c0.11,0.31,0.29,0.48,0.42,0.48c0,0,0,0,0,0c0.07,0,0.12-0.05,0.14-0.13c0-0.01,0.01-0.01,0.02-0.01c0.01,0,0.01,0.01,0.01,0.02
					C25.13,21.22,25.07,21.28,24.98,21.28C24.98,21.28,24.98,21.28,24.98,21.28z"/>
			</g>
			<g>
				<path class="st3" d="M24.63,21.3c-0.01,0-0.02,0-0.03,0c-0.14-0.02-0.31-0.21-0.36-0.57c0-0.01,0-0.02,0.01-0.02
					c0.01,0,0.02,0,0.02,0.01c0.05,0.33,0.2,0.53,0.33,0.55c0.07,0.01,0.12-0.03,0.16-0.11c0-0.01,0.01-0.01,0.02-0.01
					c0.01,0,0.01,0.01,0.01,0.02C24.76,21.26,24.7,21.3,24.63,21.3z"/>
			</g>
			<g>
				<path class="st3" d="M24.34,21.36c-0.01,0-0.03,0-0.04,0c-0.13-0.03-0.24-0.23-0.28-0.52c0-0.01,0-0.02,0.01-0.02
					c0.01,0,0.02,0,0.02,0.01c0.05,0.33,0.17,0.47,0.26,0.5c0.06,0.02,0.12-0.02,0.18-0.09c0.01-0.01,0.02-0.01,0.02,0
					c0.01,0.01,0.01,0.02,0,0.02C24.46,21.32,24.4,21.36,24.34,21.36z"/>
			</g>
			<g>
				<path class="st3" d="M24.05,21.39c-0.01,0-0.03,0-0.04,0c-0.13-0.03-0.24-0.23-0.28-0.52c0-0.01,0-0.02,0.01-0.02
					c0.01,0,0.02,0,0.02,0.01c0.05,0.33,0.17,0.47,0.26,0.5c0.06,0.02,0.12-0.02,0.18-0.09c0.01-0.01,0.02-0.01,0.02,0
					c0.01,0.01,0.01,0.02,0,0.02C24.17,21.35,24.11,21.39,24.05,21.39z"/>
			</g>
			<g>
				<path class="st3" d="M23.68,21.37c-0.06,0-0.12-0.03-0.17-0.09c-0.01-0.01-0.01-0.02,0-0.02c0.01-0.01,0.02-0.01,0.02,0
					c0.05,0.06,0.11,0.08,0.16,0.08c0.07-0.01,0.12-0.06,0.16-0.11c0.01-0.01,0.02-0.01,0.02,0c0.01,0.01,0.01,0.02,0,0.02
					c-0.06,0.08-0.12,0.12-0.18,0.13C23.69,21.37,23.68,21.37,23.68,21.37z"/>
			</g>
			<g>
				<path class="st3" d="M29.65,18.41c-0.15,0-0.28,0-0.38-0.01c-0.01,0-0.02-0.01-0.02-0.02c0-0.01,0.01-0.02,0.02-0.02
					c0,0,0,0,0,0c0.98,0.04,3.72-0.09,4.34-0.51c0.01,0,0.02,0,0.02,0c0.01,0.01,0,0.02,0,0.02c-0.36,0.24-1.34,0.37-2.1,0.44
					C30.85,18.38,30.15,18.41,29.65,18.41z"/>
			</g>
			<g>
				<path class="st3" d="M29.71,19c-0.28,0-0.56-0.01-0.85-0.02c-0.01,0-0.02-0.01-0.02-0.02c0-0.01,0.01-0.01,0.02-0.02
					c1.81,0.08,3.49-0.1,4.29-0.46c0.01,0,0.02,0,0.02,0.01c0,0.01,0,0.02-0.01,0.02C32.49,18.82,31.18,19,29.71,19z"/>
			</g>
			<g>
				<path class="st3" d="M29.59,19.52c-0.43,0-0.81-0.01-1.06-0.03c-0.01,0-0.02-0.01-0.01-0.02c0-0.01,0.01-0.01,0.02-0.01
					c0,0,0,0,0,0c0.89,0.07,3.34,0.05,4.02-0.27c0.01,0,0.02,0,0.02,0.01c0,0.01,0,0.02-0.01,0.02
					C32.06,19.43,30.67,19.52,29.59,19.52z"/>
			</g>
			<g>
				<path class="st3" d="M30.04,20.04c-0.73,0-1.51-0.04-2.04-0.09c-0.01,0-0.02-0.01-0.01-0.02c0-0.01,0.01-0.01,0.02-0.01
					c0,0,0,0,0,0c0.9,0.09,2.59,0.15,3.38,0.01c0.01,0,0.02,0,0.02,0.01s0,0.02-0.01,0.02C31.06,20.02,30.57,20.04,30.04,20.04z"/>
			</g>
			<g>
				<path class="st3" d="M29.48,20.66C29.48,20.66,29.48,20.66,29.48,20.66c-0.59-0.01-1.55-0.17-2.13-0.32
					c-0.01,0-0.01-0.01-0.01-0.02c0-0.01,0.01-0.01,0.02-0.01c0.58,0.15,1.53,0.31,2.13,0.32c0.01,0,0.02,0.01,0.02,0.02
					C29.5,20.65,29.49,20.66,29.48,20.66z"/>
			</g>
			<g>
				<path class="st3" d="M28.71,21.1c-0.45,0-1.41-0.22-1.92-0.45c-0.01,0-0.01-0.01-0.01-0.02c0-0.01,0.01-0.01,0.02-0.01
					c0.55,0.25,1.64,0.49,2.01,0.44c0.01,0,0.02,0.01,0.02,0.01c0,0.01-0.01,0.02-0.01,0.02C28.79,21.1,28.75,21.1,28.71,21.1z"/>
			</g>
			<g>
				<path class="st3" d="M28.19,21.47c-0.43,0-1.34-0.2-1.86-0.66c-0.01-0.01-0.01-0.02,0-0.02c0.01-0.01,0.02-0.01,0.02,0
					c0.57,0.51,1.67,0.7,1.98,0.64c0.01,0,0.02,0,0.02,0.01c0,0.01,0,0.02-0.01,0.02C28.29,21.47,28.24,21.47,28.19,21.47z"/>
			</g>
			<g>
				<path class="st3" d="M27.31,21.75C27.31,21.75,27.31,21.75,27.31,21.75c-0.46-0.05-1.08-0.38-1.44-0.78
					c-0.01-0.01-0.01-0.02,0-0.02c0.01-0.01,0.02-0.01,0.02,0c0.35,0.39,0.97,0.72,1.42,0.77c0.01,0,0.02,0.01,0.01,0.02
					C27.32,21.75,27.32,21.75,27.31,21.75z"/>
			</g>
			<g>
				<path class="st3" d="M26.56,21.93C26.56,21.93,26.56,21.93,26.56,21.93c-0.44-0.09-0.79-0.51-1.05-0.86
					c-0.01-0.01,0-0.02,0-0.02c0.01-0.01,0.02,0,0.02,0c0.25,0.35,0.59,0.76,1.02,0.85c0.01,0,0.01,0.01,0.01,0.02
					C26.58,21.93,26.57,21.93,26.56,21.93z"/>
			</g>
			<g>
				<path class="st3" d="M26.01,21.98C26.01,21.98,26.01,21.98,26.01,21.98c-0.22-0.15-0.63-0.5-0.83-0.82c0-0.01,0-0.02,0.01-0.02
					c0.01,0,0.02,0,0.02,0.01c0.2,0.32,0.61,0.66,0.81,0.81c0.01,0.01,0.01,0.02,0,0.02C26.02,21.98,26.02,21.98,26.01,21.98z"/>
			</g>
			<g>
				<path class="st3" d="M25.53,22C25.53,22,25.53,22,25.53,22c-0.31-0.15-0.53-0.5-0.62-0.74c0-0.01,0-0.02,0.01-0.02
					c0.01,0,0.02,0,0.02,0.01c0.09,0.24,0.31,0.58,0.6,0.72c0.01,0,0.01,0.01,0.01,0.02C25.54,22,25.54,22,25.53,22z"/>
			</g>
			<g>
				<path class="st3" d="M25.04,21.97c0,0-0.01,0-0.01-0.01c-0.19-0.22-0.33-0.44-0.41-0.67c0-0.01,0-0.02,0.01-0.02
					c0.01,0,0.02,0,0.02,0.01c0.08,0.22,0.21,0.44,0.41,0.66c0.01,0.01,0.01,0.02,0,0.02C25.05,21.97,25.04,21.97,25.04,21.97z"/>
			</g>
			<g>
				<path class="st3" d="M24.61,21.98c0,0-0.01,0-0.01-0.01c-0.12-0.15-0.22-0.3-0.35-0.65c0-0.01,0-0.02,0.01-0.02
					c0.01,0,0.02,0,0.02,0.01c0.13,0.35,0.23,0.49,0.35,0.64C24.62,21.96,24.62,21.97,24.61,21.98
					C24.61,21.98,24.61,21.98,24.61,21.98z"/>
			</g>
			<g>
				<path class="st3" d="M24.19,21.93c0,0-0.01,0-0.01-0.01c-0.13-0.14-0.21-0.3-0.35-0.65c0-0.01,0-0.02,0.01-0.02
					c0.01,0,0.02,0,0.02,0.01c0.14,0.35,0.22,0.51,0.35,0.64c0.01,0.01,0.01,0.02,0,0.02C24.19,21.93,24.19,21.93,24.19,21.93z"/>
			</g>
			<g>
				<path class="st3" d="M24.19,18.46c-0.01,0-0.01,0-0.01-0.01c0-0.01,0-0.02,0.01-0.02c0.04-0.02,0.12-0.02,0.2-0.02
					c0.04,0,0.08,0,0.12-0.01c0.01,0,0.02,0.01,0.02,0.01c0,0.01-0.01,0.02-0.01,0.02c-0.04,0-0.08,0-0.12,0.01
					C24.31,18.44,24.23,18.44,24.19,18.46C24.19,18.46,24.19,18.46,24.19,18.46z"/>
			</g>
			<g>
				<path class="st3" d="M24.35,18.19C24.35,18.19,24.35,18.19,24.35,18.19c-0.01,0-0.02-0.01-0.02-0.02c0-0.03,0.02-0.05,0.04-0.06
					c0.02-0.02,0.03-0.03,0.03-0.06c0-0.01,0.01-0.02,0.01-0.02c0.01,0,0.02,0.01,0.02,0.01c0.01,0.05-0.02,0.07-0.04,0.08
					c-0.01,0.01-0.03,0.02-0.03,0.04C24.36,18.19,24.36,18.19,24.35,18.19z"/>
			</g>
			<g>
				<path class="st3" d="M24.2,18.12C24.19,18.12,24.19,18.12,24.2,18.12c-0.12-0.06-0.23-0.04-0.27-0.03
					c-0.07,0.02-0.15,0-0.22-0.02c-0.07-0.02-0.15-0.04-0.23-0.02c-0.01,0-0.02,0-0.02-0.01c0-0.01,0-0.02,0.01-0.02
					c0.08-0.02,0.17,0,0.24,0.02c0.07,0.02,0.14,0.04,0.21,0.02c0.05-0.01,0.17-0.03,0.29,0.03c0.01,0,0.01,0.01,0.01,0.02
					C24.21,18.12,24.2,18.12,24.2,18.12z"/>
			</g>
			<g>
				<path class="st3" d="M23.83,18.23C23.83,18.23,23.82,18.23,23.83,18.23c-0.06,0-0.11-0.03-0.14-0.06
					c-0.03-0.03-0.04-0.07-0.03-0.11c0-0.01,0.01-0.01,0.02-0.01c0.01,0,0.01,0.01,0.01,0.02c-0.01,0.03,0,0.06,0.02,0.08
					c0.02,0.03,0.06,0.05,0.1,0.05c0.04,0,0.09-0.01,0.11-0.04c0.02-0.02,0.03-0.05,0.03-0.08c0-0.01,0.01-0.02,0.01-0.02
					c0.01,0,0.02,0.01,0.02,0.01c0,0.04-0.01,0.08-0.04,0.11C23.93,18.21,23.88,18.23,23.83,18.23z"/>
			</g>
		</g>
		<g>
			<g>
				<path class="st0" d="M8.63,5.34l0,2.28l0,0.24h0c0,0.06,0,0.14-0.01,0.2C8.58,8.41,8.41,8.73,8.17,8.97
					C7.88,9.26,7.48,9.43,7.05,9.43c-0.43,0-0.82-0.18-1.11-0.47c-0.3-0.29-0.47-0.7-0.47-1.12l0-2.52L8.63,5.34L8.63,5.34z"/>
			</g>
			<g>
				<path class="st4" d="M4.39,7.84L4.39,7.84L4.39,7.84c0,0.73,0.3,1.39,0.78,1.87c0.48,0.48,1.15,0.78,1.87,0.78
					c0.73,0,1.39-0.3,1.87-0.78C9.4,9.23,9.7,8.57,9.7,7.85h0V4.26l-5.31,0L4.39,7.84L4.39,7.84z M8.63,5.34l0,2.28l0,0.24h0
					c0,0.06,0,0.14-0.01,0.2C8.58,8.41,8.41,8.73,8.17,8.97C7.88,9.26,7.48,9.43,7.05,9.43c-0.43,0-0.82-0.18-1.11-0.47
					c-0.3-0.29-0.47-0.7-0.47-1.12l0-2.52L8.63,5.34L8.63,5.34z"/>
				<path class="st5" d="M7.05,10.5c-0.71,0-1.38-0.28-1.89-0.78c-0.51-0.5-0.79-1.17-0.79-1.88l0,0l0-3.59l5.34,0l0,3.6
					c0,0.71-0.28,1.37-0.78,1.88C8.43,10.23,7.76,10.5,7.05,10.5z M4.41,7.84L4.41,7.84c0,0.7,0.28,1.36,0.78,1.86
					c0.5,0.5,1.16,0.77,1.86,0.77c0.7,0,1.37-0.27,1.86-0.77c0.5-0.49,0.77-1.15,0.77-1.84l0-0.01V4.28l-5.28,0L4.41,7.84z
					 M7.05,9.45c-0.42,0-0.81-0.17-1.12-0.48c-0.3-0.3-0.47-0.71-0.47-1.13l0-2.53l3.2,0.01l0,2.29l0,0.24c0,0.07,0,0.14-0.01,0.2
					C8.59,8.4,8.44,8.73,8.18,8.98C7.87,9.28,7.47,9.45,7.05,9.45z M5.48,5.34l0,2.5c0,0.41,0.17,0.81,0.46,1.11
					c0.3,0.3,0.69,0.47,1.1,0.47c0.42,0,0.81-0.16,1.11-0.46c0.25-0.25,0.41-0.57,0.45-0.91c0.01-0.06,0.01-0.13,0.01-0.2l0-0.24
					l0-2.26L5.48,5.34z"/>
			</g>
			<g>
				<path class="st6" d="M7.41,7.43v-0.5l-0.7,0l0,0.5v0c0,0.1,0.04,0.2,0.1,0.27c0.06,0.07,0.15,0.11,0.25,0.11
					c0.1,0,0.18-0.04,0.25-0.11C7.37,7.63,7.41,7.54,7.41,7.43L7.41,7.43z M6.88,7.05c0.04,0,0.07,0.03,0.07,0.07
					c0,0.04-0.03,0.07-0.07,0.07c-0.04,0-0.07-0.03-0.07-0.07C6.81,7.09,6.84,7.05,6.88,7.05z M6.88,7.57
					c-0.04,0-0.07-0.03-0.07-0.07c0-0.04,0.03-0.07,0.07-0.07c0.04,0,0.07,0.03,0.07,0.07C6.95,7.54,6.92,7.57,6.88,7.57z
					 M7.07,7.38C7.03,7.38,7,7.35,7,7.31c0-0.04,0.03-0.07,0.07-0.07c0.04,0,0.07,0.03,0.07,0.07C7.14,7.35,7.1,7.38,7.07,7.38z
					 M7.26,7.57c-0.04,0-0.07-0.03-0.07-0.07c0-0.04,0.03-0.07,0.07-0.07c0.04,0,0.07,0.03,0.07,0.07C7.33,7.54,7.3,7.57,7.26,7.57z
					 M7.26,7.19c-0.04,0-0.07-0.03-0.07-0.07c0-0.04,0.03-0.07,0.07-0.07c0.04,0,0.07,0.03,0.07,0.07C7.33,7.16,7.3,7.19,7.26,7.19z
					"/>
			</g>
			<g>
				<path class="st6" d="M7.4,8.64v-0.5l-0.7,0l0,0.5v0c0,0.1,0.04,0.2,0.1,0.27c0.06,0.07,0.15,0.11,0.25,0.11
					c0.1,0,0.18-0.04,0.25-0.11C7.36,8.83,7.4,8.74,7.4,8.64L7.4,8.64z M6.86,8.26c0.04,0,0.07,0.03,0.07,0.07
					c0,0.04-0.03,0.07-0.07,0.07c-0.04,0-0.07-0.03-0.07-0.07C6.79,8.29,6.83,8.26,6.86,8.26z M6.86,8.78
					c-0.04,0-0.07-0.03-0.07-0.07c0-0.04,0.03-0.07,0.07-0.07c0.04,0,0.07,0.03,0.07,0.07C6.93,8.74,6.9,8.78,6.86,8.78z M7.05,8.58
					c-0.04,0-0.07-0.03-0.07-0.07c0-0.04,0.03-0.07,0.07-0.07c0.04,0,0.07,0.03,0.07,0.07C7.12,8.55,7.09,8.58,7.05,8.58z
					 M7.24,8.78c-0.04,0-0.07-0.03-0.07-0.07c0-0.04,0.03-0.07,0.07-0.07c0.04,0,0.07,0.03,0.07,0.07C7.31,8.74,7.28,8.78,7.24,8.78
					z M7.24,8.39c-0.04,0-0.07-0.03-0.07-0.07c0-0.04,0.03-0.07,0.07-0.07c0.04,0,0.07,0.03,0.07,0.07
					C7.31,8.36,7.28,8.39,7.24,8.39z"/>
			</g>
			<g>
				<path class="st6" d="M6.44,7.43v-0.5l-0.7,0l0,0.5v0c0,0.1,0.04,0.2,0.1,0.27C5.91,7.77,6,7.81,6.09,7.81
					c0.1,0,0.18-0.04,0.25-0.11C6.4,7.63,6.44,7.54,6.44,7.43L6.44,7.43z M5.91,7.05c0.04,0,0.07,0.03,0.07,0.07
					c0,0.04-0.03,0.07-0.07,0.07c-0.04,0-0.07-0.03-0.07-0.07C5.84,7.09,5.87,7.05,5.91,7.05z M5.91,7.57
					c-0.04,0-0.07-0.03-0.07-0.07c0-0.04,0.03-0.07,0.07-0.07c0.04,0,0.07,0.03,0.07,0.07C5.98,7.54,5.95,7.57,5.91,7.57z M6.1,7.38
					c-0.04,0-0.07-0.03-0.07-0.07c0-0.04,0.03-0.07,0.07-0.07c0.04,0,0.07,0.03,0.07,0.07C6.17,7.35,6.13,7.38,6.1,7.38z M6.29,7.57
					c-0.04,0-0.07-0.03-0.07-0.07c0-0.04,0.03-0.07,0.07-0.07c0.04,0,0.07,0.03,0.07,0.07C6.36,7.54,6.33,7.57,6.29,7.57z
					 M6.29,7.19c-0.04,0-0.07-0.03-0.07-0.07s0.03-0.07,0.07-0.07c0.04,0,0.07,0.03,0.07,0.07S6.33,7.19,6.29,7.19z"/>
			</g>
			<g>
				<path class="st6" d="M8.38,7.43v-0.5l-0.7,0l0,0.5v0c0,0.1,0.04,0.2,0.1,0.27c0.06,0.07,0.15,0.11,0.25,0.11
					c0.1,0,0.18-0.04,0.25-0.11C8.34,7.63,8.38,7.54,8.38,7.43L8.38,7.43z M7.85,7.05c0.04,0,0.07,0.03,0.07,0.07
					c0,0.04-0.03,0.07-0.07,0.07c-0.04,0-0.07-0.03-0.07-0.07C7.78,7.09,7.81,7.05,7.85,7.05z M7.85,7.57
					c-0.04,0-0.07-0.03-0.07-0.07c0-0.04,0.03-0.07,0.07-0.07c0.04,0,0.07,0.03,0.07,0.07C7.92,7.54,7.89,7.57,7.85,7.57z
					 M8.03,7.38C8,7.38,7.96,7.35,7.96,7.31c0-0.04,0.03-0.07,0.07-0.07c0.04,0,0.07,0.03,0.07,0.07C8.1,7.35,8.07,7.38,8.03,7.38z
					 M8.23,7.57c-0.04,0-0.07-0.03-0.07-0.07c0-0.04,0.03-0.07,0.07-0.07c0.04,0,0.07,0.03,0.07,0.07C8.3,7.54,8.27,7.57,8.23,7.57z
					 M8.23,7.19c-0.04,0-0.07-0.03-0.07-0.07c0-0.04,0.03-0.07,0.07-0.07c0.04,0,0.07,0.03,0.07,0.07C8.3,7.16,8.27,7.19,8.23,7.19z
					"/>
			</g>
			<g>
				<path class="st6" d="M7.41,6.22v-0.5l-0.7,0l0,0.5v0c0,0.1,0.04,0.2,0.1,0.27C6.88,6.56,6.97,6.6,7.06,6.6
					c0.1,0,0.18-0.04,0.25-0.11C7.37,6.42,7.41,6.33,7.41,6.22L7.41,6.22z M6.88,5.84c0.04,0,0.07,0.03,0.07,0.07
					c0,0.04-0.03,0.07-0.07,0.07c-0.04,0-0.07-0.03-0.07-0.07C6.81,5.87,6.84,5.84,6.88,5.84z M6.88,6.36
					c-0.04,0-0.07-0.03-0.07-0.07c0-0.04,0.03-0.07,0.07-0.07c0.04,0,0.07,0.03,0.07,0.07C6.95,6.33,6.92,6.36,6.88,6.36z
					 M7.07,6.17C7.03,6.17,7,6.14,7,6.1s0.03-0.07,0.07-0.07c0.04,0,0.07,0.03,0.07,0.07S7.1,6.17,7.07,6.17z M7.26,6.36
					c-0.04,0-0.07-0.03-0.07-0.07c0-0.04,0.03-0.07,0.07-0.07c0.04,0,0.07,0.03,0.07,0.07C7.33,6.33,7.3,6.36,7.26,6.36z M7.26,5.98
					c-0.04,0-0.07-0.03-0.07-0.07c0-0.04,0.03-0.07,0.07-0.07c0.04,0,0.07,0.03,0.07,0.07C7.33,5.95,7.3,5.98,7.26,5.98z"/>
			</g>
			<g>
				<path class="st7" d="M4.73,5.2c0.01-0.26,0.19-0.32,0.19-0.32c0,0,0.2,0.07,0.2,0.32L4.73,5.2L4.73,5.2z"/>
				<path class="st7" d="M4.58,4.88l-0.03,0.3l0.19,0c0-0.24,0.19-0.29,0.19-0.28c0,0,0.19,0.05,0.19,0.28l0.19,0l-0.03-0.3
					L4.58,4.88L4.58,4.88z"/>
				<path class="st7" d="M4.53,5.18h0.79c0.02,0,0.03,0.02,0.03,0.04l0,0c0,0.02-0.01,0.04-0.03,0.04H4.53
					c-0.02,0-0.03-0.02-0.03-0.04l0,0C4.5,5.2,4.51,5.18,4.53,5.18L4.53,5.18z"/>
				<path class="st7" d="M4.82,5.18c0-0.15,0.11-0.2,0.11-0.2c0,0,0.11,0.05,0.11,0.2L4.82,5.18L4.82,5.18z"/>
				<path class="st7" d="M4.55,4.76h0.76c0.02,0,0.03,0.01,0.03,0.03l0,0c0,0.02-0.01,0.03-0.03,0.03H4.55
					c-0.02,0-0.03-0.01-0.03-0.03l0,0C4.52,4.78,4.53,4.76,4.55,4.76L4.55,4.76z"/>
				<path class="st7" d="M4.56,4.83h0.72c0.02,0,0.03,0.01,0.03,0.03l0,0c0,0.02-0.01,0.03-0.03,0.03H4.56
					c-0.02,0-0.03-0.01-0.03-0.03l0,0C4.54,4.84,4.55,4.83,4.56,4.83L4.56,4.83z"/>
				<path class="st7" d="M4.8,4.33l0.06,0v0.04H4.9V4.33l0.06,0v0.04H5l0-0.04l0.06,0l0,0.09c0,0.01-0.01,0.02-0.03,0.02l-0.21,0
					c-0.01,0-0.03-0.01-0.03-0.02L4.8,4.33L4.8,4.33z"/>
				<polygon class="st7" points="5.01,4.46 5.03,4.76 4.83,4.76 4.84,4.46 5.01,4.46 				"/>
				<path class="st7" d="M5.05,4.48l0.06,0v0.04h0.04V4.48l0.06,0v0.04l0.04,0l0-0.04l0.06,0l0,0.09c0,0.01-0.01,0.02-0.02,0.02
					l-0.2,0c-0.01,0-0.03-0.01-0.03-0.02L5.05,4.48L5.05,4.48z"/>
				<polygon class="st7" points="5.26,4.6 5.27,4.76 5.08,4.76 5.08,4.6 5.26,4.6 				"/>
				<path class="st7" d="M4.55,4.48l0.06,0v0.04h0.04V4.48l0.06,0v0.04l0.04,0l0-0.04l0.06,0l0,0.09c0,0.01-0.01,0.02-0.02,0.02
					l-0.2,0c-0.01,0-0.03-0.01-0.03-0.02L4.55,4.48L4.55,4.48z"/>
				<polygon class="st7" points="4.77,4.6 4.77,4.76 4.58,4.76 4.59,4.6 4.77,4.6 				"/>
				<g>
					<path class="st8" d="M4.91,4.55v0.07h0.04V4.55C4.95,4.52,4.91,4.52,4.91,4.55z"/>
					<path class="st8" d="M5.15,4.66v0.06h0.04V4.66C5.19,4.63,5.15,4.63,5.15,4.66z"/>
					<path class="st8" d="M4.66,4.66v0.06H4.7V4.66C4.7,4.63,4.66,4.63,4.66,4.66z"/>
					<path class="st8" d="M5.32,5.17L5.29,4.9c0.02,0,0.04-0.02,0.04-0.04c0-0.01,0-0.02-0.01-0.02c0.02-0.01,0.03-0.02,0.03-0.04
						c0-0.02-0.02-0.04-0.04-0.04H5.28L5.28,4.61c0.02,0,0.04-0.02,0.04-0.04l0-0.11l-0.08,0v0.04H5.21V4.47l-0.08,0v0.04H5.11V4.47
						l-0.08,0l0,0.1c0,0.02,0.02,0.03,0.03,0.03l0,0.14H5.04L5.03,4.46h0.01c0.02,0,0.04-0.02,0.04-0.04l0-0.11l-0.08,0v0.04H4.97
						V4.32l-0.08,0v0.04H4.87V4.32l-0.08,0l0,0.1c0,0.02,0.02,0.04,0.04,0.04h0L4.81,4.75H4.79L4.78,4.61
						c0.02,0,0.04-0.02,0.04-0.04l0-0.11l-0.08,0l0,0.04H4.72V4.47l-0.08,0v0.04H4.62V4.47l-0.08,0l0,0.1
						c0,0.02,0.02,0.03,0.03,0.04l0,0.14H4.55c-0.02,0-0.04,0.02-0.04,0.04c0,0.02,0.01,0.03,0.02,0.04c0,0.01-0.01,0.02-0.01,0.02
						c0,0.02,0.02,0.04,0.04,0.04L4.53,5.17h0c-0.02,0-0.04,0.02-0.04,0.05s0.02,0.05,0.04,0.05h0.79c0.02,0,0.04-0.02,0.04-0.05
						C5.36,5.19,5.34,5.17,5.32,5.17z M5.3,5.17l-0.17,0c-0.01-0.12-0.06-0.19-0.1-0.23C5.01,4.93,4.99,4.91,4.98,4.9h0.29L5.3,5.17
						z M4.93,4.97L4.93,4.97C4.92,4.97,4.89,4.99,4.88,5C4.85,5.02,4.81,5.08,4.81,5.17H4.75c0.01-0.23,0.18-0.26,0.18-0.26
						c0,0,0.17,0.05,0.18,0.26H5.05C5.04,5.02,4.93,4.97,4.93,4.97z M5.02,5.17l-0.19,0C4.84,5.05,4.91,5,4.92,4.99
						C4.94,5,5.02,5.05,5.02,5.17z M5.06,4.57l0-0.08l0.03,0v0.04h0.06V4.49l0.03,0v0.04l0.06,0V4.49l0.03,0l0,0.08
						c0,0.01-0.01,0.01-0.01,0.01l-0.2,0C5.07,4.59,5.06,4.58,5.06,4.57z M5.26,4.75l-0.17,0l0-0.14l0.16,0L5.26,4.75z M4.82,4.44
						c-0.01,0-0.01-0.01-0.01-0.01l0-0.08l0.03,0v0.04h0.06V4.34l0.04,0v0.04h0.07V4.34l0.04,0l0,0.08c0,0.01-0.01,0.01-0.01,0.01
						H4.82z M5.01,4.75l-0.18,0l0.01-0.28l0.15,0L5.01,4.75z M4.56,4.57l0-0.08l0.03,0v0.04h0.06V4.49l0.03,0v0.04h0.06l0-0.04
						l0.03,0l0,0.08c0,0.01-0.01,0.01-0.01,0.01l-0.2,0C4.57,4.59,4.56,4.58,4.56,4.57z M4.76,4.75l-0.17,0l0-0.14l0.16,0L4.76,4.75
						z M4.53,4.79c0-0.01,0.01-0.02,0.02-0.02h0.76c0.01,0,0.02,0.01,0.02,0.02S5.31,4.82,5.31,4.82H4.55
						C4.54,4.82,4.53,4.81,4.53,4.79z M4.55,4.86c0-0.01,0.01-0.02,0.02-0.02h0.72c0.01,0,0.02,0.01,0.02,0.02
						c0,0.01-0.01,0.02-0.02,0.02h0H4.56h0C4.56,4.88,4.55,4.87,4.55,4.86z M4.59,4.9h0.29C4.86,4.91,4.84,4.92,4.83,4.93
						c-0.05,0.04-0.1,0.11-0.1,0.24l-0.17,0L4.59,4.9z M5.32,5.24H4.53c-0.01,0-0.02-0.01-0.02-0.02c0-0.01,0.01-0.02,0.02-0.02
						h0.79c0.01,0,0.02,0.01,0.02,0.02C5.34,5.23,5.33,5.24,5.32,5.24z"/>
				</g>
			</g>
			<g>
				<path class="st7" d="M6.86,5.2c0.01-0.26,0.19-0.32,0.19-0.32c0,0,0.2,0.07,0.2,0.32L6.86,5.2L6.86,5.2z"/>
				<path class="st7" d="M6.71,4.88l-0.03,0.3l0.19,0c0-0.24,0.19-0.29,0.19-0.28c0,0,0.19,0.05,0.19,0.28l0.19,0l-0.03-0.3
					L6.71,4.88L6.71,4.88z"/>
				<path class="st7" d="M6.66,5.18h0.79c0.02,0,0.03,0.02,0.03,0.04l0,0c0,0.02-0.01,0.04-0.03,0.04H6.66
					c-0.02,0-0.03-0.02-0.03-0.04l0,0C6.63,5.2,6.65,5.18,6.66,5.18L6.66,5.18z"/>
				<path class="st7" d="M6.95,5.18c0-0.15,0.11-0.2,0.11-0.2c0,0,0.11,0.05,0.11,0.2L6.95,5.18L6.95,5.18z"/>
				<path class="st7" d="M6.68,4.76h0.76c0.02,0,0.03,0.01,0.03,0.03l0,0c0,0.02-0.01,0.03-0.03,0.03H6.68
					c-0.02,0-0.03-0.01-0.03-0.03l0,0C6.65,4.78,6.66,4.76,6.68,4.76L6.68,4.76z"/>
				<path class="st7" d="M6.7,4.83h0.72c0.02,0,0.03,0.01,0.03,0.03l0,0c0,0.02-0.01,0.03-0.03,0.03H6.7
					c-0.02,0-0.03-0.01-0.03-0.03l0,0C6.67,4.84,6.68,4.83,6.7,4.83L6.7,4.83z"/>
				<path class="st7" d="M6.93,4.33l0.06,0v0.04h0.04V4.33l0.06,0v0.04h0.04l0-0.04l0.06,0l0,0.09c0,0.01-0.01,0.02-0.03,0.02
					l-0.21,0c-0.01,0-0.03-0.01-0.03-0.02L6.93,4.33L6.93,4.33z"/>
				<polygon class="st7" points="7.14,4.46 7.16,4.76 6.96,4.76 6.97,4.46 7.14,4.46 				"/>
				<path class="st7" d="M7.18,4.48l0.06,0v0.04h0.04V4.48l0.06,0v0.04l0.04,0l0-0.04l0.06,0l0,0.09c0,0.01-0.01,0.02-0.02,0.02
					l-0.2,0c-0.01,0-0.03-0.01-0.03-0.02L7.18,4.48L7.18,4.48z"/>
				<polygon class="st7" points="7.39,4.6 7.4,4.76 7.21,4.76 7.21,4.6 7.39,4.6 				"/>
				<path class="st7" d="M6.68,4.48l0.06,0v0.04h0.04V4.48l0.06,0v0.04l0.04,0l0-0.04l0.06,0l0,0.09c0,0.01-0.01,0.02-0.02,0.02
					l-0.2,0c-0.01,0-0.03-0.01-0.03-0.02L6.68,4.48L6.68,4.48z"/>
				<polygon class="st7" points="6.9,4.6 6.91,4.76 6.71,4.76 6.72,4.6 6.9,4.6 				"/>
				<g>
					<path class="st8" d="M7.04,4.55v0.07h0.04V4.55C7.08,4.52,7.04,4.53,7.04,4.55z"/>
					<path class="st8" d="M7.29,4.66v0.06h0.04V4.66C7.32,4.63,7.29,4.63,7.29,4.66z"/>
					<path class="st8" d="M6.79,4.66v0.06h0.04V4.66C6.83,4.63,6.79,4.63,6.79,4.66z"/>
					<path class="st8" d="M7.45,5.17L7.42,4.9c0.02,0,0.04-0.02,0.04-0.04c0-0.01,0-0.02-0.01-0.02c0.02-0.01,0.03-0.02,0.03-0.04
						c0-0.02-0.02-0.04-0.04-0.04H7.41L7.41,4.61c0.02,0,0.04-0.02,0.04-0.04l0-0.11l-0.08,0v0.04H7.34V4.47l-0.08,0v0.04H7.25V4.47
						l-0.08,0l0,0.1c0,0.02,0.02,0.03,0.03,0.03l0,0.14H7.17L7.16,4.46h0.01c0.02,0,0.04-0.02,0.04-0.04l0-0.11l-0.08,0v0.04H7.1
						V4.32l-0.08,0v0.04H7V4.32l-0.08,0l0,0.1c0,0.02,0.02,0.04,0.04,0.04h0L6.95,4.75H6.92L6.91,4.61c0.02,0,0.04-0.02,0.04-0.04
						l0-0.11l-0.08,0l0,0.04H6.85V4.47l-0.08,0v0.04H6.75V4.47l-0.08,0l0,0.1c0,0.02,0.02,0.03,0.03,0.04l0,0.14H6.68
						c-0.02,0-0.04,0.02-0.04,0.04c0,0.02,0.01,0.03,0.02,0.04c0,0.01-0.01,0.02-0.01,0.02c0,0.02,0.02,0.04,0.04,0.04L6.66,5.17h0
						c-0.02,0-0.04,0.02-0.04,0.05c0,0.03,0.02,0.05,0.04,0.05h0.79c0.02,0,0.04-0.02,0.04-0.05C7.49,5.19,7.48,5.17,7.45,5.17z
						 M7.43,5.17l-0.17,0C7.25,5.05,7.2,4.98,7.16,4.94C7.14,4.93,7.12,4.91,7.11,4.9H7.4L7.43,5.17z M7.06,4.97L7.06,4.97
						C7.05,4.97,7.02,4.99,7.01,5C6.98,5.02,6.94,5.08,6.94,5.17H6.88c0.01-0.23,0.18-0.26,0.18-0.26c0,0,0.17,0.05,0.18,0.26H7.18
						C7.17,5.02,7.07,4.97,7.06,4.97z M7.15,5.17l-0.19,0C6.97,5.05,7.04,5,7.06,4.99C7.08,5,7.15,5.05,7.15,5.17z M7.19,4.57
						l0-0.08l0.03,0v0.04h0.06V4.49l0.03,0v0.04l0.06,0V4.49l0.03,0l0,0.08c0,0.01-0.01,0.01-0.01,0.01l-0.2,0
						C7.2,4.59,7.19,4.58,7.19,4.57z M7.39,4.75l-0.17,0l0-0.14l0.16,0L7.39,4.75z M6.96,4.44c-0.01,0-0.01-0.01-0.01-0.01l0-0.08
						l0.03,0v0.04h0.06V4.34l0.04,0v0.04h0.07V4.34l0.04,0l0,0.08c0,0.01-0.01,0.01-0.01,0.01H6.96z M7.15,4.75l-0.18,0l0.01-0.28
						l0.15,0L7.15,4.75z M6.7,4.57l0-0.08l0.03,0v0.04h0.06V4.49l0.03,0v0.04h0.06l0-0.04l0.03,0l0,0.08c0,0.01-0.01,0.01-0.01,0.01
						l-0.2,0C6.7,4.59,6.7,4.58,6.7,4.57z M6.89,4.75l-0.17,0l0-0.14l0.16,0L6.89,4.75z M6.66,4.79c0-0.01,0.01-0.02,0.02-0.02h0.76
						c0.01,0,0.02,0.01,0.02,0.02c0,0.01-0.01,0.02-0.02,0.02H6.68C6.67,4.82,6.66,4.81,6.66,4.79z M6.68,4.86
						c0-0.01,0.01-0.02,0.02-0.02h0.72c0.01,0,0.02,0.01,0.02,0.02c0,0.01-0.01,0.02-0.02,0.02h0H6.7h0
						C6.69,4.88,6.68,4.87,6.68,4.86z M6.72,4.9H7C6.99,4.91,6.98,4.92,6.96,4.93c-0.05,0.04-0.1,0.11-0.1,0.24l-0.17,0L6.72,4.9z
						 M7.45,5.24H6.66c-0.01,0-0.02-0.01-0.02-0.02c0-0.01,0.01-0.02,0.02-0.02h0.79c0.01,0,0.02,0.01,0.02,0.02
						C7.47,5.23,7.46,5.24,7.45,5.24z"/>
				</g>
			</g>
			<g>
				<path class="st7" d="M8.97,5.2c0.01-0.26,0.19-0.32,0.19-0.32c0,0,0.2,0.07,0.2,0.32L8.97,5.2L8.97,5.2z"/>
				<path class="st7" d="M8.81,4.89l-0.03,0.3l0.19,0c0-0.24,0.19-0.29,0.19-0.28c0,0,0.19,0.05,0.19,0.28l0.19,0l-0.03-0.3
					L8.81,4.89L8.81,4.89z"/>
				<path class="st7" d="M8.77,5.18h0.79c0.02,0,0.03,0.02,0.03,0.04l0,0c0,0.02-0.01,0.04-0.03,0.04H8.77
					c-0.02,0-0.03-0.02-0.03-0.04l0,0C8.74,5.2,8.75,5.18,8.77,5.18L8.77,5.18z"/>
				<path class="st7" d="M9.06,5.18c0-0.15,0.11-0.2,0.11-0.2c0,0,0.11,0.05,0.11,0.2L9.06,5.18L9.06,5.18z"/>
				<path class="st7" d="M8.79,4.76h0.76c0.02,0,0.03,0.01,0.03,0.03l0,0c0,0.02-0.01,0.03-0.03,0.03H8.79
					c-0.02,0-0.03-0.01-0.03-0.03l0,0C8.76,4.78,8.77,4.76,8.79,4.76L8.79,4.76z"/>
				<path class="st7" d="M8.8,4.83h0.72c0.02,0,0.03,0.01,0.03,0.03l0,0c0,0.02-0.01,0.03-0.03,0.03H8.8
					c-0.02,0-0.03-0.01-0.03-0.03l0,0C8.77,4.84,8.79,4.83,8.8,4.83L8.8,4.83z"/>
				<path class="st7" d="M9.04,4.34l0.06,0v0.04h0.04V4.33l0.06,0v0.04h0.04l0-0.04l0.06,0l0,0.09c0,0.01-0.01,0.02-0.03,0.02
					l-0.21,0c-0.01,0-0.03-0.01-0.03-0.02L9.04,4.34L9.04,4.34z"/>
				<polygon class="st7" points="9.25,4.46 9.26,4.76 9.06,4.76 9.08,4.46 9.25,4.46 				"/>
				<path class="st7" d="M9.29,4.48l0.06,0v0.04h0.04V4.48l0.06,0v0.04l0.04,0l0-0.04l0.06,0l0,0.09c0,0.01-0.01,0.02-0.02,0.02
					l-0.2,0c-0.01,0-0.03-0.01-0.03-0.02L9.29,4.48L9.29,4.48z"/>
				<polygon class="st7" points="9.5,4.6 9.51,4.76 9.32,4.76 9.32,4.6 9.5,4.6 				"/>
				<path class="st7" d="M8.79,4.48l0.06,0v0.04h0.04V4.48l0.06,0v0.04l0.04,0l0-0.04l0.06,0l0,0.09c0,0.01-0.01,0.02-0.02,0.02
					l-0.2,0c-0.01,0-0.03-0.01-0.03-0.02L8.79,4.48L8.79,4.48z"/>
				<polygon class="st7" points="9.01,4.6 9.01,4.76 8.82,4.76 8.83,4.6 9.01,4.6 				"/>
				<g>
					<path class="st8" d="M9.14,4.56v0.07h0.04V4.56C9.19,4.53,9.14,4.53,9.14,4.56z"/>
					<path class="st8" d="M9.39,4.66v0.06h0.04V4.66C9.43,4.63,9.39,4.63,9.39,4.66z"/>
					<path class="st8" d="M8.9,4.66v0.06h0.04V4.66C8.94,4.63,8.9,4.63,8.9,4.66z"/>
					<path class="st8" d="M9.56,5.17L9.53,4.91c0.02,0,0.04-0.02,0.04-0.04c0-0.01,0-0.02-0.01-0.02C9.57,4.83,9.58,4.81,9.58,4.8
						c0-0.02-0.02-0.04-0.04-0.04H9.52L9.51,4.61c0.02,0,0.04-0.02,0.04-0.04l0-0.11l-0.08,0v0.04H9.45V4.47l-0.08,0v0.04H9.35V4.47
						l-0.08,0l0,0.1c0,0.02,0.02,0.03,0.03,0.03l0,0.14H9.28L9.26,4.46h0.01c0.02,0,0.04-0.02,0.04-0.04l0-0.11l-0.08,0v0.04H9.21
						V4.32l-0.08,0v0.04H9.11V4.32l-0.08,0l0,0.1c0,0.02,0.02,0.04,0.04,0.04h0L9.05,4.75H9.02L9.02,4.61
						c0.02,0,0.04-0.02,0.04-0.04l0-0.11l-0.08,0l0,0.04H8.96V4.47l-0.08,0v0.04H8.86V4.47l-0.08,0l0,0.1
						c0,0.02,0.02,0.03,0.03,0.04l0,0.14H8.79c-0.02,0-0.04,0.02-0.04,0.04c0,0.02,0.01,0.03,0.02,0.04c0,0.01-0.01,0.02-0.01,0.02
						c0,0.02,0.02,0.04,0.04,0.04L8.77,5.17h0c-0.02,0-0.04,0.02-0.04,0.05c0,0.03,0.02,0.05,0.04,0.05h0.79
						c0.02,0,0.04-0.02,0.04-0.05C9.6,5.19,9.58,5.17,9.56,5.17z M9.54,5.17l-0.17,0c-0.01-0.12-0.06-0.19-0.1-0.23
						C9.25,4.93,9.23,4.92,9.21,4.91h0.29L9.54,5.17z M9.16,4.97L9.16,4.97C9.16,4.97,9.13,4.99,9.12,5
						C9.09,5.03,9.05,5.08,9.05,5.17H8.99C9,4.94,9.16,4.91,9.16,4.91c0,0,0.17,0.05,0.18,0.26H9.28C9.28,5.02,9.17,4.97,9.16,4.97z
						 M9.26,5.17l-0.19,0C9.07,5.05,9.15,5.01,9.16,5C9.18,5.01,9.26,5.05,9.26,5.17z M9.3,4.57l0-0.08l0.03,0v0.04h0.06V4.49
						l0.03,0v0.04l0.06,0V4.49l0.03,0l0,0.08c0,0.01-0.01,0.01-0.01,0.01l-0.2,0C9.3,4.59,9.3,4.58,9.3,4.57z M9.5,4.75l-0.17,0
						l0-0.14l0.16,0L9.5,4.75z M9.06,4.44c-0.01,0-0.01-0.01-0.01-0.01l0-0.08l0.03,0v0.04h0.06V4.35l0.04,0v0.04h0.07V4.35l0.04,0
						l0,0.08c0,0.01-0.01,0.01-0.01,0.01H9.06z M9.25,4.75l-0.18,0l0.01-0.28l0.15,0L9.25,4.75z M8.8,4.58l0-0.08l0.03,0v0.04H8.9
						V4.49l0.03,0v0.04H9l0-0.04l0.03,0l0,0.08c0,0.01-0.01,0.01-0.01,0.01l-0.2,0C8.81,4.59,8.8,4.58,8.8,4.58z M9,4.75l-0.17,0
						l0-0.14l0.16,0L9,4.75z M8.77,4.8c0-0.01,0.01-0.02,0.02-0.02h0.76c0.01,0,0.02,0.01,0.02,0.02c0,0.01-0.01,0.02-0.02,0.02
						H8.79C8.78,4.82,8.77,4.81,8.77,4.8z M8.79,4.86c0-0.01,0.01-0.02,0.02-0.02h0.72c0.01,0,0.02,0.01,0.02,0.02
						c0,0.01-0.01,0.02-0.02,0.02h0H8.8h0C8.79,4.88,8.79,4.87,8.79,4.86z M8.82,4.91h0.29C9.1,4.91,9.08,4.92,9.07,4.93
						c-0.05,0.04-0.1,0.11-0.1,0.24l-0.17,0L8.82,4.91z M9.56,5.24H8.77c-0.01,0-0.02-0.01-0.02-0.02c0-0.01,0.01-0.02,0.02-0.02
						h0.79c0.01,0,0.02,0.01,0.02,0.02C9.58,5.23,9.57,5.24,9.56,5.24z"/>
				</g>
			</g>
			<g>
				<path class="st7" d="M8.97,7.36C8.98,7.1,9.16,7.04,9.16,7.04c0,0,0.2,0.07,0.2,0.32L8.97,7.36L8.97,7.36z"/>
				<path class="st7" d="M8.81,7.04l-0.03,0.3l0.19,0c0-0.24,0.19-0.29,0.19-0.28c0,0,0.19,0.05,0.19,0.28l0.19,0l-0.03-0.3
					L8.81,7.04L8.81,7.04z"/>
				<path class="st7" d="M8.77,7.34h0.79c0.02,0,0.03,0.02,0.03,0.04l0,0c0,0.02-0.01,0.04-0.03,0.04H8.77
					c-0.02,0-0.03-0.02-0.03-0.04l0,0C8.74,7.36,8.75,7.34,8.77,7.34L8.77,7.34z"/>
				<path class="st7" d="M9.06,7.34c0-0.15,0.11-0.2,0.11-0.2c0,0,0.11,0.05,0.11,0.2L9.06,7.34L9.06,7.34z"/>
				<path class="st7" d="M8.79,6.92h0.76c0.02,0,0.03,0.01,0.03,0.03l0,0c0,0.02-0.01,0.03-0.03,0.03H8.79
					c-0.02,0-0.03-0.01-0.03-0.03l0,0C8.76,6.94,8.77,6.92,8.79,6.92L8.79,6.92z"/>
				<path class="st7" d="M8.8,6.99h0.72c0.02,0,0.03,0.01,0.03,0.03l0,0c0,0.02-0.01,0.03-0.03,0.03H8.8
					c-0.02,0-0.03-0.01-0.03-0.03l0,0C8.77,7,8.79,6.99,8.8,6.99L8.8,6.99z"/>
				<path class="st7" d="M9.04,6.49l0.06,0v0.04h0.04V6.49l0.06,0v0.04h0.04l0-0.04l0.06,0l0,0.09c0,0.01-0.01,0.02-0.03,0.02
					l-0.21,0c-0.01,0-0.03-0.01-0.03-0.02L9.04,6.49L9.04,6.49z"/>
				<polygon class="st7" points="9.25,6.62 9.26,6.92 9.06,6.92 9.08,6.62 9.25,6.62 				"/>
				<path class="st7" d="M9.29,6.64l0.06,0v0.04h0.04V6.64l0.06,0v0.04l0.04,0l0-0.04l0.06,0l0,0.09c0,0.01-0.01,0.02-0.02,0.02
					l-0.2,0c-0.01,0-0.03-0.01-0.03-0.02L9.29,6.64L9.29,6.64z"/>
				<polygon class="st7" points="9.5,6.76 9.51,6.92 9.32,6.92 9.32,6.76 9.5,6.76 				"/>
				<path class="st7" d="M8.79,6.64l0.06,0v0.04h0.04V6.64l0.06,0v0.04l0.04,0l0-0.04l0.06,0l0,0.09c0,0.01-0.01,0.02-0.02,0.02
					l-0.2,0c-0.01,0-0.03-0.01-0.03-0.02L8.79,6.64L8.79,6.64z"/>
				<polygon class="st7" points="9.01,6.76 9.01,6.92 8.82,6.92 8.83,6.76 9.01,6.76 				"/>
				<g>
					<path class="st8" d="M9.14,6.71v0.07h0.04V6.71C9.19,6.68,9.14,6.68,9.14,6.71z"/>
					<path class="st8" d="M9.39,6.82v0.06h0.04V6.82C9.43,6.79,9.39,6.79,9.39,6.82z"/>
					<path class="st8" d="M8.9,6.82v0.06h0.04V6.82C8.94,6.79,8.9,6.79,8.9,6.82z"/>
					<path class="st8" d="M9.56,7.33L9.53,7.06c0.02,0,0.04-0.02,0.04-0.04c0-0.01,0-0.02-0.01-0.02c0.02-0.01,0.03-0.02,0.03-0.04
						c0-0.02-0.02-0.04-0.04-0.04H9.52L9.51,6.77c0.02,0,0.04-0.02,0.04-0.04l0-0.11l-0.08,0v0.04H9.45V6.63l-0.08,0v0.04H9.35V6.63
						l-0.08,0l0,0.1c0,0.02,0.02,0.03,0.03,0.03l0,0.14H9.28L9.26,6.62h0.01c0.02,0,0.04-0.02,0.04-0.04l0-0.11l-0.08,0v0.04H9.21
						V6.48l-0.08,0v0.04H9.11V6.48l-0.08,0l0,0.1c0,0.02,0.02,0.04,0.04,0.04h0L9.05,6.91H9.02L9.02,6.77
						c0.02,0,0.04-0.02,0.04-0.04l0-0.11l-0.08,0l0,0.04H8.96V6.63l-0.08,0v0.04H8.86V6.63l-0.08,0l0,0.1
						c0,0.02,0.02,0.03,0.03,0.04l0,0.14H8.79c-0.02,0-0.04,0.02-0.04,0.04c0,0.02,0.01,0.03,0.02,0.04c0,0.01-0.01,0.02-0.01,0.02
						c0,0.02,0.02,0.04,0.04,0.04L8.77,7.33h0c-0.02,0-0.04,0.02-0.04,0.05s0.02,0.05,0.04,0.05h0.79c0.02,0,0.04-0.02,0.04-0.05
						C9.6,7.35,9.58,7.33,9.56,7.33z M9.54,7.33l-0.17,0C9.36,7.21,9.31,7.14,9.27,7.1C9.25,7.08,9.23,7.07,9.21,7.06h0.29
						L9.54,7.33z M9.16,7.13L9.16,7.13c-0.01,0-0.03,0.02-0.04,0.03C9.09,7.18,9.05,7.24,9.05,7.33H8.99C9,7.1,9.16,7.07,9.16,7.07
						c0,0,0.17,0.05,0.18,0.26H9.28C9.28,7.18,9.17,7.13,9.16,7.13z M9.26,7.33l-0.19,0c0.01-0.12,0.08-0.16,0.09-0.17
						C9.18,7.16,9.26,7.21,9.26,7.33z M9.3,6.73l0-0.08l0.03,0v0.04h0.06V6.65l0.03,0v0.04l0.06,0V6.65l0.03,0l0,0.08
						c0,0.01-0.01,0.01-0.01,0.01l-0.2,0C9.3,6.75,9.3,6.74,9.3,6.73z M9.5,6.91l-0.17,0l0-0.14l0.16,0L9.5,6.91z M9.06,6.6
						c-0.01,0-0.01-0.01-0.01-0.01l0-0.08l0.03,0v0.04h0.06V6.5l0.04,0v0.04h0.07V6.5l0.04,0l0,0.08c0,0.01-0.01,0.01-0.01,0.01
						H9.06z M9.25,6.91l-0.18,0l0.01-0.28l0.15,0L9.25,6.91z M8.8,6.73l0-0.08l0.03,0v0.04H8.9V6.65l0.03,0v0.04H9l0-0.04l0.03,0
						l0,0.08c0,0.01-0.01,0.01-0.01,0.01l-0.2,0C8.81,6.75,8.8,6.74,8.8,6.73z M9,6.91l-0.17,0l0-0.14l0.16,0L9,6.91z M8.77,6.95
						c0-0.01,0.01-0.02,0.02-0.02h0.76c0.01,0,0.02,0.01,0.02,0.02S9.55,6.97,9.54,6.97H8.79C8.78,6.97,8.77,6.96,8.77,6.95z
						 M8.79,7.02C8.79,7.01,8.79,7,8.8,7h0.72c0.01,0,0.02,0.01,0.02,0.02c0,0.01-0.01,0.02-0.02,0.02h0H8.8h0
						C8.79,7.04,8.79,7.03,8.79,7.02z M8.82,7.06h0.29C9.1,7.07,9.08,7.08,9.07,7.09c-0.05,0.04-0.1,0.11-0.1,0.24l-0.17,0
						L8.82,7.06z M9.56,7.4H8.77c-0.01,0-0.02-0.01-0.02-0.02c0-0.01,0.01-0.02,0.02-0.02h0.79c0.01,0,0.02,0.01,0.02,0.02
						C9.58,7.39,9.57,7.4,9.56,7.4z"/>
				</g>
			</g>
			<g>
				<path class="st7" d="M4.73,7.36C4.74,7.1,4.92,7.04,4.92,7.04c0,0,0.2,0.07,0.2,0.32L4.73,7.36L4.73,7.36z"/>
				<path class="st7" d="M4.58,7.04l-0.03,0.3l0.19,0c0-0.24,0.19-0.29,0.19-0.28c0,0,0.19,0.05,0.19,0.28l0.19,0l-0.03-0.3
					L4.58,7.04L4.58,7.04z"/>
				<path class="st7" d="M4.53,7.34h0.79c0.02,0,0.03,0.02,0.03,0.04l0,0c0,0.02-0.01,0.04-0.03,0.04H4.53
					C4.51,7.41,4.5,7.4,4.5,7.38l0,0C4.5,7.36,4.51,7.34,4.53,7.34L4.53,7.34z"/>
				<path class="st7" d="M4.82,7.34c0-0.15,0.11-0.2,0.11-0.2c0,0,0.11,0.05,0.11,0.2L4.82,7.34L4.82,7.34z"/>
				<path class="st7" d="M4.55,6.92h0.76c0.02,0,0.03,0.01,0.03,0.03l0,0c0,0.02-0.01,0.03-0.03,0.03H4.55
					c-0.02,0-0.03-0.01-0.03-0.03l0,0C4.52,6.94,4.53,6.92,4.55,6.92L4.55,6.92z"/>
				<path class="st7" d="M4.56,6.99h0.72C5.3,6.99,5.32,7,5.32,7.02l0,0c0,0.02-0.01,0.03-0.03,0.03H4.56
					c-0.02,0-0.03-0.01-0.03-0.03l0,0C4.54,7,4.55,6.99,4.56,6.99L4.56,6.99z"/>
				<path class="st7" d="M4.8,6.49l0.06,0v0.04H4.9V6.49l0.06,0v0.04H5l0-0.04l0.06,0l0,0.09c0,0.01-0.01,0.02-0.03,0.02l-0.21,0
					C4.81,6.61,4.8,6.6,4.8,6.59L4.8,6.49L4.8,6.49z"/>
				<polygon class="st7" points="5.01,6.62 5.03,6.92 4.83,6.92 4.84,6.62 5.01,6.62 				"/>
				<path class="st7" d="M5.05,6.64l0.06,0v0.04h0.04V6.64l0.06,0v0.04l0.04,0l0-0.04l0.06,0l0,0.09c0,0.01-0.01,0.02-0.02,0.02
					l-0.2,0c-0.01,0-0.03-0.01-0.03-0.02L5.05,6.64L5.05,6.64z"/>
				<polygon class="st7" points="5.26,6.76 5.27,6.92 5.08,6.92 5.08,6.76 5.26,6.76 				"/>
				<path class="st7" d="M4.55,6.64l0.06,0v0.04h0.04V6.64l0.06,0v0.04l0.04,0l0-0.04l0.06,0l0,0.09c0,0.01-0.01,0.02-0.02,0.02
					l-0.2,0c-0.01,0-0.03-0.01-0.03-0.02L4.55,6.64L4.55,6.64z"/>
				<polygon class="st7" points="4.77,6.76 4.77,6.92 4.58,6.92 4.59,6.76 4.77,6.76 				"/>
				<g>
					<path class="st8" d="M4.91,6.71v0.07h0.04V6.71C4.95,6.68,4.91,6.68,4.91,6.71z"/>
					<path class="st8" d="M5.15,6.82v0.06h0.04V6.82C5.19,6.79,5.15,6.79,5.15,6.82z"/>
					<path class="st8" d="M4.66,6.82v0.06H4.7V6.82C4.7,6.79,4.66,6.79,4.66,6.82z"/>
					<path class="st8" d="M5.32,7.33L5.29,7.06c0.02,0,0.04-0.02,0.04-0.04c0-0.01,0-0.02-0.01-0.02c0.02-0.01,0.03-0.02,0.03-0.04
						c0-0.02-0.02-0.04-0.04-0.04H5.28L5.28,6.77c0.02,0,0.04-0.02,0.04-0.04l0-0.11l-0.08,0v0.04H5.21V6.63l-0.08,0v0.04H5.11V6.63
						l-0.08,0l0,0.1c0,0.02,0.02,0.03,0.03,0.03l0,0.14H5.04L5.03,6.62h0.01c0.02,0,0.04-0.02,0.04-0.04l0-0.11l-0.08,0v0.04H4.97
						V6.48l-0.08,0v0.04H4.87V6.48l-0.08,0l0,0.1c0,0.02,0.02,0.04,0.04,0.04h0L4.81,6.91H4.79L4.78,6.77
						c0.02,0,0.04-0.02,0.04-0.04l0-0.11l-0.08,0l0,0.04H4.72V6.63l-0.08,0v0.04H4.62V6.63l-0.08,0l0,0.1
						c0,0.02,0.02,0.03,0.03,0.04l0,0.14H4.55c-0.02,0-0.04,0.02-0.04,0.04c0,0.02,0.01,0.03,0.02,0.04c0,0.01-0.01,0.02-0.01,0.02
						c0,0.02,0.02,0.04,0.04,0.04L4.53,7.33h0c-0.02,0-0.04,0.02-0.04,0.05s0.02,0.05,0.04,0.05h0.79c0.02,0,0.04-0.02,0.04-0.05
						C5.36,7.35,5.34,7.33,5.32,7.33z M5.3,7.33l-0.17,0C5.12,7.21,5.07,7.14,5.03,7.1C5.01,7.08,4.99,7.07,4.98,7.06h0.29L5.3,7.33
						z M4.93,7.13L4.93,7.13c-0.01,0-0.03,0.02-0.04,0.03C4.85,7.18,4.81,7.24,4.81,7.33H4.75C4.76,7.1,4.93,7.07,4.93,7.07
						c0,0,0.17,0.05,0.18,0.26H5.05C5.04,7.18,4.93,7.13,4.93,7.13z M5.02,7.33l-0.19,0c0.01-0.12,0.08-0.16,0.09-0.17
						C4.94,7.16,5.02,7.21,5.02,7.33z M5.06,6.73l0-0.08l0.03,0v0.04h0.06V6.65l0.03,0v0.04l0.06,0V6.65l0.03,0l0,0.08
						c0,0.01-0.01,0.01-0.01,0.01l-0.2,0C5.07,6.75,5.06,6.74,5.06,6.73z M5.26,6.91l-0.17,0l0-0.14l0.16,0L5.26,6.91z M4.82,6.6
						c-0.01,0-0.01-0.01-0.01-0.01l0-0.08l0.03,0v0.04h0.06V6.5l0.04,0v0.04h0.07V6.5l0.04,0l0,0.08c0,0.01-0.01,0.01-0.01,0.01
						H4.82z M5.01,6.91l-0.18,0l0.01-0.28l0.15,0L5.01,6.91z M4.56,6.73l0-0.08l0.03,0v0.04h0.06V6.65l0.03,0v0.04h0.06l0-0.04
						l0.03,0l0,0.08c0,0.01-0.01,0.01-0.01,0.01l-0.2,0C4.57,6.75,4.56,6.74,4.56,6.73z M4.76,6.91l-0.17,0l0-0.14l0.16,0L4.76,6.91
						z M4.53,6.95c0-0.01,0.01-0.02,0.02-0.02h0.76c0.01,0,0.02,0.01,0.02,0.02S5.31,6.97,5.31,6.97H4.55
						C4.54,6.97,4.53,6.96,4.53,6.95z M4.55,7.02C4.55,7.01,4.56,7,4.56,7h0.72C5.3,7,5.3,7.01,5.3,7.02c0,0.01-0.01,0.02-0.02,0.02
						h0H4.56h0C4.56,7.04,4.55,7.03,4.55,7.02z M4.59,7.06h0.29C4.86,7.07,4.84,7.08,4.83,7.09c-0.05,0.04-0.1,0.11-0.1,0.24
						l-0.17,0L4.59,7.06z M5.32,7.4H4.53c-0.01,0-0.02-0.01-0.02-0.02c0-0.01,0.01-0.02,0.02-0.02h0.79c0.01,0,0.02,0.01,0.02,0.02
						C5.34,7.39,5.33,7.4,5.32,7.4z"/>
				</g>
			</g>
			<g>
				<path class="st7" d="M5.57,9.61C5.4,9.42,5.48,9.25,5.48,9.25c0,0,0.19-0.09,0.37,0.09L5.57,9.61L5.57,9.61z"/>
				<path class="st7" d="M5.24,9.49l0.19,0.23l0.14-0.14C5.39,9.42,5.49,9.26,5.5,9.25c0,0,0.17-0.09,0.34,0.07l0.14-0.14L5.73,9
					L5.24,9.49L5.24,9.49z"/>
				<path class="st7" d="M5.42,9.74l0.56-0.56c0.01-0.01,0.03-0.01,0.05,0l0,0c0.01,0.01,0.02,0.04,0,0.05L5.47,9.79
					c-0.01,0.01-0.03,0.01-0.05,0l0,0C5.41,9.77,5.41,9.75,5.42,9.74L5.42,9.74z"/>
				<path class="st7" d="M5.62,9.53C5.51,9.42,5.56,9.32,5.56,9.32c0,0,0.11-0.05,0.22,0.06L5.62,9.53L5.62,9.53z"/>
				<path class="st7" d="M5.13,9.43l0.54-0.54c0.01-0.01,0.03-0.01,0.04,0l0,0c0.01,0.01,0.01,0.03,0,0.04L5.18,9.47
					c-0.01,0.01-0.03,0.01-0.04,0l0,0C5.12,9.46,5.12,9.44,5.13,9.43L5.13,9.43z"/>
				<path class="st7" d="M5.19,9.46L5.7,8.95c0.01-0.01,0.03-0.01,0.04,0l0,0c0.01,0.01,0.01,0.03,0,0.04L5.24,9.51
					c-0.01,0.01-0.03,0.01-0.04,0l0,0C5.18,9.49,5.18,9.47,5.19,9.46L5.19,9.46z"/>
				<path class="st7" d="M5.01,8.95l0.04-0.04l0.03,0.03l0.03-0.03L5.08,8.88l0.04-0.04l0.03,0.03l0.03-0.03L5.15,8.81l0.04-0.04
					l0.07,0.07c0.01,0.01,0.01,0.03,0,0.04L5.11,9.01c-0.01,0.01-0.03,0.01-0.04,0L5.01,8.95L5.01,8.95z"/>
				<polygon class="st7" points="5.25,8.88 5.47,9.09 5.33,9.23 5.13,9.01 5.25,8.88 				"/>
				<path class="st7" d="M5.29,8.88l0.04-0.04l0.03,0.03l0.03-0.03L5.36,8.81L5.4,8.77L5.43,8.8l0.03-0.03L5.43,8.74L5.47,8.7
					l0.07,0.07c0.01,0.01,0.01,0.03,0,0.03L5.39,8.94c-0.01,0.01-0.03,0.01-0.04,0L5.29,8.88L5.29,8.88z"/>
				<polygon class="st7" points="5.52,8.81 5.64,8.92 5.51,9.05 5.4,8.93 5.52,8.81 				"/>
				<path class="st7" d="M4.94,9.23l0.04-0.04l0.03,0.03l0.03-0.03L5.01,9.16l0.04-0.04l0.03,0.03l0.03-0.03L5.08,9.09l0.04-0.04
					l0.07,0.07c0.01,0.01,0.01,0.03,0,0.03L5.04,9.29C5.03,9.3,5.01,9.3,5,9.29L4.94,9.23L4.94,9.23z"/>
				<polygon class="st7" points="5.17,9.16 5.29,9.27 5.16,9.4 5.05,9.28 5.17,9.16 				"/>
				<g>
					<path class="st8" d="M5.24,9.03l0.05,0.05l0.03-0.03L5.27,9C5.25,8.98,5.22,9.01,5.24,9.03z"/>
					<path class="st8" d="M5.49,8.93l0.04,0.04l0.03-0.03L5.52,8.9C5.5,8.88,5.47,8.91,5.49,8.93z"/>
					<path class="st8" d="M5.14,9.28l0.04,0.04l0.03-0.03L5.17,9.25C5.15,9.23,5.12,9.26,5.14,9.28z"/>
					<path class="st8" d="M5.97,9.17L5.76,9c0.01-0.02,0.01-0.04,0-0.06C5.75,8.94,5.74,8.94,5.73,8.93c0.01-0.02,0-0.03-0.01-0.05
						c-0.02-0.02-0.04-0.02-0.06,0L5.64,8.9l-0.1-0.1c0.01-0.01,0.01-0.04,0-0.05L5.47,8.68L5.41,8.74l0.03,0.03L5.43,8.78L5.4,8.75
						L5.34,8.81l0.03,0.03L5.36,8.85L5.33,8.82L5.27,8.88l0.07,0.07c0.01,0.01,0.03,0.01,0.05,0l0.1,0.1L5.47,9.07L5.26,8.88l0,0
						c0.01-0.01,0.02-0.04,0-0.05L5.19,8.75L5.13,8.81l0.03,0.03L5.15,8.85L5.12,8.82L5.06,8.88l0.03,0.03L5.08,8.92L5.05,8.89
						L4.99,8.95l0.07,0.07c0.01,0.01,0.04,0.01,0.05,0l0,0l0.19,0.21L5.29,9.25l-0.1-0.1c0.01-0.01,0.01-0.04,0-0.05L5.12,9.03
						L5.06,9.09l0.03,0.03L5.08,9.13L5.05,9.1L4.99,9.16l0.03,0.03L5.01,9.2L4.98,9.17L4.92,9.23L5,9.3c0.01,0.01,0.03,0.01,0.05,0
						l0.1,0.1L5.13,9.42c-0.02,0.02-0.01,0.04,0,0.06C5.14,9.49,5.16,9.5,5.17,9.49c0,0.01,0.01,0.02,0.01,0.02
						c0.02,0.02,0.04,0.02,0.06,0l0.17,0.21l0,0c-0.02,0.02-0.01,0.04,0,0.06c0.02,0.02,0.05,0.02,0.06,0l0.56-0.56
						c0.02-0.02,0.01-0.04,0-0.06C6.01,9.16,5.99,9.15,5.97,9.17z M5.95,9.18L5.83,9.3C5.75,9.23,5.66,9.21,5.6,9.21
						c-0.03,0-0.05,0.01-0.07,0.01l0.21-0.21L5.95,9.18z M5.55,9.31L5.55,9.31C5.54,9.31,5.54,9.34,5.54,9.36
						c0,0.04,0.01,0.11,0.07,0.18L5.57,9.57C5.41,9.41,5.5,9.26,5.5,9.26c0,0,0.15-0.09,0.31,0.06L5.77,9.36
						C5.67,9.26,5.55,9.3,5.55,9.31z M5.76,9.38L5.62,9.52C5.54,9.43,5.56,9.35,5.57,9.33C5.59,9.32,5.67,9.3,5.76,9.38z M5.36,8.93
						L5.3,8.88l0.02-0.02l0.03,0.03L5.4,8.84L5.37,8.81L5.4,8.78l0.03,0.03l0.05-0.05L5.44,8.74l0.02-0.02l0.06,0.06
						c0.01,0.01,0,0.01,0,0.02L5.38,8.93C5.38,8.94,5.37,8.94,5.36,8.93z M5.63,8.92L5.51,9.04l-0.09-0.1l0.11-0.11L5.63,8.92z
						 M5.1,9c-0.01,0.01-0.01,0.01-0.02,0L5.02,8.95l0.02-0.02l0.03,0.03l0.05-0.05L5.09,8.88l0.03-0.02l0.03,0.03l0.05-0.05
						L5.17,8.81l0.02-0.02l0.06,0.06c0.01,0.01,0,0.01,0,0.02L5.1,9z M5.45,9.09L5.33,9.21l-0.19-0.2L5.25,8.9L5.45,9.09z
						 M5.01,9.28L4.96,9.23L4.98,9.2l0.03,0.03l0.05-0.05L5.02,9.16l0.02-0.02l0.03,0.03l0.05-0.05L5.09,9.09l0.02-0.02l0.06,0.06
						c0.01,0.01,0,0.01,0,0.02L5.03,9.28C5.03,9.29,5.02,9.29,5.01,9.28z M5.28,9.27L5.16,9.39l-0.09-0.1l0.11-0.11L5.28,9.27z
						 M5.14,9.46c-0.01-0.01-0.01-0.02,0-0.03L5.68,8.9c0.01-0.01,0.02-0.01,0.03,0c0.01,0.01,0.01,0.02,0,0.03L5.17,9.47
						C5.17,9.47,5.15,9.47,5.14,9.46z M5.2,9.5c-0.01-0.01-0.01-0.02,0-0.03l0.51-0.51c0.01-0.01,0.02,0,0.03,0
						c0.01,0.01,0.01,0.02,0,0.03l0,0L5.23,9.5l0,0C5.22,9.51,5.21,9.51,5.2,9.5z M5.26,9.5l0.2-0.2c0,0.01-0.01,0.03-0.01,0.05
						C5.45,9.41,5.46,9.5,5.55,9.59L5.43,9.71L5.26,9.5z M6.02,9.22L5.46,9.78c-0.01,0.01-0.02,0.01-0.03,0
						c-0.01-0.01-0.01-0.02,0-0.03l0.56-0.56c0.01-0.01,0.02-0.01,0.03,0C6.03,9.2,6.03,9.21,6.02,9.22z"/>
				</g>
			</g>
			<g>
				<path class="st7" d="M8.26,9.33c0.19-0.18,0.36-0.09,0.36-0.09c0,0,0.09,0.19-0.09,0.37L8.26,9.33L8.26,9.33z"/>
				<path class="st7" d="M8.37,9L8.13,9.19l0.14,0.14C8.44,9.15,8.6,9.25,8.61,9.26c0,0,0.09,0.17-0.07,0.34l0.14,0.14l0.19-0.24
					L8.37,9L8.37,9z"/>
				<path class="st7" d="M8.12,9.18l0.56,0.56c0.01,0.01,0.01,0.03,0,0.05l0,0c-0.01,0.01-0.04,0.02-0.05,0L8.07,9.23
					c-0.01-0.01-0.01-0.03,0-0.05l0,0C8.09,9.17,8.11,9.17,8.12,9.18L8.12,9.18z"/>
				<path class="st7" d="M8.33,9.38c0.11-0.11,0.21-0.07,0.21-0.07c0,0,0.05,0.11-0.06,0.22L8.33,9.38L8.33,9.38z"/>
				<path class="st7" d="M8.43,8.89l0.54,0.54c0.01,0.01,0.01,0.03,0,0.04l0,0c-0.01,0.01-0.03,0.01-0.04,0L8.39,8.94
					c-0.01-0.01-0.01-0.03,0-0.04l0,0C8.4,8.88,8.42,8.88,8.43,8.89L8.43,8.89z"/>
				<path class="st7" d="M8.4,8.95l0.51,0.51c0.01,0.01,0.01,0.03,0,0.04l0,0c-0.01,0.01-0.03,0.01-0.04,0L8.35,9
					c-0.01-0.01-0.01-0.03,0-0.04l0,0C8.37,8.94,8.39,8.94,8.4,8.95L8.4,8.95z"/>
				<path class="st7" d="M8.91,8.77l0.04,0.04L8.92,8.84l0.03,0.03l0.03-0.03l0.04,0.04L8.99,8.91l0.03,0.03l0.03-0.03L9.1,8.95
					L9.03,9.02C9.02,9.03,9,9.02,8.99,9.01L8.85,8.87c-0.01-0.01-0.01-0.03,0-0.04L8.91,8.77L8.91,8.77z"/>
				<polygon class="st7" points="8.98,9.01 8.77,9.23 8.63,9.09 8.85,8.88 8.98,9.01 				"/>
				<path class="st7" d="M8.98,9.05l0.04,0.04L8.99,9.12l0.03,0.03l0.03-0.03l0.04,0.04L9.06,9.18l0.03,0.03l0.03-0.03l0.04,0.04
					L9.1,9.29c-0.01,0.01-0.03,0.01-0.03,0L8.92,9.15c-0.01-0.01-0.01-0.03,0-0.04L8.98,9.05L8.98,9.05z"/>
				<polygon class="st7" points="9.05,9.28 8.94,9.4 8.81,9.27 8.93,9.15 9.05,9.28 				"/>
				<path class="st7" d="M8.63,8.7l0.04,0.04L8.64,8.77l0.03,0.03L8.7,8.77l0.04,0.04L8.71,8.84l0.03,0.03l0.03-0.03l0.04,0.04
					L8.75,8.94c-0.01,0.01-0.03,0.01-0.03,0L8.57,8.8c-0.01-0.01-0.01-0.03,0-0.04L8.63,8.7L8.63,8.7z"/>
				<polygon class="st7" points="8.7,8.93 8.59,9.05 8.46,8.92 8.58,8.81 8.7,8.93 				"/>
				<g>
					<path class="st8" d="M8.83,9L8.78,9.05l0.03,0.03l0.05-0.05C8.88,9.01,8.85,8.98,8.83,9z"/>
					<path class="st8" d="M8.93,9.25L8.9,9.29l0.03,0.03l0.04-0.04C8.98,9.25,8.95,9.23,8.93,9.25z"/>
					<path class="st8" d="M8.58,8.9L8.54,8.94l0.03,0.03l0.04-0.04C8.63,8.9,8.6,8.88,8.58,8.9z"/>
					<path class="st8" d="M8.69,9.73l0.17-0.21c0.02,0.01,0.04,0.01,0.06,0C8.92,9.51,8.92,9.5,8.93,9.49
						c0.02,0.01,0.03,0,0.05-0.01c0.02-0.02,0.02-0.04,0-0.06L8.96,9.4l0.1-0.1c0.01,0.01,0.04,0.01,0.05,0l0.07-0.07L9.12,9.17
						L9.09,9.2L9.08,9.18l0.03-0.03L9.05,9.1L9.02,9.13L9.01,9.12l0.03-0.03L8.98,9.03L8.91,9.1c-0.01,0.01-0.01,0.03,0,0.05
						l-0.1,0.1L8.79,9.23l0.19-0.21l0,0c0.01,0.01,0.04,0.02,0.05,0l0.07-0.07L9.05,8.89L9.02,8.92L9.01,8.91l0.03-0.03L8.98,8.82
						L8.95,8.85L8.94,8.84l0.03-0.03L8.91,8.75L8.84,8.82c-0.01,0.01-0.01,0.04,0,0.05l0,0L8.63,9.07L8.61,9.05l0.1-0.1
						c0.01,0.01,0.04,0.01,0.05,0l0.07-0.07L8.77,8.82L8.74,8.85L8.73,8.84l0.03-0.03L8.7,8.75L8.67,8.78L8.66,8.77l0.03-0.03
						L8.63,8.68L8.56,8.75c-0.01,0.01-0.01,0.03,0,0.05l-0.1,0.1L8.44,8.88c-0.02-0.02-0.04-0.01-0.06,0
						C8.37,8.9,8.36,8.92,8.37,8.93c-0.01,0-0.02,0.01-0.02,0.01C8.33,8.96,8.33,8.99,8.34,9L8.13,9.17l0,0
						c-0.02-0.02-0.04-0.01-0.06,0s-0.02,0.05,0,0.06L8.62,9.8c0.02,0.02,0.04,0.01,0.06,0C8.71,9.77,8.71,9.74,8.69,9.73z
						 M8.68,9.71L8.56,9.59C8.63,9.5,8.65,9.42,8.65,9.36c0-0.03-0.01-0.05-0.01-0.07L8.84,9.5L8.68,9.71z M8.55,9.31L8.55,9.31
						C8.55,9.3,8.52,9.3,8.5,9.29c-0.04,0-0.11,0.01-0.18,0.07L8.29,9.32C8.45,9.17,8.6,9.26,8.6,9.26c0,0,0.09,0.15-0.06,0.31
						L8.5,9.53C8.6,9.42,8.56,9.31,8.55,9.31z M8.48,9.52L8.35,9.38C8.43,9.3,8.52,9.32,8.53,9.32C8.54,9.34,8.56,9.43,8.48,9.52z
						 M8.93,9.12l0.06-0.06l0.02,0.02L8.98,9.12l0.05,0.05l0.03-0.03l0.02,0.02L9.05,9.18l0.05,0.05L9.12,9.2l0.02,0.02L9.09,9.28
						c-0.01,0.01-0.01,0-0.02,0L8.93,9.14C8.92,9.13,8.92,9.13,8.93,9.12z M8.94,9.38L8.82,9.27l0.1-0.09l0.11,0.11L8.94,9.38z
						 M8.86,8.86c-0.01-0.01-0.01-0.01,0-0.02l0.06-0.06l0.02,0.02L8.91,8.84l0.05,0.05l0.03-0.03l0.02,0.03L8.98,8.91l0.05,0.05
						l0.03-0.03l0.02,0.02L9.02,9.01c-0.01,0.01-0.01,0-0.02,0L8.86,8.86z M8.77,9.21L8.65,9.09l0.2-0.19l0.11,0.11L8.77,9.21z
						 M8.58,8.77l0.06-0.06l0.02,0.02L8.63,8.77l0.05,0.05L8.7,8.78l0.02,0.02L8.7,8.84l0.05,0.05l0.03-0.03L8.8,8.88L8.74,8.93
						c-0.01,0.01-0.01,0-0.02,0L8.58,8.79C8.57,8.79,8.57,8.78,8.58,8.77z M8.59,9.04L8.47,8.92l0.1-0.09l0.11,0.11L8.59,9.04z
						 M8.4,8.9c0.01-0.01,0.02-0.01,0.03,0l0.54,0.54c0.01,0.01,0.01,0.02,0,0.03c-0.01,0.01-0.02,0.01-0.03,0L8.39,8.93
						C8.39,8.92,8.39,8.91,8.4,8.9z M8.36,8.96c0.01-0.01,0.02-0.01,0.03,0L8.9,9.47c0.01,0.01,0,0.02,0,0.03
						c-0.01,0.01-0.02,0.01-0.03,0l0,0L8.36,8.99l0,0C8.35,8.98,8.36,8.97,8.36,8.96z M8.36,9.02l0.2,0.2
						c-0.01,0-0.03-0.01-0.05-0.01C8.45,9.21,8.36,9.22,8.27,9.31L8.15,9.19L8.36,9.02z M8.64,9.78L8.08,9.22
						c-0.01-0.01-0.01-0.02,0-0.03c0.01-0.01,0.02-0.01,0.03,0l0.56,0.56c0.01,0.01,0.01,0.02,0,0.03C8.66,9.78,8.65,9.79,8.64,9.78
						z"/>
				</g>
			</g>
		</g>
	</g>
	<g>
		<path class="st0" d="M70.51,16.47h-1.76c-0.2,0-0.36-0.05-0.48-0.14s-0.22-0.21-0.28-0.36l-0.74-2.09h-4.37l-0.74,2.09
			c-0.05,0.13-0.14,0.24-0.26,0.34c-0.13,0.1-0.28,0.15-0.48,0.15h-1.78l4.29-10.97h2.32L70.51,16.47z M66.7,12.31l-1.19-3.36
			c-0.07-0.18-0.15-0.38-0.22-0.62c-0.08-0.24-0.15-0.49-0.22-0.77C65,7.84,64.92,8.1,64.85,8.34c-0.08,0.24-0.15,0.45-0.22,0.62
			l-1.18,3.34H66.7z"/>
		<path class="st0" d="M79.18,6.34c0,0.12-0.02,0.23-0.06,0.35c-0.04,0.12-0.09,0.23-0.16,0.33l-5.41,7.68h5.48v1.78h-8.39v-0.88
			c0-0.11,0.02-0.21,0.05-0.31c0.04-0.1,0.09-0.2,0.15-0.28l5.43-7.71h-5.25V5.51h8.16V6.34z"/>
		<path class="st0" d="M91.07,10.99c0,0.8-0.14,1.54-0.4,2.23c-0.27,0.69-0.65,1.28-1.14,1.78c-0.49,0.5-1.08,0.89-1.77,1.18
			c-0.69,0.28-1.46,0.43-2.3,0.43c-0.84,0-1.61-0.14-2.3-0.43c-0.69-0.28-1.28-0.68-1.78-1.18c-0.49-0.5-0.88-1.09-1.15-1.78
			c-0.27-0.69-0.4-1.43-0.4-2.23s0.13-1.54,0.4-2.23s0.65-1.27,1.15-1.77c0.49-0.5,1.09-0.89,1.78-1.18
			c0.69-0.28,1.46-0.43,2.3-0.43c0.84,0,1.61,0.14,2.3,0.43c0.69,0.28,1.28,0.68,1.77,1.18s0.87,1.09,1.14,1.78
			C90.93,9.45,91.07,10.19,91.07,10.99z M88.75,10.99c0-0.57-0.08-1.09-0.23-1.55s-0.37-0.84-0.65-1.16
			c-0.28-0.32-0.63-0.56-1.04-0.73c-0.41-0.17-0.87-0.25-1.38-0.25s-0.98,0.08-1.38,0.25c-0.41,0.17-0.75,0.41-1.04,0.73
			c-0.28,0.32-0.5,0.71-0.65,1.16s-0.23,0.97-0.23,1.55c0,0.58,0.08,1.1,0.23,1.55s0.37,0.84,0.65,1.16s0.63,0.56,1.04,0.73
			c0.41,0.17,0.87,0.25,1.38,0.25s0.97-0.08,1.38-0.25c0.41-0.17,0.75-0.41,1.04-0.73s0.5-0.7,0.65-1.16S88.75,11.57,88.75,10.99z"
			/>
		<path class="st0" d="M101.48,16.47h-2.05c-0.38,0-0.66-0.15-0.83-0.44l-2.09-3.36c-0.09-0.13-0.18-0.23-0.28-0.29
			c-0.1-0.06-0.26-0.09-0.46-0.09H95v4.18h-2.27V5.51h3.45c0.77,0,1.42,0.08,1.97,0.24c0.54,0.16,0.99,0.38,1.34,0.66
			s0.6,0.62,0.76,1.01c0.16,0.39,0.24,0.82,0.24,1.29c0,0.36-0.05,0.71-0.15,1.03c-0.1,0.33-0.25,0.62-0.45,0.89
			s-0.44,0.5-0.73,0.71c-0.29,0.21-0.61,0.37-0.98,0.5c0.15,0.08,0.28,0.18,0.41,0.29s0.24,0.25,0.34,0.4L101.48,16.47z M96.16,10.7
			c0.37,0,0.69-0.05,0.95-0.14s0.49-0.22,0.66-0.39c0.17-0.16,0.3-0.36,0.38-0.58s0.12-0.46,0.12-0.73c0-0.52-0.17-0.92-0.52-1.21
			c-0.35-0.29-0.87-0.43-1.58-0.43H95v3.47H96.16z"/>
		<path class="st0" d="M104.83,7.28v2.82h3.66v1.72h-3.66v2.88h4.7v1.78h-6.98V5.51h6.98v1.78H104.83z"/>
		<path class="st0" d="M117.17,7.61c-0.07,0.12-0.14,0.2-0.22,0.25c-0.07,0.05-0.17,0.08-0.28,0.08c-0.11,0-0.23-0.04-0.36-0.12
			s-0.28-0.16-0.45-0.25c-0.17-0.09-0.37-0.18-0.59-0.25s-0.48-0.12-0.78-0.12c-0.52,0-0.92,0.12-1.18,0.35s-0.39,0.54-0.39,0.92
			c0,0.24,0.07,0.44,0.22,0.6c0.14,0.16,0.33,0.3,0.57,0.41c0.23,0.12,0.5,0.22,0.8,0.31c0.3,0.09,0.6,0.19,0.91,0.3
			s0.62,0.24,0.91,0.38s0.56,0.33,0.8,0.55c0.23,0.22,0.42,0.49,0.57,0.81c0.14,0.32,0.22,0.71,0.22,1.17c0,0.5-0.09,0.97-0.26,1.4
			c-0.17,0.44-0.42,0.82-0.75,1.14c-0.33,0.32-0.73,0.58-1.21,0.77s-1.03,0.28-1.64,0.28c-0.35,0-0.69-0.04-1.04-0.11
			s-0.68-0.17-1-0.29c-0.32-0.13-0.62-0.28-0.9-0.45c-0.28-0.18-0.53-0.37-0.74-0.59l0.67-1.07c0.06-0.08,0.13-0.15,0.22-0.2
			c0.09-0.05,0.19-0.08,0.29-0.08c0.14,0,0.28,0.05,0.43,0.15c0.15,0.1,0.33,0.21,0.52,0.33s0.42,0.23,0.68,0.33
			c0.26,0.1,0.57,0.15,0.93,0.15c0.53,0,0.94-0.12,1.23-0.36c0.29-0.24,0.43-0.6,0.43-1.08c0-0.28-0.07-0.5-0.22-0.67
			s-0.33-0.31-0.56-0.43c-0.23-0.12-0.5-0.22-0.79-0.3s-0.6-0.18-0.91-0.28s-0.62-0.22-0.91-0.36s-0.56-0.33-0.79-0.56
			c-0.23-0.23-0.42-0.52-0.56-0.86c-0.14-0.34-0.22-0.77-0.22-1.28c0-0.41,0.08-0.8,0.24-1.19c0.16-0.38,0.4-0.72,0.71-1.02
			c0.31-0.3,0.7-0.54,1.15-0.72c0.46-0.18,0.98-0.27,1.57-0.27c0.66,0,1.27,0.1,1.83,0.31c0.56,0.2,1.04,0.49,1.42,0.85L117.17,7.61
			z"/>
		<path class="st0" d="M69.94,26.38v4.16c-0.54,0.39-1.12,0.69-1.74,0.88c-0.62,0.19-1.29,0.29-2.03,0.29
			c-0.87,0-1.66-0.13-2.36-0.4c-0.7-0.27-1.3-0.65-1.79-1.13s-0.88-1.07-1.15-1.75s-0.4-1.43-0.4-2.24c0-0.83,0.13-1.58,0.39-2.26
			s0.63-1.26,1.11-1.75c0.48-0.49,1.06-0.86,1.75-1.13s1.45-0.4,2.3-0.4c0.43,0,0.83,0.03,1.19,0.09c0.37,0.06,0.71,0.15,1.02,0.27
			c0.31,0.12,0.6,0.26,0.87,0.43s0.52,0.36,0.75,0.57l-0.42,0.67c-0.07,0.1-0.15,0.17-0.25,0.19c-0.1,0.03-0.22,0-0.34-0.07
			c-0.12-0.07-0.26-0.16-0.42-0.26c-0.16-0.1-0.35-0.2-0.57-0.29c-0.22-0.09-0.49-0.17-0.79-0.24c-0.3-0.07-0.67-0.1-1.08-0.1
			c-0.61,0-1.16,0.1-1.66,0.3c-0.49,0.2-0.91,0.48-1.26,0.85c-0.35,0.37-0.61,0.82-0.8,1.35c-0.19,0.53-0.28,1.12-0.28,1.77
			c0,0.68,0.1,1.29,0.29,1.83c0.19,0.54,0.47,0.99,0.83,1.37c0.36,0.38,0.8,0.66,1.31,0.86c0.51,0.2,1.09,0.29,1.73,0.29
			c0.5,0,0.95-0.06,1.34-0.17c0.39-0.11,0.77-0.27,1.15-0.47V27.5h-1.69c-0.1,0-0.17-0.03-0.23-0.08c-0.06-0.06-0.09-0.12-0.09-0.2
			v-0.83H69.94z"/>
		<path class="st0" d="M82.19,26.18c0,0.81-0.13,1.56-0.39,2.23c-0.26,0.68-0.62,1.26-1.09,1.75c-0.47,0.49-1.03,0.87-1.69,1.14
			c-0.66,0.27-1.38,0.4-2.18,0.4s-1.52-0.13-2.18-0.4s-1.22-0.65-1.69-1.14c-0.47-0.49-0.83-1.07-1.09-1.75
			c-0.26-0.68-0.39-1.42-0.39-2.23c0-0.81,0.13-1.56,0.39-2.23c0.26-0.68,0.62-1.26,1.09-1.75c0.47-0.49,1.03-0.87,1.69-1.15
			s1.38-0.41,2.18-0.41s1.52,0.14,2.18,0.41c0.66,0.27,1.22,0.65,1.69,1.15c0.47,0.49,0.83,1.08,1.09,1.75
			C82.07,24.62,82.19,25.37,82.19,26.18z M80.69,26.18c0-0.67-0.09-1.26-0.27-1.79c-0.18-0.53-0.44-0.98-0.77-1.34
			s-0.74-0.65-1.21-0.84c-0.47-0.2-1-0.29-1.59-0.29c-0.58,0-1.11,0.1-1.58,0.29c-0.47,0.2-0.88,0.48-1.21,0.84
			c-0.33,0.37-0.59,0.81-0.77,1.34c-0.18,0.53-0.27,1.13-0.27,1.79s0.09,1.26,0.27,1.79s0.44,0.97,0.77,1.34
			c0.34,0.37,0.74,0.65,1.21,0.84s1,0.29,1.58,0.29c0.58,0,1.11-0.1,1.59-0.29c0.47-0.19,0.88-0.47,1.21-0.84s0.59-0.81,0.77-1.34
			S80.69,26.84,80.69,26.18z"/>
		<path class="st0" d="M92.79,20.76l-4.41,10.83h-1.32l-4.41-10.83h1.17c0.13,0,0.24,0.03,0.32,0.1s0.14,0.15,0.18,0.25l3.05,7.64
			c0.07,0.17,0.13,0.36,0.19,0.56c0.06,0.2,0.12,0.41,0.17,0.64c0.05-0.22,0.1-0.43,0.16-0.64c0.06-0.2,0.12-0.39,0.18-0.56
			l3.05-7.64c0.03-0.09,0.09-0.17,0.18-0.24c0.09-0.07,0.2-0.11,0.32-0.11H92.79z"/>
		<path class="st0" d="M100.9,30.39l-0.01,1.19h-6.67V20.76h6.67v1.19h-5.21v3.6h4.22v1.15h-4.22v3.7H100.9z"/>
		<path class="st0" d="M110.95,31.59h-1.3c-0.27,0-0.46-0.1-0.59-0.31l-2.81-3.87c-0.09-0.12-0.18-0.21-0.28-0.26
			s-0.25-0.08-0.46-0.08h-1.11v4.52h-1.46V20.76h3.06c0.69,0,1.28,0.07,1.78,0.21c0.5,0.14,0.91,0.34,1.24,0.6s0.57,0.58,0.72,0.95
			c0.16,0.37,0.23,0.79,0.23,1.24c0,0.38-0.06,0.74-0.18,1.07c-0.12,0.33-0.3,0.63-0.53,0.9c-0.23,0.26-0.51,0.49-0.84,0.68
			c-0.33,0.19-0.7,0.33-1.12,0.42c0.19,0.11,0.35,0.26,0.48,0.46L110.95,31.59z M105.95,26c0.42,0,0.8-0.05,1.12-0.15
			c0.32-0.1,0.6-0.25,0.82-0.44c0.22-0.19,0.38-0.41,0.5-0.68c0.11-0.26,0.17-0.55,0.17-0.87c0-0.64-0.21-1.13-0.63-1.46
			c-0.42-0.33-1.06-0.49-1.9-0.49h-1.6V26H105.95z"/>
		<path class="st0" d="M121.19,20.76v10.83h-0.73c-0.12,0-0.21-0.02-0.29-0.06c-0.08-0.04-0.16-0.11-0.23-0.2l-6.27-8.16
			c0.01,0.13,0.02,0.25,0.02,0.37c0.01,0.12,0.01,0.23,0.01,0.34v7.72h-1.28V20.76h0.76c0.07,0,0.12,0,0.17,0.01
			c0.05,0.01,0.09,0.02,0.12,0.04c0.04,0.02,0.07,0.04,0.11,0.08c0.04,0.03,0.07,0.07,0.11,0.12l6.27,8.16
			c-0.01-0.13-0.02-0.26-0.03-0.38s-0.01-0.24-0.01-0.35v-7.67H121.19z"/>
		<path class="st0" d="M135.23,20.76v10.83h-1.28v-7.96c0-0.11,0-0.22,0.01-0.34s0.02-0.24,0.03-0.37l-3.72,6.77
			c-0.12,0.23-0.29,0.34-0.53,0.34h-0.21c-0.24,0-0.41-0.11-0.53-0.34l-3.79-6.8c0.03,0.27,0.05,0.51,0.05,0.74v7.96h-1.28V20.76
			h1.08c0.13,0,0.23,0.01,0.3,0.04c0.07,0.03,0.14,0.1,0.2,0.21l3.74,6.67c0.06,0.12,0.12,0.25,0.18,0.38s0.11,0.26,0.16,0.4
			c0.05-0.14,0.1-0.27,0.16-0.4c0.06-0.13,0.12-0.26,0.18-0.38l3.67-6.66c0.06-0.12,0.13-0.19,0.2-0.21
			c0.07-0.03,0.18-0.04,0.31-0.04H135.23z"/>
		<path class="st0" d="M144.68,30.39l-0.01,1.19H138V20.76h6.67v1.19h-5.21v3.6h4.22v1.15h-4.22v3.7H144.68z"/>
		<path class="st0" d="M155.5,20.76v10.83h-0.73c-0.12,0-0.21-0.02-0.29-0.06c-0.08-0.04-0.16-0.11-0.23-0.2l-6.27-8.16
			c0.01,0.13,0.02,0.25,0.02,0.37c0.01,0.12,0.01,0.23,0.01,0.34v7.72h-1.28V20.76h0.76c0.07,0,0.12,0,0.17,0.01
			c0.05,0.01,0.09,0.02,0.12,0.04c0.04,0.02,0.07,0.04,0.11,0.08c0.04,0.03,0.07,0.07,0.11,0.12l6.27,8.16
			c-0.01-0.13-0.02-0.26-0.03-0.38s-0.01-0.24-0.01-0.35v-7.67H155.5z"/>
		<path class="st0" d="M165.59,21.99h-3.51v9.6h-1.46v-9.6h-3.51v-1.23h8.48V21.99z"/>
	</g>
</g>
</svg>
