<?xml version="1.0" encoding="utf-8"?>
<!-- Generator: Adobe Illustrator 24.1.3, SVG Export Plug-In . SVG Version: 6.00 Build 0)  -->
<svg version="1.1" id="Layer_1" xmlns="http://www.w3.org/2000/svg" xmlns:xlink="http://www.w3.org/1999/xlink" x="0px" y="0px"
	 viewBox="0 0 44 44" style="enable-background:new 0 0 44 44;" xml:space="preserve">
<style type="text/css">
	.st0{fill:#222E5E;}
	.st1{fill:#FFFFFF;}
	.st2{fill:#808080;}
	.st3{fill:#18B900;}
	.st4{fill:#EBBB10;}
	.st5{fill:#666666;}
	.st6{fill:#277FB6;}
	.st7{fill:#22AF80;}
	.st8{fill:none;stroke:#222E5E;stroke-linecap:round;stroke-linejoin:round;stroke-miterlimit:10;}
	.st9{fill:#BEBEBE;}
	.st10{fill:#1E3565;}
	.st11{clip-path:url(#SVGID_2_);}
	.st12{fill:none;stroke:#222E5E;stroke-miterlimit:10;}
	.st13{fill:#A5A5A5;}
	.st14{fill:#C0C0C0;}
	.st15{opacity:0.1;}
	.st16{fill:none;stroke:#FFFFFF;stroke-width:0.5;stroke-linecap:round;stroke-linejoin:round;stroke-miterlimit:10;}
</style>
<g>
	<path class="st0" d="M32.35,5.88v3.16c0,0.28,0.22,0.5,0.5,0.5s0.5-0.22,0.5-0.5V5.88h4.8c1.67,0,3.02,1.35,3.02,3.02v12.33
		c0,0.28,0.22,0.5,0.5,0.5s0.5-0.22,0.5-0.5V8.9c0-2.22-1.8-4.02-4.02-4.02h-4.8V0.5c0-0.28-0.22-0.5-0.5-0.5s-0.5,0.22-0.5,0.5
		v4.38H22.26V0.5c0-0.28-0.22-0.5-0.5-0.5s-0.5,0.22-0.5,0.5v4.38H11.18V0.5c0-0.28-0.22-0.5-0.5-0.5s-0.5,0.22-0.5,0.5v4.38h-4.8
		c-2.22,0-4.02,1.8-4.02,4.02v30.01c0,2.22,1.8,4.02,4.02,4.02h15.4c0.28,0,0.5-0.22,0.5-0.5s-0.22-0.5-0.5-0.5H5.37
		c-1.67,0-3.02-1.35-3.02-3.02V8.9c0-1.67,1.35-3.02,3.02-3.02h4.8v3.16c0,0.28,0.22,0.5,0.5,0.5s0.5-0.22,0.5-0.5V5.88h10.09v3.16
		c0,0.28,0.22,0.5,0.5,0.5s0.5-0.22,0.5-0.5V5.88H32.35z"/>
	<path class="st0" d="M10.68,16.15c-1.2,0-2.18,0.98-2.18,2.18s0.98,2.18,2.18,2.18s2.18-0.98,2.18-2.18S11.88,16.15,10.68,16.15z
		 M10.68,19.51c-0.65,0-1.18-0.53-1.18-1.18s0.53-1.18,1.18-1.18c0.65,0,1.18,0.53,1.18,1.18S11.33,19.51,10.68,19.51z"/>
	<path class="st0" d="M18.07,16.15c-1.2,0-2.18,0.98-2.18,2.18s0.98,2.18,2.18,2.18s2.18-0.98,2.18-2.18S19.27,16.15,18.07,16.15z
		 M18.07,19.51c-0.65,0-1.18-0.53-1.18-1.18s0.53-1.18,1.18-1.18c0.65,0,1.18,0.53,1.18,1.18S18.72,19.51,18.07,19.51z"/>
	<path class="st0" d="M27.64,18.33c0-1.2-0.98-2.18-2.18-2.18s-2.18,0.98-2.18,2.18s0.98,2.18,2.18,2.18S27.64,19.53,27.64,18.33z
		 M24.28,18.33c0-0.65,0.53-1.18,1.18-1.18c0.65,0,1.18,0.53,1.18,1.18s-0.53,1.18-1.18,1.18C24.81,19.51,24.28,18.98,24.28,18.33z"
		/>
	<path class="st0" d="M30.67,18.33c0,1.2,0.98,2.18,2.18,2.18c1.2,0,2.18-0.98,2.18-2.18s-0.98-2.18-2.18-2.18
		C31.65,16.15,30.67,17.13,30.67,18.33z M34.03,18.33c0,0.65-0.53,1.18-1.18,1.18c-0.65,0-1.18-0.53-1.18-1.18s0.53-1.18,1.18-1.18
		C33.5,17.15,34.03,17.68,34.03,18.33z"/>
	<path class="st0" d="M10.68,23.54c-1.2,0-2.18,0.98-2.18,2.18s0.98,2.18,2.18,2.18s2.18-0.98,2.18-2.18S11.88,23.54,10.68,23.54z
		 M10.68,26.9c-0.65,0-1.18-0.53-1.18-1.18c0-0.65,0.53-1.18,1.18-1.18c0.65,0,1.18,0.53,1.18,1.18
		C11.85,26.37,11.33,26.9,10.68,26.9z"/>
	<path class="st0" d="M18.07,23.54c-1.2,0-2.18,0.98-2.18,2.18s0.98,2.18,2.18,2.18s2.18-0.98,2.18-2.18S19.27,23.54,18.07,23.54z
		 M18.07,26.9c-0.65,0-1.18-0.53-1.18-1.18c0-0.65,0.53-1.18,1.18-1.18c0.65,0,1.18,0.53,1.18,1.18
		C19.25,26.37,18.72,26.9,18.07,26.9z"/>
	<path class="st0" d="M10.68,30.93c-1.2,0-2.18,0.98-2.18,2.18c0,1.2,0.98,2.18,2.18,2.18s2.18-0.98,2.18-2.18
		C12.85,31.91,11.88,30.93,10.68,30.93z M10.68,34.29c-0.65,0-1.18-0.53-1.18-1.18c0-0.65,0.53-1.18,1.18-1.18
		c0.65,0,1.18,0.53,1.18,1.18C11.85,33.76,11.33,34.29,10.68,34.29z"/>
	<path class="st0" d="M18.07,30.93c-1.2,0-2.18,0.98-2.18,2.18c0,1.2,0.98,2.18,2.18,2.18s2.18-0.98,2.18-2.18
		C20.25,31.91,19.27,30.93,18.07,30.93z M18.07,34.29c-0.65,0-1.18-0.53-1.18-1.18c0-0.65,0.53-1.18,1.18-1.18
		c0.65,0,1.18,0.53,1.18,1.18C19.25,33.76,18.72,34.29,18.07,34.29z"/>
	<path class="st0" d="M33.43,25.57c-5.08,0-9.21,4.13-9.21,9.21S28.35,44,33.43,44s9.21-4.13,9.21-9.21S38.51,25.57,33.43,25.57z
		 M33.43,43c-4.53,0-8.21-3.68-8.21-8.21s3.68-8.21,8.21-8.21s8.21,3.68,8.21,8.21S37.96,43,33.43,43z"/>
	<path class="st0" d="M35.57,34.29h-2.22v-4.67c0-0.28-0.22-0.5-0.5-0.5s-0.5,0.22-0.5,0.5v5.17c0,0.28,0.22,0.5,0.5,0.5h2.72
		c0.28,0,0.5-0.22,0.5-0.5S35.85,34.29,35.57,34.29z"/>
</g>
</svg>
