<!DOCTYPE svg PUBLIC "-//W3C//DTD SVG 20010904//EN" "http://www.w3.org/TR/2001/REC-SVG-20010904/DTD/svg10.dtd">
<svg version="1.0" xmlns="http://www.w3.org/2000/svg" width="455px" height="279px" viewBox="0 0 4550 2790" preserveAspectRatio="xMidYMid meet">
<g id="layer101" fill="#232e5a" stroke="none">
<path d="M1290 2766 c-50 -34 -1258 -1259 -1275 -1293 -19 -35 -19 -104 -1 -146 18 -43 1247 -1282 1297 -1308 150 -76 314 79 245 232 -9 19 -212 233 -475 499 l-460 465 1907 5 c1424 4 1912 8 1927 17 104 60 127 201 47 286 -58 61 91 57 -1984 57 l-1903 0 462 463 c253 254 468 476 477 494 38 76 9 188 -60 233 -45 30 -158 28 -204 -4z"/>
</g>
<g id="layer102" fill="#586080" stroke="none">
<path d="M1287 2767 c-21 -14 -1221 -1227 -1214 -1227 3 0 281 279 618 620 338 341 614 620 614 619 0 0 -8 -6 -18 -12z"/>
<path d="M4491 1525 c15 -16 31 -39 37 -50 6 -11 12 -14 12 -7 0 7 -17 30 -37 50 -21 21 -26 24 -12 7z"/>
<path d="M4517 1307 l-17 -32 20 24 c17 20 26 41 18 41 -2 0 -11 -15 -21 -33z"/>
<path d="M185 1140 c60 -60 112 -110 115 -110 2 0 -45 50 -105 110 -60 61 -112 110 -115 110 -2 0 45 -49 105 -110z"/>
<path d="M1280 535 c151 -154 277 -282 279 -285 2 -3 -1 4 -7 15 -6 11 -131 139 -279 285 l-268 265 275 -280z"/>
</g>
<g id="layer103" fill="#878ca2" stroke="none">
<path d="M160 1633 l-85 -88 88 85 c81 79 92 90 84 90 -1 0 -41 -39 -87 -87z"/>
</g>
<g id="layer104" fill="#c5c7ce" stroke="none">
<path d="M1040 2523 l-235 -238 238 235 c130 129 237 236 237 237 0 8 -22 -14 -240 -234z"/>
<path d="M1060 2033 l-455 -458 458 455 c251 250 457 456 457 457 0 7 -37 -29 -460 -454z"/>
<path d="M805 1020 c110 -110 202 -200 205 -200 3 0 -85 90 -195 200 -110 110 -202 200 -205 200 -3 0 85 -90 195 -200z"/>
<path d="M790 525 c272 -272 497 -495 500 -495 3 0 -218 223 -490 495 -272 272 -497 495 -500 495 -3 0 218 -223 490 -495z"/>
</g>


</svg>