<?xml version="1.0" encoding="utf-8"?>
<!-- Generator: Adobe Illustrator 23.0.4, SVG Export Plug-In . SVG Version: 6.00 Build 0)  -->
<svg version="1.1" id="Layer_1" xmlns="http://www.w3.org/2000/svg" xmlns:xlink="http://www.w3.org/1999/xlink" x="0px" y="0px"
	 viewBox="0 0 26.4 24.8" style="enable-background:new 0 0 26.4 24.8;" xml:space="preserve">
<style type="text/css">
	.st0{fill:#ECEFF1;}
	.st1{fill:#388E3C;}
	.st2{fill:#2E7D32;}
	.st3{fill:#FAFAFA;}
</style>
<title>Icones</title>
<path class="st0" d="M25.6,21.5H14c-0.5,0-0.8-0.4-0.8-0.8V4.1c0-0.5,0.4-0.8,0.8-0.8l0,0h11.6c0.5,0,0.8,0.4,0.8,0.8l0,0v16.5
	C26.4,21.1,26.1,21.5,25.6,21.5z"/>
<path class="st1" d="M17.3,8.3H14c-0.5,0.1-0.9-0.3-0.9-0.7c-0.1-0.5,0.3-0.9,0.7-0.9c0.1,0,0.1,0,0.2,0h3.3
	c0.5-0.1,0.9,0.3,0.9,0.7s-0.3,0.9-0.7,0.9C17.4,8.3,17.4,8.3,17.3,8.3L17.3,8.3z"/>
<path class="st1" d="M17.3,11.6H14c-0.5,0.1-0.9-0.3-0.9-0.7c-0.1-0.5,0.3-0.9,0.7-0.9c0.1,0,0.1,0,0.2,0h3.3
	c0.5-0.1,0.9,0.3,0.9,0.7c0.1,0.5-0.3,0.9-0.7,0.9C17.4,11.6,17.4,11.6,17.3,11.6L17.3,11.6z"/>
<path class="st1" d="M17.3,14.9H14c-0.5,0.1-0.9-0.3-0.9-0.7c-0.1-0.5,0.3-0.9,0.7-0.9c0.1,0,0.1,0,0.2,0h3.3
	c0.5-0.1,0.9,0.3,0.9,0.7c0.1,0.5-0.3,0.9-0.7,0.9C17.4,14.9,17.4,14.9,17.3,14.9L17.3,14.9z"/>
<path class="st1" d="M17.3,18.2H14c-0.5,0.1-0.9-0.3-0.9-0.7c-0.1-0.5,0.3-0.9,0.7-0.9c0.1,0,0.1,0,0.2,0h3.3
	c0.5-0.1,0.9,0.3,0.9,0.7c0.1,0.5-0.3,0.9-0.7,0.9C17.4,18.2,17.4,18.2,17.3,18.2L17.3,18.2z"/>
<path class="st1" d="M22.3,8.3h-1.6c-0.5,0.1-0.9-0.3-0.9-0.7s0.3-0.9,0.7-0.9c0.1,0,0.1,0,0.2,0h1.6c0.5,0.1,0.8,0.5,0.7,0.9
	C23,7.9,22.7,8.2,22.3,8.3z"/>
<path class="st1" d="M22.3,11.6h-1.6c-0.5,0.1-0.9-0.3-0.9-0.7c-0.1-0.5,0.3-0.9,0.7-0.9c0.1,0,0.1,0,0.2,0h1.6
	c0.5,0.1,0.8,0.5,0.7,0.9C23,11.2,22.7,11.5,22.3,11.6z"/>
<path class="st1" d="M22.3,14.9h-1.6c-0.5,0.1-0.9-0.3-0.9-0.7c-0.1-0.5,0.3-0.9,0.7-0.9c0.1,0,0.1,0,0.2,0h1.6
	c0.5,0.1,0.8,0.5,0.7,0.9C23,14.5,22.7,14.8,22.3,14.9z"/>
<path class="st1" d="M22.3,18.2h-1.6c-0.5,0.1-0.9-0.3-0.9-0.7c-0.1-0.5,0.3-0.9,0.7-0.9c0.1,0,0.1,0,0.2,0h1.6
	c0.5,0.1,0.8,0.5,0.7,0.9C23,17.8,22.7,18.1,22.3,18.2z"/>
<path class="st2" d="M14.6,0.2C14.4,0,14.1,0,13.9,0L0.7,2.5C0.3,2.6,0,2.9,0,3.3v18.2c0,0.4,0.3,0.7,0.7,0.8l13.2,2.5H14
	c0.2,0,0.4-0.1,0.5-0.2c0.2-0.2,0.3-0.4,0.3-0.6V0.8C14.9,0.6,14.8,0.3,14.6,0.2z"/>
<path class="st3" d="M11.4,15.2l-2.6-3l2.6-3.4c0.2-0.4,0.1-0.9-0.3-1.1c-0.3-0.2-0.7-0.1-1,0.1l-2.4,3.1L5.6,8.5
	c-0.3-0.3-0.8-0.3-1.2,0C4.1,8.8,4.1,9.3,4.3,9.6l2.3,2.6l-2.3,3c-0.3,0.4-0.2,0.9,0.2,1.2c0.1,0.1,0.3,0.2,0.5,0.2
	c0.3,0,0.5-0.1,0.7-0.3l2.1-2.7l2.4,2.7c0.3,0.3,0.8,0.4,1.1,0.1c0,0,0,0,0,0C11.6,16.1,11.7,15.5,11.4,15.2
	C11.4,15.2,11.4,15.2,11.4,15.2z"/>
</svg>
