<?xml version="1.0" encoding="utf-8"?>
<!-- Generator: Adobe Illustrator 23.0.4, SVG Export Plug-In . SVG Version: 6.00 Build 0)  -->
<svg version="1.1" id="Layer_1" xmlns="http://www.w3.org/2000/svg" xmlns:xlink="http://www.w3.org/1999/xlink" x="0px" y="0px"
	 viewBox="0 0 26.2 24.6" style="enable-background:new 0 0 26.2 24.6;" xml:space="preserve">
<style type="text/css">
	.st0{fill:#ECEFF1;}
	.st1{fill:#1976D2;}
	.st2{fill:#1565C0;}
	.st3{fill:#FAFAFA;}
</style>
<title>Icones</title>
<path class="st0" d="M25.4,21.3H13.9c-0.5,0-0.8-0.4-0.8-0.8V4.1c0-0.5,0.4-0.8,0.8-0.8h11.5c0.5,0,0.8,0.4,0.8,0.8v16.4
	C26.2,20.9,25.9,21.3,25.4,21.3z"/>
<path class="st1" d="M22.1,8.2h-8.2c-0.5,0-0.8-0.4-0.8-0.8c0-0.5,0.4-0.8,0.8-0.8h8.2c0.5,0,0.8,0.4,0.8,0.8
	C22.9,7.8,22.6,8.2,22.1,8.2z"/>
<path class="st1" d="M22.1,11.5h-8.2c-0.5,0-0.9-0.3-0.9-0.7c0-0.5,0.3-0.9,0.7-0.9c0.1,0,0.1,0,0.2,0h8.2c0.5,0,0.9,0.3,0.9,0.7
	c0,0.5-0.3,0.9-0.7,0.9C22.3,11.5,22.2,11.5,22.1,11.5z"/>
<path class="st1" d="M22.1,14.8h-8.2c-0.5,0-0.8-0.4-0.8-0.8c0-0.5,0.4-0.8,0.8-0.8h8.2c0.5,0,0.8,0.4,0.8,0.8
	C22.9,14.4,22.6,14.8,22.1,14.8z"/>
<path class="st1" d="M22.1,18h-8.2c-0.5,0-0.8-0.4-0.8-0.8c0-0.5,0.4-0.8,0.8-0.8h8.2c0.5,0,0.8,0.4,0.8,0.8S22.6,18,22.1,18
	C22.1,18,22.1,18,22.1,18z"/>
<path class="st2" d="M14.5,0.2C14.3,0,14,0,13.8,0L0.7,2.5C0.3,2.5,0,2.9,0,3.3v18c0,0.4,0.3,0.7,0.7,0.8l13.1,2.5h0.1
	c0.4,0,0.8-0.4,0.8-0.8c0,0,0,0,0,0V0.8C14.7,0.6,14.6,0.3,14.5,0.2z"/>
<path class="st3" d="M10.6,16.5c0,0.4-0.3,0.7-0.7,0.7H9.8c-0.3,0-0.6-0.2-0.8-0.5l-1.7-4.5l-1.7,4.5c-0.1,0.4-0.5,0.6-0.8,0.5
	c-0.4,0-0.7-0.3-0.7-0.7l-0.8-5.7C3.2,10.3,3.5,9.9,4,9.8c0,0,0,0,0,0c0.4-0.1,0.9,0.2,0.9,0.7c0,0,0,0,0,0l0.4,2.6l1.3-3.6
	C6.8,9.1,7.3,9,7.7,9.2c0.2,0.1,0.3,0.2,0.4,0.4l1.3,3.3l0.4-4c0.1-0.5,0.5-0.8,0.9-0.7s0.8,0.5,0.7,0.9L10.6,16.5z"/>
</svg>
