<?xml version="1.0" encoding="utf-8"?>
<!-- Generator: Adobe Illustrator 23.0.4, SVG Export Plug-In . SVG Version: 6.00 Build 0)  -->
<svg version="1.1" id="Layer_1" xmlns="http://www.w3.org/2000/svg" xmlns:xlink="http://www.w3.org/1999/xlink" x="0px" y="0px"
	 viewBox="0 0 23.1 21.5" style="enable-background:new 0 0 23.1 21.5;" xml:space="preserve">
<style type="text/css">
	.st0{fill:none;stroke:#232F5D;stroke-width:1.17;stroke-linecap:round;stroke-linejoin:round;}
</style>
<title>Icones</title>
<path class="st0" d="M11.3,17.6l9.9-9.9c1.6-1.6,1.6-4.3,0-5.9l0,0c-1.6-1.6-4.3-1.6-5.9,0L1.5,15.7c-1.2,1.2-1.2,3.1,0,4.3l0,0
	c1.2,1.2,3.1,1.2,4.3,0L16.8,9.1c0.8-0.8,0.8-2,0-2.8c0,0,0,0,0,0l0,0c-0.8-0.8-2-0.8-2.8,0c0,0,0,0,0,0l-7,7"/>
</svg>
