<?xml version="1.0" encoding="utf-8"?>
<!-- Generator: Adobe Illustrator 23.0.4, SVG Export Plug-In . SVG Version: 6.00 Build 0)  -->
<svg version="1.1" id="Layer_1" xmlns="http://www.w3.org/2000/svg" xmlns:xlink="http://www.w3.org/1999/xlink" x="0px" y="0px"
	 viewBox="0 0 21.5 24.6" style="enable-background:new 0 0 21.5 24.6;" xml:space="preserve">
<style type="text/css">
	.st0{fill:#E2E5E7;}
	.st1{fill:#B0B7BD;}
	.st2{fill:#CAD1D8;}
	.st3{fill:#F15642;}
	.st4{fill:#FFFFFF;}
</style>
<title>Icones</title>
<path class="st0" d="M4.6,0C3.8,0,3.1,0.7,3.1,1.5v21.5c0,0.9,0.7,1.5,1.5,1.5H20c0.9,0,1.5-0.7,1.5-1.5v0V6.2L15.4,0H4.6z"/>
<path class="st1" d="M16.9,6.2h4.6L15.4,0v4.6C15.4,5.5,16.1,6.2,16.9,6.2z"/>
<polygon class="st2" points="21.5,10.8 16.9,6.2 21.5,6.2 "/>
<path class="st3" d="M18.5,20c0,0.4-0.3,0.8-0.8,0.8l0,0H0.8C0.3,20.8,0,20.4,0,20c0,0,0,0,0,0v-7.7c0-0.4,0.3-0.8,0.8-0.8h16.9
	c0.4,0,0.8,0.3,0.8,0.8L18.5,20z"/>
<path class="st4" d="M3.3,14.6c0-0.2,0.2-0.4,0.4-0.4c0,0,0,0,0,0h1.4c0.8,0,1.5,0.6,1.5,1.4c0,0.1,0,0.1,0,0.2
	c0,0.8-0.6,1.5-1.4,1.5c0,0-0.1,0-0.1,0h-1V18c0,0.2-0.1,0.4-0.4,0.4c0,0,0,0,0,0c-0.2,0-0.4-0.2-0.4-0.4c0,0,0,0,0,0V14.6z
	 M4.2,14.9v1.5h1c0.4,0,0.7-0.3,0.7-0.7c0-0.4-0.3-0.8-0.7-0.8c0,0,0,0,0,0L4.2,14.9z"/>
<path class="st4" d="M7.9,18.5c-0.2,0-0.4-0.1-0.4-0.3c0,0,0,0,0,0v-3.5c0-0.2,0.2-0.4,0.4-0.4h1.4c2.8,0,2.8,4.3,0.1,4.3L7.9,18.5z
	 M8.3,15v2.8h1c1.7,0,1.7-2.8,0-2.8H8.3z"/>
<path class="st4" d="M13.1,15v1h1.6c0.2,0,0.4,0.2,0.4,0.4c0,0.2-0.2,0.4-0.4,0.4h-1.6v1.3c0,0.2-0.1,0.4-0.3,0.4c0,0,0,0,0,0
	c-0.2,0-0.4-0.1-0.4-0.3c0,0,0,0,0-0.1v-3.5c0-0.2,0.2-0.4,0.4-0.4c0,0,0,0,0,0h2.2c0.3,0,0.4,0.2,0.4,0.4c0,0.2-0.2,0.4-0.4,0.4
	c0,0,0,0,0,0L13.1,15z"/>
<path class="st2" d="M17.7,20.8H3.1v0.8h14.6c0.4,0,0.8-0.3,0.8-0.8l0,0V20C18.5,20.4,18.1,20.8,17.7,20.8L17.7,20.8z"/>
</svg>
