<?xml version="1.0" encoding="utf-8"?>
<!-- Generator: Adobe Illustrator 24.1.3, SVG Export Plug-In . SVG Version: 6.00 Build 0)  -->
<svg version="1.1" id="Layer_1" xmlns="http://www.w3.org/2000/svg" xmlns:xlink="http://www.w3.org/1999/xlink" x="0px" y="0px"
	 viewBox="0 0 40 40" style="enable-background:new 0 0 40 40;" xml:space="preserve">
<style type="text/css">
	.st0{fill:#222E5E;}
	.st1{fill:#FFFFFF;}
	.st2{fill:#EBBB10;}
	.st3{fill:#666666;}
	.st4{fill:#808080;}
	.st5{fill:#277FB6;}
	.st6{fill:#22AF80;}
	.st7{fill:none;stroke:#222E5E;stroke-linecap:round;stroke-linejoin:round;stroke-miterlimit:10;}
	.st8{fill:#BEBEBE;}
	.st9{fill:#1E3565;}
	.st10{clip-path:url(#SVGID_2_);}
	.st11{fill:none;stroke:#222E5E;stroke-miterlimit:10;}
	.st12{fill:#A5A5A5;}
	.st13{fill:#C0C0C0;}
	.st14{opacity:0.1;}
	.st15{fill:none;stroke:#FFFFFF;stroke-width:0.5;stroke-linecap:round;stroke-linejoin:round;stroke-miterlimit:10;}
</style>
<rect y="0" class="st4" width="40" height="40"/>
<g>
	<path class="st1" d="M12.13,30.76c-0.98,0-1.89-0.38-2.58-1.07s-1.07-1.61-1.07-2.58s0.38-1.89,1.07-2.59l13.89-13.89
		c0.9-0.9,2.09-1.39,3.36-1.39c1.27,0,2.46,0.49,3.36,1.39s1.39,2.09,1.39,3.36c0,1.27-0.49,2.46-1.39,3.36l-9.94,9.94
		c-0.23,0.23-0.6,0.23-0.83,0c-0.23-0.23-0.23-0.6,0-0.83l9.94-9.94c1.4-1.4,1.4-3.67,0-5.06c-1.39-1.4-3.67-1.4-5.06,0L10.37,25.34
		c-0.47,0.47-0.73,1.09-0.73,1.76c0,0.66,0.26,1.29,0.73,1.76c0.94,0.94,2.58,0.94,3.52,0l10.94-10.94
		c0.27-0.27,0.42-0.63,0.42-1.01s-0.15-0.74-0.42-1.01c-0.54-0.54-1.48-0.54-2.02,0l-7,7c-0.23,0.23-0.6,0.23-0.83,0
		c-0.23-0.23-0.23-0.6,0-0.83l7-7c0.98-0.98,2.69-0.98,3.67,0c0.49,0.49,0.76,1.14,0.76,1.83s-0.27,1.34-0.76,1.83L14.71,29.69
		C14.02,30.38,13.1,30.76,12.13,30.76z"/>
</g>
</svg>
