<!DOCTYPE svg PUBLIC "-//W3C//DTD SVG 20010904//EN" "http://www.w3.org/TR/2001/REC-SVG-20010904/DTD/svg10.dtd">
<svg version="1.0" xmlns="http://www.w3.org/2000/svg" width="500px" height="537px" viewBox="0 0 5000 5370" preserveAspectRatio="xMidYMid meet">
<g id="layer101" fill="#222e5e" stroke="none">
 <path d="M353 5285 c-119 -32 -216 -103 -283 -207 -76 -117 -71 46 -68 -2133 l3 -1950 38 -79 c45 -94 125 -177 211 -219 103 -50 160 -57 514 -57 l322 0 0 -263 c0 -191 3 -266 12 -275 18 -18 73 -14 91 6 15 16 17 50 17 275 l0 257 615 0 615 0 0 -259 c0 -285 1 -291 60 -291 59 0 60 6 60 291 l0 259 615 0 615 0 0 -258 c0 -238 1 -260 18 -275 22 -20 73 -22 90 -5 9 9 12 84 12 275 l0 263 323 0 c353 0 410 7 513 57 86 42 166 125 211 219 l38 79 3 1950 c3 2179 8 2016 -68 2133 -69 106 -164 175 -287 207 -84 22 -4209 21 -4290 0z m4317 -141 c78 -37 141 -99 178 -174 l27 -55 3 -1927 c2 -1919 2 -1927 -18 -1981 -27 -72 -69 -129 -127 -171 -91 -66 -111 -69 -485 -74 l-338 -4 0 231 0 231 -24 15 c-29 19 -72 11 -86 -15 -6 -11 -10 -115 -10 -239 l0 -221 -615 0 -615 0 0 225 c0 212 -1 226 -20 245 -25 25 -55 25 -80 0 -19 -19 -20 -33 -20 -245 l0 -225 -615 0 -615 0 0 221 c0 124 -4 228 -10 239 -14 26 -57 34 -86 15 l-24 -15 0 -231 0 -231 -337 4 c-375 5 -395 8 -486 74 -58 42 -100 99 -127 171 -20 54 -20 62 -18 1981 l3 1927 27 55 c48 97 144 175 245 199 22 5 928 8 2123 8 l2085 -2 65 -31z"/>
 </g>

</svg>