<?xml version="1.0" encoding="UTF-8"?>
<svg xmlns="http://www.w3.org/2000/svg" xmlns:xlink="http://www.w3.org/1999/xlink" width="25pt" height="25pt" viewBox="0 0 25 25" version="1.1">
<g id="surface1">
<path style=" stroke:none;fill-rule:nonzero;fill:rgb(13.333333%,18.039216%,36.862745%);fill-opacity:1;" d="M 0.179688 24.820312 L 0 24.640625 L 0 20.839844 C 0 16.585938 -0.0234375 16.863281 0.363281 16.648438 C 0.515625 16.566406 0.609375 16.546875 0.765625 16.566406 C 1.074219 16.609375 1.144531 16.625 1.183594 16.675781 C 1.203125 16.695312 1.191406 16.699219 1.148438 16.679688 C 1.085938 16.644531 1.085938 16.648438 1.148438 16.710938 C 1.191406 16.75 1.253906 16.808594 1.296875 16.851562 C 1.355469 16.914062 1.359375 16.914062 1.324219 16.851562 C 1.300781 16.808594 1.304688 16.789062 1.324219 16.816406 C 1.410156 16.890625 1.414062 17.101562 1.433594 19.773438 L 1.449219 22.476562 L 3.148438 20.773438 C 4.078125 19.84375 4.828125 19.058594 4.816406 19.035156 C 4.800781 19.003906 4.804688 18.996094 4.828125 19.011719 C 4.855469 19.023438 5.359375 18.550781 5.949219 17.953125 C 6.539062 17.363281 6.988281 16.894531 6.949219 16.914062 C 6.910156 16.941406 6.929688 16.914062 7 16.863281 C 7.164062 16.738281 7.894531 16.019531 7.800781 16.070312 C 7.761719 16.089844 7.765625 16.074219 7.816406 16.035156 C 7.863281 15.988281 7.941406 15.914062 7.984375 15.863281 C 8.023438 15.816406 8.039062 15.808594 8.019531 15.851562 C 8 15.890625 8.125 15.78125 8.304688 15.601562 C 8.484375 15.421875 8.625 15.261719 8.613281 15.234375 C 8.601562 15.214844 8.609375 15.199219 8.636719 15.203125 C 8.65625 15.210938 8.765625 15.175781 8.875 15.125 C 9.046875 15.050781 9.105469 15.046875 9.273438 15.09375 C 9.386719 15.125 9.5 15.160156 9.535156 15.164062 C 9.570312 15.175781 9.613281 15.199219 9.636719 15.226562 C 9.65625 15.246094 9.640625 15.25 9.601562 15.226562 C 9.558594 15.203125 9.570312 15.230469 9.625 15.285156 C 9.679688 15.339844 9.746094 15.375 9.769531 15.359375 C 9.796875 15.34375 9.800781 15.359375 9.785156 15.386719 C 9.765625 15.414062 9.785156 15.519531 9.828125 15.625 C 9.890625 15.769531 9.894531 15.84375 9.851562 15.980469 C 9.820312 16.070312 9.808594 16.175781 9.828125 16.203125 C 9.851562 16.238281 9.84375 16.25 9.816406 16.234375 C 9.761719 16.199219 9.675781 16.335938 9.695312 16.425781 C 9.703125 16.453125 9.691406 16.460938 9.671875 16.433594 C 9.621094 16.386719 9.195312 16.804688 9.234375 16.863281 C 9.25 16.894531 9.238281 16.898438 9.214844 16.886719 C 9.148438 16.84375 8.984375 17.019531 9.035156 17.074219 C 9.058594 17.09375 9.050781 17.101562 9.019531 17.085938 C 8.949219 17.046875 8.785156 17.214844 8.835938 17.273438 C 8.859375 17.296875 8.851562 17.300781 8.820312 17.285156 C 8.75 17.246094 8.335938 17.664062 8.386719 17.726562 C 8.410156 17.746094 8.398438 17.75 8.371094 17.734375 C 8.300781 17.695312 8.136719 17.863281 8.183594 17.925781 C 8.210938 17.945312 8.199219 17.949219 8.171875 17.933594 C 8.101562 17.894531 7.933594 18.066406 7.984375 18.125 C 8.011719 18.144531 8 18.148438 7.96875 18.136719 C 7.898438 18.09375 7.734375 18.265625 7.785156 18.324219 C 7.808594 18.34375 7.800781 18.351562 7.769531 18.335938 C 7.699219 18.296875 7.484375 18.515625 7.535156 18.574219 C 7.558594 18.59375 7.550781 18.601562 7.519531 18.585938 C 7.449219 18.546875 7.285156 18.714844 7.335938 18.773438 C 7.359375 18.796875 7.351562 18.800781 7.320312 18.785156 C 7.25 18.746094 7.085938 18.914062 7.136719 18.976562 C 7.160156 18.996094 7.148438 19 7.121094 18.984375 C 7.050781 18.945312 6.886719 19.113281 6.933594 19.175781 C 6.960938 19.195312 6.949219 19.199219 6.921875 19.183594 C 6.851562 19.144531 6.636719 19.363281 6.683594 19.425781 C 6.710938 19.445312 6.699219 19.449219 6.671875 19.433594 C 6.601562 19.394531 6.433594 19.566406 6.484375 19.625 C 6.511719 19.644531 6.5 19.648438 6.46875 19.636719 C 6.398438 19.59375 6.234375 19.765625 6.285156 19.824219 C 6.308594 19.84375 6.300781 19.851562 6.269531 19.835938 C 6.199219 19.796875 6.035156 19.964844 6.085938 20.023438 C 6.109375 20.046875 6.101562 20.050781 6.070312 20.035156 C 6 19.996094 5.785156 20.214844 5.835938 20.273438 C 5.859375 20.296875 5.851562 20.300781 5.820312 20.285156 C 5.761719 20.25 5.585938 20.410156 5.625 20.464844 C 5.640625 20.484375 5.640625 20.496094 5.625 20.484375 C 5.613281 20.476562 4.914062 21.15625 4.074219 21.996094 L 2.550781 23.523438 L 5.261719 23.554688 C 6.753906 23.570312 8 23.59375 8.035156 23.601562 C 8.070312 23.609375 8.085938 23.636719 8.070312 23.65625 C 8.058594 23.675781 8.09375 23.703125 8.148438 23.726562 C 8.203125 23.738281 8.25 23.789062 8.25 23.828125 C 8.25 23.871094 8.269531 23.894531 8.289062 23.878906 C 8.34375 23.851562 8.355469 23.929688 8.375 24.363281 C 8.378906 24.550781 8.363281 24.714844 8.335938 24.734375 C 8.304688 24.753906 8.300781 24.734375 8.320312 24.695312 C 8.339844 24.65625 8.316406 24.679688 8.261719 24.75 C 8.203125 24.816406 8.171875 24.890625 8.179688 24.910156 C 8.195312 24.929688 8.175781 24.933594 8.136719 24.921875 C 8.09375 24.90625 8.046875 24.914062 8.023438 24.945312 C 8.003906 24.984375 6.828125 25 4.175781 25 L 0.359375 25 Z M 0.179688 24.820312 "/>
<path style=" stroke:none;fill-rule:nonzero;fill:rgb(13.333333%,18.039216%,36.862745%);fill-opacity:1;" d="M 15.644531 9.878906 C 15.550781 9.84375 15.453125 9.820312 15.433594 9.816406 C 15.410156 9.808594 15.375 9.789062 15.359375 9.769531 C 15.339844 9.75 15.359375 9.75 15.398438 9.769531 C 15.464844 9.804688 15.464844 9.800781 15.398438 9.738281 C 15.359375 9.699219 15.296875 9.640625 15.253906 9.601562 C 15.195312 9.535156 15.191406 9.535156 15.226562 9.601562 C 15.25 9.640625 15.246094 9.65625 15.226562 9.636719 C 15.160156 9.578125 15.140625 9.464844 15.125 9.113281 C 15.121094 8.941406 15.128906 8.816406 15.15625 8.828125 C 15.179688 8.84375 15.199219 8.824219 15.199219 8.789062 C 15.199219 8.753906 16.835938 7.089844 18.835938 5.089844 L 22.46875 1.449219 L 19.773438 1.433594 C 18.289062 1.425781 17.019531 1.40625 16.949219 1.390625 C 16.878906 1.378906 16.824219 1.34375 16.824219 1.320312 C 16.824219 1.230469 16.738281 1.148438 16.691406 1.179688 C 16.65625 1.199219 16.648438 1.191406 16.671875 1.160156 C 16.691406 1.125 16.671875 1.050781 16.628906 0.988281 C 16.484375 0.785156 16.558594 0.378906 16.769531 0.203125 C 16.816406 0.171875 16.839844 0.121094 16.824219 0.105469 C 16.816406 0.0859375 16.828125 0.0585938 16.863281 0.0507812 C 16.898438 0.0390625 18.660156 0.0234375 20.785156 0.015625 L 24.644531 0 L 24.753906 0.109375 C 24.816406 0.175781 24.84375 0.195312 24.824219 0.15625 C 24.796875 0.105469 24.804688 0.09375 24.84375 0.121094 C 24.878906 0.144531 24.894531 0.175781 24.878906 0.191406 C 24.863281 0.203125 24.886719 0.253906 24.925781 0.300781 C 24.988281 0.375 25 0.851562 24.984375 4.230469 C 24.976562 6.34375 24.960938 8.101562 24.949219 8.136719 C 24.941406 8.171875 24.921875 8.191406 24.90625 8.183594 C 24.859375 8.171875 24.644531 8.328125 24.675781 8.355469 C 24.726562 8.410156 24.164062 8.441406 23.964844 8.394531 C 23.90625 8.378906 23.835938 8.351562 23.816406 8.324219 C 23.789062 8.304688 23.808594 8.300781 23.851562 8.324219 C 23.914062 8.359375 23.914062 8.355469 23.851562 8.296875 C 23.808594 8.253906 23.75 8.191406 23.710938 8.148438 C 23.648438 8.085938 23.644531 8.085938 23.679688 8.148438 C 23.699219 8.191406 23.695312 8.210938 23.675781 8.183594 C 23.59375 8.113281 23.585938 7.910156 23.554688 5.238281 L 23.523438 2.550781 L 19.875 6.199219 C 17.863281 8.210938 16.230469 9.871094 16.25 9.886719 C 16.265625 9.898438 16.25 9.90625 16.21875 9.886719 C 16.195312 9.871094 16.089844 9.875 15.988281 9.894531 C 15.878906 9.921875 15.75 9.914062 15.644531 9.878906 Z M 15.644531 9.878906 "/>
</g>
</svg>
