<?xml version="1.0" encoding="utf-8"?>
<!-- Generator: Adobe Illustrator 24.1.3, SVG Export Plug-In . SVG Version: 6.00 Build 0)  -->
<svg version="1.1" id="Layer_1" xmlns="http://www.w3.org/2000/svg" xmlns:xlink="http://www.w3.org/1999/xlink" x="0px" y="0px"
	 viewBox="0 0 30 30" style="enable-background:new 0 0 30 30;" xml:space="preserve">
<style type="text/css">
	.st0{fill:#222E5E;}
	.st1{fill:#FFFFFF;}
	.st2{fill:#EBBB10;}
	.st3{fill:#666666;}
	.st4{fill:#808080;}
	.st5{fill:#277FB6;}
	.st6{fill:#22AF80;}
	.st7{fill:none;stroke:#222E5E;stroke-linecap:round;stroke-linejoin:round;stroke-miterlimit:10;}
	.st8{fill:#BEBEBE;}
	.st9{fill:#1E3565;}
	.st10{clip-path:url(#SVGID_2_);}
	.st11{fill:none;stroke:#222E5E;stroke-miterlimit:10;}
	.st12{fill:#A5A5A5;}
	.st13{fill:#C0C0C0;}
	.st14{opacity:0.1;}
	.st15{fill:none;stroke:#FFFFFF;stroke-width:0.5;stroke-linecap:round;stroke-linejoin:round;stroke-miterlimit:10;}
</style>
<g>
	<path class="st0" d="M22.85,15.4c-0.28,0-0.5,0.22-0.5,0.5v8.6H5.5V7.65h8.74c0.28,0,0.5-0.22,0.5-0.5s-0.22-0.5-0.5-0.5H5
		c-0.28,0-0.5,0.22-0.5,0.5V25c0,0.28,0.22,0.5,0.5,0.5h17.85c0.28,0,0.5-0.22,0.5-0.5v-9.1C23.35,15.62,23.13,15.4,22.85,15.4z"/>
	<path class="st0" d="M25,4.5h-7.16c-0.28,0-0.5,0.22-0.5,0.5s0.22,0.5,0.5,0.5h5.95l-3.09,3.09c-0.2,0.2-0.2,0.51,0,0.71
		c0.1,0.1,0.23,0.15,0.35,0.15s0.26-0.05,0.35-0.15l3.09-3.09v5.95c0,0.28,0.22,0.5,0.5,0.5s0.5-0.22,0.5-0.5V5
		C25.5,4.72,25.28,4.5,25,4.5z"/>
	<path class="st0" d="M17.08,13.42c0.13,0,0.26-0.05,0.35-0.15l1.45-1.45c0.2-0.2,0.2-0.51,0-0.71s-0.51-0.2-0.71,0l-1.45,1.45
		c-0.2,0.2-0.2,0.51,0,0.71C16.83,13.37,16.95,13.42,17.08,13.42z"/>
</g>
</svg>
