<!DOCTYPE svg PUBLIC "-//W3C//DTD SVG 20010904//EN" "http://www.w3.org/TR/2001/REC-SVG-20010904/DTD/svg10.dtd">
<svg version="1.0" xmlns="http://www.w3.org/2000/svg" width="500px" height="500px" viewBox="0 0 5000 5000" preserveAspectRatio="xMidYMid meet">
<g id="layer101" fill="#232f5d" stroke="none">
 <path d="M0 2500 l0 -2500 2500 0 2500 0 0 2500 0 2500 -2500 0 -2500 0 0 -2500z"/>
 </g>
<g id="layer102" fill="#a1a1a1" stroke="none">
 <path d="M0 2500 l0 -2500 2500 0 2500 0 0 2500 0 2500 -2500 0 -2500 0 0 -2500z m3460 408 l0 -873 -80 80 -80 80 0 712 0 713 -955 0 -955 0 0 -955 0 -955 713 0 713 0 72 -73 73 -74 -152 -6 c-84 -4 -471 -7 -861 -7 l-708 0 0 1115 0 1115 1110 0 1110 0 0 -872z m-502 -635 l539 -531 141 141 142 142 0 -393 0 -392 -392 0 -393 0 140 140 140 140 -540 540 -540 540 105 105 c58 57 108 103 112 102 4 -1 250 -241 546 -534z"/>
 </g>

</svg>