<?xml version="1.0" encoding="UTF-8"?>
<svg xmlns="http://www.w3.org/2000/svg" xmlns:xlink="http://www.w3.org/1999/xlink" width="17pt" height="17pt" viewBox="0 0 17 17" version="1.1">
<g id="surface1">
<path style=" stroke:none;fill-rule:nonzero;fill:rgb(100%,100%,100%);fill-opacity:1;" d="M 5.449219 11.25 C 3.910156 11.25 2.671875 10.011719 2.671875 8.480469 C 2.671875 6.949219 3.921875 5.710938 5.449219 5.710938 C 6.980469 5.710938 8.230469 6.949219 8.230469 8.480469 C 8.230469 10.011719 6.988281 11.25 5.449219 11.25 Z M 5.449219 6.710938 C 4.46875 6.710938 3.671875 7.5 3.671875 8.480469 C 3.671875 9.460938 4.46875 10.25 5.449219 10.25 C 6.429688 10.25 7.230469 9.460938 7.230469 8.480469 C 7.230469 7.5 6.441406 6.710938 5.449219 6.710938 Z M 11.519531 11.25 C 9.980469 11.25 8.738281 10.011719 8.738281 8.480469 C 8.738281 6.949219 9.988281 5.710938 11.519531 5.710938 C 13.050781 5.710938 14.300781 6.949219 14.300781 8.480469 C 14.300781 10.011719 13.058594 11.25 11.519531 11.25 Z M 11.519531 6.710938 C 10.539062 6.710938 9.738281 7.5 9.738281 8.480469 C 9.738281 9.460938 10.539062 10.25 11.519531 10.25 C 12.5 10.25 13.300781 9.460938 13.300781 8.480469 C 13.300781 7.5 12.511719 6.710938 11.519531 6.710938 Z M 11.519531 6.710938 "/>
<path style=" stroke:none;fill-rule:nonzero;fill:rgb(100%,100%,100%);fill-opacity:1;" d="M 13.640625 16.949219 L 3.359375 16.949219 C 1.511719 16.949219 0 15.449219 0 13.601562 L 0 3.390625 C 0 1.550781 1.511719 0.0390625 3.359375 0.0390625 L 13.628906 0.0390625 C 15.480469 0.0390625 16.988281 1.539062 16.988281 3.390625 L 16.988281 13.609375 C 17 15.449219 15.488281 16.949219 13.640625 16.949219 Z M 3.359375 1.050781 C 2.058594 1.050781 1 2.101562 1 3.390625 L 1 13.609375 C 1 14.898438 2.058594 15.960938 3.359375 15.960938 L 13.628906 15.960938 C 14.929688 15.960938 15.988281 14.910156 15.988281 13.609375 L 15.988281 3.390625 C 15.988281 2.101562 14.929688 1.039062 13.628906 1.039062 L 3.359375 1.039062 Z M 3.359375 1.050781 "/>
</g>
</svg>
