<?xml version="1.0" encoding="utf-8"?>
<!-- Generator: Adobe Illustrator 24.1.3, SVG Export Plug-In . SVG Version: 6.00 Build 0)  -->
<svg version="1.1" id="Layer_1" xmlns="http://www.w3.org/2000/svg" xmlns:xlink="http://www.w3.org/1999/xlink" x="0px" y="0px"
	 viewBox="0 0 17 17" style="enable-background:new 0 0 17 17;" xml:space="preserve">
<style type="text/css">
	.st0{fill:#222E5E;}
	.st1{fill:#FFFFFF;}
	.st2{fill:#808080;}
	.st3{fill:#18B900;}
	.st4{fill:#EBBB10;}
	.st5{fill:#666666;}
	.st6{fill:#277FB6;}
	.st7{fill:#22AF80;}
	.st8{fill:none;stroke:#222E5E;stroke-linecap:round;stroke-linejoin:round;stroke-miterlimit:10;}
	.st9{fill:#BEBEBE;}
	.st10{fill:#1E3565;}
	.st11{clip-path:url(#SVGID_2_);}
	.st12{fill:none;stroke:#222E5E;stroke-miterlimit:10;}
	.st13{fill:#A5A5A5;}
	.st14{fill:#C0C0C0;}
	.st15{opacity:0.1;}
	.st16{fill:none;stroke:#FFFFFF;stroke-width:0.5;stroke-linecap:round;stroke-linejoin:round;stroke-miterlimit:10;}
	.st17{fill:none;stroke:#808080;stroke-linecap:round;stroke-linejoin:round;stroke-miterlimit:10;}
</style>
<g>
	<g>
		<g>
			<path class="st0" d="M5.45,11.25c-1.54,0-2.78-1.24-2.78-2.77s1.25-2.77,2.78-2.77s2.78,1.24,2.78,2.77S6.99,11.25,5.45,11.25z
				 M5.45,6.71c-0.98,0-1.78,0.79-1.78,1.77s0.8,1.77,1.78,1.77s1.78-0.79,1.78-1.77S6.44,6.71,5.45,6.71z"/>
		</g>
		<g>
			<path class="st0" d="M11.52,11.25c-1.54,0-2.78-1.24-2.78-2.77s1.25-2.77,2.78-2.77s2.78,1.24,2.78,2.77S13.06,11.25,11.52,11.25
				z M11.52,6.71c-0.98,0-1.78,0.79-1.78,1.77s0.8,1.77,1.78,1.77s1.78-0.79,1.78-1.77S12.51,6.71,11.52,6.71z"/>
		</g>
	</g>
	<g>
		<path class="st0" d="M13.64,16.95H3.36c-1.85,0-3.36-1.5-3.36-3.35V3.39c0-1.84,1.51-3.35,3.36-3.35h10.27
			c1.85,0,3.36,1.5,3.36,3.35v10.22C17,15.45,15.49,16.95,13.64,16.95z M3.36,1.05C2.06,1.05,1,2.1,1,3.39v10.22
			c0,1.29,1.06,2.35,2.36,2.35h10.27c1.3,0,2.36-1.05,2.36-2.35V3.39c0-1.29-1.06-2.35-2.36-2.35H3.36z"/>
	</g>
</g>
</svg>
