<!DOCTYPE svg PUBLIC "-//W3C//DTD SVG 20010904//EN" "http://www.w3.org/TR/2001/REC-SVG-20010904/DTD/svg10.dtd">
<svg version="1.0" xmlns="http://www.w3.org/2000/svg" width="512px" height="512px" viewBox="0 0 5120 5120" preserveAspectRatio="xMidYMid meet">
<g id="layer101" fill="#ffffff" stroke="none">
 <path d="M2305 5113 c-398 -49 -724 -154 -1025 -330 -700 -409 -1167 -1112 -1265 -1903 -20 -163 -20 -477 0 -640 98 -797 571 -1504 1277 -1909 295 -170 609 -273 958 -317 152 -19 472 -18 630 1 1157 144 2081 1068 2225 2225 19 158 20 478 1 630 -44 350 -154 680 -323 970 -411 702 -1105 1163 -1906 1265 -108 14 -485 19 -572 8z m585 -278 c505 -78 959 -310 1311 -671 347 -358 559 -785 636 -1284 24 -159 24 -481 0 -640 -79 -510 -295 -939 -656 -1301 -362 -362 -790 -577 -1301 -656 -158 -24 -482 -24 -640 0 -493 76 -922 287 -1274 627 -372 360 -601 806 -682 1330 -25 159 -25 481 0 640 112 726 529 1332 1163 1689 279 157 578 247 948 285 81 8 393 -4 495 -19z"/>
 <path d="M2890 3397 c-56 -28 -87 -116 -59 -170 6 -12 126 -138 267 -279 l257 -258 -973 0 c-830 0 -977 -2 -1001 -14 -82 -43 -86 -177 -6 -226 32 -20 48 -20 1006 -20 l974 0 -257 -257 c-141 -142 -261 -268 -267 -280 -17 -33 -13 -84 9 -120 41 -68 130 -83 196 -34 21 16 199 190 396 387 289 292 358 366 366 397 22 80 20 82 -381 485 -205 205 -384 380 -399 388 -33 17 -95 18 -128 1z"/>
 </g>

</svg>