<?xml version="1.0" encoding="utf-8"?>
<!-- Generator: Adobe Illustrator 23.0.4, SVG Export Plug-In . SVG Version: 6.00 Build 0)  -->
<svg version="1.1" id="Layer_1" xmlns="http://www.w3.org/2000/svg" xmlns:xlink="http://www.w3.org/1999/xlink" x="0px" y="0px"
	 viewBox="0 0 139.5 43.4" style="enable-background:new 0 0 139.5 43.4;" xml:space="preserve">
<style type="text/css">
	.st0{fill:#FFFFFF;}
	.st1{fill:#232F5D;}
	.st2{fill:#FFCD00;}
	.st3{fill:#6A4024;}
	.st4{fill:#E1261D;}
	.st5{fill:#1D1D1B;}
	.st6{fill:#1F3664;}
	.st7{fill-rule:evenodd;clip-rule:evenodd;fill:#FDE01D;}
	.st8{fill-rule:evenodd;clip-rule:evenodd;fill:#1D1D1B;}
</style>
<title>Icones Homepage</title>
<rect x="0.5" y="0.5" class="st0" width="63.1" height="42.4"/>
<path class="st0" d="M63.1,1v41.4H1V1H63.1 M64.1,0H0v43.4h64.1V0z"/>
<rect x="1" y="1" class="st1" width="24.8" height="41.4"/>
<polygon class="st2" points="26.3,11.6 27,11.1 26.1,11.1 25.8,10.2 25.5,11.1 24.7,11.1 25.4,11.6 25.1,12.4 25.8,11.9 26.5,12.4 
	"/>
<path class="st3" d="M26.6,12.5l-0.8-0.5l-0.7,0.5l0.3-0.9l-0.7-0.6h0.9l0.3-0.9l0.3,0.9H27l-0.8,0.5L26.6,12.5z M24.7,11.1l0.7,0.5
	l-0.3,0.8l0.7-0.5l0.7,0.5l-0.3-0.8l0.7-0.5h-0.8l-0.3-0.8l-0.2,0.8H24.7z"/>
<polygon class="st2" points="14,18.1 14.8,17.8 14,17.5 14,16.6 13.5,17.4 12.6,17.1 13.2,17.8 12.6,18.5 13.5,18.2 14,18.9 "/>
<path class="st3" d="M14,19l-0.6-0.7l-0.9,0.3l0.5-0.8l-0.6-0.7l0.9,0.3l0.5-0.8v0.9l0.9,0.3L14,18.1L14,19z M13.5,18.2l0.5,0.7
	v-0.8l0.8-0.3L14,17.5v-0.8l-0.5,0.7l-0.8-0.2l0.5,0.7l-0.5,0.7L13.5,18.2z"/>
<polygon class="st2" points="16.3,15.5 17.2,15.4 16.4,15 16.6,14.1 16,14.7 15.2,14.2 15.6,15 14.9,15.6 15.8,15.5 16.1,16.3 "/>
<path class="st3" d="M16.1,16.4l-0.4-0.8l-0.9,0.1l0.7-0.6l-0.4-0.9l0.8,0.5l0.7-0.6L16.5,15l0.8,0.5l-0.9,0.1L16.1,16.4z
	 M15.8,15.5l0.3,0.8l0.2-0.8l0,0l0.8-0.1L16.4,15l0,0l0.2-0.8l-0.6,0.6l-0.7-0.4l0.3,0.8l0,0l-0.6,0.6L15.8,15.5z"/>
<polygon class="st2" points="19.2,13.5 20,13.7 19.4,13.1 19.8,12.3 19,12.7 18.4,12.1 18.5,12.9 17.8,13.3 18.6,13.5 18.8,14.3 "/>
<path class="st3" d="M18.8,14.4l-0.1-0.9l-0.9-0.1l0.8-0.4L18.4,12l0.7,0.6l0.8-0.4l-0.4,0.8l0.7,0.6l-0.9-0.1L18.8,14.4z
	 M17.8,13.3l0.8,0.1l0.1,0.8l0.4-0.7l0.8,0.1l-0.6-0.6l0.4-0.8L19,12.7l-0.6-0.6l0.1,0.8L17.8,13.3z"/>
<polygon class="st2" points="22.7,11.9 23.3,11.2 22.5,11.5 22,10.7 21.9,11.6 21.1,11.8 21.9,12.1 21.8,13 22.4,12.3 23.2,12.7 "/>
<path class="st3" d="M21.8,13l0.1-0.9L21,11.8l0.9-0.2l0.1-0.9l0.5,0.8l0.9-0.2l-0.6,0.7l0.5,0.8l-0.9-0.4L21.8,13z M21.1,11.8
	l0.8,0.3l-0.1,0.8l0.5-0.6l0.8,0.3l-0.4-0.7l0.5-0.6l-0.8,0.2L22,10.8l-0.1,0.8l0,0L21.1,11.8z"/>
<polygon class="st2" points="29.8,12.1 30.6,11.8 29.7,11.6 29.6,10.7 29.2,11.5 28.3,11.2 28.9,11.9 28.5,12.7 29.3,12.3 29.8,13 
	"/>
<path class="st3" d="M29.8,13.1l-0.6-0.7l-0.9,0.4l0.5-0.8l-0.6-0.7l0.9,0.2l0.5-0.8l0.1,0.9l0.9,0.2l-0.9,0.4L29.8,13.1z
	 M29.3,12.3l0.5,0.6l-0.1-0.8l0.8-0.3l-0.8-0.2l-0.1-0.8l-0.4,0.7l-0.8-0.2l0.5,0.6l-0.4,0.7L29.3,12.3z"/>
<polygon class="st2" points="33,13.5 33.9,13.3 33.1,12.9 33.3,12.1 32.6,12.7 31.9,12.3 32.2,13.1 31.6,13.7 32.5,13.5 32.9,14.3 
	"/>
<path class="st3" d="M32.9,14.4l-0.4-0.8l-0.9,0.1l0.7-0.6l-0.4-0.8l0.8,0.4l0.7-0.6l-0.2,0.9l0.8,0.4L33,13.5L32.9,14.4z
	 M32.5,13.5L32.5,13.5l0.4,0.7l0.1-0.8l0.8-0.1l-0.7-0.4l0,0l0.1-0.8l-0.6,0.6l0,0l-0.7-0.4l0.4,0.8l-0.6,0.6L32.5,13.5z"/>
<polygon class="st2" points="35.9,15.5 36.8,15.6 36.1,15 36.4,14.2 35.7,14.7 35,14.1 35.2,15 34.5,15.4 35.3,15.5 35.5,16.3 "/>
<path class="st3" d="M35.5,16.4l-0.2-0.9l-0.9-0.1l0.8-0.4L35,14.1l0.7,0.6l0.8-0.5l-0.4,0.9l0.7,0.6l-0.9-0.1L35.5,16.4z
	 M34.5,15.4l0.8,0.1l0.2,0.8l0.3-0.8l0,0l0.8,0.1l-0.6-0.6l0,0l0.3-0.8l-0.7,0.4l0,0l-0.6-0.5l0.2,0.8l0,0L34.5,15.4z"/>
<polygon class="st2" points="38.5,17.8 39,17.1 38.2,17.4 37.7,16.6 37.7,17.5 36.8,17.8 37.7,18.1 37.6,18.9 38.2,18.2 39,18.5 "/>
<path class="st3" d="M37.6,19v-0.9l-0.9-0.3l0.9-0.3v-0.9l0.5,0.8l0.9-0.3l-0.6,0.7l0.5,0.8l-0.9-0.3L37.6,19z M36.9,17.8l0.8,0.3
	l0,0v0.8l0.5-0.7l0.8,0.3l-0.5-0.7l0.5-0.7l-0.8,0.2l0,0l-0.5-0.7v0.8l0,0L36.9,17.8z"/>
<path class="st2" d="M24.9,22.9c0.5-1.2,1.4-1.3,2-2c0.2-0.3,0.8-0.1,1.1-0.2s0.5,0.1,0.5,0.4c0.7,0,0.6,0.3,0.6,0.5
	c0-0.1-0.3-0.1-0.5-0.1c0,0.2-0.2,0.3-0.4,0.3s-0.2,0.4-0.2,0.6c0.6,0,1.1-0.5,1.6-1.1c0.7-0.8,1.8-1.1,2.8-1
	c2.1,0.2,4.2,0.1,6.3-0.2c1.2-0.3,1.4,0.1,0.6,0.7c0.1,0.2-0.1,0.6-0.5,0.7c0.2,0.2-0.1,0.5-0.7,0.8c0,0.4-0.6,0.8-1.3,0.9
	c0.2,0.5-1,0.9-2.2,0.8c0.1,0.2-0.3,0.5-0.8,0.5c0.2,0.2-0.3,0.4-0.6,0.4c0.2,0.2-0.7,0.4-1.2,0.3c0,0.2-0.5,0.3-0.9,0.2
	c0,0.1-0.4,0.2-0.6,0c-0.1,0.2-0.3,0.2-0.6,0c-0.1,0.2-0.4,0.2-0.5,0c0,0,0,0,0,0c-0.1,0.1-0.3,0.2-0.4,0.1c0,0-0.1-0.1-0.1-0.1
	c-0.1,0.2-0.3,0.1-0.5,0c0,0.2-0.5,0.5-0.8-0.6c0,0.4-0.1,0.7-0.3,1c0.1,0.5,0.2,1,0.1,1.5c0.1,0.6,0.3,1.3,0.5,1.9
	c0.2,0.5-0.1,0.5-0.2,0.4c0,0.1,0,0.2,0,0.3c-0.1-0.1-0.2-0.2-0.3-0.2c0,0.1,0,0.2-0.1,0.2c-0.1-0.2-0.3-0.4-0.4-0.4
	c-0.2,0.1-0.4,0.2-0.5,0.4c0-0.1,0-0.1,0-0.2c-0.1,0.1-0.5,0.1-0.5,0c0,0.1,0,0.1,0,0.2c-0.1-0.1-0.2-0.2-0.3-0.2
	c0,0.1,0,0.2-0.1,0.2c-0.1-0.2-0.3-0.3-0.4-0.3c-0.2,0-0.4,0.2-0.5,0.4c-0.1-0.1-0.1-0.3,0-0.4c-0.1,0-0.2-0.1-0.1-0.2
	c-0.3,0.5-0.6,0.4-0.8,0.1c-0.3,0.3-0.9,0.1-0.6-0.3c0.6-0.9,1-1.9,1.3-2.9c0.1-0.3,0-0.8,0.2-1.3c-0.4,0.6-0.8,0.7-0.9,0.6
	c-0.1,0.1-0.5,0.3-0.6,0.1c-0.1,0.1-0.3,0.1-0.5,0c-0.2,0.1-0.5,0.2-0.5,0c-0.2,0.1-0.6,0.1-0.6,0c-0.3,0.2-0.9,0.1-0.9-0.2
	c-0.7,0.3-1.2,0.1-1.2-0.2c-0.4,0-0.6-0.1-0.6-0.3c-0.4,0-0.7-0.2-0.6-0.5c-0.9,0.1-3.1-0.2-3-0.9c-0.6-0.1-1.6-0.6-1.3-0.9
	c-0.4-0.1-0.9-0.5-0.8-0.8c-0.6-0.1-0.7-0.6-0.5-0.7c-0.6-0.2-0.6-0.9,0.3-0.6c2.3,0.3,4.5,0.3,6.8,0.2c1.9-0.1,1.9,0.4,3.6,1.6
	C23.6,22.8,24.2,22.9,24.9,22.9L24.9,22.9z"/>
<path class="st3" d="M24.1,30.2L24.1,30.2c-0.1-0.1-0.1-0.3,0-0.4c0,0-0.1,0-0.1-0.1c0,0,0,0,0,0c-0.1,0.2-0.2,0.3-0.4,0.3l0,0
	c-0.1,0-0.3-0.1-0.3-0.2c-0.2,0.2-0.4,0.2-0.6,0.1c-0.1-0.1-0.1-0.3,0-0.4c0,0,0,0,0,0c0.6-0.8,1-1.7,1.3-2.7c0-0.1,0.1-0.1,0.1-0.2
	c0-0.2,0.1-0.4,0.1-0.5c0-0.2,0-0.4,0.1-0.6c-0.1,0.3-0.4,0.5-0.7,0.5c-0.1,0-0.1,0-0.1,0C23.3,25.9,23.1,26,23,26
	c-0.1,0-0.1,0-0.2-0.1c-0.1,0.1-0.3,0.1-0.5,0C22.2,26,22.1,26,22,26c0,0-0.1,0-0.1-0.1c-0.2,0.1-0.3,0.1-0.5,0
	c-0.1,0-0.1,0-0.1-0.1c-0.2,0.1-0.5,0.1-0.7,0c-0.1,0-0.2-0.2-0.2-0.3c-0.3,0.2-0.7,0.2-1.1,0c-0.1-0.1-0.1-0.1-0.1-0.2
	c-0.2,0-0.4,0-0.5-0.1c0-0.1-0.1-0.1-0.1-0.2c-0.2,0-0.4-0.1-0.5-0.2c-0.1-0.1-0.1-0.2-0.1-0.3c-0.8,0.1-2.4-0.1-2.9-0.6
	C15,23.8,15,23.7,15,23.6c-0.5-0.1-1.2-0.4-1.3-0.7c0-0.1,0-0.2,0-0.2c-0.4-0.1-0.8-0.5-0.8-0.8c-0.3,0-0.5-0.2-0.6-0.5
	c0-0.1,0-0.1,0.1-0.2c-0.3-0.1-0.4-0.3-0.4-0.5s0.1-0.3,0.7-0.1c2.3,0.3,4.5,0.3,6.8,0.2c1-0.2,2,0.2,2.6,0.9c0.3,0.2,0.6,0.5,1,0.7
	c0.4,0.3,0.9,0.5,1.4,0.5c0.1,0,0.2,0,0.3,0c0.2-0.6,0.7-1.1,1.2-1.4c0.3-0.2,0.5-0.4,0.7-0.6c0.1-0.2,0.4-0.2,0.7-0.2
	c0.1,0,0.3,0,0.4,0c0.1-0.1,0.3-0.1,0.4,0c0.1,0.1,0.2,0.2,0.2,0.4c0.2,0,0.4,0,0.5,0.1c0.1,0.1,0.1,0.3,0,0.4l0,0l0,0l0,0
	c0-0.1-0.3-0.1-0.4-0.1c0,0.2-0.1,0.2-0.4,0.3h-0.1c-0.1,0-0.2,0.2-0.2,0.6l0,0c0.6,0,1-0.5,1.6-1.1c0.7-0.8,1.8-1.1,2.8-1
	c2.1,0.2,4.2,0.1,6.3-0.2c0.6-0.2,1-0.1,1.1,0s-0.1,0.4-0.5,0.6c0,0.1,0,0.2,0,0.3c-0.1,0.2-0.3,0.4-0.5,0.5c0,0.1,0,0.2,0,0.2
	c0,0.2-0.3,0.4-0.8,0.6c0,0.4-0.6,0.8-1.3,0.9c0,0.1,0,0.2-0.1,0.3c-0.6,0.5-1.4,0.7-2.2,0.5c0,0,0,0.1,0,0.1
	c-0.2,0.2-0.5,0.4-0.8,0.4c0,0,0,0.1,0,0.1c-0.1,0.2-0.4,0.3-0.6,0.3c0,0,0,0,0,0.1c-0.3,0.2-0.8,0.3-1.2,0.3c0,0,0,0.1,0,0.1
	c-0.2,0.1-0.5,0.2-0.8,0.1c0,0.1-0.1,0.1-0.1,0.1c-0.2,0.1-0.3,0.1-0.5,0c0,0.1-0.1,0.1-0.1,0.1c-0.2,0-0.3,0-0.4-0.1
	c-0.1,0.1-0.2,0.1-0.3,0.1c-0.1,0-0.2-0.1-0.3-0.1c-0.1,0.1-0.1,0.1-0.2,0.1c-0.1,0-0.2,0-0.3-0.1c0,0.1-0.1,0.1-0.2,0.1l0,0
	c-0.1,0-0.2-0.1-0.3-0.1c-0.1,0.1-0.1,0.1-0.2,0.1c-0.1,0-0.4-0.1-0.6-0.6c0,0.3-0.1,0.6-0.3,0.9c0.1,0.5,0.2,1,0.1,1.5
	c0.1,0.6,0.3,1.3,0.5,1.9c0.1,0.2,0.1,0.4,0,0.4c-0.1,0-0.2,0-0.2,0c0,0.1,0,0.2,0,0.2l0,0l0,0c-0.1-0.1-0.2-0.2-0.3-0.2
	c0,0.1-0.1,0.2-0.1,0.2l0,0L27,30c-0.1-0.1-0.2-0.3-0.4-0.3c-0.2,0.1-0.4,0.2-0.5,0.4l0,0l0,0c0-0.1,0-0.1,0-0.2c-0.1,0-0.2,0-0.4,0
	c0,0-0.1,0-0.1,0c0,0,0,0.1,0,0.1l0,0l0,0c-0.1-0.1-0.2-0.2-0.3-0.2c0,0.1,0,0.2-0.1,0.2l0,0c-0.1-0.2-0.3-0.3-0.4-0.3
	c-0.2,0-0.4,0.2-0.5,0.4l0,0L24.1,30.2z M24,29.5L24,29.5L24,29.5C24,29.6,24,29.6,24,29.5c0,0.1,0.1,0.1,0.1,0.1l0,0
	c0,0.1,0,0.3,0,0.4c0.1-0.2,0.3-0.3,0.5-0.4c0.1,0,0.3,0.1,0.4,0.3c0-0.1,0.1-0.1,0.1-0.2l0,0c0.1,0,0.2,0.1,0.3,0.2
	c0,0,0-0.1,0-0.1l0,0l0,0c0,0,0.1,0.1,0.1,0.1c0.1,0,0.2,0,0.4-0.1l0,0l0,0c0,0.1,0,0.1,0,0.2c0.1-0.2,0.3-0.3,0.5-0.4l0,0
	c0.1,0,0.3,0.2,0.4,0.3v0c0-0.1,0.1-0.1,0.1-0.2l0,0c0.1,0,0.2,0.1,0.3,0.2c0-0.1,0-0.1,0-0.2l0,0l0,0c0,0,0.2,0.1,0.2,0
	s0.1-0.1,0-0.4c-0.2-0.6-0.4-1.3-0.5-1.9c0.1-0.5,0.1-1,0.1-1.5l0,0c0.2-0.3,0.3-0.6,0.3-1l0,0l0,0c0.2,0.6,0.4,0.7,0.5,0.7
	c0.1,0,0.2-0.1,0.2-0.1l0,0l0,0c0.1,0.1,0.2,0.1,0.3,0.2c0.1,0,0.1,0,0.2-0.1l0,0c0.1,0.1,0.2,0.1,0.3,0.1c0.1,0,0.2-0.1,0.2-0.1
	l0,0l0,0c0.1,0.1,0.2,0.1,0.3,0.1c0.1,0,0.2,0,0.3-0.1l0,0c0.1,0.1,0.3,0.1,0.4,0.1c0,0,0.1-0.1,0.1-0.1l0,0l0,0
	c0.1,0.1,0.3,0.1,0.5,0.1c0.1,0,0.1-0.1,0.1-0.1l0,0c0.3,0.1,0.6,0,0.8-0.1c0,0,0-0.1,0-0.1l0,0c0.5,0.1,1,0,1.4-0.3c0,0,0,0,0,0
	s0,0,0,0l0,0c0.2,0,0.4-0.1,0.6-0.3c0,0,0-0.1,0-0.1l0,0l0,0c0.3,0,0.6-0.1,0.8-0.3c0,0,0-0.1,0-0.1l0,0l0,0
	c0.8,0.1,1.5-0.1,2.2-0.5c0.1-0.1,0.1-0.2,0-0.3l0,0l0,0c0.7-0.1,1.3-0.4,1.3-0.9l0,0c0.4-0.2,0.7-0.4,0.8-0.6c0-0.1,0-0.1,0-0.2
	l0,0l0,0c0.2-0.1,0.4-0.3,0.5-0.5c0-0.1,0-0.2,0-0.2l0,0c0.4-0.2,0.5-0.5,0.5-0.6s-0.4-0.2-1,0c-2.1,0.3-4.2,0.4-6.3,0.2
	c-1-0.1-2.1,0.2-2.8,1c-0.5,0.6-1,1.1-1.6,1.1l0,0l0,0c0-0.4,0.1-0.6,0.3-0.6h0.1c0.2,0,0.4-0.1,0.4-0.3l0,0c0.1,0,0.4,0,0.5,0.1
	c0.1-0.1,0.1-0.2,0-0.3c-0.1-0.1-0.3-0.1-0.5-0.1l0,0c0-0.1,0-0.3-0.1-0.4c-0.1,0-0.2,0-0.3,0c-0.1,0-0.3,0-0.4,0
	c-0.3,0-0.6,0-0.7,0.2c-0.2,0.2-0.5,0.4-0.7,0.6c-0.6,0.3-1,0.8-1.2,1.4l0,0h-0.3c-0.5,0-1-0.2-1.5-0.5c-0.4-0.3-0.7-0.5-1-0.8
	c-0.7-0.7-1.7-1-2.6-0.8c-2.3,0.2-4.6,0.1-6.8-0.2c-0.4-0.1-0.6,0-0.7,0.1s0.1,0.4,0.4,0.5l0,0l0,0c-0.1,0-0.1,0.1-0.1,0.2
	c0,0.2,0.2,0.4,0.6,0.5l0,0c0,0.3,0.4,0.6,0.8,0.8l0,0l0,0c-0.1,0.1-0.1,0.1-0.1,0.2c0.1,0.3,0.8,0.6,1.3,0.7l0,0l0,0
	c0,0.1,0,0.2,0.1,0.3c0.4,0.3,0.8,0.5,1.3,0.5c0.5,0.1,1,0.1,1.5,0.1l0,0l0,0c0,0.1,0,0.2,0.1,0.3c0.1,0.1,0.3,0.2,0.5,0.2l0,0l0,0
	c0,0.1,0,0.1,0.1,0.2c0.1,0.1,0.3,0.2,0.5,0.1l0,0l0,0c0,0.1,0,0.2,0.1,0.2c0.3,0.2,0.7,0.1,1.1,0l0,0l0,0c0,0.1,0.1,0.2,0.2,0.3
	c0.2,0.1,0.5,0.1,0.7,0l0,0l0,0c0,0,0.1,0.1,0.1,0.1c0.2,0,0.3,0,0.5-0.1l0,0c0,0,0,0.1,0.1,0.1c0.1,0,0.3,0,0.4-0.1l0,0
	c0.1,0.1,0.3,0.1,0.4,0l0,0c0,0.1,0.1,0.1,0.1,0.1c0.2,0,0.3-0.1,0.4-0.2l0,0c0,0,0.1,0,0.1,0s0.5-0.2,0.7-0.6l0,0l0,0
	c-0.1,0.3-0.1,0.5-0.1,0.8c0,0.2,0,0.4-0.1,0.5l-0.1,0.2c-0.3,1-0.8,1.9-1.4,2.7c-0.1,0.1-0.1,0.2,0,0.3c0.2,0.1,0.4,0.1,0.5-0.1
	l0,0c0.1,0.1,0.2,0.2,0.3,0.2c0.1,0,0.3-0.1,0.4-0.3L24,29.5z"/>
<path class="st3" d="M27.2,29.9L27.2,29.9L27.2,29.9c0-0.1,0-0.2-0.1-0.3l0,0l0,0C27.1,29.7,27.2,29.8,27.2,29.9L27.2,29.9z"/>
<path class="st3" d="M27.5,29.8L27.5,29.8c-0.1-0.2-0.3-0.2-0.4-0.2l0,0c-0.2,0-0.3-0.2-0.2-0.4c0-0.3,0.1-0.5,0.3-0.8
	c0.1-0.3,0.1-0.6,0.1-0.9l0,0l0,0l0,0c0,0.3-0.1,0.6-0.2,0.9c-0.1,0.2-0.2,0.5-0.3,0.8c0,0.2,0.1,0.3,0.2,0.3S27.4,29.5,27.5,29.8
	L27.5,29.8L27.5,29.8z"/>
<path class="st3" d="M26.1,29.9L26.1,29.9L26.1,29.9c0-0.2,0.2-0.4,0.4-0.4c0.1,0,0.2,0,0.2-0.2c0-0.2-0.1-0.5-0.3-0.6
	c-0.4-0.5-0.6-1.1-0.5-1.8l0,0l0,0c0,0.6,0.2,1.2,0.5,1.7c0.2,0.2,0.3,0.4,0.3,0.6c0,0.2,0,0.2-0.2,0.3
	C26.2,29.6,26.1,29.7,26.1,29.9C26.1,29.9,26.1,29.9,26.1,29.9z"/>
<path class="st3" d="M26.7,26.6L26.7,26.6L26.7,26.6c0.1-0.1,0.1-0.3,0.2-0.4c0.1-0.1,0.1-0.2,0.2-0.3l0,0l0,0
	c-0.1,0.1-0.1,0.2-0.2,0.3C26.8,26.4,26.7,26.5,26.7,26.6L26.7,26.6z"/>
<path class="st3" d="M25.2,23.1L25.2,23.1c-0.1-0.1-0.1-0.2-0.3-0.2l0,0l0,0C25,22.9,25.1,23,25.2,23.1L25.2,23.1L25.2,23.1z"/>
<path class="st3" d="M25.2,29.9L25.2,29.9L25.2,29.9c0-0.1,0-0.2-0.1-0.3l0,0l0,0C25.2,29.7,25.2,29.8,25.2,29.9L25.2,29.9z"/>
<path class="st3" d="M25.5,29.9L25.5,29.9L25.5,29.9c0-0.1,0-0.2-0.1-0.3c-0.1-0.1-0.2-0.1-0.3-0.1l0,0c-0.1,0-0.2-0.1-0.2-0.3
	c0-0.4,0.1-0.7,0.3-1c0.4-0.6,0.5-1.3,0.4-2.1l0,0l0,0c0.1,0.7,0,1.5-0.4,2.1c-0.2,0.3-0.3,0.6-0.3,1c0,0.2,0.1,0.2,0.2,0.3
	c0.1,0,0.3,0,0.4,0.1C25.5,29.7,25.6,29.8,25.5,29.9L25.5,29.9z"/>
<path class="st3" d="M24.1,29.7L24.1,29.7L24.1,29.7c0.1-0.1,0.2-0.2,0.3-0.2c0.1,0,0.2,0,0.2-0.2c0-0.1,0-0.2-0.1-0.3L24.4,29
	c-0.4-0.7-0.5-1.6-0.4-2.4l0,0l0,0c-0.1,0.8,0.1,1.6,0.4,2.4l0.1,0.1c0.1,0.1,0.1,0.2,0.1,0.3c0,0.2-0.1,0.2-0.2,0.3
	C24.3,29.6,24.2,29.6,24.1,29.7L24.1,29.7z"/>
<path class="st3" d="M27.4,25.1L27.4,25.1L27.4,25.1c0-0.3,0.1-0.5,0-0.8c0-0.3,0.1-0.5,0.2-0.7c0.1-0.3,0.2-0.5,0.2-0.8v-0.2l0,0
	l0,0v0.2c0,0.3-0.1,0.6-0.2,0.9c-0.1,0.2-0.2,0.5-0.2,0.7C27.5,24.5,27.5,24.8,27.4,25.1L27.4,25.1z"/>
<path class="st3" d="M25,23.3L25,23.3c-1.6-0.1-2.6-0.5-3.2-1.3s-1.8-1-2.9-0.9c-1.1,0.1-2.2,0.1-3.2,0l0,0l0,0
	c1.1,0.1,2.2,0.1,3.2,0c1.2-0.1,2.3-0.1,3,0.9S23.4,23.2,25,23.3L25,23.3L25,23.3z"/>
<path class="st3" d="M18.4,21.7c-0.5,0-1.1-0.1-1.2-0.3c-0.1-0.1-0.1-0.2,0-0.2l0,0l0,0c0,0.1,0,0.1,0,0.2c0.1,0.2,0.6,0.4,2.2,0.2
	l0,0l0,0C19,21.7,18.7,21.7,18.4,21.7z"/>
<path class="st3" d="M18.8,22.2c-0.4,0-0.9-0.1-1.3-0.3c-0.1-0.1-0.2-0.2-0.2-0.3l0,0l0,0c0,0.1,0.1,0.2,0.2,0.3
	c0.7,0.3,1.5,0.4,2.3,0.2l0,0l0,0C19.5,22.1,19.2,22.2,18.8,22.2z"/>
<path class="st3" d="M19.2,22.6c-0.3,0-0.6,0-0.8,0s-0.6-0.2-0.6-0.4s0-0.1,0.2-0.1l0,0l0,0l0,0c-0.1,0-0.2,0-0.2,0.1
	s0.2,0.3,0.5,0.4c0.6,0.1,1.2,0.1,1.8,0l0,0l0,0C19.9,22.6,19.5,22.6,19.2,22.6z"/>
<path class="st3" d="M19.4,23.2h-0.2c-0.5,0-0.8-0.2-0.9-0.4c0-0.1,0-0.2,0.1-0.3l0,0l0,0c-0.1,0-0.1,0.1-0.1,0.2
	c0,0.1,0.2,0.3,0.9,0.3c0.5,0,1.1,0,1.6-0.1l0,0l0,0C20.3,23.1,19.8,23.2,19.4,23.2z"/>
<path class="st3" d="M19.7,23.7c-0.3,0-0.6-0.1-0.6-0.3c0-0.1,0-0.2,0.1-0.2l0,0l0,0c-0.1,0-0.1,0.1-0.1,0.2
	C19.3,23.5,19.5,23.6,19.7,23.7c0.4,0,0.9-0.1,1.3-0.3l0,0l0,0C20.7,23.5,20.2,23.6,19.7,23.7z"/>
<path class="st3" d="M20.1,24.1c-0.2,0-0.3-0.1-0.5-0.2c-0.1-0.1-0.1-0.2,0-0.3l0,0l0,0c-0.1,0.1-0.1,0.2,0,0.2
	c0.1,0.1,0.4,0.2,0.7,0.1c0.4-0.1,0.7-0.2,1-0.4l0,0l0,0c-0.3,0.2-0.6,0.3-1,0.4C20.3,24,20.2,24.1,20.1,24.1z"/>
<path class="st3" d="M20.6,24.4c-0.1,0-0.2,0-0.2-0.1c-0.1-0.1,0-0.2,0.1-0.3l0,0l0,0c-0.1,0-0.1,0.2-0.1,0.3c0.1,0.1,0.2,0.1,0.5,0
	c0.2-0.1,0.5-0.3,0.7-0.5l0,0l0,0c-0.2,0.2-0.4,0.3-0.7,0.5C20.8,24.3,20.7,24.4,20.6,24.4z"/>
<path class="st3" d="M21.1,24.6c-0.1,0-0.1,0-0.2,0c-0.1-0.1-0.1-0.2-0.1-0.2l0,0l0,0c0,0.1,0,0.2,0,0.2c0.1,0.1,0.2,0.1,0.4,0
	c0.2-0.1,0.5-0.3,0.6-0.5l0,0l0,0c-0.2,0.2-0.4,0.4-0.6,0.6C21.3,24.6,21.2,24.6,21.1,24.6z"/>
<path class="st3" d="M21.6,24.8L21.6,24.8c-0.2,0-0.2-0.1-0.2-0.2l0,0l0,0c0,0.1,0,0.1,0.1,0.2c0.1,0,0.3,0,0.8-0.5l0,0l0,0
	C21.9,24.7,21.7,24.8,21.6,24.8z"/>
<path class="st3" d="M21.9,24.9L21.9,24.9c-0.2,0-0.2-0.1-0.2-0.2l0,0l0,0c0,0.1,0,0.1,0.1,0.1c0.1,0.1,0.4-0.1,0.7-0.5l0,0l0,0
	C22.3,24.7,22.1,24.9,21.9,24.9z"/>
<path class="st3" d="M22.4,24.9L22.4,24.9c-0.1,0-0.2-0.1-0.2-0.1l0,0l0,0C22.2,24.9,22.2,24.9,22.4,24.9c0.1,0,0.3-0.1,0.6-0.5l0,0
	l0,0C22.7,24.8,22.5,24.9,22.4,24.9z"/>
<path class="st3" d="M22.7,25.1h-0.1c-0.1,0-0.1-0.1-0.1-0.2l0,0l0,0c0,0,0,0.1,0.1,0.1c0.1,0,0.4,0,0.6-0.3l0,0l0,0
	C23,24.9,22.9,25,22.7,25.1z"/>
<path class="st3" d="M23,25.1L23,25.1c0,0-0.1-0.1-0.1-0.1l0,0l0,0C22.9,25,23,25,23,25.1c0.3-0.1,0.5-0.2,0.6-0.4l0,0l0,0
	C23.5,24.9,23.3,25,23,25.1z"/>
<path class="st3" d="M23.5,25.1c-0.1,0-0.2,0-0.2-0.1l0,0l0,0C23.4,25.1,23.4,25.1,23.5,25.1c0.2,0,0.3-0.1,0.4-0.3l0,0l0,0
	C23.9,25,23.7,25.1,23.5,25.1L23.5,25.1z"/>
<path class="st3" d="M24,25.1c0,0-0.1,0-0.1,0c-0.1-0.1,0-0.2,0-0.3s0,0,0,0l0,0c-0.1,0.1-0.1,0.2,0,0.2s0.2,0,0.4-0.1l0,0l0,0
	C24.2,25,24.1,25.1,24,25.1z"/>
<path class="st3" d="M24.2,25.2L24.2,25.2L24.2,25.2c0.2-0.2,0.3-0.5,0.4-0.8c0-0.2,0.1-0.4,0.3-0.4l0,0l0,0c-0.2,0-0.2,0.2-0.2,0.4
	C24.6,24.8,24.5,25,24.2,25.2L24.2,25.2z"/>
<path class="st3" d="M16.2,21.7c-1.3,0-2.6-0.1-3.9-0.5l0,0l0,0c1.6,0.4,3.3,0.5,5,0.4l0,0l0,0C17,21.7,16.6,21.7,16.2,21.7z"/>
<path class="st3" d="M17.1,22.3c-1.4,0-2.8-0.1-4.3-0.3l0,0l0,0c1.6,0.3,3.3,0.4,5,0.3l0,0l0,0L17.1,22.3z"/>
<path class="st3" d="M17.1,23.1c-1.1,0-2.3-0.1-3.4-0.4l0,0l0,0c1.5,0.3,3.1,0.4,4.7,0.3l0,0l0,0C18,23.1,17.5,23.1,17.1,23.1z"/>
<path class="st3" d="M17.1,23.9c-0.7,0-1.4-0.1-2.1-0.2l0,0l0,0c1.5,0.3,3,0.2,4.4-0.1l0,0l0,0C18.7,23.8,17.9,23.9,17.1,23.9z"/>
<path class="st3" d="M17.9,24.6L17.9,24.6L17.9,24.6c0.7-0.1,1.3-0.3,1.9-0.6l0,0l0,0C19.2,24.3,18.6,24.5,17.9,24.6L17.9,24.6z"/>
<path class="st3" d="M18.5,25.1L18.5,25.1L18.5,25.1c0.7-0.1,1.3-0.3,1.9-0.7l0,0l0,0C19.8,24.7,19.2,25,18.5,25.1L18.5,25.1z"/>
<path class="st3" d="M19.1,25.4L19.1,25.4L19.1,25.4c0.7-0.1,1.3-0.4,1.9-0.8l0,0l0,0C20.4,25,19.8,25.2,19.1,25.4L19.1,25.4z"/>
<path class="st3" d="M20.3,25.6L20.3,25.6L20.3,25.6c0.5-0.2,0.9-0.5,1.3-0.8l0,0l0,0C21.2,25.1,20.8,25.4,20.3,25.6L20.3,25.6z"/>
<path class="st3" d="M21.2,25.8L21.2,25.8L21.2,25.8c0.3-0.3,0.6-0.6,0.9-0.9l0.1-0.1l0,0l0,0L22.1,25
	C21.8,25.3,21.5,25.6,21.2,25.8L21.2,25.8z"/>
<path class="st3" d="M21.8,25.9L21.8,25.9L21.8,25.9c0.3-0.2,0.5-0.5,0.7-0.8V25l0,0l0,0v0.1C22.3,25.4,22.1,25.7,21.8,25.9
	L21.8,25.9z"/>
<path class="st3" d="M22.3,25.8L22.3,25.8L22.3,25.8c0.3-0.2,0.5-0.5,0.7-0.8l0,0l0,0C22.8,25.3,22.6,25.6,22.3,25.8L22.3,25.8z"/>
<path class="st3" d="M22.8,25.9L22.8,25.9L22.8,25.9c0.3-0.2,0.5-0.5,0.6-0.8l0,0l0,0C23.2,25.4,23,25.6,22.8,25.9L22.8,25.9z"/>
<path class="st3" d="M23.3,25.8L23.3,25.8L23.3,25.8c0.2-0.2,0.4-0.5,0.5-0.8l0,0l0,0C23.8,25.3,23.6,25.6,23.3,25.8L23.3,25.8z"/>
<path class="st3" d="M23.2,29.7L23.2,29.7L23.2,29.7c0.3-0.6,0.6-1.1,0.9-1.7l0,0l0,0C23.8,28.6,23.5,29.1,23.2,29.7L23.2,29.7z"/>
<path class="st3" d="M24,29.6L24,29.6L24,29.6c0.1-0.2,0.2-0.3,0.3-0.5c0-0.1,0.1-0.2,0.1-0.3l0,0l0,0l-0.1,0.3
	C24.2,29.2,24.1,29.4,24,29.6L24,29.6z"/>
<path class="st3" d="M25.4,29.6L25.4,29.6c0-0.1,0-0.2,0-0.4c0-0.4,0-1,0-1.4l0,0l0,0c0,0.3,0,1,0,1.4
	C25.4,29.3,25.4,29.5,25.4,29.6L25.4,29.6L25.4,29.6z"/>
<path class="st3" d="M26.1,29.7L26.1,29.7L26.1,29.7c0-0.2-0.1-0.4-0.1-0.6c0-0.3-0.1-0.7-0.1-1l0,0l0,0l0,0c0,0.3,0,0.7,0.1,1
	C26,29.2,26.1,29.5,26.1,29.7L26.1,29.7z"/>
<path class="st3" d="M27.2,29.6L27.2,29.6c0-0.1-0.2-0.7-0.2-1l0,0l0,0C27,28.8,27.2,29.5,27.2,29.6L27.2,29.6z"/>
<path class="st3" d="M27.9,23.1L27.9,23.1L27.9,23.1c0.6,0,1-0.4,1.5-0.9c0.6-0.8,1.6-1.3,2.6-1.4h0.1c0.9,0,1.6,0,2.3,0.1
	c0.9,0.1,1.8,0.1,2.6,0l0,0l0,0c-0.9,0.1-1.8,0.1-2.7,0c-0.7,0-1.4-0.1-2.3-0.1H32c-1,0-2,0.5-2.6,1.3
	C29.1,22.6,28.5,22.9,27.9,23.1L27.9,23.1z"/>
<path class="st3" d="M33.3,21.4h-0.7l0,0l0,0c0.7,0.1,1.4,0.1,2-0.2c0.1-0.1,0.1-0.1,0.1-0.2l0,0l0,0c0,0.1,0,0.2-0.1,0.2
	C34.2,21.4,33.7,21.5,33.3,21.4z"/>
<path class="st3" d="M33.3,21.9c-0.3,0-0.7,0-1-0.1l0,0l0,0c0.7,0.1,1.4,0.2,1.7-0.1c0.1-0.1,0.1-0.2,0.1-0.4l0,0l0,0
	c0,0.1,0,0.3-0.2,0.4C33.7,21.8,33.5,21.9,33.3,21.9z"/>
<path class="st3" d="M33,22.4c-0.4,0-0.7-0.1-1.1-0.1l0,0l0,0c0.4,0.1,1.4,0.3,1.7,0c0.1-0.1,0.2-0.2,0.2-0.4l0,0l0,0l0,0
	c0,0.2-0.1,0.3-0.2,0.4C33.4,22.4,33.2,22.4,33,22.4z"/>
<path class="st3" d="M32.7,22.9c-0.4,0-0.9-0.1-1.3-0.2l0,0l0,0c1,0.3,1.6,0.3,1.9,0.1c0.1-0.1,0.2-0.3,0.2-0.4l0,0l0,0
	c0,0.2,0,0.3-0.2,0.4C33,22.9,32.8,23,32.7,22.9z"/>
<path class="st3" d="M32.1,23.5c-0.4,0-0.8-0.1-1.2-0.3l0,0l0,0c0.5,0.3,1.1,0.3,1.7,0.1c0.1-0.1,0.1-0.2,0.1-0.4l0,0l0,0
	c0,0.1,0,0.3-0.1,0.4C32.4,23.4,32.3,23.5,32.1,23.5z"/>
<path class="st3" d="M31.5,23.9c-0.4,0-0.7-0.2-1.1-0.4l0,0l0,0c0.4,0.3,0.9,0.4,1.3,0.3c0.1-0.1,0.2-0.2,0.2-0.3l0,0l0,0
	c0,0.2-0.1,0.3-0.2,0.4C31.7,23.9,31.6,23.9,31.5,23.9z"/>
<path class="st3" d="M31,24.2c-0.4,0-0.7-0.2-1-0.4l0,0l0,0c0.5,0.3,0.9,0.5,1.1,0.4c0.1-0.1,0.2-0.2,0.2-0.3l0,0l0,0
	C31.3,24,31.2,24.1,31,24.2C31.1,24.2,31,24.2,31,24.2z"/>
<path class="st3" d="M30.5,24.4c-0.3,0-0.5-0.2-0.7-0.4l0,0l0,0C30,24.2,30.3,24.3,30.5,24.4c0.1,0,0.2-0.1,0.2-0.2l0,0l0,0
	C30.8,24.3,30.7,24.3,30.5,24.4L30.5,24.4z"/>
<path class="st3" d="M30.2,24.5c-0.3-0.1-0.5-0.3-0.7-0.5l0,0l0,0C29.7,24.3,30,24.5,30.2,24.5c0.1,0,0.1-0.1,0.1-0.2l0,0l0,0
	C30.3,24.4,30.2,24.5,30.2,24.5L30.2,24.5z"/>
<path class="st3" d="M29.9,24.6c-0.3-0.1-0.5-0.3-0.7-0.5l0,0l0,0C29.4,24.5,29.7,24.7,29.9,24.6c0.1,0,0.1-0.1,0.1-0.1l0,0l0,0
	C30,24.6,29.9,24.6,29.9,24.6L29.9,24.6z"/>
<path class="st3" d="M29.5,24.8c-0.2,0-0.4-0.2-0.6-0.5l0,0l0,0C29.1,24.6,29.4,24.8,29.5,24.8c0.1,0,0.1-0.1,0.1-0.2l0,0l0,0
	C29.6,24.7,29.6,24.7,29.5,24.8L29.5,24.8z"/>
<path class="st3" d="M29.1,24.9c-0.2,0-0.4-0.2-0.5-0.6l0,0l0,0C28.7,24.6,29,24.8,29.1,24.9L29.1,24.9c0,0,0.1-0.1,0.1-0.2l0,0l0,0
	C29.3,24.7,29.2,24.9,29.1,24.9L29.1,24.9z"/>
<path class="st3" d="M28.7,24.9L28.7,24.9c-0.2,0-0.4-0.2-0.4-0.7l0,0l0,0C28.4,24.6,28.5,24.8,28.7,24.9c0,0,0.1-0.1,0.1-0.1l0,0
	l0,0C28.9,24.8,28.8,24.9,28.7,24.9z"/>
<path class="st3" d="M28.4,24.9L28.4,24.9c-0.2,0-0.3-0.3-0.4-0.6l0,0l0,0C28.1,24.7,28.2,24.9,28.4,24.9c0,0,0.1-0.1,0.1-0.1l0,0
	l0,0C28.5,24.9,28.5,24.9,28.4,24.9z"/>
<path class="st3" d="M28.1,25L28.1,25c-0.2,0-0.3-0.3-0.3-0.6l0,0l0,0C27.8,24.8,27.9,24.9,28.1,25c0.1,0,0.1,0,0.2-0.1l0,0l0,0
	C28.2,24.9,28.1,25,28.1,25z"/>
<path class="st3" d="M27.6,25c-0.1,0-0.1,0-0.2-0.1l0,0l0,0C27.5,25,27.5,25,27.6,25c0.1,0,0.1-0.1,0.2-0.1l0,0l0,0
	C27.8,24.9,27.7,25,27.6,25L27.6,25z"/>
<path class="st3" d="M34.6,21.5h-0.4l0,0l0,0l0,0c1.1,0,4.3-0.1,5-0.6l0,0l0,0c-0.8,0.3-1.6,0.5-2.4,0.5
	C36,21.5,35.2,21.5,34.6,21.5z"/>
<path class="st3" d="M34.6,22.2h-1l0,0l0,0c1.7,0.1,3.4,0,5-0.5l0,0l0,0C37.3,22.1,36,22.3,34.6,22.2z"/>
<path class="st3" d="M34.5,22.8c-0.5,0-0.9,0-1.2,0l0,0l0,0l0,0c1.6,0.1,3.1,0,4.7-0.3l0,0l0,0C36.8,22.8,35.6,22.9,34.5,22.8z"/>
<path class="st3" d="M35,23.4c-0.8,0-1.8,0-2.4-0.1l0,0l0,0c1.3,0.1,2.6,0.1,3.9,0l0,0l0,0C36,23.4,35.5,23.4,35,23.4z"/>
<path class="st3" d="M34.4,24.1L34.4,24.1c-0.8,0-1.7-0.2-2.5-0.4l0,0l0,0C32.7,24,33.5,24.1,34.4,24.1L34.4,24.1L34.4,24.1z"/>
<path class="st3" d="M33.5,24.6c-0.8-0.1-1.5-0.2-2.2-0.5l0,0l0,0c0.7,0.3,1.5,0.5,2.3,0.5l0,0l0,0L33.5,24.6z"/>
<path class="st3" d="M32.9,25.1c-0.8,0-1.5-0.3-2.2-0.8l0,0l0,0c0.7,0.5,1.5,0.7,2.3,0.7l0,0l0,0L32.9,25.1z"/>
<path class="st3" d="M31.9,25.4L31.9,25.4c-0.6-0.1-1.2-0.4-1.7-0.9l0,0l0,0C30.6,25,31.2,25.3,31.9,25.4L31.9,25.4
	C31.8,25.4,31.9,25.4,31.9,25.4z"/>
<path class="st3" d="M31,25.6L31,25.6c-0.5-0.2-0.9-0.5-1.2-1l0,0l0,0C30.1,25.1,30.5,25.4,31,25.6L31,25.6L31,25.6z"/>
<path class="st3" d="M30.4,25.7L30.4,25.7c-0.4-0.3-0.7-0.6-1-1l0,0l0,0C29.6,25.1,29.9,25.4,30.4,25.7L30.4,25.7L30.4,25.7z"/>
<path class="st3" d="M29.8,25.7L29.8,25.7c-0.3-0.2-0.6-0.5-0.7-0.9l0,0l0,0C29.2,25.2,29.5,25.5,29.8,25.7L29.8,25.7L29.8,25.7z"/>
<path class="st3" d="M29.2,25.7L29.2,25.7c-0.2-0.2-0.4-0.5-0.5-0.8l0,0l0,0C28.9,25.2,29,25.4,29.2,25.7L29.2,25.7L29.2,25.7z"/>
<path class="st3" d="M28.7,25.7L28.7,25.7c-0.2-0.2-0.3-0.5-0.4-0.8l0,0l0,0C28.4,25.2,28.5,25.4,28.7,25.7L28.7,25.7L28.7,25.7z"/>
<path class="st3" d="M28.2,25.6L28.2,25.6c-0.2-0.2-0.3-0.5-0.4-0.8l0,0l0,0C27.9,25.1,28,25.4,28.2,25.6L28.2,25.6L28.2,25.6z"/>
<path class="st3" d="M28.2,21.6L28.2,21.6L28.2,21.6c0.1,0,0.2,0,0.2,0h0.1l0,0l0,0h-0.1H28.2L28.2,21.6z"/>
<path class="st3" d="M28.4,21.3L28.4,21.3L28.4,21.3C28.4,21.3,28.4,21.3,28.4,21.3c0-0.1,0-0.1,0-0.1s0,0,0,0l0,0
	C28.4,21.2,28.4,21.2,28.4,21.3C28.4,21.2,28.4,21.3,28.4,21.3C28.4,21.3,28.4,21.3,28.4,21.3z"/>
<path class="st3" d="M28.2,21.2L28.2,21.2c-0.1,0-0.2,0-0.3,0c-0.1,0-0.2,0-0.2,0c-0.1,0-0.2,0-0.3,0l0,0l0,0c0.1,0,0.2,0,0.3,0
	c0.1,0,0.2,0,0.2,0C28,21.1,28.2,21.1,28.2,21.2L28.2,21.2L28.2,21.2z"/>
<path class="st3" d="M27.8,21.3L27.8,21.3c-0.1,0-0.1,0-0.1-0.1c0,0,0-0.1,0-0.1l0,0l0,0c0,0,0,0.1,0,0.1
	C27.7,21.2,27.7,21.2,27.8,21.3c0,0,0.1,0,0.1,0c0,0,0-0.1,0-0.1l0,0l0,0C27.9,21.2,27.9,21.2,27.8,21.3
	C27.9,21.3,27.8,21.3,27.8,21.3z"/>
<path class="st0" d="M10.2,6.3v2.9l0,0c0,0.1,0,0.2,0,0.2c0,0.4-0.2,0.8-0.5,1.1c-0.7,0.7-1.9,0.7-2.6,0c-0.4-0.4-0.6-0.8-0.5-1.3
	V6.3H10.2z"/>
<path class="st4" d="M5.2,9.2L5.2,9.2c0,0.8,0.3,1.6,0.9,2.2c1.2,1.2,3.2,1.2,4.4,0c0,0,0,0,0,0c0.6-0.6,0.9-1.4,0.9-2.2l0,0V5.1
	H5.2V9.2z M10.2,6.3v2.9l0,0c0,0.1,0,0.2,0,0.2c0,0.4-0.2,0.8-0.5,1.1c-0.7,0.7-1.9,0.7-2.6,0c-0.4-0.4-0.6-0.8-0.5-1.3V6.3
	L10.2,6.3z"/>
<path class="st5" d="M8.3,12.3c-0.8,0-1.6-0.3-2.2-0.9c-0.6-0.6-0.9-1.4-0.9-2.2l0,0V5.1h6.2v4.2C11.4,10.9,10,12.3,8.3,12.3z
	 M5.2,9.2L5.2,9.2c0,0.8,0.3,1.6,0.9,2.1c0.6,0.6,1.3,0.9,2.2,0.9c1.7,0,3-1.3,3.1-3l0,0V5.1H5.2L5.2,9.2z M8.3,11.1
	c-0.5,0-1-0.2-1.3-0.6c-0.4-0.3-0.5-0.8-0.6-1.3V6.3h3.7v3c0,0.1,0,0.2,0,0.2c0,0.4-0.2,0.8-0.5,1.1C9.3,10.9,8.8,11.1,8.3,11.1z
	 M6.5,6.3v2.9c0,0.5,0.2,0.9,0.5,1.3c0.3,0.3,0.8,0.5,1.3,0.5c0.5,0,0.9-0.2,1.3-0.5c0.3-0.3,0.5-0.7,0.5-1.1c0-0.1,0-0.2,0-0.2V6.3
	L6.5,6.3z"/>
<path class="st6" d="M8.7,8.8V8.2H7.9v0.6l0,0c0,0.1,0,0.2,0.1,0.3c0.1,0.2,0.4,0.2,0.6,0c0,0,0,0,0,0C8.7,9,8.7,8.9,8.7,8.8
	L8.7,8.8z M8.1,8.3C8.2,8.3,8.2,8.4,8.1,8.3c0.1,0.1,0,0.2,0,0.2S8,8.5,8,8.4C8,8.4,8,8.3,8.1,8.3C8.1,8.3,8.1,8.3,8.1,8.3z
	 M8.1,8.9c0,0-0.1,0-0.1,0c0,0,0,0,0-0.1c0,0,0-0.1,0.1-0.1C8.1,8.8,8.2,8.8,8.1,8.9C8.2,8.9,8.1,8.9,8.1,8.9z M8.3,8.7
	C8.3,8.7,8.3,8.7,8.3,8.7c-0.1-0.1,0-0.2,0-0.2C8.4,8.5,8.4,8.6,8.3,8.7C8.4,8.6,8.4,8.6,8.3,8.7C8.4,8.7,8.4,8.7,8.3,8.7z M8.6,8.9
	C8.5,8.9,8.5,8.9,8.6,8.9c-0.1-0.1,0-0.2,0-0.2C8.6,8.8,8.6,8.8,8.6,8.9C8.6,8.9,8.6,8.9,8.6,8.9z M8.6,8.5C8.5,8.5,8.5,8.4,8.6,8.5
	c-0.1-0.1,0-0.2,0-0.2C8.6,8.3,8.6,8.4,8.6,8.5C8.6,8.4,8.6,8.5,8.6,8.5z"/>
<path class="st6" d="M8.7,10.2V9.6H7.9v0.6l0,0c0,0.1,0,0.2,0.1,0.3c0.1,0.2,0.4,0.2,0.6,0c0,0,0,0,0,0C8.7,10.4,8.7,10.3,8.7,10.2
	L8.7,10.2z M8.1,9.7C8.2,9.7,8.2,9.8,8.1,9.7c0.1,0.1,0,0.2,0,0.2C8,9.9,8,9.9,8,9.8C8,9.8,8,9.7,8.1,9.7C8.1,9.7,8.1,9.7,8.1,9.7z
	 M8.1,10.3c0,0-0.1,0-0.1,0c0,0,0,0,0-0.1c0,0,0-0.1,0.1-0.1C8.1,10.2,8.2,10.2,8.1,10.3C8.2,10.3,8.1,10.3,8.1,10.3z M8.3,10.1
	C8.3,10.1,8.2,10.1,8.3,10.1C8.2,10,8.2,10,8.3,10.1c-0.1-0.1,0-0.2,0-0.2C8.4,9.9,8.4,10,8.3,10.1C8.4,10,8.4,10.1,8.3,10.1
	C8.3,10.1,8.3,10.1,8.3,10.1z M8.6,10.3C8.5,10.3,8.5,10.3,8.6,10.3c-0.1-0.1,0-0.2,0-0.2S8.6,10.2,8.6,10.3L8.6,10.3
	C8.6,10.3,8.6,10.3,8.6,10.3z M8.6,9.9C8.5,9.9,8.5,9.8,8.6,9.9c-0.1-0.1,0-0.2,0-0.2C8.6,9.7,8.6,9.8,8.6,9.9
	C8.6,9.8,8.6,9.9,8.6,9.9z"/>
<path class="st6" d="M7.6,8.8V8.2H6.8v0.6l0,0c0,0.1,0,0.2,0.1,0.3C7,9.2,7.1,9.2,7.2,9.2c0.1,0,0.2,0,0.3-0.1
	C7.6,9,7.6,8.9,7.6,8.8z M7,8.3C7,8.3,7.1,8.4,7,8.3c0.1,0.1,0.1,0.2,0,0.2c0,0,0,0,0,0C7,8.5,6.9,8.4,7,8.3C6.9,8.4,7,8.3,7,8.3z
	 M7,8.9C7,8.9,6.9,8.9,7,8.9C6.9,8.8,7,8.8,7,8.8C7,8.8,7.1,8.8,7,8.9C7.1,8.9,7.1,8.9,7,8.9C7,8.9,7,8.9,7,8.9z M7.2,8.7
	C7.2,8.7,7.1,8.7,7.2,8.7c-0.1-0.1-0.1-0.2,0-0.2c0,0,0,0,0,0C7.3,8.5,7.3,8.6,7.2,8.7C7.3,8.7,7.3,8.7,7.2,8.7L7.2,8.7z M7.4,8.9
	C7.4,8.9,7.4,8.9,7.4,8.9c-0.1-0.1,0-0.2,0-0.2C7.5,8.8,7.5,8.8,7.4,8.9C7.5,8.9,7.5,8.9,7.4,8.9C7.5,8.9,7.4,8.9,7.4,8.9L7.4,8.9z
	 M7.4,8.5C7.4,8.5,7.4,8.4,7.4,8.5c-0.1-0.1,0-0.2,0-0.2C7.5,8.3,7.5,8.4,7.4,8.5C7.5,8.4,7.5,8.5,7.4,8.5C7.5,8.5,7.4,8.5,7.4,8.5
	L7.4,8.5z"/>
<path class="st6" d="M9.9,8.8V8.2H9.1v0.6l0,0c0,0.1,0,0.2,0.1,0.3c0.1,0.1,0.2,0.1,0.3,0.1c0.1,0,0.2,0,0.3-0.1
	C9.8,9,9.9,8.9,9.9,8.8z M9.2,8.3C9.3,8.3,9.3,8.4,9.2,8.3c0.1,0.1,0.1,0.2,0,0.2c0,0,0,0,0,0C9.2,8.5,9.2,8.4,9.2,8.3
	C9.2,8.4,9.2,8.3,9.2,8.3z M9.2,8.9C9.2,8.9,9.2,8.9,9.2,8.9c-0.1-0.1,0-0.2,0-0.2C9.3,8.8,9.3,8.8,9.2,8.9C9.3,8.9,9.3,8.9,9.2,8.9
	C9.3,8.9,9.2,8.9,9.2,8.9z M9.5,8.7C9.4,8.7,9.4,8.7,9.5,8.7c-0.1-0.1-0.1-0.2,0-0.2c0,0,0,0,0,0C9.5,8.5,9.5,8.6,9.5,8.7
	C9.5,8.7,9.5,8.7,9.5,8.7z M9.7,8.9C9.6,8.9,9.6,8.9,9.7,8.9c-0.1-0.1,0-0.2,0-0.2C9.7,8.8,9.8,8.8,9.7,8.9C9.8,8.9,9.7,8.9,9.7,8.9
	C9.7,8.9,9.7,8.9,9.7,8.9z M9.7,8.5C9.6,8.5,9.6,8.4,9.7,8.5C9.6,8.4,9.6,8.4,9.7,8.5c-0.1-0.1,0-0.2,0-0.2C9.7,8.3,9.8,8.4,9.7,8.5
	C9.8,8.4,9.7,8.5,9.7,8.5C9.7,8.5,9.7,8.5,9.7,8.5z"/>
<path class="st6" d="M8.7,7.4V6.8H7.9v0.6l0,0c0,0.1,0,0.2,0.1,0.3c0.1,0.2,0.4,0.2,0.6,0c0,0,0,0,0,0C8.7,7.6,8.7,7.5,8.7,7.4
	L8.7,7.4z M8.1,6.9C8.2,6.9,8.2,7,8.1,6.9c0.1,0.1,0,0.2,0,0.2C8,7.1,8,7.1,8,7C8,7,8,6.9,8.1,6.9C8.1,6.9,8.1,6.9,8.1,6.9z
	 M8.1,7.5c0,0-0.1,0-0.1-0.1c0,0,0,0,0,0c0,0,0-0.1,0.1-0.1S8.2,7.4,8.1,7.5C8.2,7.4,8.2,7.4,8.1,7.5C8.2,7.5,8.1,7.5,8.1,7.5z
	 M8.3,7.3C8.3,7.3,8.3,7.3,8.3,7.3c-0.1-0.1,0-0.2,0-0.2C8.4,7.1,8.4,7.2,8.3,7.3C8.4,7.2,8.4,7.2,8.3,7.3C8.4,7.3,8.4,7.3,8.3,7.3z
	 M8.6,7.5C8.5,7.5,8.5,7.5,8.6,7.5c-0.1-0.1,0-0.2,0-0.2C8.6,7.4,8.6,7.4,8.6,7.5C8.6,7.5,8.6,7.5,8.6,7.5z M8.6,7.1
	C8.5,7.1,8.5,7,8.6,7.1c-0.1-0.1,0-0.1,0-0.1C8.6,6.9,8.6,7,8.6,7.1C8.6,7,8.6,7.1,8.6,7.1z"/>
<path class="st7" d="M5.6,6.2c0-0.2,0.1-0.3,0.2-0.4C6,5.9,6.1,6,6.1,6.2L5.6,6.2z"/>
<path class="st7" d="M5.4,5.8v0.3h0.2c0-0.1,0.1-0.3,0.2-0.3C6,5.9,6.1,6,6.1,6.1h0.2V5.8H5.4z"/>
<path class="st7" d="M5.4,6.1h0.9c0,0,0,0,0,0.1l0,0l0,0L5.4,6.1L5.4,6.1L5.4,6.1L5.4,6.1z"/>
<path class="st7" d="M5.7,6.1c0-0.1,0-0.2,0.1-0.2C5.9,5.9,6,6,6,6.1H5.7z"/>
<path class="st7" d="M5.4,5.7h0.9l0,0l0,0l0,0H5.4L5.4,5.7L5.4,5.7L5.4,5.7z"/>
<path class="st7" d="M5.4,5.7h0.8l0,0l0,0l0,0H5.4L5.4,5.7L5.4,5.7L5.4,5.7z"/>
<path class="st7" d="M5.7,5.2L5.7,5.2L5.7,5.2L5.7,5.2L5.7,5.2h0.1l0,0l0,0l0,0H6v0.1l0,0H5.7l0,0L5.7,5.2L5.7,5.2z"/>
<polygon class="st7" points="5.9,5.3 6,5.7 5.7,5.7 5.8,5.3 5.9,5.3 "/>
<path class="st7" d="M6,5.3L6,5.3L6,5.3L6,5.3L6,5.3h0.1l0,0l0,0l0,0h0.1v0.1l0,0H6l0,0V5.3z"/>
<polygon class="st7" points="6.2,5.5 6.2,5.7 6,5.7 6,5.5 6.2,5.5 "/>
<path class="st7" d="M5.4,5.3L5.4,5.3L5.4,5.3L5.4,5.3L5.4,5.3h0.1l0,0l0,0l0,0h0.1v0.1l0,0H5.4l0,0L5.4,5.3L5.4,5.3z"/>
<polygon class="st7" points="5.7,5.5 5.7,5.7 5.4,5.7 5.5,5.5 5.7,5.5 "/>
<path class="st8" d="M5.8,5.4L5.8,5.4L5.8,5.4L5.8,5.4C5.8,5.4,5.8,5.4,5.8,5.4z"/>
<path class="st8" d="M6.1,5.5L6.1,5.5L6.1,5.5L6.1,5.5C6.1,5.5,6.1,5.5,6.1,5.5z"/>
<path class="st8" d="M5.5,5.5L5.5,5.5L5.5,5.5L5.5,5.5C5.5,5.5,5.5,5.5,5.5,5.5z"/>
<path class="st8" d="M6.3,6.1V5.8 M6.4,5.8L6.4,5.8L6.4,5.8C6.4,5.8,6.4,5.7,6.4,5.8L6.4,5.8V5.5l0,0V5.3H6.2l0,0l0,0l0,0H6.1l0,0
	l0,0l0,0H6v0.1l0,0v0.2l0,0V5.3l0,0l0,0V5.2H5.9l0,0l0,0l0,0H5.8l0,0l0,0l0,0H5.7v0.1l0,0l0,0v0.3l0,0V5.5l0,0V5.3H5.6l0,0l0,0l0,0
	H5.5l0,0l0,0l0,0H5.4v0.1l0,0v0.2l0,0c0,0,0,0,0,0.1l0,0l0,0 M5.4,5.7V6l0,0c0,0,0,0,0,0.1l0,0h0.9c0,0,0,0,0.1,0c0,0-0.1,0-0.1,0.1
	v0L5.4,5.7z M6.3,6.1H6.1c0-0.1,0-0.2-0.1-0.3H5.9h0.3L6.3,6.1z M5.8,5.9L5.8,5.9L5.8,5.9C5.8,6,5.8,6,5.8,6.1H5.6
	c0-0.1,0.1-0.3,0.2-0.3C6,5.8,6.1,6,6.1,6.1H6C6,6,5.9,5.9,5.8,5.9z M6,6.1H5.7c0-0.1,0-0.2,0.1-0.2C5.9,6,6,6,6,6.1z M6,5.4L6,5.4
	L6,5.4L6,5.4L6,5.4L6,5.4L6,5.4L6,5.4l0.2-0.1l0,0l0,0v0.1H6z M6.2,5.6H6V5.5h0.2L6.2,5.6z M5.7,5.3L5.7,5.3L5.7,5.3L5.7,5.3
	L5.7,5.3L5.7,5.3L5.7,5.3L5.7,5.3L5.7,5.3l0.2-0.1l0,0H6v0.1l0,0H5.7z M6,5.6H5.8V5.3H6L6,5.6z M5.5,5.4L5.5,5.4L5.5,5.4L5.5,5.4
	L5.5,5.4L5.5,5.4L5.5,5.4L5.5,5.4l0.1-0.1l0,0l0,0v0.1H5.5L5.5,5.4z M5.7,5.6H5.5V5.5h0.2L5.7,5.6z M5.4,5.7L5.4,5.7h0.9l0,0l0,0
	H5.4C5.4,5.7,5.4,5.7,5.4,5.7L5.4,5.7z M5.4,5.8L5.4,5.8h0.8l0,0l0,0H5.4C5.4,5.8,5.4,5.8,5.4,5.8L5.4,5.8z M5.4,5.8h0.3l0,0
	C5.7,5.9,5.7,6,5.7,6.1H5.5L5.4,5.8z M6.3,6.2H5.4l0,0l0,0H6.3L6.3,6.2C6.3,6.2,6.3,6.2,6.3,6.2L6.3,6.2z"/>
<path class="st7" d="M8.1,6.2c0-0.2,0.1-0.3,0.2-0.4C8.5,5.9,8.6,6,8.6,6.2L8.1,6.2z"/>
<path class="st7" d="M7.9,5.8v0.3h0.2c0-0.1,0.1-0.3,0.2-0.3C8.5,5.9,8.6,6,8.6,6.1h0.2V5.8H7.9z"/>
<path class="st7" d="M7.9,6.1h0.9 M8.8,6.2L8.8,6.2L8.8,6.2H7.9l0,0l0,0H8.8z"/>
<path class="st7" d="M8.2,6.1c0-0.1,0-0.2,0.1-0.2C8.4,6,8.5,6,8.4,6.1H8.2z"/>
<path class="st7" d="M7.9,5.7h0.9l0,0l0,0l0,0H7.9L7.9,5.7L7.9,5.7L7.9,5.7z"/>
<path class="st7" d="M7.9,5.7h0.8l0,0l0,0l0,0H7.9L7.9,5.7L7.9,5.7L7.9,5.7z"/>
<path class="st7" d="M8.2,5.2L8.2,5.2L8.2,5.2L8.2,5.2L8.2,5.2h0.1l0,0h0.1l0,0h0.1v0.1l0,0H8.2l0,0L8.2,5.2L8.2,5.2z"/>
<polygon class="st7" points="8.4,5.3 8.4,5.7 8.2,5.7 8.2,5.3 8.4,5.3 "/>
<path class="st7" d="M8.5,5.3L8.5,5.3L8.5,5.3h0.1l0,0h0.1l0,0l0,0l0,0h0.1v0.1l0,0H8.5l0,0L8.5,5.3L8.5,5.3z"/>
<polygon class="st7" points="8.7,5.5 8.7,5.7 8.5,5.7 8.5,5.5 8.7,5.5 "/>
<path class="st7" d="M7.9,5.3H8l0,0l0,0l0,0h0.1l0,0l0,0l0,0h0.1v0.1l0,0H7.9l0,0L7.9,5.3L7.9,5.3z"/>
<polygon class="st7" points="8.1,5.5 8.1,5.7 7.9,5.7 7.9,5.5 8.1,5.5 "/>
<path class="st8" d="M8.3,5.4L8.3,5.4L8.3,5.4L8.3,5.4C8.3,5.4,8.3,5.4,8.3,5.4z"/>
<path class="st8" d="M8.6,5.5L8.6,5.5L8.6,5.5L8.6,5.5C8.6,5.5,8.6,5.5,8.6,5.5z"/>
<path class="st8" d="M8,5.5L8,5.5L8,5.5L8,5.5C8.1,5.5,8,5.5,8,5.5z"/>
<path class="st8" d="M8.8,6.1V5.8 M8.8,5.8L8.8,5.8L8.8,5.8L8.8,5.8L8.8,5.8V5.5l0,0V5.3H8.7l0,0l0,0l0,0H8.6l0,0l0,0l0,0H8.4v0.1
	l0,0v0.2l0,0V5.3l0,0l0,0V5.2H8.3l0,0l0,0l0,0H8.3l0,0l0,0l0,0H8.2v0.1 M8.2,5.3L8.2,5.3v0.3l0,0V5.5l0,0V5.3L8.1,5.3l0,0l0,0l0,0H8
	l0,0l0,0l0,0H7.9v0.1l0,0v0.2l0,0c0,0,0,0,0,0.1l0,0l0,0 M7.9,5.7V6l0,0c0,0,0,0,0,0.1l0,0h0.9 M8.8,6.1C8.8,6.1,8.8,6.1,8.8,6.1
	L8.8,6.1z M8.8,6.1H8.6c0-0.1,0-0.2-0.1-0.3H8.4h0.3L8.8,6.1z M8.3,5.9L8.3,5.9L8.3,5.9C8.2,6,8.2,6,8.2,6.1H8.1
	c0-0.1,0.1-0.3,0.2-0.3c0.1,0,0.2,0.2,0.2,0.3H8.5C8.5,6,8.4,5.9,8.3,5.9z M8.4,6.1H8.2c0-0.1,0-0.2,0.1-0.2C8.4,6,8.4,6,8.4,6.1z
	 M8.4,5.4L8.4,5.4L8.4,5.4L8.4,5.4L8.4,5.4L8.4,5.4L8.4,5.4L8.4,5.4l0.1-0.1l0,0l0,0v0.1H8.4L8.4,5.4z M8.7,5.6H8.5V5.5h0.2L8.7,5.6
	z M8.2,5.3L8.2,5.3L8.2,5.3L8.2,5.3L8.2,5.3l0.1-0.1l0,0l0,0l0,0h0.1l0,0l0,0v0.1l0,0H8.2z M8.4,5.6H8.2V5.3h0.2L8.4,5.6z M7.9,5.4
	L7.9,5.4L7.9,5.4L7.9,5.4L8,5.3l0,0l0,0l0,0h0.1l0,0l0,0v0.1H7.9L7.9,5.4z M8.1,5.6H7.9V5.5h0.2L8.1,5.6z M7.8,5.7L7.8,5.7h0.9l0,0
	l0,0H7.8C7.9,5.7,7.9,5.7,7.8,5.7L7.8,5.7z M7.8,5.8L7.8,5.8h0.8l0,0l0,0H7.8C7.9,5.8,7.9,5.8,7.8,5.8L7.8,5.8z M7.8,5.8h0.3l0,0
	C8.1,5.9,8,6,8,6.1H7.9L7.8,5.8z M8.7,6.2H7.9l0,0l0,0h0.9l0,0H8.7z"/>
<path class="st7" d="M10.6,6.2c0-0.2,0.1-0.3,0.2-0.4C10.9,5.9,11,6,11,6.2H10.6z"/>
<path class="st7" d="M10.4,5.8v0.3h0.2c0-0.2,0.1-0.3,0.2-0.3C11,5.9,11,6,11,6.1h0.2V5.8L10.4,5.8z"/>
<path class="st7" d="M10.3,6.2h0.9l0,0l0,0l0,0H10.3L10.3,6.2L10.3,6.2L10.3,6.2z"/>
<path class="st7" d="M10.6,6.1c0-0.1,0-0.2,0.1-0.2c0.1,0,0.1,0.1,0.1,0.2H10.6z"/>
<path class="st7" d="M10.3,5.7h0.9l0,0l0,0l0,0H10.3L10.3,5.7L10.3,5.7L10.3,5.7z"/>
<path class="st7" d="M10.4,5.7h0.8l0,0l0,0l0,0H10.4L10.4,5.7L10.4,5.7L10.4,5.7z"/>
<path class="st7" d="M10.6,5.2L10.6,5.2L10.6,5.2h0.1l0,0h0.1l0,0l0,0l0,0h0.1v0.1l0,0h-0.2l0,0L10.6,5.2L10.6,5.2z"/>
<polygon class="st7" points="10.9,5.3 10.9,5.7 10.7,5.7 10.7,5.3 10.9,5.3 "/>
<path class="st7" d="M10.9,5.3L10.9,5.3L10.9,5.3L10.9,5.3L10.9,5.3h0.2l0,0h0.1l0,0h0.1v0.1l0,0h-0.2l0,0L10.9,5.3L10.9,5.3z"/>
<polygon class="st7" points="11.2,5.5 11.2,5.7 10.9,5.7 10.9,5.5 11.2,5.5 "/>
<path class="st7" d="M10.3,5.3L10.3,5.3L10.3,5.3L10.3,5.3L10.3,5.3h0.1l0,0h0.1l0,0h0.1v0.1l0,0h-0.2l0,0L10.3,5.3L10.3,5.3z"/>
<polygon class="st7" points="10.6,5.5 10.6,5.7 10.4,5.7 10.4,5.5 10.6,5.5 "/>
<path class="st8" d="M10.8,5.4L10.8,5.4L10.8,5.4L10.8,5.4C10.8,5.4,10.8,5.4,10.8,5.4z"/>
<path class="st8" d="M11,5.5L11,5.5L11,5.5L11,5.5C11,5.5,11,5.5,11,5.5z"/>
<path class="st8" d="M10.5,5.5L10.5,5.5L10.5,5.5L10.5,5.5L10.5,5.5z"/>
<path class="st8" d="M11.2,6.1V5.8 M11.2,5.8L11.2,5.8L11.2,5.8L11.2,5.8L11.2,5.8V5.5l0,0V5.3h-0.1l0,0l0,0l0,0H11l0,0l0,0l0,0
	h-0.1v0.1l0,0v0.2l0,0V5.3l0,0l0,0V5.2h-0.1l0,0l0,0l0,0h-0.1l0,0l0,0l0,0h-0.1v0.1 M10.7,5.3L10.7,5.3v0.3l0,0V5.5 M10.7,5.5V5.3
	h-0.1l0,0l0,0l0,0h-0.1l0,0l0,0l0,0h-0.1v0.1l0,0v0.2l0,0l0,0l0,0l0,0 M10.4,5.7V6l0,0c0,0,0,0,0,0.1l0,0h0.9l0,0c0,0-0.1,0-0.1,0
	c0,0,0,0.1,0,0.1l0,0L10.4,5.7z M11.2,6.1H11c0-0.1,0-0.2-0.1-0.3h-0.1h0.3L11.2,6.1z M10.8,5.9L10.8,5.9L10.8,5.9
	C10.7,6,10.7,6,10.7,6.1h-0.1c0-0.1,0.1-0.3,0.2-0.3c0.1,0,0.2,0.2,0.2,0.3H11C11,6,10.9,5.9,10.8,5.9L10.8,5.9z M10.9,6.1h-0.2
	c0-0.1,0-0.2,0.1-0.2C10.9,6,10.9,6.1,10.9,6.1L10.9,6.1z M10.9,5.4L10.9,5.4L10.9,5.4L10.9,5.4L10.9,5.4L10.9,5.4L10.9,5.4
	L10.9,5.4l0.2-0.1l0,0l0,0v0.1l0,0H10.9L10.9,5.4z M11.1,5.6H11V5.5h0.2L11.1,5.6z M10.6,5.3L10.6,5.3L10.6,5.3L10.6,5.3L10.6,5.3
	L10.6,5.3L10.6,5.3L10.6,5.3L10.6,5.3l0.1-0.1l0,0l0,0v0.1l0,0H10.6z M10.9,5.6h-0.2V5.3h0.2L10.9,5.6z M10.3,5.4L10.3,5.4L10.3,5.4
	L10.3,5.4L10.3,5.4L10.3,5.4L10.3,5.4L10.3,5.4l0.1-0.1l0,0l0,0v0.1l0,0H10.3L10.3,5.4z M10.6,5.6h-0.2V5.5h0.2V5.6z M10.3,5.7
	L10.3,5.7h0.9l0,0l0,0H10.3z M10.3,5.8L10.3,5.8h0.8l0,0l0,0H10.3C10.3,5.8,10.3,5.8,10.3,5.8L10.3,5.8z M10.3,5.8h0.3h-0.1
	c-0.1,0.1-0.1,0.2-0.1,0.3h-0.2L10.3,5.8z M11.2,6.2h-0.9l0,0l0,0H11.2L11.2,6.2C11.2,6.2,11.2,6.2,11.2,6.2L11.2,6.2z"/>
<path class="st7" d="M10.6,8.7c0-0.2,0.1-0.3,0.2-0.4C10.9,8.4,11,8.5,11,8.7L10.6,8.7z"/>
<path class="st7" d="M10.4,8.3v0.3h0.2c0-0.1,0.1-0.3,0.2-0.3C11,8.4,11,8.5,11,8.7h0.2V8.3H10.4z"/>
<path class="st7" d="M10.3,8.7h0.9l0,0l0,0l0,0H10.3L10.3,8.7L10.3,8.7L10.3,8.7z"/>
<path class="st7" d="M10.6,8.7c0-0.1,0-0.2,0.1-0.2c0.1,0,0.1,0.1,0.1,0.2H10.6z"/>
<path class="st7" d="M10.3,8.2h0.9l0,0l0,0l0,0H10.3L10.3,8.2L10.3,8.2L10.3,8.2z"/>
<path class="st7" d="M10.4,8.2h0.8l0,0l0,0l0,0H10.4L10.4,8.2L10.4,8.2L10.4,8.2z"/>
<path class="st7" d="M10.6,7.7L10.6,7.7L10.6,7.7h0.1l0,0h0.1l0,0l0,0l0,0h0.1v0.1l0,0h-0.2l0,0L10.6,7.7L10.6,7.7z"/>
<polygon class="st7" points="10.9,7.8 10.9,8.2 10.7,8.2 10.7,7.8 10.9,7.8 "/>
<path class="st7" d="M10.9,7.8L10.9,7.8L10.9,7.8L10.9,7.8L10.9,7.8h0.2l0,0h0.1l0,0h0.1V8l0,0h-0.2l0,0L10.9,7.8L10.9,7.8z"/>
<polygon class="st7" points="11.2,8 11.2,8.2 10.9,8.2 10.9,8 11.2,8 "/>
<path class="st7" d="M10.3,7.8L10.3,7.8L10.3,7.8L10.3,7.8L10.3,7.8h0.1l0,0h0.1l0,0h0.1V8l0,0h-0.2l0,0L10.3,7.8L10.3,7.8z"/>
<polygon class="st7" points="10.6,8 10.6,8.2 10.4,8.2 10.4,8 10.6,8 "/>
<path class="st8" d="M10.8,7.9L10.8,7.9L10.8,7.9L10.8,7.9L10.8,7.9z"/>
<path class="st8" d="M11,8L11,8L11,8L11,8L11,8z"/>
<path class="st8" d="M10.5,8.1L10.5,8.1L10.5,8.1L10.5,8.1C10.5,8.1,10.5,8,10.5,8.1z"/>
<path class="st8" d="M11.2,8.6V8.3 M11.2,8.3L11.2,8.3 M11.2,8.2L11.2,8.2L11.2,8.2V8l0,0V7.8h-0.1l0,0l0,0l0,0H11l0,0l0,0l0,0h-0.1
	V8l0,0v0.2l0,0V7.8l0,0l0,0V7.7h-0.1l0,0l0,0l0,0h-0.1l0,0l0,0l0,0h-0.1v0.1 M10.7,7.8L10.7,7.8v0.3l0,0V8 M10.7,8V7.8h-0.1l0,0l0,0
	l0,0h-0.1l0,0l0,0l0,0h-0.1V8l0,0v0.2l0,0l0,0c0,0,0,0,0,0.1l0,0 M10.4,8.3v0.3l0,0c0,0,0,0,0,0.1 M10.4,8.7h0.9 M11.4,8.6
	c0,0-0.1,0-0.1,0L11.4,8.6z M11.2,8.6H11c0-0.1,0-0.2-0.1-0.3l-0.1-0.1h0.3L11.2,8.6z M10.8,8.4L10.8,8.4L10.8,8.4
	c-0.1,0.1-0.1,0.1-0.1,0.2h-0.1c0-0.1,0.1-0.3,0.2-0.3C11,8.4,11,8.5,11.1,8.6H11C11,8.5,10.9,8.4,10.8,8.4L10.8,8.4z M10.9,8.6
	h-0.2c0-0.1,0-0.2,0.1-0.2C10.9,8.5,10.9,8.6,10.9,8.6L10.9,8.6z M10.9,8L10.9,8L10.9,8L10.9,8L10.9,8L11,7.9l0,0L10.9,8l0.2-0.1
	V7.9l0,0V8h-0.3L10.9,8z M11.1,8.2H11V8h0.2L11.1,8.2z M10.6,7.8L10.6,7.8L10.6,7.8L10.6,7.8L10.6,7.8L10.6,7.8l0.1-0.1l0,0
	L10.6,7.8l0.1-0.1V7.7l0,0v0.1h-0.2L10.6,7.8z M10.9,8.2h-0.2V7.8h0.2L10.9,8.2z M10.4,8V7.9l0,0l0,0h0.1V7.9l0,0v0.1h0.1V7.9l0,0V8
	h-0.3H10.4z M10.6,8.2h-0.2V8h0.2V8.2z M10.3,8.2L10.3,8.2h0.9l0,0l0,0H10.3C10.3,8.2,10.3,8.2,10.3,8.2z M10.3,8.3L10.3,8.3h0.8
	l0,0l0,0H10.3z M10.4,8.3h0.3h-0.1c-0.1,0.1-0.1,0.2-0.1,0.3h-0.2L10.4,8.3z M11.2,8.7h-0.9l0,0l0,0H11.2L11.2,8.7z"/>
<path class="st7" d="M5.6,8.7c0-0.2,0.1-0.3,0.2-0.4C6,8.4,6.1,8.5,6.1,8.7L5.6,8.7z"/>
<path class="st7" d="M5.4,8.3v0.3h0.2c0-0.1,0.1-0.3,0.2-0.3c0.1,0,0.2,0.2,0.2,0.3h0.2V8.3H5.4z"/>
<path class="st7" d="M5.4,8.7h0.9l0,0l0,0l0,0H5.4L5.4,8.7L5.4,8.7L5.4,8.7z"/>
<path class="st7" d="M5.7,8.7c0-0.1,0-0.2,0.1-0.2C5.9,8.5,6,8.5,6,8.7H5.7z"/>
<path class="st7" d="M5.4,8.2h0.9l0,0l0,0l0,0H5.4L5.4,8.2L5.4,8.2L5.4,8.2z"/>
<path class="st7" d="M5.4,8.2h0.8l0,0l0,0l0,0H5.4L5.4,8.2L5.4,8.2L5.4,8.2z"/>
<path class="st7" d="M5.7,7.7L5.7,7.7L5.7,7.7L5.7,7.7L5.7,7.7h0.1l0,0l0,0l0,0H6v0.1l0,0H5.7l0,0L5.7,7.7L5.7,7.7z"/>
<polygon class="st7" points="5.9,7.8 6,8.2 5.7,8.2 5.8,7.8 5.9,7.8 "/>
<path class="st7" d="M6,7.8L6,7.8L6,7.8L6,7.8L6,7.8h0.1l0,0l0,0l0,0h0.1V8l0,0H6l0,0V7.8z"/>
<polygon class="st7" points="6.2,8 6.2,8.2 6,8.2 6,8 6.2,8 "/>
<path class="st7" d="M5.4,7.8L5.4,7.8L5.4,7.8L5.4,7.8L5.4,7.8h0.1l0,0l0,0l0,0h0.1V8l0,0H5.4l0,0L5.4,7.8L5.4,7.8z"/>
<polygon class="st7" points="5.7,8 5.7,8.2 5.4,8.2 5.5,8 5.7,8 "/>
<path class="st8" d="M5.8,7.9L5.8,7.9L5.8,7.9L5.8,7.9C5.8,7.9,5.8,7.9,5.8,7.9z"/>
<path class="st8" d="M6.1,8L6.1,8L6.1,8L6.1,8L6.1,8z"/>
<path class="st8" d="M5.5,8.1L5.5,8.1L5.5,8.1L5.5,8.1C5.5,8.1,5.5,8,5.5,8.1z"/>
<path class="st8" d="M6.3,8.6V8.3 M6.4,8.3L6.4,8.3C6.4,8.3,6.4,8.2,6.4,8.3L6.4,8.3L6.4,8.3V8l0,0V7.8H6.2l0,0l0,0l0,0H6.1l0,0l0,0
	l0,0H6V8l0,0v0.2l0,0V7.8l0,0l0,0V7.7H5.9l0,0l0,0l0,0H5.8l0,0l0,0l0,0H5.7v0.1l0,0l0,0v0.3l0,0V8l0,0V7.8H5.6l0,0l0,0l0,0H5.5l0,0
	l0,0l0,0H5.4V8l0,0v0.2l0,0l0,0c0,0,0,0,0,0.1l0,0 M5.4,8.3v0.3l0,0c0,0,0,0,0,0.1 M5.4,8.7h0.9c0,0,0.1,0,0.1-0.1l0,0
	c0,0,0,0-0.1,0L5.4,8.7z M6.3,8.6H6.1c0-0.1,0-0.2-0.1-0.3L5.9,8.3h0.3L6.3,8.6z M5.9,8.4L5.9,8.4L5.9,8.4C5.8,8.5,5.8,8.5,5.8,8.6
	H5.6c0-0.1,0.1-0.3,0.2-0.3C6,8.4,6.1,8.5,6.1,8.6H6C6,8.5,5.9,8.4,5.9,8.4L5.9,8.4z M6,8.6H5.7c0-0.1,0-0.2,0.1-0.2
	C5.9,8.5,6,8.5,6,8.6z M6,8V7.9l0,0l0,0h0.1V7.9l0,0v0.1h0.1V7.9l0,0V8H6z M6.2,8.2H6V8h0.2L6.2,8.2z M5.7,7.8L5.7,7.8L5.7,7.8
	L5.7,7.8L5.7,7.8L5.7,7.8l0.1-0.2l0,0v0.1h0.1V7.7H6v0.1L5.7,7.8L5.7,7.8z M6,8.2H5.8V7.8H6L6,8.2z M5.4,8V7.9l0,0l0,0h0.1V7.9l0,0
	v0.1h0.1V7.9l0,0V8H5.4z M5.7,8.2H5.5V8h0.2L5.7,8.2z M5.4,8.2L5.4,8.2h0.9l0,0l0,0H5.4C5.4,8.2,5.4,8.2,5.4,8.2z M5.4,8.3L5.4,8.3
	h0.8l0,0l0,0H5.4L5.4,8.3z M5.4,8.3h0.3l0,0C5.6,8.4,5.6,8.5,5.6,8.6H5.4L5.4,8.3z M6.2,8.7H5.4l0,0l0,0H6.2L6.2,8.7L6.2,8.7
	L6.2,8.7z"/>
<path class="st7" d="M6.6,11.3c-0.1-0.1-0.2-0.3-0.1-0.4c0.1-0.1,0.3,0,0.4,0.1L6.6,11.3z"/>
<path class="st7" d="M6.2,11.2l0.2,0.3l0.2-0.2c-0.1-0.1-0.2-0.3-0.1-0.4c0.1-0.1,0.3,0,0.4,0.1l0.2-0.1l-0.3-0.2L6.2,11.2L6.2,11.2
	z"/>
<path class="st7" d="M6.4,11.4l0.7-0.6l0,0l0,0 M7.1,10.9l-0.7,0.6 M6.4,11.5L6.4,11.5z"/>
<path class="st7" d="M6.7,11.2c-0.1-0.1-0.1-0.1-0.1-0.2c0.1,0,0.2,0,0.2,0.1L6.7,11.2L6.7,11.2z"/>
<path class="st7" d="M6.1,11.1l0.6-0.6l0,0l0,0l0,0L6.1,11.1L6.1,11.1L6.1,11.1L6.1,11.1z"/>
<path class="st7" d="M6.2,11.1l0.6-0.6l0,0l0,0 M6.8,10.6l-0.6,0.6l0,0l0,0c0,0,0,0,0-0.1L6.8,10.6z"/>
<path class="st7" d="M5.9,10.5L5.9,10.5L5.9,10.5L5.9,10.5L5.9,10.5L5.9,10.5L5.9,10.5L5.9,10.5L5.9,10.5L5.9,10.5l0.1,0.1l0,0
	l-0.2,0.2H6l-0.1-0.1L5.9,10.5z"/>
<polygon class="st7" points="6.2,10.5 6.5,10.7 6.3,10.9 6.1,10.6 6.2,10.5 "/>
<path class="st7" d="M6.3,10.4L6.3,10.4L6.3,10.4L6.3,10.4L6.3,10.4L6.3,10.4L6.3,10.4L6.3,10.4L6.3,10.4h0.1l0.1,0.1l0,0l-0.2,0.2
	l0,0l-0.1-0.1L6.3,10.4z"/>
<polygon class="st7" points="6.5,10.4 6.7,10.5 6.5,10.6 6.4,10.5 6.5,10.4 "/>
<path class="st7" d="M5.9,10.8L5.9,10.8L5.9,10.8L5.9,10.8L5.9,10.8L5.9,10.8L5.9,10.8L5.9,10.8L5.9,10.8L5.9,10.8L6,10.9l0,0l0,0
	l0,0L5.9,10.8L5.9,10.8z"/>
<polygon class="st7" points="6.1,10.8 6.3,10.9 6.1,11.1 6,10.9 6.1,10.8 "/>
<path class="st8" d="M6.2,10.6L6.2,10.6L6.2,10.6L6.2,10.6C6.2,10.6,6.2,10.6,6.2,10.6z"/>
<path class="st8" d="M6.5,10.5L6.5,10.5L6.5,10.5L6.5,10.5C6.5,10.5,6.5,10.5,6.5,10.5z"/>
<path class="st8" d="M6.1,10.9L6.1,10.9L6.1,10.9L6.1,10.9C6.1,10.9,6.1,10.9,6.1,10.9z"/>
<path class="st8" d="M7.1,10.8l-0.2-0.2c0,0,0,0,0-0.1l0,0c0,0,0,0,0-0.1 M6.8,10.5L6.8,10.5l-0.1-0.1c0,0,0,0,0-0.1l-0.1-0.1
	l-0.1,0.1l0,0l0,0l0,0l-0.1,0.1l0,0l0,0l0,0l-0.1,0.1l0.1,0.1l0,0l0.1,0.1l0,0l-0.2-0.2l0,0c0,0,0,0,0-0.1l-0.1-0.1l-0.1,0.1l0,0
	l0,0l0,0L6,10.4l0,0l0,0l0,0l-0.1,0.1L6,10.6h0.1l0.2,0.2l0,0l-0.1-0.1c0,0,0,0,0-0.1l-0.1-0.1L6,10.7l0,0l0,0l0,0l-0.1,0.1l0,0l0,0
	l0,0l-0.1,0.1l0.1,0.1c0,0,0,0,0.1,0L6.1,11l0,0 M6.1,11.1C6.1,11.1,6.2,11.1,6.1,11.1L6.1,11.1 M6.2,11.1l0.2,0.2l0,0 M6.5,11.4
	l0.7-0.6c0,0,0,0,0-0.1L6.5,11.4z M7.1,10.8l-0.1,0.1c-0.1-0.1-0.2-0.1-0.3-0.1H6.6l0.2-0.2L7.1,10.8z M6.6,10.9L6.6,10.9
	C6.6,10.9,6.6,10.9,6.6,10.9c0,0.1,0,0.2,0.1,0.3v0.1C6.6,11.1,6.5,11,6.6,10.9c0.1-0.1,0.3-0.1,0.4,0l0,0
	C6.9,10.8,6.7,10.8,6.6,10.9C6.6,10.9,6.6,10.9,6.6,10.9L6.6,10.9z M6.8,11l-0.2,0.2c-0.1,0-0.1-0.1-0.1-0.2C6.7,11,6.7,11,6.8,11
	L6.8,11z M6.4,10.5L6.4,10.5L6.4,10.5L6.4,10.5L6.4,10.5L6.4,10.5L6.4,10.5L6.4,10.5L6.4,10.5L6.4,10.5L6.4,10.5l0.1,0l0,0l-0.2,0.2
	L6.4,10.5z M6.7,10.5l-0.1,0.1l-0.1-0.1l0.1-0.1L6.7,10.5z M6.1,10.6L6.1,10.6L6.1,10.6L6.1,10.6L6.1,10.6l0-0.1l0,0l0,0l0,0l0,0
	l0,0l0,0L6.1,10.6L6.1,10.6L6.1,10.6z M6.5,10.7l-0.1,0.1l-0.2-0.2l0.1-0.1L6.5,10.7z M6,10.9L6,10.9L6,10.9L6,10.9L6,10.9L6,10.9
	L6,10.9L6,10.9L6,10.9L6,10.9L6,10.9l0.1,0l0,0L6,10.9z M6.3,10.9L6.1,11L6,10.9l0.1-0.1L6.3,10.9z M6.2,11.1L6.2,11.1l0.6-0.6l0,0
	l0,0L6.2,11.1C6.1,11.1,6.1,11.1,6.2,11.1L6.2,11.1z M6.2,11.1L6.2,11.1l0.6-0.6l0,0l0,0l0,0L6.2,11.1L6.2,11.1L6.2,11.1z M6.3,11.1
	l0.2-0.2c0,0,0,0,0,0.1c0,0.1,0,0.2,0.1,0.3l-0.1,0.1L6.3,11.1z M7.2,10.8l-0.7,0.6l0,0l0,0L7.2,10.8L7.2,10.8z"/>
<path class="st7" d="M9.7,11c0.1-0.1,0.3-0.2,0.4-0.1c0.1,0.1,0,0.3-0.1,0.4L9.7,11z"/>
<path class="st7" d="M9.9,10.6l-0.3,0.2L9.7,11c0.2-0.2,0.4-0.1,0.4-0.1c0.1,0.1,0,0.3-0.1,0.4l0.2,0.2l0.2-0.3
	C10.4,11.2,9.9,10.6,9.9,10.6z"/>
<path class="st7" d="M9.6,10.8l0.6,0.6c0,0,0,0,0,0.1l0,0 M10.1,11.5l-0.6-0.6 M9.5,10.8L9.5,10.8C9.5,10.8,9.5,10.8,9.5,10.8
	L9.5,10.8z"/>
<path class="st7" d="M9.8,11c0.1-0.1,0.2-0.1,0.2-0.1c0,0.1,0,0.2-0.1,0.2L9.8,11z"/>
<path class="st7" d="M9.9,10.5l0.6,0.6c0,0,0,0,0,0.1l0,0l0,0L9.9,10.5L9.9,10.5L9.9,10.5C9.9,10.5,9.9,10.5,9.9,10.5L9.9,10.5z"/>
<path class="st7" d="M9.9,10.5l0.6,0.6c0,0,0,0,0,0.1l0,0 M10.4,11.2l-0.6-0.6 M9.8,10.5L9.8,10.5C9.8,10.5,9.8,10.5,9.8,10.5
	L9.8,10.5z"/>
<path class="st7" d="M10.5,10.3L10.5,10.3L10.5,10.3L10.5,10.3L10.5,10.3L10.5,10.3L10.5,10.3L10.5,10.3L10.5,10.3L10.5,10.3
	L10.5,10.3L10.5,10.3l-0.2-0.1l0,0l0.1-0.1L10.5,10.3z"/>
<polygon class="st7" points="10.6,10.6 10.3,10.9 10.1,10.7 10.4,10.5 10.6,10.6 "/>
<path class="st7" d="M10.6,10.6L10.6,10.6L10.6,10.6L10.6,10.6L10.6,10.6L10.6,10.6L10.6,10.6L10.6,10.6L10.6,10.6L10.6,10.6
	L10.6,10.6L10.6,10.6l-0.2-0.1l0,0l0.1-0.1L10.6,10.6z"/>
<polygon class="st7" points="10.6,10.9 10.5,11.1 10.4,10.9 10.5,10.8 10.6,10.9 "/>
<path class="st7" d="M10.2,10.2L10.2,10.2L10.2,10.2L10.2,10.2L10.2,10.2L10.2,10.2L10.2,10.2L10.2,10.2L10.2,10.2L10.2,10.2
	L10.2,10.2L10.2,10.2l-0.2-0.1l0,0l0.1-0.1L10.2,10.2z"/>
<polygon class="st7" points="10.2,10.5 10.1,10.6 9.9,10.5 10.1,10.4 10.2,10.5 "/>
<path class="st8" d="M10.4,10.6L10.4,10.6L10.4,10.6L10.4,10.6C10.4,10.6,10.4,10.6,10.4,10.6z"/>
<path class="st8" d="M10.5,10.9L10.5,10.9L10.5,10.9L10.5,10.9L10.5,10.9z"/>
<path class="st8" d="M10.1,10.5L10.1,10.5L10.1,10.5L10.1,10.5L10.1,10.5z"/>
<path class="st8" d="M10.2,11.4l0.2-0.2c0,0,0,0,0.1,0l0,0c0,0,0,0,0.1,0 M10.5,11.1L10.5,11.1l0.1-0.1l0,0l0.1-0.1l-0.1-0.1l0,0
	l0,0l0,0l-0.1-0.1l0,0l0,0l0,0l-0.1-0.1l-0.1,0.1 M10.5,10.9L10.3,11l0,0l0.2-0.2l0,0c0,0,0,0,0.1,0l0.1-0.1l-0.1-0.1l0,0l0,0l0,0
	l-0.1-0.1l0,0l0,0l0,0l-0.1-0.1l-0.1,0.1 M10.4,10.6L10.4,10.6l-0.2,0.2l0,0l0.1-0.1 M10.3,10.7L10.3,10.7l0-0.1l0,0l0,0l0,0
	l-0.1-0.1l0,0l0,0l0,0l-0.1-0.1l-0.1,0.1l0,0L10,10.6l0,0 M10,10.6C10,10.6,10,10.6,10,10.6L10,10.6 M10,10.7l-0.2,0.2l0,0
	 M9.6,10.9C9.6,10.9,9.6,11,9.6,10.9l0.6,0.7c0,0,0.1,0,0.1,0L9.6,10.9z M10.2,11.4l-0.1-0.1c0.1-0.1,0.1-0.2,0.1-0.3
	c0,0,0-0.1,0-0.1l0.2,0.2L10.2,11.4z M10.1,11L10.1,11L10.1,11c-0.1,0-0.2,0-0.3,0H9.8C9.8,10.9,10,10.9,10.1,11
	c0.1,0.1,0.1,0.2,0,0.3l0-0.1C10.1,11.1,10.1,11,10.1,11L10.1,11z M10,11.2L9.8,11c0.1,0,0.1,0,0.2,0C10,11.1,10,11.1,10,11.2
	L10,11.2z M10.5,10.7L10.5,10.7L10.5,10.7L10.5,10.7L10.5,10.7L10.5,10.7L10.5,10.7L10.5,10.7L10.5,10.7L10.5,10.7L10.5,10.7
	L10.5,10.7L10.5,10.7l-0.2-0.2C10.4,10.6,10.5,10.7,10.5,10.7L10.5,10.7z M10.5,11.1l-0.1-0.1l0.1-0.1l0.1,0.1L10.5,11.1z
	 M10.4,10.4L10.4,10.4L10.4,10.4L10.4,10.4L10.4,10.4l0.1-0.1l0,0l0,0l0,0v0.1l0,0l0,0L10.4,10.4L10.4,10.4L10.4,10.4z M10.3,10.9
	l-0.1-0.1l0.2-0.2l0.1,0.1L10.3,10.9z M10.1,10.3L10.1,10.3L10.1,10.3L10.1,10.3L10.1,10.3L10.1,10.3L10.1,10.3L10.1,10.3L10.1,10.3
	L10.1,10.3L10.1,10.3L10.1,10.3L10.1,10.3l-0.2-0.2C9.9,10.2,10.1,10.3,10.1,10.3L10.1,10.3z M10.1,10.6L10,10.5l0.1-0.1l0.1,0.1
	L10.1,10.6z M9.9,10.5L9.9,10.5l0.6,0.6l0,0l0,0L9.9,10.5L9.9,10.5z M9.9,10.6L9.9,10.6l0.6,0.6l0,0l0,0L9.9,10.6L9.9,10.6L9.9,10.6
	z M9.9,10.6l0.2,0.2H10c-0.1,0-0.2,0-0.3,0.1l-0.1-0.2L9.9,10.6z M10.2,11.5l-0.6-0.6l0,0l0,0L10.2,11.5L10.2,11.5
	C10.2,11.5,10.2,11.5,10.2,11.5L10.2,11.5z"/>
<path class="st0" d="M79.1,20.6c-1.1,0.4-2.2,0.5-3.3,0.6c-1.5,0.1-2.9-0.4-4-1.3c-0.9-0.9-1.4-2.2-1.4-3.6c0-3.3,2.4-5.1,5.6-5.1
	c0.9,0,1.9,0.1,2.7,0.5l-0.5,1.8c-0.7-0.3-1.5-0.4-2.3-0.4c-1.7-0.1-3.1,1.1-3.2,2.7c0,0.1,0,0.3,0,0.4c-0.1,1.7,1.1,3.1,2.8,3.2
	c0.1,0,0.2,0,0.3,0c0.4,0,0.7,0,1.1-0.1v-2.1h-1.5v-1.7h3.7V20.6z"/>
<path class="st0" d="M87.8,17.4c0.1,2-1.4,3.7-3.3,3.8c-0.1,0-0.3,0-0.4,0c-1.9,0.1-3.6-1.4-3.7-3.3c0-0.1,0-0.3,0-0.4
	c-0.1-2,1.4-3.7,3.3-3.8c0.2,0,0.3,0,0.5,0c1.9-0.1,3.5,1.4,3.7,3.3C87.9,17.1,87.9,17.3,87.8,17.4z M82.7,17.5
	c0,1.2,0.5,2.1,1.5,2.1s1.4-0.9,1.4-2.1c0-1.1-0.4-2.1-1.4-2.1S82.7,16.4,82.7,17.5z"/>
<path class="st0" d="M90.7,13.9l1,3.3c0.2,0.6,0.3,1.2,0.4,1.7l0,0c0.1-0.6,0.2-1.1,0.4-1.7l0.9-3.3h2.3L93.2,21h-2.2l-2.6-7.1
	L90.7,13.9z"/>
<path class="st0" d="M98.3,18.2c0.1,0.9,1,1.4,2,1.4c0.7,0,1.4-0.1,2-0.3l0.3,1.5c-0.8,0.3-1.7,0.5-2.6,0.4c-2.4,0-3.8-1.4-3.8-3.6
	c-0.1-2,1.4-3.7,3.3-3.8c0.1,0,0.2,0,0.3,0c2.3,0,3.2,1.8,3.2,3.6c0,0.3,0,0.6-0.1,0.9H98.3z M100.9,16.7c0.1-0.7-0.4-1.4-1.1-1.4
	c0,0-0.1,0-0.1,0c-0.8,0-1.4,0.7-1.4,1.4H100.9z"/>
<path class="st0" d="M104.3,16.2c0-1,0-1.7,0-2.4h1.9l0.1,1.3h0.1c0.3-0.8,1-1.4,1.9-1.5c0.2,0,0.3,0,0.5,0v2.1
	c-0.2,0-0.4-0.1-0.6-0.1c-0.7-0.1-1.4,0.4-1.5,1.1c0,0.2,0,0.3,0,0.5V21h-2.2L104.3,16.2z"/>
<path class="st0" d="M109.9,16.2c0-0.9,0-1.6-0.1-2.3h1.9l0.1,1l0,0c0.5-0.7,1.3-1.2,2.2-1.1c1.5,0,2.6,1,2.6,3.1V21h-2.2v-4
	c0-0.9-0.3-1.6-1.1-1.6c-0.5,0-1,0.3-1.1,0.8c-0.1,0.2-0.1,0.4-0.1,0.5V21h-2.2L109.9,16.2z"/>
<path class="st0" d="M125.5,17.4c0.1,2-1.4,3.7-3.3,3.8c-0.1,0-0.3,0-0.4,0c-1.9,0.1-3.6-1.4-3.7-3.3c0-0.1,0-0.3,0-0.4
	c-0.1-2,1.4-3.7,3.3-3.8c0.2,0,0.3,0,0.5,0c1.9-0.1,3.5,1.4,3.7,3.3C125.5,17.1,125.5,17.3,125.5,17.4z M120.3,17.5
	c0,1.2,0.5,2.1,1.5,2.1s1.4-0.9,1.4-2.1c0-1.1-0.4-2.1-1.4-2.1S120.3,16.4,120.3,17.5z"/>
<path class="st0" d="M77.7,22.3v8.2c0,0.8,0,1.6,0.1,2.1h-2l-0.1-1l0,0c-0.5,0.8-1.3,1.2-2.2,1.2c-1.7,0-3.1-1.4-3.1-3.7
	c0-2.4,1.5-3.8,3.2-3.8c0.7-0.1,1.4,0.2,1.9,0.8l0,0v-3.9H77.7z M75.5,28.6c0-0.1,0-0.3,0-0.4c-0.1-0.6-0.7-1.1-1.3-1.1
	c-1,0-1.5,0.9-1.5,2s0.6,2,1.5,2c0.6,0,1.2-0.5,1.3-1.1c0-0.2,0.1-0.3,0.1-0.5V28.6z"/>
<path class="st0" d="M86.5,29.1c0.1,2-1.4,3.7-3.3,3.8c-0.1,0-0.3,0-0.4,0c-1.9,0.1-3.6-1.4-3.7-3.3c0-0.1,0-0.3,0-0.4
	c-0.1-2,1.4-3.7,3.3-3.8c0.2,0,0.3,0,0.5,0c1.9-0.1,3.5,1.4,3.7,3.3C86.5,28.8,86.5,28.9,86.5,29.1z M81.3,29.1
	c0,1.2,0.5,2.1,1.5,2.1s1.4-0.9,1.4-2.1c0-1.1-0.4-2.1-1.4-2.1S81.3,28.1,81.3,29.1z"/>
<path class="st0" d="M87.9,30.8c0.6,0.3,1.2,0.5,1.9,0.5c0.7,0,1-0.2,1-0.6s-0.2-0.5-1-0.8c-1.5-0.5-2.1-1.3-2-2.1
	c0-1.3,1.1-2.3,2.9-2.3c0.7,0,1.4,0.1,2,0.4l-0.4,1.5c-0.5-0.3-1-0.4-1.6-0.4c-0.5,0-0.8,0.2-0.8,0.6s0.3,0.5,1.2,0.8
	c1.4,0.5,1.9,1.1,1.9,2.2c0,1.3-1.1,2.3-3.1,2.3c-0.8,0-1.6-0.2-2.3-0.5L87.9,30.8z"/>
<path class="st0" d="M99.5,30.2l-0.7,2.5h-2.3l3-9.8h2.9l3,9.8H103l-0.8-2.5H99.5z M102,28.5l-0.6-2.1c-0.2-0.6-0.3-1.3-0.5-1.9l0,0
	c-0.1,0.6-0.3,1.3-0.4,1.9l-0.6,2.1H102z"/>
<path class="st0" d="M111.9,32.5c-0.5,0.2-1.1,0.3-1.6,0.3l-0.3,0.5c0.6,0.1,1,0.6,1,1.2c0,1-0.9,1.4-1.8,1.4
	c-0.4,0-0.9-0.1-1.2-0.3l0.3-0.9c0.3,0.1,0.5,0.2,0.8,0.2c0.3,0,0.5-0.1,0.5-0.4s-0.3-0.5-1.2-0.5l0.6-1.2c-1.8-0.2-3.1-1.8-3-3.6
	c0-2.1,1.4-3.8,4.1-3.8c0.6,0,1.1,0.1,1.7,0.3l-0.3,1.6c-0.4-0.2-0.8-0.2-1.2-0.2c-1,0-1.9,0.8-1.9,1.8c0,0.1,0,0.1,0,0.2
	c-0.1,1,0.7,1.9,1.7,2c0.1,0,0.2,0,0.3,0c0.4,0,0.9-0.1,1.3-0.2L111.9,32.5z"/>
<path class="st0" d="M120,29.1c0.1,2-1.3,3.7-3.3,3.8c-0.1,0-0.3,0-0.4,0c-1.9,0.1-3.6-1.4-3.7-3.3c0-0.1,0-0.3,0-0.4
	c-0.1-2,1.4-3.7,3.3-3.8c0.2,0,0.3,0,0.5,0c1.9-0.1,3.5,1.4,3.7,3.3C120,28.8,120,28.9,120,29.1z M114.8,29.1c0,1.2,0.5,2.1,1.5,2.1
	s1.4-0.9,1.4-2.1c0-1.1-0.4-2.1-1.4-2.1S114.8,28.1,114.8,29.1z"/>
<path class="st0" d="M121.4,27.9c0-1.1,0-1.7-0.1-2.4h1.9l0.1,1.3h0.1c0.3-0.9,1-1.4,1.9-1.5c0.2,0,0.3,0,0.5,0v2.1
	c-0.2,0-0.4-0.1-0.6-0.1c-0.7-0.1-1.4,0.4-1.5,1.1c0,0.2,0,0.3,0,0.5v3.6h-2.2L121.4,27.9z"/>
<path class="st0" d="M128.5,29.8c0.1,0.9,1,1.4,2,1.4c0.7,0,1.4-0.1,2-0.3l0.3,1.5c-0.8,0.3-1.7,0.5-2.6,0.4c-2.4,0-3.8-1.4-3.8-3.6
	c-0.1-2,1.4-3.7,3.3-3.8c0.1,0,0.2,0,0.3,0c2.3,0,3.2,1.8,3.2,3.6c0,0.3,0,0.6-0.1,0.9H128.5z M131.1,28.3c0.1-0.7-0.4-1.3-1.1-1.4
	c0,0-0.1,0-0.1,0c-0.8,0-1.4,0.7-1.4,1.4H131.1z"/>
<path class="st0" d="M134.5,30.8c0.6,0.3,1.2,0.5,1.9,0.5c0.7,0,1-0.2,1-0.6s-0.2-0.5-1.1-0.8c-1.5-0.5-2.1-1.3-2-2.1
	c0-1.3,1.1-2.3,2.9-2.3c0.7,0,1.4,0.1,2,0.4l-0.4,1.5c-0.5-0.3-1-0.4-1.5-0.4c-0.5,0-0.9,0.2-0.9,0.6s0.3,0.5,1.1,0.8
	c1.4,0.5,1.9,1.1,1.9,2.2c0,1.3-1.1,2.3-3.1,2.3c-0.8,0-1.6-0.2-2.3-0.5L134.5,30.8z"/>
</svg>
