<?xml version="1.0" encoding="utf-8"?>
<!-- Generator: Adobe Illustrator 23.0.4, SVG Export Plug-In . SVG Version: 6.00 Build 0)  -->
<svg version="1.1" id="Layer_1" xmlns="http://www.w3.org/2000/svg" xmlns:xlink="http://www.w3.org/1999/xlink" x="0px" y="0px"
	 viewBox="0 0 19.8 18.5" style="enable-background:new 0 0 19.8 18.5;" xml:space="preserve">
<style type="text/css">
	.st0{fill:none;stroke:#FFFFFF;stroke-linecap:round;stroke-linejoin:round;}
</style>
<title>Icones Homepage</title>
<path class="st0" d="M14.1,7.2c5.5,0,5.2-6.7,5.2-6.7c-1.1,0.8-2.5,1.2-3.9,1.1C13,1.6,9.9,2.7,9.9,6c0-3.3-3.1-4.4-5.5-4.4
	C3,1.7,1.6,1.3,0.5,0.5c0,0-0.3,6.7,5.2,6.7c3.3,0,3.9,1.2,3.4,3.1c-1,2.6-2.2,5.2-3.5,7.7c1.6-0.1,3.2-0.7,4.4-1.9
	c1.2,1.2,2.7,1.8,4.4,1.9c-1.3-2.5-2.5-5.1-3.5-7.8C10.2,8.4,10.8,7.2,14.1,7.2z"/>
</svg>
