<?xml version="1.0" encoding="utf-8"?>
<!-- Generator: Adobe Illustrator 23.0.4, SVG Export Plug-In . SVG Version: 6.00 Build 0)  -->
<svg version="1.1" id="Layer_1" xmlns="http://www.w3.org/2000/svg" xmlns:xlink="http://www.w3.org/1999/xlink" x="0px" y="0px"
	 viewBox="0 0 31.9 21.8" style="enable-background:new 0 0 31.9 21.8;" xml:space="preserve">
<style type="text/css">
	.st0{fill:none;stroke:#FFFFFF;stroke-miterlimit:10;}
	.st1{fill:none;stroke:#FFFFFF;stroke-width:1.06;stroke-miterlimit:10;}
</style>
<title>Icones Homepage</title>
<path class="st0" d="M12.5,12.9h-1.7V9.3c0-0.5,0.4-0.8,0.8-0.8l0,0l0,0c0.5,0,0.8,0.4,0.8,0.8V12.9z"/>
<path class="st0" d="M17,12.9h-2V8.5c0-0.6,0.4-1,1-1l0,0c0.6,0,1,0.4,1,1V12.9z"/>
<path class="st0" d="M21.1,12.9h-1.7V9.3c0-0.5,0.4-0.8,0.8-0.8l0,0c0.5,0,0.8,0.4,0.8,0.8l0,0V12.9z"/>
<rect x="10.8" y="14.9" class="st0" width="1.7" height="4.5"/>
<rect x="19.4" y="14.9" class="st0" width="1.7" height="4.5"/>
<rect x="14.2" y="14.9" class="st0" width="3.4" height="6.3"/>
<polygon class="st0" points="23.8,7.2 23.8,4.7 19.4,4.7 19.4,3.8 12.5,3.8 12.5,4.7 8.1,4.7 8.1,7.2 8.4,7.2 8.4,14 8.1,14 
	8.1,14.4 8.4,14.4 8.4,21.3 23.6,21.3 23.6,14.4 23.8,14.4 23.8,14 23.6,14 23.6,7.2 "/>
<path class="st0" d="M18.1,1.8V1.3c0-0.5-0.4-0.8-0.8-0.8h-2.5c-0.5,0-0.8,0.4-0.8,0.8v0.4c-0.8,0-1.4,0.6-1.4,1.4v0.7h7V3.1
	C19.5,2.4,18.9,1.8,18.1,1.8C18.1,1.8,18.1,1.8,18.1,1.8z"/>
<path class="st0" d="M8.8,2.3c-0.4,0-0.7,0.3-0.7,0.7v1.8h1.3V2.9C9.4,2.5,9.1,2.3,8.8,2.3z"/>
<path class="st0" d="M23.2,2.3c-0.4,0-0.6,0.3-0.6,0.7v1.8h1.3V2.9C23.8,2.5,23.5,2.2,23.2,2.3z"/>
<rect x="23.5" y="6.6" class="st1" width="7.9" height="14.6"/>
<rect x="26.5" y="8.4" class="st0" width="2" height="4.5"/>
<rect x="26.5" y="14.9" class="st0" width="2" height="4.5"/>
<rect x="0.5" y="6.6" class="st1" width="7.9" height="14.6"/>
<rect x="3.4" y="8.4" class="st0" width="2" height="4.5"/>
<rect x="3.4" y="14.9" class="st0" width="2" height="4.5"/>
</svg>
