<?xml version="1.0" encoding="utf-8"?>
<!-- Generator: Adobe Illustrator 23.0.4, SVG Export Plug-In . SVG Version: 6.00 Build 0)  -->
<svg version="1.1" id="Layer_1" xmlns="http://www.w3.org/2000/svg" xmlns:xlink="http://www.w3.org/1999/xlink" x="0px" y="0px"
	 viewBox="0 0 20.6 16.5" style="enable-background:new 0 0 20.6 16.5;" xml:space="preserve">
<style type="text/css">
	.st0{fill:none;stroke:#FFFFFF;stroke-linecap:round;stroke-linejoin:round;}
</style>
<title>Icones Homepage</title>
<path class="st0" d="M17,2.8h3.1l0,0v11.7c0,0.8-0.7,1.5-1.5,1.5l0,0c-0.9,0-1.5-0.7-1.5-1.5c0,0,0,0,0,0V2.8L17,2.8z"/>
<path class="st0" d="M17,2.8V0.5H2.2c-0.9,0-1.7,0.7-1.7,1.7c0,0,0,0,0,0v12.1c0,0.9,0.8,1.7,1.7,1.7c0,0,0,0,0,0h16.4"/>
<line class="st0" x1="2.4" y1="8" x2="11.3" y2="8"/>
<line class="st0" x1="2.4" y1="5.3" x2="14.6" y2="5.3"/>
<line class="st0" x1="2.4" y1="2.6" x2="14.6" y2="2.6"/>
<line class="st0" x1="2.4" y1="11.3" x2="14.6" y2="11.3"/>
</svg>
