<?xml version="1.0" encoding="utf-8"?>
<!-- Generator: Adobe Illustrator 24.0.1, SVG Export Plug-In . SVG Version: 6.00 Build 0)  -->
<svg version="1.1" id="Layer_1" xmlns="http://www.w3.org/2000/svg" xmlns:xlink="http://www.w3.org/1999/xlink" x="0px" y="0px"
	 viewBox="0 0 20 20" style="enable-background:new 0 0 20 20;" xml:space="preserve">
<style type="text/css">
	.st0{fill:#232F5D;}
	.st1{fill:none;stroke:#FFFFFF;stroke-linecap:round;stroke-linejoin:round;stroke-miterlimit:10;}
	.st2{fill:none;stroke:#232F5D;stroke-linecap:round;stroke-linejoin:round;stroke-miterlimit:10;}
	.st3{fill:none;stroke:#232F5D;stroke-width:0.9317;stroke-linecap:round;stroke-linejoin:round;stroke-miterlimit:10;}
	.st4{fill:none;stroke:#FFFFFF;stroke-miterlimit:10;}
</style>
<g>
	<g>
		<g>
			<path class="st3" d="M18.5,12.02v6.37h-3.69v-5.94c0-1.49-0.53-2.51-1.87-2.51c-1.02,0-1.63,0.69-1.89,1.35
				c-0.1,0.24-0.12,0.57-0.12,0.9v6.2H7.23c0,0,0.05-10.06,0-11.1h3.69v1.57c-0.01,0.01-0.02,0.02-0.02,0.04h0.02V8.86
				c0.49-0.75,1.37-1.83,3.33-1.83C16.68,7.02,18.5,8.61,18.5,12.02L18.5,12.02z M1.5,18.39h3.69V7.28H1.5V18.39z M1.5,18.39
				 M5.3,3.52c0,1.05-0.85,1.9-1.9,1.9c-1.05,0-1.9-0.85-1.9-1.9s0.85-1.9,1.9-1.9C4.45,1.61,5.3,2.47,5.3,3.52z"/>
		</g>
	</g>
</g>
</svg>
