<?xml version="1.0" encoding="utf-8"?>
<!-- Generator: Adobe Illustrator 24.1.3, SVG Export Plug-In . SVG Version: 6.00 Build 0)  -->
<svg version="1.1" id="Layer_1" xmlns="http://www.w3.org/2000/svg" xmlns:xlink="http://www.w3.org/1999/xlink" x="0px" y="0px"
	 viewBox="0 0 20 20" style="enable-background:new 0 0 20 20;" xml:space="preserve">
<style type="text/css">
	.st0{fill:#729FCF;}
	.st1{fill:#729FCF;}
	.st2{fill:#729FCF;}
	.st3{fill:#729FCF;}
	.st4{fill:#729FCF;}
	.st5{fill:#729FCF;}
	.st6{fill:#729FCF;}
	.st7{fill:none;stroke:#729FCF;stroke-linecap:round;stroke-linejoin:round;stroke-miterlimit:10;}
	.st8{fill:#729FCF;}
	.st9{fill:#729FCF;}
	.st10{clip-path:url(#SVGID_2_);}
	.st11{fill:none;stroke:#729FCF;stroke-miterlimit:10;}
	.st12{fill:#729FCF;}
	.st13{fill:#729FCF;}
	.st14{opacity:0.1;}
	.st15{fill:none;stroke:#000;stroke-width:0.5;stroke-linecap:round;stroke-linejoin:round;stroke-miterlimit:10;}
</style>
<g>
	<path class="st1" d="M10,20l-5.65-8.14C2.27,9.09,2.58,4.5,5.03,2.06C6.36,0.73,8.12,0,10,0c1.88,0,3.64,0.73,4.97,2.06l0,0
		c2.45,2.44,2.75,7.04,0.65,9.83L10,20z M10,1C8.39,1,6.87,1.63,5.73,2.76c-2.12,2.12-2.39,6.09-0.57,8.51L10,18.25l4.81-6.94
		c1.83-2.44,1.57-6.42-0.55-8.54l0,0C13.13,1.63,11.61,1,10,1z M10.06,9.84c-1.59,0-2.89-1.29-2.89-2.88c0-1.59,1.29-2.88,2.89-2.88
		s2.88,1.29,2.88,2.88C12.95,8.55,11.65,9.84,10.06,9.84z M10.06,5.08c-1.04,0-1.89,0.84-1.89,1.88c0,1.04,0.85,1.88,1.89,1.88
		c1.04,0,1.88-0.84,1.88-1.88C11.95,5.93,11.1,5.08,10.06,5.08z"/>
</g>
</svg>
