<?xml version="1.0" encoding="utf-8"?>
<!-- Generator: Adobe Illustrator 23.0.4, SVG Export Plug-In . SVG Version: 6.00 Build 0)  -->
<svg version="1.1" id="Layer_1" xmlns="http://www.w3.org/2000/svg" xmlns:xlink="http://www.w3.org/1999/xlink" x="0px" y="0px"
	 viewBox="0 0 32.2 22.7" style="enable-background:new 0 0 32.2 22.7;" xml:space="preserve">
<style type="text/css">
	.st0{fill:#FFFFFF;}
</style>
<title>Icones Homepage</title>
<path class="st0" d="M22.5,19.5c0.1-0.2,0.1-0.4,0.2-0.6c0-0.1,0.1-0.3,0.1-0.4s0-0.5,0.1-0.7s0-0.2,0-0.4c0-2.1-1.3-4-3.2-4.9
	c-0.7-0.3-1.3-0.4-2-0.4c-0.1,0-0.3,0-0.4,0C15.3,8.7,11,7.5,7.6,9.4c-1.6,0.9-2.8,2.3-3.3,4.1c-2.5,0.1-4.5,2.2-4.5,4.7
	s2.2,4.5,4.7,4.5h13.1c0.4,0,0.7,0,1-0.1c0.1,0,0.2-0.1,0.3-0.1c0.2-0.1,0.5-0.1,0.7-0.2c0.1-0.1,0.2-0.1,0.3-0.2
	c0.2-0.1,0.4-0.2,0.6-0.3c0.6-0.4,1-0.9,1.4-1.4c0.1-0.1,0.2-0.3,0.3-0.5C22.4,19.8,22.4,19.6,22.5,19.5z M13.7,14
	c-0.2,0.2-0.2,0.6,0.1,0.8c0.2,0.2,0.6,0.2,0.8,0c0,0,0,0,0,0c1.5-1.7,4.2-1.9,5.9-0.4c1.7,1.5,1.9,4.2,0.4,5.9
	c-0.8,0.9-1.9,1.4-3.1,1.4H4.6c-1.9,0-3.5-1.6-3.5-3.5s1.6-3.5,3.5-3.5h0.2c0.3,0,0.5-0.2,0.5-0.4C6.1,11,9.4,9.1,12.6,10
	c1.4,0.4,2.6,1.2,3.4,2.5C15.1,12.7,14.3,13.3,13.7,14z"/>
<path class="st0" d="M20.8,5.2c-1.8,0-3.6,0.8-4.8,2.2c-0.2,0.2-0.2,0.6,0,0.8c0.2,0.2,0.6,0.2,0.8,0c0,0,0,0,0,0
	c1.9-2.1,5.1-2.3,7.3-0.5c1.1,1,1.7,2.4,1.7,3.8c0,1.4-0.5,2.7-1.5,3.6c-0.2,0.2-0.1,0.6,0.1,0.8c0.2,0.2,0.5,0.2,0.7,0
	c2.4-2.4,2.5-6.4,0-8.8C24,5.8,22.4,5.2,20.8,5.2L20.8,5.2z"/>
<path class="st0" d="M20.8,3.7c0.3,0,0.5-0.2,0.5-0.5V0.6c0-0.3-0.3-0.5-0.6-0.5c-0.3,0-0.4,0.2-0.5,0.5v2.6
	C20.2,3.4,20.4,3.7,20.8,3.7C20.7,3.7,20.7,3.7,20.8,3.7z"/>
<path class="st0" d="M31.6,10.9H29c-0.3,0-0.5,0.3-0.5,0.6c0,0.3,0.2,0.4,0.5,0.5h2.6c0.3,0,0.5-0.3,0.5-0.6
	C32.1,11.1,31.9,10.9,31.6,10.9z"/>
<path class="st0" d="M26.6,6.1c0.1,0,0.3-0.1,0.4-0.2l1.8-1.8c0.2-0.2,0.2-0.6,0-0.8c-0.2-0.2-0.6-0.2-0.8,0l-1.8,1.8
	c-0.2,0.2-0.2,0.6,0,0.8c0,0,0,0,0,0C26.3,6,26.5,6.1,26.6,6.1z"/>
<path class="st0" d="M27,16.9c-0.2-0.2-0.6-0.2-0.8,0c-0.2,0.2-0.2,0.6,0,0.8l1.8,1.8c0.2,0.2,0.6,0.2,0.8-0.1
	c0.2-0.2,0.2-0.5,0-0.7L27,16.9z"/>
<path class="st0" d="M14.5,5.9c0.2,0.2,0.5,0.2,0.7,0c0,0,0,0,0,0c0.2-0.2,0.2-0.5,0-0.8c0,0,0,0,0,0l-1.8-1.8
	c-0.2-0.2-0.6-0.2-0.8,0.1c-0.2,0.2-0.2,0.5,0,0.7L14.5,5.9z"/>
</svg>
