<?xml version="1.0" encoding="utf-8"?>
<!-- Generator: Adobe Illustrator 24.1.3, SVG Export Plug-In . SVG Version: 6.00 Build 0)  -->
<svg version="1.1" id="Layer_1" xmlns="http://www.w3.org/2000/svg" xmlns:xlink="http://www.w3.org/1999/xlink" x="0px" y="0px"
	 viewBox="0 0 35 35" style="enable-background:new 0 0 35 35;" xml:space="preserve">
<style type="text/css">
	.st0{fill:#222E5E;}
	.st1{fill:#FFFFFF;}
	.st2{fill:#EBBB10;}
	.st3{fill:#666666;}
	.st4{fill:#808080;}
	.st5{fill:#277FB6;}
	.st6{fill:#22AF80;}
	.st7{fill:none;stroke:#222E5E;stroke-linecap:round;stroke-linejoin:round;stroke-miterlimit:10;}
	.st8{fill:#BEBEBE;}
	.st9{fill:#1E3565;}
	.st10{clip-path:url(#SVGID_2_);}
	.st11{fill:none;stroke:#222E5E;stroke-miterlimit:10;}
	.st12{fill:#A5A5A5;}
	.st13{fill:#C0C0C0;}
	.st14{opacity:0.1;}
	.st15{fill:none;stroke:#FFFFFF;stroke-width:0.5;stroke-linecap:round;stroke-linejoin:round;stroke-miterlimit:10;}
</style>
<g>
	<path class="st1" d="M17.5,35C7.85,35,0,27.15,0,17.5C0,7.85,7.85,0,17.5,0S35,7.85,35,17.5C35,27.15,27.15,35,17.5,35z M17.5,1
		C8.4,1,1,8.4,1,17.5C1,26.6,8.4,34,17.5,34S34,26.6,34,17.5C34,8.4,26.6,1,17.5,1z"/>
</g>
<path class="st1" d="M27.04,16.98H18V7.95c0-0.28-0.22-0.5-0.5-0.5S17,7.68,17,7.95v9.03H7.96c-0.28,0-0.5,0.22-0.5,0.5
	s0.22,0.5,0.5,0.5H17v9.03c0,0.28,0.22,0.5,0.5,0.5s0.5-0.22,0.5-0.5v-9.03h9.04c0.28,0,0.5-0.22,0.5-0.5S27.32,16.98,27.04,16.98z"
	/>
</svg>
