<!DOCTYPE svg PUBLIC "-//W3C//DTD SVG 20010904//EN" "http://www.w3.org/TR/2001/REC-SVG-20010904/DTD/svg10.dtd">
<svg version="1.0" xmlns="http://www.w3.org/2000/svg" width="561px" height="563px" viewBox="0 0 5610 5630" preserveAspectRatio="xMidYMid meet">
<g id="layer101" fill="#232e5a" stroke="none">
<path d="M2453 5615 c-749 -97 -1431 -493 -1888 -1097 -226 -299 -404 -679 -493 -1053 -51 -214 -64 -320 -69 -585 -4 -188 -1 -277 11 -385 41 -350 129 -644 292 -965 388 -769 1110 -1316 1959 -1485 198 -39 318 -48 606 -42 208 3 290 9 389 26 1082 187 1942 957 2246 2013 71 247 104 494 104 774 0 452 -91 843 -290 1249 -417 851 -1229 1430 -2173 1550 -146 19 -548 18 -694 0z m702 -100 c304 -40 559 -118 840 -255 822 -403 1381 -1191 1500 -2115 22 -171 23 -485 1 -658 -104 -819 -538 -1513 -1234 -1968 -124 -82 -384 -212 -526 -264 -726 -266 -1555 -204 -2231 168 -508 279 -943 750 -1172 1269 -255 577 -307 1197 -153 1804 105 411 294 774 579 1105 355 413 852 721 1376 852 151 38 305 64 449 77 128 12 429 4 571 -15z"/>
<path d="M2691 4361 c-44 -28 -36 -38 724 -803 l737 -743 -807 -5 c-755 -5 -809 -6 -819 -22 -8 -13 -8 -23 0 -35 10 -17 64 -18 819 -23 l808 -5 -738 -743 c-597 -601 -737 -747 -737 -768 0 -28 16 -43 47 -44 14 -1 274 254 813 797 435 438 792 800 792 803 0 3 -357 364 -793 803 -538 542 -798 798 -812 797 -11 0 -26 -4 -34 -9z"/>
<path d="M812 2798 c-15 -15 -15 -41 0 -56 9 -9 100 -12 350 -12 327 0 338 1 348 20 8 14 8 26 0 40 -10 19 -21 20 -348 20 -250 0 -341 -3 -350 -12z"/>
</g>
<g id="layer102" fill="#5f6785" stroke="none">
<path d="M2573 5623 c15 -2 39 -2 55 0 15 2 2 4 -28 4 -30 0 -43 -2 -27 -4z"/>
<path d="M2983 5623 c15 -2 39 -2 55 0 15 2 2 4 -28 4 -30 0 -43 -2 -27 -4z"/>
<path d="M2473 5613 c9 -2 25 -2 35 0 9 3 1 5 -18 5 -19 0 -27 -2 -17 -5z"/>
<path d="M3103 5613 c9 -2 25 -2 35 0 9 3 1 5 -18 5 -19 0 -27 -2 -17 -5z"/>
<path d="M2393 5603 c9 -2 25 -2 35 0 9 3 1 5 -18 5 -19 0 -27 -2 -17 -5z"/>
<path d="M2767 5543 c18 -2 50 -2 70 0 21 2 7 4 -32 4 -38 0 -55 -2 -38 -4z"/>
<path d="M2588 5533 c18 -2 45 -2 60 0 15 2 0 4 -33 4 -33 0 -45 -2 -27 -4z"/>
<path d="M2968 5533 c18 -2 45 -2 60 0 15 2 0 4 -33 4 -33 0 -45 -2 -27 -4z"/>
<path d="M2483 5523 c9 -2 25 -2 35 0 9 3 1 5 -18 5 -19 0 -27 -2 -17 -5z"/>
<path d="M3088 5523 c12 -2 30 -2 40 0 9 3 -1 5 -23 4 -22 0 -30 -2 -17 -4z"/>
<path d="M1620 5375 c-14 -8 -20 -14 -15 -14 6 0 21 6 35 14 14 8 21 14 15 14 -5 0 -21 -6 -35 -14z"/>
<path d="M4000 5360 c19 -11 40 -19 45 -19 6 0 -6 8 -25 19 -19 11 -39 19 -45 19 -5 0 6 -8 25 -19z"/>
<path d="M4060 5335 c0 -2 18 -14 40 -25 22 -11 40 -18 40 -15 0 2 -18 14 -40 25 -22 11 -40 18 -40 15z"/>
<path d="M1478 5304 c-38 -20 -36 -28 2 -9 17 9 30 18 30 20 0 7 -1 6 -32 -11z"/>
<path d="M1247 5165 c-20 -14 -37 -28 -37 -31 0 -2 18 8 40 22 35 23 47 34 37 34 -1 0 -19 -11 -40 -25z"/>
<path d="M4410 5126 c0 -2 14 -14 30 -26 17 -12 30 -19 30 -16 0 2 -13 14 -30 26 -16 12 -30 19 -30 16z"/>
<path d="M1307 5095 c-20 -14 -37 -28 -37 -31 0 -2 18 8 40 22 35 23 47 34 37 34 -1 0 -19 -11 -40 -25z"/>
<path d="M4480 5077 c0 -2 44 -40 98 -85 113 -93 217 -193 327 -312 43 -47 63 -67 45 -45 -82 98 -172 192 -265 275 -104 93 -205 175 -205 167z"/>
<path d="M1190 5009 l-35 -30 38 26 c33 24 43 35 34 35 -1 0 -18 -14 -37 -31z"/>
<path d="M935 4918 l-40 -43 43 40 c39 36 47 45 39 45 -2 0 -21 -19 -42 -42z"/>
<path d="M1005 4858 l-40 -43 43 40 c39 36 47 45 39 45 -2 0 -21 -19 -42 -42z"/>
<path d="M4610 4848 c41 -45 50 -53 50 -45 0 2 -21 23 -47 47 l-48 45 45 -47z"/>
<path d="M880 4745 c-41 -41 -72 -75 -69 -75 2 0 38 34 79 75 41 41 72 75 69 75 -2 0 -38 -34 -79 -75z"/>
<path d="M4759 4703 c52 -57 96 -103 98 -103 7 0 -152 174 -174 191 -10 8 24 -32 76 -88z"/>
<path d="M703 4686 c-28 -30 -65 -74 -83 -98 -34 -46 -27 -39 82 85 32 37 57 67 55 67 -3 0 -27 -24 -54 -54z"/>
<path d="M769 4623 l-34 -38 38 34 c34 33 42 41 34 41 -2 0 -19 -17 -38 -37z"/>
<path d="M5010 4550 c17 -22 34 -40 37 -40 2 0 -10 18 -27 40 -17 22 -34 40 -37 40 -2 0 10 -18 27 -40z"/>
<path d="M569 4523 c-29 -35 -41 -53 -36 -53 2 0 17 16 31 35 28 36 31 49 5 18z"/>
<path d="M5070 4470 c12 -16 24 -30 26 -30 3 0 -4 14 -16 30 -12 17 -24 30 -26 30 -3 0 4 -13 16 -30z"/>
<path d="M500 4430 c-12 -16 -19 -30 -16 -30 2 0 14 14 26 30 12 17 19 30 16 30 -2 0 -14 -13 -26 -30z"/>
<path d="M590 4400 c-12 -16 -19 -30 -16 -30 2 0 14 14 26 30 12 17 19 30 16 30 -2 0 -14 -13 -26 -30z"/>
<path d="M5055 4333 c15 -24 30 -43 32 -43 7 0 -31 61 -46 73 -8 7 -2 -7 14 -30z"/>
<path d="M2680 4304 c0 -5 249 -257 553 -559 l552 -550 -550 555 c-302 305 -551 556 -552 559 -2 2 -3 0 -3 -5z"/>
<path d="M5265 4160 c9 -16 18 -30 21 -30 2 0 -2 14 -11 30 -9 17 -18 30 -21 30 -2 0 2 -13 11 -30z"/>
<path d="M5227 4035 c15 -30 29 -53 31 -51 4 5 -46 106 -53 106 -3 0 7 -25 22 -55z"/>
<path d="M3990 3105 c162 -162 297 -295 300 -295 3 0 -128 133 -290 295 -162 162 -297 295 -300 295 -3 0 128 -133 290 -295z"/>
<path d="M22 3200 c0 -19 2 -27 5 -17 2 9 2 25 0 35 -3 9 -5 1 -5 -18z"/>
<path d="M112 3190 c0 -19 2 -27 5 -17 2 9 2 25 0 35 -3 9 -5 1 -5 -18z"/>
<path d="M5582 3190 c0 -19 2 -27 5 -17 2 9 2 25 0 35 -3 9 -5 1 -5 -18z"/>
<path d="M5492 3180 c0 -19 2 -27 5 -17 2 9 2 25 0 35 -3 9 -5 1 -5 -18z"/>
<path d="M13 3115 c0 -22 2 -30 4 -17 2 12 2 30 0 40 -3 9 -5 -1 -4 -23z"/>
<path d="M103 3105 c0 -22 2 -30 4 -17 2 12 2 30 0 40 -3 9 -5 -1 -4 -23z"/>
<path d="M5593 3100 c0 -25 2 -35 4 -22 2 12 2 32 0 45 -2 12 -4 2 -4 -23z"/>
<path d="M5503 3095 c0 -22 2 -30 4 -17 2 12 2 30 0 40 -3 9 -5 -1 -4 -23z"/>
<path d="M3 2990 c0 -36 2 -50 4 -32 2 17 2 47 0 65 -2 17 -4 3 -4 -33z"/>
<path d="M93 2980 c0 -36 2 -50 4 -32 2 17 2 47 0 65 -2 17 -4 3 -4 -33z"/>
<path d="M5603 2955 c0 -44 2 -61 4 -37 2 23 2 59 0 80 -2 20 -4 1 -4 -43z"/>
<path d="M5513 2945 c0 -44 2 -61 4 -37 2 23 2 59 0 80 -2 20 -4 1 -4 -43z"/>
<path d="M4311 2793 c12 -20 12 -26 0 -45 -13 -21 -13 -22 2 -9 10 7 17 21 17 31 0 10 -7 24 -17 31 -15 13 -15 12 -2 -8z"/>
<path d="M5513 2685 c0 -44 2 -61 4 -37 2 23 2 59 0 80 -2 20 -4 1 -4 -43z"/>
<path d="M5603 2675 c0 -44 2 -61 4 -37 2 23 2 59 0 80 -2 20 -4 1 -4 -43z"/>
<path d="M4035 2478 l-250 -253 253 250 c234 232 257 255 249 255 -1 0 -115 -114 -252 -252z"/>
<path d="M93 2650 c0 -36 2 -50 4 -32 2 17 2 47 0 65 -2 17 -4 3 -4 -33z"/>
<path d="M3 2640 c0 -36 2 -50 4 -32 2 17 2 47 0 65 -2 17 -4 3 -4 -33z"/>
<path d="M5503 2535 c0 -22 2 -30 4 -17 2 12 2 30 0 40 -3 9 -5 -1 -4 -23z"/>
<path d="M103 2525 c0 -22 2 -30 4 -17 2 12 2 30 0 40 -3 9 -5 -1 -4 -23z"/>
<path d="M5593 2525 c0 -22 2 -30 4 -17 2 12 2 30 0 40 -3 9 -5 -1 -4 -23z"/>
<path d="M13 2515 c0 -22 2 -30 4 -17 2 12 2 30 0 40 -3 9 -5 -1 -4 -23z"/>
<path d="M5492 2450 c0 -19 2 -27 5 -17 2 9 2 25 0 35 -3 9 -5 1 -5 -18z"/>
<path d="M5582 2440 c0 -19 2 -27 5 -17 2 9 2 25 0 35 -3 9 -5 1 -5 -18z"/>
<path d="M22 2430 c0 -19 2 -27 5 -17 2 9 2 25 0 35 -3 9 -5 1 -5 -18z"/>
<path d="M3270 1835 c-327 -327 -592 -596 -590 -597 3 -2 273 266 600 595 327 328 593 597 590 597 -3 0 -273 -268 -600 -595z"/>
<path d="M5252 1645 c-17 -37 -14 -45 4 -12 9 16 14 31 11 33 -2 2 -9 -7 -15 -21z"/>
<path d="M5205 1550 c-9 -16 -13 -30 -11 -30 3 0 12 14 21 30 9 17 13 30 11 30 -3 0 -12 -13 -21 -30z"/>
<path d="M5255 1450 c-9 -16 -13 -30 -11 -30 3 0 12 14 21 30 9 17 13 30 11 30 -3 0 -12 -13 -21 -30z"/>
<path d="M5126 1240 c-25 -38 -44 -70 -41 -70 2 0 22 26 43 58 47 70 54 82 49 82 -2 0 -25 -31 -51 -70z"/>
<path d="M5030 1260 c-12 -16 -19 -30 -16 -30 2 0 14 14 26 30 12 17 19 30 16 30 -2 0 -14 -13 -26 -30z"/>
<path d="M4959 1163 c-23 -32 -36 -53 -28 -46 17 14 83 103 76 103 -3 0 -24 -26 -48 -57z"/>
<path d="M520 1170 c12 -16 24 -30 26 -30 3 0 -4 14 -16 30 -12 17 -24 30 -26 30 -3 0 4 -13 16 -30z"/>
<path d="M680 1110 c17 -22 37 -43 43 -47 6 -4 -6 14 -27 40 -21 26 -40 47 -43 47 -3 0 10 -18 27 -40z"/>
<path d="M760 1015 c19 -19 36 -35 39 -35 3 0 -10 16 -29 35 -19 19 -36 35 -39 35 -3 0 10 -16 29 -35z"/>
<path d="M658 993 c22 -27 50 -57 63 -68 13 -11 -3 10 -36 48 -67 76 -87 91 -27 20z"/>
<path d="M4755 923 c-60 -65 -89 -100 -66 -78 46 43 186 195 179 195 -2 0 -53 -53 -113 -117z"/>
<path d="M4910 958 c-35 -40 -51 -62 -36 -48 30 26 111 120 104 120 -2 0 -33 -33 -68 -72z"/>
<path d="M885 880 c49 -49 92 -90 95 -90 2 0 -36 41 -85 90 -49 50 -92 90 -95 90 -2 0 36 -40 85 -90z"/>
<path d="M4595 768 l-40 -43 43 40 c23 21 42 40 42 42 0 8 -9 0 -45 -39z"/>
<path d="M1020 755 c19 -19 36 -35 39 -35 3 0 -10 16 -29 35 -19 19 -36 35 -39 35 -3 0 10 -16 29 -35z"/>
<path d="M4635 683 c-48 -45 -54 -53 -20 -25 47 38 103 93 94 92 -2 -1 -35 -31 -74 -67z"/>
<path d="M950 695 c19 -19 36 -35 39 -35 3 0 -10 16 -29 35 -19 19 -36 35 -39 35 -3 0 10 -16 29 -35z"/>
<path d="M1073 713 c9 -14 87 -77 87 -70 0 3 -21 22 -47 43 -26 21 -44 33 -40 27z"/>
<path d="M4440 644 c-64 -50 -73 -63 -17 -24 42 30 77 61 66 59 -2 0 -24 -16 -49 -35z"/>
<path d="M1210 606 c0 -2 14 -14 30 -26 17 -12 30 -19 30 -16 0 2 -13 14 -30 26 -16 12 -30 19 -30 16z"/>
<path d="M4317 556 c-59 -41 -73 -55 -29 -30 33 19 91 63 82 63 -3 0 -27 -15 -53 -33z"/>
<path d="M4347 466 c-59 -41 -73 -55 -29 -30 33 19 91 63 82 63 -3 0 -27 -15 -53 -33z"/>
<path d="M1510 416 c0 -3 14 -12 30 -21 17 -9 30 -13 30 -11 0 3 -13 12 -30 21 -16 9 -30 13 -30 11z"/>
<path d="M4010 375 c-36 -19 -61 -34 -57 -35 10 0 127 59 127 65 0 7 2 8 -70 -30z"/>
<path d="M1640 345 c14 -8 30 -14 35 -14 6 0 -1 6 -15 14 -14 8 -29 14 -35 14 -5 0 1 -6 15 -14z"/>
<path d="M2473 103 c9 -2 25 -2 35 0 9 3 1 5 -18 5 -19 0 -27 -2 -17 -5z"/>
<path d="M3103 103 c9 -2 25 -2 35 0 9 3 1 5 -18 5 -19 0 -27 -2 -17 -5z"/>
<path d="M2573 93 c15 -2 37 -2 50 0 12 2 0 4 -28 4 -27 0 -38 -2 -22 -4z"/>
<path d="M2993 93 c15 -2 37 -2 50 0 12 2 0 4 -28 4 -27 0 -38 -2 -22 -4z"/>
<path d="M2753 83 c32 -2 81 -2 110 0 29 2 3 3 -58 3 -60 0 -84 -1 -52 -3z"/>
<path d="M2463 13 c9 -2 25 -2 35 0 9 3 1 5 -18 5 -19 0 -27 -2 -17 -5z"/>
<path d="M3113 13 c9 -2 25 -2 35 0 9 3 1 5 -18 5 -19 0 -27 -2 -17 -5z"/>
<path d="M2563 3 c15 -2 37 -2 50 0 12 2 0 4 -28 4 -27 0 -38 -2 -22 -4z"/>
<path d="M3003 3 c15 -2 37 -2 50 0 12 2 0 4 -28 4 -27 0 -38 -2 -22 -4z"/>
</g>
<g id="layer103" fill="#8c91a5" stroke="none">
<path d="M3008 5623 c12 -2 30 -2 40 0 9 3 -1 5 -23 4 -22 0 -30 -2 -17 -4z"/>
<path d="M2608 5533 c12 -2 32 -2 45 0 12 2 2 4 -23 4 -25 0 -35 -2 -22 -4z"/>
<path d="M2958 5533 c12 -2 32 -2 45 0 12 2 2 4 -23 4 -25 0 -35 -2 -22 -4z"/>
<path d="M4660 4925 c19 -19 36 -35 39 -35 3 0 -10 16 -29 35 -19 19 -36 35 -39 35 -3 0 10 -16 29 -35z"/>
<path d="M994 4848 l-29 -33 33 29 c17 17 32 31 32 33 0 8 -8 1 -36 -29z"/>
<path d="M4620 4835 c19 -19 36 -35 39 -35 3 0 -10 16 -29 35 -19 19 -36 35 -39 35 -3 0 10 -16 29 -35z"/>
<path d="M884 4748 l-29 -33 33 29 c17 17 32 31 32 33 0 8 -8 1 -36 -29z"/>
<path d="M4870 4717 c0 -2 15 -16 33 -33 l32 -29 -29 33 c-28 30 -36 37 -36 29z"/>
<path d="M694 4678 l-29 -33 33 29 c30 28 37 36 29 36 -2 0 -16 -15 -33 -32z"/>
<path d="M4805 4650 c21 -22 41 -40 44 -40 3 0 -13 18 -34 40 -21 22 -41 40 -44 40 -3 0 13 -18 34 -40z"/>
<path d="M774 4628 l-29 -33 33 29 c30 28 37 36 29 36 -2 0 -16 -15 -33 -32z"/>
<path d="M2975 4000 c165 -165 302 -300 305 -300 3 0 -130 135 -295 300 -165 165 -302 300 -305 300 -3 0 130 -135 295 -300z"/>
<path d="M4245 2850 c21 -22 41 -40 44 -40 3 0 -13 18 -34 40 -21 22 -41 40 -44 40 -3 0 13 -18 34 -40z"/>
<path d="M5603 2640 c0 -25 2 -35 4 -22 2 12 2 32 0 45 -2 12 -4 2 -4 -23z"/>
<path d="M3 2615 c0 -22 2 -30 4 -17 2 12 2 30 0 40 -3 9 -5 -1 -4 -23z"/>
<path d="M3265 1698 l-520 -523 523 520 c287 286 522 521 522 522 0 7 -42 -34 -525 -519z"/>
<path d="M3015 1580 c-186 -186 -337 -341 -335 -342 3 -2 158 151 345 340 187 188 337 342 335 342 -3 0 -158 -153 -345 -340z"/>
<path d="M740 1037 c0 -2 15 -16 33 -33 l32 -29 -29 33 c-28 30 -36 37 -36 29z"/>
<path d="M4819 993 l-34 -38 38 34 c20 19 37 36 37 38 0 8 -8 0 -41 -34z"/>
<path d="M4904 948 l-29 -33 33 29 c30 28 37 36 29 36 -2 0 -16 -15 -33 -32z"/>
<path d="M885 880 c33 -33 62 -60 64 -60 3 0 -21 27 -54 60 -33 33 -62 60 -64 60 -3 0 21 -27 54 -60z"/>
<path d="M4714 878 l-29 -33 33 29 c30 28 37 36 29 36 -2 0 -16 -15 -33 -32z"/>
<path d="M4604 778 l-29 -33 33 29 c17 17 32 31 32 33 0 8 -8 1 -36 -29z"/>
<path d="M4644 688 l-29 -33 33 29 c30 28 37 36 29 36 -2 0 -16 -15 -33 -32z"/>
<path d="M2588 93 c12 -2 30 -2 40 0 9 3 -1 5 -23 4 -22 0 -30 -2 -17 -4z"/>
<path d="M2988 93 c12 -2 30 -2 40 0 9 3 -1 5 -23 4 -22 0 -30 -2 -17 -4z"/>
<path d="M3023 3 c9 -2 25 -2 35 0 9 3 1 5 -18 5 -19 0 -27 -2 -17 -5z"/>
</g>
<g id="layer104" fill="#c0c2ca" stroke="none">
<path d="M2563 5623 c9 -2 25 -2 35 0 9 3 1 5 -18 5 -19 0 -27 -2 -17 -5z"/>
<path d="M3013 5623 c9 -2 25 -2 35 0 9 3 1 5 -18 5 -19 0 -27 -2 -17 -5z"/>
<path d="M2618 5533 c12 -2 30 -2 40 0 9 3 -1 5 -23 4 -22 0 -30 -2 -17 -4z"/>
<path d="M2958 5533 c12 -2 30 -2 40 0 9 3 -1 5 -23 4 -22 0 -30 -2 -17 -4z"/>
<path d="M820 4813 l-65 -68 68 65 c62 60 72 70 64 70 -1 0 -32 -30 -67 -67z"/>
<path d="M4600 4857 c0 -2 15 -16 33 -33 l32 -29 -29 33 c-28 30 -36 37 -36 29z"/>
<path d="M4780 4818 c41 -45 50 -53 50 -45 0 2 -21 23 -47 47 l-48 45 45 -47z"/>
<path d="M4770 4687 c0 -2 15 -16 33 -33 l32 -29 -29 33 c-28 30 -36 37 -36 29z"/>
<path d="M3220 3885 c261 -261 477 -475 480 -475 3 0 -209 214 -470 475 -261 261 -477 475 -480 475 -3 0 209 -214 470 -475z"/>
<path d="M2725 4250 c27 -27 51 -50 54 -50 3 0 -17 23 -44 50 -27 28 -51 50 -54 50 -3 0 17 -22 44 -50z"/>
<path d="M3965 3000 c104 -104 192 -190 195 -190 3 0 -81 86 -185 190 -104 105 -192 190 -195 190 -3 0 81 -85 185 -190z"/>
<path d="M3 3015 c0 -22 2 -30 4 -17 2 12 2 30 0 40 -3 9 -5 -1 -4 -23z"/>
<path d="M5603 2990 c0 -25 2 -35 4 -22 2 12 2 32 0 45 -2 12 -4 2 -4 -23z"/>
<path d="M93 2965 c0 -27 2 -38 4 -22 2 15 2 37 0 50 -2 12 -4 0 -4 -28z"/>
<path d="M5513 2930 c0 -36 2 -50 4 -32 2 17 2 47 0 65 -2 17 -4 3 -4 -33z"/>
<path d="M5513 2700 c0 -36 2 -50 4 -32 2 17 2 47 0 65 -2 17 -4 3 -4 -33z"/>
<path d="M4010 2583 l-145 -148 148 145 c137 134 152 150 144 150 -1 0 -67 -66 -147 -147z"/>
<path d="M93 2665 c0 -27 2 -38 4 -22 2 15 2 37 0 50 -2 12 -4 0 -4 -28z"/>
<path d="M5603 2635 c0 -22 2 -30 4 -17 2 12 2 30 0 40 -3 9 -5 -1 -4 -23z"/>
<path d="M2 2610 c0 -19 2 -27 5 -17 2 9 2 25 0 35 -3 9 -5 1 -5 -18z"/>
<path d="M3280 1713 l-505 -508 508 505 c279 278 507 506 507 507 0 7 -41 -33 -510 -504z"/>
<path d="M2765 1328 l-90 -93 93 90 c85 83 97 95 89 95 -1 0 -43 -42 -92 -92z"/>
<path d="M820 815 c47 -47 87 -85 90 -85 2 0 -33 38 -80 85 -47 47 -87 85 -90 85 -2 0 33 -38 80 -85z"/>
<path d="M4780 813 l-65 -68 68 65 c37 35 67 66 67 67 0 8 -10 -2 -70 -64z"/>
<path d="M2593 93 c9 -2 25 -2 35 0 9 3 1 5 -18 5 -19 0 -27 -2 -17 -5z"/>
<path d="M2983 93 c9 -2 25 -2 35 0 9 3 1 5 -18 5 -19 0 -27 -2 -17 -5z"/>
</g>


</svg>