<?xml version="1.0" encoding="utf-8"?>
<!-- Generator: Adobe Illustrator 23.0.4, SVG Export Plug-In . SVG Version: 6.00 Build 0)  -->
<svg version="1.1" id="Layer_1" xmlns="http://www.w3.org/2000/svg" xmlns:xlink="http://www.w3.org/1999/xlink" x="0px" y="0px"
	 viewBox="0 0 18.4 19.4" style="enable-background:new 0 0 18.4 19.4;" xml:space="preserve">
<style type="text/css">
	.st0{fill:none;stroke:#232F5D;stroke-linecap:round;stroke-linejoin:round;}
</style>
<title>Icones</title>
<path class="st0" d="M3.7,13.8H2.5c-1.1,0-2-0.9-2-2V6.4c0-1.1,0.9-2,2-2h13.4c1.1,0,2,0.9,2,2v5.3c0,1.1-0.9,2-2,2h-1.3"/>
<path class="st0" d="M5.6,0.5h7.2c1.1,0,2,0.9,2,2v2l0,0H3.6l0,0v-2C3.6,1.4,4.5,0.5,5.6,0.5z"/>
<line class="st0" x1="2.5" y1="11.5" x2="15.9" y2="11.5"/>
<path class="st0" d="M3.8,11.5h10.7l0,0v6.4c0,0.6-0.4,1-1,1H4.8c-0.6,0-1-0.4-1-1V11.5L3.8,11.5z"/>
<line class="st0" x1="5.4" y1="14.1" x2="12.9" y2="14.1"/>
<line class="st0" x1="5.4" y1="16.3" x2="12.9" y2="16.3"/>
<line class="st0" x1="14.1" y1="6.6" x2="15.8" y2="6.6"/>
</svg>
