<?xml version="1.0" encoding="UTF-8" standalone="no"?>
<!-- Generator: Adobe Illustrator 23.0.4, SVG Export Plug-In . SVG Version: 6.00 Build 0)  -->

<svg
   xmlns:dc="http://purl.org/dc/elements/1.1/"
   xmlns:cc="http://creativecommons.org/ns#"
   xmlns:rdf="http://www.w3.org/1999/02/22-rdf-syntax-ns#"
   xmlns:svg="http://www.w3.org/2000/svg"
   xmlns="http://www.w3.org/2000/svg"
   xmlns:sodipodi="http://sodipodi.sourceforge.net/DTD/sodipodi-0.dtd"
   xmlns:inkscape="http://www.inkscape.org/namespaces/inkscape"
   version="1.1"
   id="Layer_1"
   x="0px"
   y="0px"
   viewBox="0 0 26.2 23.2"
   style="enable-background:new 0 0 26.2 23.2;"
   xml:space="preserve"
   sodipodi:docname="prociv_warning_3.svg"
   inkscape:version="0.92.4 (f8dce91, 2019-08-02)"><metadata
   id="metadata898"><rdf:RDF><cc:Work
       rdf:about=""><dc:format>image/svg+xml</dc:format><dc:type
         rdf:resource="http://purl.org/dc/dcmitype/StillImage" /></cc:Work></rdf:RDF></metadata><defs
   id="defs896" /><sodipodi:namedview
   pagecolor="#ffffff"
   bordercolor="#666666"
   borderopacity="1"
   objecttolerance="10"
   gridtolerance="10"
   guidetolerance="10"
   inkscape:pageopacity="0"
   inkscape:pageshadow="2"
   inkscape:window-width="3440"
   inkscape:window-height="1440"
   id="namedview894"
   showgrid="false"
   inkscape:zoom="51.681033"
   inkscape:cx="13.1"
   inkscape:cy="11.6"
   inkscape:window-x="0"
   inkscape:window-y="0"
   inkscape:window-maximized="1"
   inkscape:current-layer="Layer_1" />
<style
   type="text/css"
   id="style885">
	.st0{fill:#E1261D;}
</style>
<title
   id="title887">Icones Homepage</title>
<path
   class="st0"
   d="m 13.6,15.7 h -1 L 12.1,5.5 h 2 z"
   id="path889"
   inkscape:connector-curvature="0"
   style="fill:#f96730;fill-opacity:1"
   sodipodi:nodetypes="ccccc" />
<path
   class="st0"
   d="M13.1,0.7c0.5,0,0.9,0.2,1.2,0.7l11,19.1c0.4,0.6,0.1,1.5-0.5,1.8c-0.2,0.1-0.4,0.2-0.7,0.2h-22  c-0.7,0-1.3-0.6-1.3-1.3c0-0.2,0.1-0.5,0.2-0.7l11-19.1C12.2,1,12.6,0.7,13.1,0.7 M13.1,0c-0.7,0-1.4,0.4-1.8,1l-11,19.1  c-0.6,1-0.2,2.3,0.8,2.8c0.3,0.2,0.7,0.3,1,0.3h22c1.1,0,2.1-0.9,2.1-2.1c0-0.4-0.1-0.7-0.3-1L14.9,1C14.5,0.4,13.8,0,13.1,0z"
   id="path891" />
<circle
   style="fill:#f96730;fill-opacity:1;stroke:none;stroke-opacity:1"
   id="path900"
   cy="18.71092"
   cx="13.099584"
   r="1.3351126" /></svg>