<?xml version="1.0" encoding="UTF-8" standalone="no"?>
<svg
   xmlns:dc="http://purl.org/dc/elements/1.1/"
   xmlns:cc="http://creativecommons.org/ns#"
   xmlns:rdf="http://www.w3.org/1999/02/22-rdf-syntax-ns#"
   xmlns:svg="http://www.w3.org/2000/svg"
   xmlns="http://www.w3.org/2000/svg"
   xml:space="preserve"
   style="enable-background:new 0 0 26.2 23.2;"
   viewBox="0 0 26.2 23.2"
   y="0px"
   x="0px"
   id="Layer_1"
   version="1.1"><metadata
   id="metadata898"><rdf:RDF><cc:Work
       rdf:about=""><dc:format>image/svg+xml</dc:format><dc:type
         rdf:resource="http://purl.org/dc/dcmitype/StillImage" /><dc:title>Icones Homepage</dc:title></cc:Work></rdf:RDF></metadata><defs
   id="defs896" />
<style
   id="style885"
   type="text/css">
	.st0{fill:#E1261D;}
</style>
<title
   id="title887">Icones Homepage</title>
<path
   style="fill:#fffb4e;fill-opacity:1"
   id="path889"
   d="m 13.6,15.7 h -1 L 12.1,5.5 h 2 z"
   class="st0" />
<path
   style="fill:#fffb4e;fill-opacity:1"
   id="path891"
   d="M13.1,0.7c0.5,0,0.9,0.2,1.2,0.7l11,19.1c0.4,0.6,0.1,1.5-0.5,1.8c-0.2,0.1-0.4,0.2-0.7,0.2h-22  c-0.7,0-1.3-0.6-1.3-1.3c0-0.2,0.1-0.5,0.2-0.7l11-19.1C12.2,1,12.6,0.7,13.1,0.7 M13.1,0c-0.7,0-1.4,0.4-1.8,1l-11,19.1  c-0.6,1-0.2,2.3,0.8,2.8c0.3,0.2,0.7,0.3,1,0.3h22c1.1,0,2.1-0.9,2.1-2.1c0-0.4-0.1-0.7-0.3-1L14.9,1C14.5,0.4,13.8,0,13.1,0z"
   class="st0" />
<circle
   r="1.3351126"
   cx="13.099584"
   cy="18.71092"
   id="path900"
   style="fill:#fffb4e;fill-opacity:1;stroke:none;stroke-opacity:1" /></svg>