<?xml version="1.0" encoding="utf-8"?>
<!-- Generator: Adobe Illustrator 24.1.3, SVG Export Plug-In . SVG Version: 6.00 Build 0)  -->
<svg version="1.1" id="Layer_1" xmlns="http://www.w3.org/2000/svg" xmlns:xlink="http://www.w3.org/1999/xlink" x="0px" y="0px"
	 viewBox="0 0 25 25" style="enable-background:new 0 0 25 25;" xml:space="preserve">
<style type="text/css">
	.st0{fill:#222E5E;}
	.st1{fill:#FFFFFF;}
	.st2{fill:#EBBB10;}
	.st3{fill:#666666;}
	.st4{fill:#808080;}
	.st5{fill:#277FB6;}
	.st6{fill:#22AF80;}
	.st7{fill:none;stroke:#222E5E;stroke-linecap:round;stroke-linejoin:round;stroke-miterlimit:10;}
	.st8{fill:#BEBEBE;}
	.st9{fill:#1E3565;}
	.st10{clip-path:url(#SVGID_2_);}
	.st11{fill:none;stroke:#222E5E;stroke-miterlimit:10;}
	.st12{fill:#A5A5A5;}
	.st13{fill:#C0C0C0;}
	.st14{opacity:0.1;}
	.st15{fill:none;stroke:#FFFFFF;stroke-width:0.5;stroke-linecap:round;stroke-linejoin:round;stroke-miterlimit:10;}
</style>
<path class="st0" d="M5.74,12.27c0.67-0.49,1.11-1.27,1.11-2.15c0-1.48-1.24-2.69-2.76-2.69c-1.52,0-2.76,1.21-2.76,2.69
	c0,0.88,0.44,1.65,1.11,2.14C1.01,12.88,0,14.28,0,15.9v0.54c0,0.24,0.1,0.47,0.27,0.64s0.4,0.24,0.65,0.26h6.33
	c0.01,0,0.01,0,0.02,0c0.49,0,0.89-0.39,0.9-0.91V15.9C8.17,14.28,7.17,12.89,5.74,12.27z M4.09,8.43c0.97,0,1.76,0.76,1.76,1.69
	s-0.79,1.69-1.76,1.69s-1.76-0.76-1.76-1.69S3.12,8.43,4.09,8.43z M7.17,16.35H1V15.9c0-1.64,1.38-2.97,3.09-2.97
	c1.7,0,3.09,1.33,3.09,2.97V16.35z"/>
<path class="st0" d="M22.56,17.76c0.67-0.49,1.11-1.27,1.11-2.15c0-1.48-1.24-2.69-2.76-2.69c-1.52,0-2.76,1.21-2.76,2.69
	c0,0.88,0.44,1.65,1.11,2.14c-1.43,0.62-2.44,2.01-2.44,3.63v0.54c0,0.24,0.1,0.47,0.27,0.64c0.17,0.17,0.4,0.26,0.65,0.26
	c0,0,0,0,0,0h6.33c0.01,0,0.01,0,0.02,0c0.49,0,0.89-0.39,0.9-0.91v-0.54C25,19.76,24,18.37,22.56,17.76z M20.92,13.92
	c0.97,0,1.76,0.76,1.76,1.69c0,0.93-0.79,1.69-1.76,1.69s-1.76-0.76-1.76-1.69C19.16,14.68,19.95,13.92,20.92,13.92z M24,21.83
	h-6.17v-0.45c0-1.64,1.38-2.97,3.09-2.97c1.7,0,3.09,1.33,3.09,2.97V21.83z"/>
<path class="st0" d="M22.56,7.05c0.67-0.49,1.11-1.27,1.11-2.15c0-1.48-1.24-2.69-2.76-2.69c-1.52,0-2.76,1.21-2.76,2.69
	c0,0.88,0.44,1.65,1.11,2.14c-1.43,0.62-2.44,2.01-2.44,3.63v0.54c0,0.24,0.1,0.47,0.27,0.64c0.17,0.17,0.4,0.26,0.65,0.26
	c0,0,0,0,0,0h6.33c0.01,0,0.01,0,0.02,0c0.49,0,0.89-0.39,0.9-0.91v-0.54C25,9.06,24,7.67,22.56,7.05z M20.92,3.22
	c0.97,0,1.76,0.76,1.76,1.69S21.89,6.6,20.92,6.6s-1.76-0.76-1.76-1.69S19.95,3.22,20.92,3.22z M24,11.13h-6.17v-0.45
	c0-1.64,1.38-2.97,3.09-2.97c1.7,0,3.09,1.33,3.09,2.97V11.13z"/>
<path class="st0" d="M14.87,19.62H12.6v-9.7h2.26c0.28,0,0.5-0.22,0.5-0.5s-0.22-0.5-0.5-0.5H12.1c-0.28,0-0.5,0.22-0.5,0.5v4.85
	H9.69c-0.28,0-0.5,0.22-0.5,0.5s0.22,0.5,0.5,0.5h1.92v4.85c0,0.28,0.22,0.5,0.5,0.5h2.76c0.28,0,0.5-0.22,0.5-0.5
	S15.15,19.62,14.87,19.62z"/>
</svg>
