<?xml version="1.0" encoding="UTF-8" standalone="no"?>
<svg
   xmlns:dc="http://purl.org/dc/elements/1.1/"
   xmlns:cc="http://creativecommons.org/ns#"
   xmlns:rdf="http://www.w3.org/1999/02/22-rdf-syntax-ns#"
   xmlns:svg="http://www.w3.org/2000/svg"
   xmlns="http://www.w3.org/2000/svg"
   xmlns:sodipodi="http://sodipodi.sourceforge.net/DTD/sodipodi-0.dtd"
   xmlns:inkscape="http://www.inkscape.org/namespaces/inkscape"
   viewBox="0 0 448 512"
   version="1.1"
   id="svg4"
   sodipodi:docname="Font_Awesome_5_regular_bell.svg"
   inkscape:version="1.0.1 (3bc2e813f5, 2020-09-07)">
  <metadata
     id="metadata10">
    <rdf:RDF>
      <cc:Work
         rdf:about="">
        <dc:format>image/svg+xml</dc:format>
        <dc:type
           rdf:resource="http://purl.org/dc/dcmitype/StillImage" />
      </cc:Work>
    </rdf:RDF>
  </metadata>
  <defs
     id="defs8" />
  <sodipodi:namedview
     pagecolor="#ffffff"
     bordercolor="#666666"
     borderopacity="1"
     objecttolerance="10"
     gridtolerance="10"
     guidetolerance="10"
     inkscape:pageopacity="0"
     inkscape:pageshadow="2"
     inkscape:window-width="1839"
     inkscape:window-height="921"
     id="namedview6"
     showgrid="false"
     inkscape:zoom="1.7109375"
     inkscape:cx="224"
     inkscape:cy="209.24201"
     inkscape:window-x="72"
     inkscape:window-y="29"
     inkscape:window-maximized="0"
     inkscape:current-layer="svg4" />
  <path
     d="M 439.39,362.29 C 420.07,341.53 383.92,310.3 383.92,208 383.92,130.3 329.44,68.1 255.98,52.84 V 32 C 255.98,14.33 241.66,0 224,0 206.34,0 192.02,14.33 192.02,32 V 52.84 C 118.56,68.1 64.08,130.3 64.08,208 c 0,102.3 -36.15,133.53 -55.47,154.29 -6,6.45 -8.66,14.16 -8.61,21.71 0.11,16.4 12.98,32 32.1,32 h 383.8 c 19.12,0 32,-15.6 32.1,-32 0.05,-7.55 -2.61,-15.27 -8.61,-21.71 z M 67.53,368 c 21.22,-27.97 44.42,-74.33 44.53,-159.42 0,-0.2 -0.06,-0.38 -0.06,-0.58 0,-61.86 50.14,-112 112,-112 61.86,0 112,50.14 112,112 0,0.2 -0.06,0.38 -0.06,0.58 0.11,85.1 23.31,131.46 44.53,159.42 z M 224,512 c 35.32,0 63.97,-28.65 63.97,-64 H 160.03 c 0,35.35 28.65,64 63.97,64 z"
     id="path2"
     style="fill:#ffffff;fill-opacity:1" />
</svg>
