<?xml version="1.0" encoding="utf-8"?>
<!-- Generator: Adobe Illustrator 24.1.3, SVG Export Plug-In . SVG Version: 6.00 Build 0)  -->
<svg version="1.1" id="Layer_1" xmlns="http://www.w3.org/2000/svg" xmlns:xlink="http://www.w3.org/1999/xlink" x="0px" y="0px"
	 viewBox="0 0 55 55" style="enable-background:new 0 0 55 55;" xml:space="preserve">
<style type="text/css">
	.st0{fill:#222E5E;}
	.st1{fill:#FFFFFF;}
	.st2{fill:#EBBB10;}
	.st3{fill:#666666;}
	.st4{fill:#808080;}
	.st5{fill:#277FB6;}
	.st6{fill:#22AF80;}
	.st7{fill:none;stroke:#222E5E;stroke-linecap:round;stroke-linejoin:round;stroke-miterlimit:10;}
	.st8{fill:#BEBEBE;}
	.st9{fill:#1E3565;}
	.st10{clip-path:url(#SVGID_2_);}
	.st11{fill:none;stroke:#222E5E;stroke-miterlimit:10;}
	.st12{fill:#A5A5A5;}
	.st13{fill:#C0C0C0;}
	.st14{opacity:0.1;}
	.st15{fill:none;stroke:#FFFFFF;stroke-width:0.5;stroke-linecap:round;stroke-linejoin:round;stroke-miterlimit:10;}
</style>
<g>
	<g>
		<path class="st0" d="M53.99,25.52c-0.41-5.71-2.6-11.03-6.34-15.38l0.76-0.65c3.88,4.51,6.15,10.03,6.58,15.96L53.99,25.52z"/>
	</g>
	<g>
		<path class="st0" d="M35.81,2.32c-5.18-1.71-10.93-1.76-16.13-0.16l-0.29-0.96c5.41-1.66,11.36-1.61,16.74,0.17L35.81,2.32z"/>
	</g>
	<g>
		<path class="st0" d="M1.01,25.44l-1-0.07c0.44-5.89,2.71-11.38,6.57-15.88l0.76,0.65C3.62,14.47,1.43,19.76,1.01,25.44z"/>
	</g>
	<g>
		<path class="st0" d="M6.51,45.31c-3.8-4.45-6.04-9.89-6.49-15.71l1-0.08c0.43,5.61,2.6,10.85,6.26,15.14L6.51,45.31z"/>
	</g>
	<g>
		<path class="st0" d="M27.5,55c-6.63,0-13.04-2.39-18.04-6.73l0.65-0.76C14.93,51.7,21.11,54,27.5,54c6.3,0,12.41-2.25,17.21-6.32
			l0.65,0.76C40.38,52.67,34.04,55,27.5,55z"/>
	</g>
	<g>
		<path class="st0" d="M48.38,45.42l-0.76-0.65c3.76-4.36,5.96-9.69,6.37-15.42l1,0.07C54.57,35.37,52.28,40.9,48.38,45.42z"/>
	</g>
	<g>
		<path class="st0" d="M6.79,25.45l-1-0.09c0.41-4.31,2.08-8.36,4.82-11.71l0.77,0.63C8.77,17.48,7.18,21.34,6.79,25.45z"/>
	</g>
	<g>
		<path class="st0" d="M10.71,41.34c-2.82-3.4-4.52-7.52-4.92-11.92l1-0.09c0.38,4.19,2,8.12,4.69,11.37L10.71,41.34z"/>
	</g>
	<g>
		<path class="st0" d="M27.5,49.24c-5.05,0-9.97-1.76-13.85-4.97l0.64-0.77c3.71,3.06,8.4,4.74,13.22,4.74
			c4.83,0,9.54-1.7,13.26-4.77l0.64,0.77C37.5,47.46,32.56,49.24,27.5,49.24z"/>
	</g>
	<g>
		<path class="st0" d="M44.29,41.34l-0.77-0.64c2.69-3.25,4.31-7.18,4.69-11.37l1,0.09C48.81,33.81,47.11,37.93,44.29,41.34z"/>
	</g>
	<g>
		<path class="st0" d="M48.19,25.31c-0.41-4.07-2.01-7.9-4.62-11.08l0.77-0.63c2.73,3.32,4.41,7.34,4.84,11.61L48.19,25.31z"/>
	</g>
	<g>
		<path class="st0" d="M15.45,9.42L14.87,8.6c1.18-0.82,2.45-1.53,3.77-2.1l0.4,0.92C17.78,7.96,16.57,8.63,15.45,9.42z"/>
	</g>
	<g>
		<path class="st0" d="M12.27,25.47l-0.99-0.13c0.38-2.92,1.54-5.69,3.36-8l0.79,0.62C13.72,20.13,12.62,22.73,12.27,25.47z"/>
	</g>
	<g>
		<path class="st0" d="M14.65,37.55c-1.81-2.3-2.97-5.04-3.36-7.93l0.99-0.13c0.36,2.71,1.45,5.29,3.15,7.44L14.65,37.55z"/>
	</g>
	<g>
		<path class="st0" d="M27.5,43.79c-3.66,0-7.12-1.18-10.01-3.42l0.61-0.79c2.71,2.1,5.96,3.21,9.39,3.21c3.39,0,6.61-1.08,9.3-3.13
			l0.61,0.79C34.53,42.63,31.11,43.79,27.5,43.79z"/>
	</g>
	<g>
		<path class="st0" d="M40.34,37.55l-0.79-0.62c1.7-2.16,2.79-4.73,3.15-7.44l0.99,0.13C43.32,32.51,42.15,35.25,40.34,37.55z"/>
	</g>
	<g>
		<path class="st0" d="M42.7,25.33c-0.37-2.69-1.45-5.24-3.14-7.38l0.79-0.62c1.79,2.28,2.95,5,3.34,7.86L42.7,25.33z"/>
	</g>
	<g>
		<path class="st0" d="M25.41,12.23l-0.13-0.99c1.43-0.2,2.93-0.2,4.35-0.01l-0.13,0.99C28.17,12.04,26.75,12.05,25.41,12.23z"/>
	</g>
	<g>
		<path class="st0" d="M40.13,9.72c-1.2-0.9-2.5-1.67-3.87-2.28l0.41-0.91c1.43,0.65,2.8,1.45,4.06,2.39L40.13,9.72z"/>
	</g>
</g>
</svg>
