<?xml version="1.0" encoding="utf-8"?>
<!-- Generator: Adobe Illustrator 24.1.3, SVG Export Plug-In . SVG Version: 6.00 Build 0)  -->
<svg version="1.1" id="Layer_1" xmlns="http://www.w3.org/2000/svg" xmlns:xlink="http://www.w3.org/1999/xlink" x="0px" y="0px"
	 viewBox="0 0 50 50" style="enable-background:new 0 0 50 50;" xml:space="preserve">
<style type="text/css">
	.st0{fill:#222E5E;}
	.st1{fill:#FFFFFF;}
	.st2{fill:#EBBB10;}
	.st3{fill:#666666;}
	.st4{fill:#808080;}
	.st5{fill:#277FB6;}
	.st6{fill:#22AF80;}
	.st7{fill:none;stroke:#222E5E;stroke-linecap:round;stroke-linejoin:round;stroke-miterlimit:10;}
	.st8{fill:#BEBEBE;}
	.st9{fill:#1E3565;}
	.st10{clip-path:url(#SVGID_2_);}
	.st11{fill:none;stroke:#222E5E;stroke-miterlimit:10;}
	.st12{fill:#A5A5A5;}
	.st13{fill:#C0C0C0;}
	.st14{opacity:0.1;}
	.st15{fill:none;stroke:#FFFFFF;stroke-width:0.5;stroke-linecap:round;stroke-linejoin:round;stroke-miterlimit:10;}
</style>
<path class="st0" d="M32.73,15.47c-3.26,0-6.3,0.92-8.9,2.5L17.58,0.87C17.37,0.34,16.86,0,16.28,0c-0.58,0-1.08,0.34-1.3,0.88
	L5.55,26.64H3.67C1.65,26.64,0,28.28,0,30.3v0.82h15.55c-0.05,0.53-0.08,1.06-0.08,1.61c0,9.52,7.75,17.27,17.27,17.27
	S50,42.25,50,32.73S42.25,15.47,32.73,15.47z M32.72,37.65l-4.58-3.53l1.66-5.52h5.88l1.66,5.45L32.72,37.65z M18.79,24.4l7.07-1.46
	l3.02,5.23l-1.72,5.73l-5.13,1.27l-5.32-5.2C17.07,27.96,17.78,26.08,18.79,24.4z M28.81,16.97l-3.01,4.96l-6.23,1.29
	C21.79,20.16,25.03,17.91,28.81,16.97z M43.59,35.23l-4.21-1.12l-1.08-0.29l-1.72-5.65l2.13-3.69l0.9-1.56l6.84,1.1
	c1.11,1.74,1.89,3.69,2.27,5.79L43.59,35.23z M45.65,22.88l-5.99-0.97l-2.96-4.94C40.31,17.89,43.45,20,45.65,22.88z M35.37,16.7
	l3.4,5.68l-0.89,1.54l-2.13,3.68h-6.04l-3.02-5.22l3.44-5.69c0.85-0.14,1.71-0.23,2.59-0.23C33.63,16.47,34.51,16.56,35.37,16.7z
	 M21.23,19.9h-8.69l2.56-7h5.81l2.05,5.61C22.35,18.93,21.78,19.4,21.23,19.9z M11.48,19.9H9.09l2.56-7h2.39L11.48,19.9z
	 M15.91,1.24C16,1.02,16.22,1,16.28,1s0.28,0.02,0.36,0.23l3.91,10.67h-5.08l0.79-2.17l-0.94-0.34L14.4,11.9h-2.39L15.91,1.24z
	 M8.72,20.9h2.39l-1.2,3.28l0.94,0.34l1.33-3.63h8.02c-1.55,1.64-2.78,3.59-3.6,5.74H6.62L8.72,20.9z M1.01,30.13
	c0.09-1.39,1.25-2.49,2.66-2.49h1.52h11.05c-0.25,0.8-0.42,1.64-0.55,2.49H1.01z M16.54,31.19l4.67,4.57l-1.4,6.83
	c-2.09-2.74-3.35-6.15-3.35-9.85C16.47,32.21,16.5,31.7,16.54,31.19z M20.64,43.57l1.51-7.4l5.3-1.31l4.76,3.67l-0.08,1.88
	l-0.12,3.02l-6.33,3.95C23.76,46.44,22.05,45.15,20.64,43.57z M26.79,47.86l5.7-3.56l5.55,3.79c-1.67,0.58-3.44,0.91-5.3,0.91
	C30.63,49,28.63,48.59,26.79,47.86z M39.18,47.66l-6.17-4.22l0.13-3.12l0.07-1.79l4.81-3.76l5.28,1.41l1.08,7.89
	C42.9,45.58,41.14,46.81,39.18,47.66z M45.25,43.11l-0.98-7.15l4.64-4.89c0.06,0.55,0.09,1.11,0.09,1.67
	C49,36.67,47.59,40.29,45.25,43.11z"/>
</svg>
