<?xml version="1.0" encoding="utf-8"?>
<!-- Generator: Adobe Illustrator 24.1.3, SVG Export Plug-In . SVG Version: 6.00 Build 0)  -->
<svg version="1.1" id="Layer_1" xmlns="http://www.w3.org/2000/svg" xmlns:xlink="http://www.w3.org/1999/xlink" x="0px" y="0px"
	 viewBox="0 0 50 50" style="enable-background:new 0 0 50 50;" xml:space="preserve">
<style type="text/css">
	.st0{fill:#222E5E;}
	.st1{fill:#FFFFFF;}
	.st2{fill:#EBBB10;}
	.st3{fill:#666666;}
	.st4{fill:#808080;}
	.st5{fill:#277FB6;}
	.st6{fill:#22AF80;}
	.st7{fill:none;stroke:#222E5E;stroke-linecap:round;stroke-linejoin:round;stroke-miterlimit:10;}
	.st8{fill:#BEBEBE;}
	.st9{fill:#1E3565;}
	.st10{clip-path:url(#SVGID_2_);}
	.st11{fill:none;stroke:#222E5E;stroke-miterlimit:10;}
	.st12{fill:#A5A5A5;}
	.st13{fill:#C0C0C0;}
	.st14{opacity:0.1;}
	.st15{fill:none;stroke:#FFFFFF;stroke-width:0.5;stroke-linecap:round;stroke-linejoin:round;stroke-miterlimit:10;}
</style>
<g>
	<g>
		<path class="st0" d="M21.32,32.25c-1,0-1.81-0.81-1.81-1.81s0.81-1.81,1.81-1.81s1.81,0.81,1.81,1.81S22.32,32.25,21.32,32.25z
			 M21.32,29.64c-0.45,0-0.81,0.36-0.81,0.81c0,0.45,0.36,0.81,0.81,0.81c0.45,0,0.81-0.36,0.81-0.81
			C22.13,30,21.77,29.64,21.32,29.64z"/>
	</g>
	<g>
		<g>
			<g>
				<path class="st0" d="M9.54,50C4.28,50,0,45.72,0,40.46s4.28-9.54,9.54-9.54s9.54,4.28,9.54,9.54S14.81,50,9.54,50z M9.54,31.91
					C4.83,31.91,1,35.74,1,40.46S4.83,49,9.54,49s8.54-3.83,8.54-8.54S14.26,31.91,9.54,31.91z"/>
			</g>
		</g>
		<g>
			<g>
				<path class="st0" d="M9.54,46.67c-3.42,0-6.21-2.79-6.21-6.21s2.79-6.21,6.21-6.21c3.43,0,6.21,2.79,6.21,6.21
					S12.97,46.67,9.54,46.67z M9.54,35.24c-2.87,0-5.21,2.34-5.21,5.21s2.34,5.21,5.21,5.21s5.21-2.34,5.21-5.21
					S12.42,35.24,9.54,35.24z"/>
			</g>
		</g>
		<g>
			<g>
				<path class="st0" d="M33.1,50c-5.26,0-9.54-4.28-9.54-9.54s4.28-9.54,9.54-9.54s9.54,4.28,9.54,9.54S38.37,50,33.1,50z
					 M33.1,31.91c-4.71,0-8.54,3.83-8.54,8.54S28.39,49,33.1,49s8.54-3.83,8.54-8.54S37.82,31.91,33.1,31.91z"/>
			</g>
		</g>
		<g>
			<g>
				<path class="st0" d="M33.1,46.67c-3.42,0-6.21-2.79-6.21-6.21s2.79-6.21,6.21-6.21s6.21,2.79,6.21,6.21S36.53,46.67,33.1,46.67z
					 M33.1,35.24c-2.87,0-5.21,2.34-5.21,5.21s2.34,5.21,5.21,5.21s5.21-2.34,5.21-5.21S35.98,35.24,33.1,35.24z"/>
			</g>
		</g>
		<g>
			<g>
				<path class="st0" d="M30.87,41.74h-1c0-2.49,2.03-4.52,4.52-4.52v1C32.45,38.22,30.87,39.8,30.87,41.74z"/>
			</g>
		</g>
		<g>
			<path class="st0" d="M7.31,41.74h-1c0-2.49,2.03-4.52,4.52-4.52v1C8.89,38.22,7.31,39.8,7.31,41.74z"/>
		</g>
		<g>
			<path class="st0" d="M23.4,38.1h-4.15l-0.06-0.44c-0.43-3.43-2.72-6.29-5.96-7.48l-1.47-0.54l1.51-0.41
				c0.73-0.2,2.29-0.49,2.74-0.57c0.54-0.41,3.01-2.19,5.31-2.19c2.3,0,4.8,1.79,5.32,2.19l4.43,0.91l-1.66,0.6
				c-3.24,1.18-5.53,4.05-5.97,7.48L23.4,38.1z M20.12,37.1h2.41c0.53-3.09,2.42-5.72,5.12-7.2l-1.43-0.29l-0.09-0.07
				c-0.03-0.02-2.61-2.05-4.8-2.05s-4.76,2.03-4.79,2.05l-0.1,0.08l-0.12,0.02c-0.01,0-0.64,0.11-1.33,0.25
				C17.69,31.36,19.59,34,20.12,37.1z"/>
		</g>
	</g>
</g>
<g>
	<g>
		<polygon class="st0" points="50,36.62 44.13,34.7 44.45,33.75 49,35.24 49,5.81 34.98,1.22 20.45,5.97 6.43,1.38 6.43,28.18 
			5.43,28.18 5.43,0 20.45,4.92 34.98,0.16 50,5.08 		"/>
	</g>
	<g>
		<rect x="19.95" y="5.45" class="st0" width="1" height="19.49"/>
	</g>
	<g>
		<rect x="34.48" y="0.69" class="st0" width="1" height="26.49"/>
	</g>
</g>
</svg>
