<?xml version="1.0" encoding="utf-8"?>
<!-- Generator: Adobe Illustrator 24.1.3, SVG Export Plug-In . SVG Version: 6.00 Build 0)  -->
<svg version="1.1" id="Layer_1" xmlns="http://www.w3.org/2000/svg" xmlns:xlink="http://www.w3.org/1999/xlink" x="0px" y="0px"
	 viewBox="0 0 50 50" style="enable-background:new 0 0 50 50;" xml:space="preserve">
<style type="text/css">
	.st0{fill:#222E5E;}
	.st1{fill:#FFFFFF;}
	.st2{fill:#EBBB10;}
	.st3{fill:#666666;}
	.st4{fill:#808080;}
	.st5{fill:#277FB6;}
	.st6{fill:#22AF80;}
	.st7{fill:none;stroke:#222E5E;stroke-linecap:round;stroke-linejoin:round;stroke-miterlimit:10;}
	.st8{fill:#BEBEBE;}
	.st9{fill:#1E3565;}
	.st10{clip-path:url(#SVGID_2_);}
	.st11{fill:none;stroke:#222E5E;stroke-miterlimit:10;}
	.st12{fill:#A5A5A5;}
	.st13{fill:#C0C0C0;}
	.st14{opacity:0.1;}
	.st15{fill:none;stroke:#FFFFFF;stroke-width:0.5;stroke-linecap:round;stroke-linejoin:round;stroke-miterlimit:10;}
</style>
<g>
	<path class="st0" d="M18.17,37.79c-0.5-3.83,2.63-6.92,2.66-6.95l-0.69-0.72c-0.14,0.13-3.12,3.06-3.03,6.99
		c-1.33-0.64-2.49-0.51-2.55-0.5l0.13,0.99c0.07-0.01,1.58-0.17,2.97,1.06c1.54,1.37,2.32,3.87,2.32,7.44h1
		c0-3.88-0.9-6.64-2.68-8.2C18.26,37.85,18.22,37.83,18.17,37.79z"/>
	<path class="st0" d="M18.2,8.35h-1c0,0.17,0.02,2.58,0.68,5.28c-0.73,0.96-1.54,2.39-2.41,4.51c-2.48,6.11-8.9,3.98-9.18,3.88
		l-0.33,0.95c0.03,0.01,1.38,0.46,3.14,0.46c2.43,0,5.65-0.86,7.29-4.91c0.66-1.64,1.28-2.8,1.83-3.64
		c0.52,1.62,1.29,3.24,2.45,4.45l0.72-0.69c-1.21-1.25-1.96-3.04-2.43-4.77c0.99-1.15,1.63-1.14,1.65-1.14l0.25-0.97
		c-0.24-0.06-1.04-0.15-2.17,0.93C18.22,10.36,18.2,8.39,18.2,8.35z"/>
	<path class="st0" d="M33.63,23.62h-9.66l0.01-11.23h15.18V4.96h5.74c0.23,1.19,1.27,2.09,2.52,2.09c1.42,0,2.57-1.15,2.57-2.57
		S48.85,1.9,47.43,1.9c-1.24,0-2.28,0.89-2.52,2.06h-6.75v7.43H23.98l0.01-10.56l-0.34-0.11c-5.83-1.94-8.18,0.58-8.79,1.44
		c-4.23,0.11-5.72,2.69-6.13,3.67C7,5.9,5.57,6.56,4.47,7.78c-2.83,3.16-2.49,9.09-2.38,10.37c-1.51,1.58-2.21,3.33-2.07,5.21
		c0.26,3.62,3.55,6.53,4.49,7.29c-0.82,5.8,2.79,7.75,4.16,8.28c-0.48,1.7-0.35,3.12,0.37,4.23c0.99,1.51,2.79,1.94,3.46,2.05
		c0.6,0.95,3.19,4.8,6.35,4.8c3.6,0,5.04-3.49,5.1-3.63l0.01-8.78h4.4v7.32c-1.18,0.23-2.07,1.27-2.07,2.52
		c0,1.42,1.15,2.57,2.57,2.57s2.57-1.15,2.57-2.57c0-1.25-0.89-2.29-2.07-2.52v-7.32h7.18v7.94h6.14c0.23,1.18,1.27,2.07,2.52,2.07
		c1.42,0,2.57-1.15,2.57-2.57s-1.15-2.57-2.57-2.57c-1.25,0-2.29,0.89-2.52,2.07h-5.14v-7.94H23.96l0.01-11.97h5.49v8.73h12.58
		c0.23,1.18,1.27,2.07,2.52,2.07c1.42,0,2.57-1.15,2.57-2.57s-1.15-2.57-2.57-2.57c-1.25,0-2.29,0.89-2.52,2.07H30.46v-7.73h3.17
		v3.97H50v-8.95H33.63V23.62z M47.43,2.9C48.29,2.9,49,3.61,49,4.47s-0.71,1.57-1.57,1.57s-1.57-0.71-1.57-1.57S46.56,2.9,47.43,2.9
		z M30.43,47.43c0,0.87-0.71,1.57-1.57,1.57s-1.57-0.71-1.57-1.57s0.71-1.57,1.57-1.57S30.43,46.56,30.43,47.43z M45.19,43.46
		c0.87,0,1.57,0.71,1.57,1.57s-0.71,1.57-1.57,1.57s-1.57-0.71-1.57-1.57S44.33,43.46,45.19,43.46z M22.99,46.07
		C22.76,46.56,21.52,49,18.85,49c-2.98,0-5.59-4.48-5.62-4.52l-0.13-0.22l-0.26-0.02c-0.02,0-2.03-0.19-2.97-1.63
		c-0.62-0.94-0.65-2.23-0.11-3.84l0.17-0.52L9.4,38.11c-0.19-0.04-4.51-1.12-3.95-6.85c0.72,0.39,1.92,0.9,3.29,0.9
		c0.38,0,0.78-0.04,1.19-0.13c1.68-0.39,3.07-1.63,4.12-3.66l-0.89-0.46c-0.91,1.76-2.07,2.82-3.45,3.15
		c-2.21,0.52-4.34-1.01-4.36-1.03l0,0c-0.06-0.05-4.06-3.08-4.33-6.75c-0.12-1.64,0.54-3.18,1.95-4.59l0.17-0.17l-0.03-0.24
		c-0.01-0.07-0.7-6.69,2.11-9.83c0.96-1.07,2.24-1.61,3.8-1.62c0.63,0.2,5.11,1.72,5.11,5.7h1c0-4.13-3.96-5.97-5.4-6.51
		c0.41-0.89,1.73-2.81,5.3-2.85c0.38,0.19,1.75,1.01,1.75,2.64h1c0-1.8-1.2-2.84-1.91-3.3C16.34,1.94,17.47,1,19.71,1
		c0.9,0,1.99,0.15,3.28,0.55V46.07z M44.55,31.28c0.87,0,1.57,0.71,1.57,1.57s-0.71,1.57-1.57,1.57s-1.57-0.71-1.57-1.57
		S43.69,31.28,44.55,31.28z M49,20.64v6.95H34.63v-2.97h5.16c0.23,1.18,1.27,2.07,2.52,2.07c1.42,0,2.57-1.15,2.57-2.57
		s-1.15-2.57-2.57-2.57c-1.25,0-2.29,0.89-2.52,2.07h-5.16v-2.97H49z M40.74,24.12c0-0.87,0.71-1.57,1.57-1.57s1.57,0.71,1.57,1.57
		s-0.71,1.57-1.57,1.57S40.74,24.99,40.74,24.12z"/>
</g>
</svg>
