<?xml version="1.0" encoding="utf-8"?>
<!-- Generator: Adobe Illustrator 24.1.3, SVG Export Plug-In . SVG Version: 6.00 Build 0)  -->
<svg version="1.1" id="Layer_1" xmlns="http://www.w3.org/2000/svg" xmlns:xlink="http://www.w3.org/1999/xlink" x="0px" y="0px"
	 viewBox="0 0 50 50" style="enable-background:new 0 0 50 50;" xml:space="preserve">
<style type="text/css">
	.st0{fill:#222E5E;}
	.st1{fill:#FFFFFF;}
	.st2{fill:#EBBB10;}
	.st3{fill:#666666;}
	.st4{fill:#808080;}
	.st5{fill:#277FB6;}
	.st6{fill:#22AF80;}
	.st7{fill:none;stroke:#222E5E;stroke-linecap:round;stroke-linejoin:round;stroke-miterlimit:10;}
	.st8{fill:#BEBEBE;}
	.st9{fill:#1E3565;}
	.st10{clip-path:url(#SVGID_2_);}
	.st11{fill:none;stroke:#222E5E;stroke-miterlimit:10;}
	.st12{fill:#A5A5A5;}
	.st13{fill:#C0C0C0;}
	.st14{opacity:0.1;}
	.st15{fill:none;stroke:#FFFFFF;stroke-width:0.5;stroke-linecap:round;stroke-linejoin:round;stroke-miterlimit:10;}
</style>
<g>
	<path class="st0" d="M48.99,8.88c-7.57,1.62-12.89-0.98-16.25-7.96L32.3,0l-6.03,12.31c-2.32,4.73-0.47,10.42,4.08,12.95
		l-2.07,4.23l0.9,0.44l2.07-4.23c1.25,0.54,2.56,0.81,3.85,0.81c3.65,0,7.16-2.03,8.87-5.52L50,8.67L48.99,8.88z M43.08,20.54
		c-2.15,4.39-7.47,6.2-11.85,4.06c-4.38-2.15-6.21-7.46-4.06-11.85L32.3,2.26c3.42,6.39,8.77,9,15.91,7.79L43.08,20.54z"/>
	<path class="st0" d="M41.07,19.12c-4.97,0.27-8.73-1.57-11.54-5.65l-0.09-0.12l-0.57-0.28l-0.22,0.45
		c-0.84,1.73-0.97,3.68-0.34,5.49s1.92,3.28,3.64,4.13c1.01,0.5,2.09,0.73,3.15,0.73c2.66,0,5.22-1.48,6.47-4.03l0.2-0.45
		l-0.56-0.28L41.07,19.12z M37.11,22.54c-1.56,0.54-3.24,0.43-4.73-0.3c-1.49-0.73-2.6-1.99-3.13-3.55
		c-0.44-1.29-0.45-2.67-0.03-3.94c2.75,3.58,6.42,5.4,10.93,5.4c0.03,0,0.06,0,0.09,0C39.49,21.26,38.4,22.1,37.11,22.54z"/>
	<path class="st0" d="M34.02,13.49l0.9-0.43c-0.95-1.96-2.57-2.76-4.71-2.3l0.21,0.98C32.12,11.37,33.26,11.93,34.02,13.49z"/>
	<path class="st0" d="M38.08,14.61l0.21,0.98c1.7-0.37,2.84,0.19,3.6,1.76l0.9-0.44C41.84,14.95,40.21,14.16,38.08,14.61z"/>
	<path class="st0" d="M25,30.51c-5.46,0-10.99,1.18-10.99,3.43c0,0,0,0,0,0.01v9.79v0.21v2.61C14.01,48.82,19.53,50,25,50
		s10.99-1.18,10.99-3.44v-2.61v-0.21v-9.79C35.98,31.69,30.46,30.51,25,30.51z M15.01,38.32c0.78,0.54,1.97,0.96,3.39,1.27
		l-3.39,3.21V38.32z M25,46.05l-4.44-6.09c1.41,0.18,2.93,0.27,4.44,0.27c1.52,0,3.04-0.09,4.44-0.27L25,46.05z M30.62,40.04
		l4.33,4.1c-0.4,0.92-3.77,2.11-8.96,2.24L30.62,40.04z M24,46.38c-5.18-0.14-8.56-1.32-8.96-2.24l4.33-4.1L24,46.38z M25,49
		c-6.1,0-9.99-1.44-9.99-2.44v-1.09c1.79,1.24,5.76,1.89,9.73,1.92h0.51c3.98-0.03,7.94-0.68,9.73-1.92v1.09
		C34.98,47.56,31.09,49,25,49z M31.6,39.59c1.42-0.31,2.61-0.74,3.39-1.27v4.48L31.6,39.59z M34.98,36.8c0,0.99-3.89,2.43-9.99,2.43
		s-9.99-1.44-9.99-2.43v-0.72c0-0.14,0.09-0.3,0.25-0.45c1.93,1.16,5.85,1.76,9.74,1.76c3.89,0,7.81-0.6,9.74-1.76
		c0.16,0.16,0.25,0.31,0.25,0.45V36.8z M16.23,35.01c1.6-0.73,4.68-1.37,8.77-1.37c4.08,0,7.17,0.65,8.77,1.37
		c-1.6,0.73-4.68,1.37-8.77,1.37C20.91,36.38,17.83,35.74,16.23,35.01z M34.74,34.4c-1.93-1.16-5.85-1.76-9.74-1.76
		c-3.89,0-7.81,0.6-9.74,1.76c-0.16-0.16-0.25-0.31-0.25-0.45v0h0c0-0.99,3.89-2.43,9.99-2.43s9.99,1.44,9.99,2.43
		C34.98,34.09,34.89,34.25,34.74,34.4z"/>
	<path class="st0" d="M17.88,27.68l0.69,1.45l0.9-0.43l-0.69-1.45c3.73-2.01,5.72-6.34,4.77-10.5l-4.19-9.37l-2.15-4.55l-0.46,0.92
		C13.43,10.42,8.27,12.86,1,11.2l-1-0.23l5.67,11.98c1.63,3.43,5.05,5.45,8.62,5.45C15.49,28.4,16.71,28.16,17.88,27.68z
		 M6.57,22.53l-4.8-10.14c6.85,1.24,12.03-1.2,15.41-7.29l1.28,2.71l4.13,9.23c0.86,3.85-1.1,7.86-4.67,9.56
		C13.67,28.59,8.58,26.77,6.57,22.53z"/>
	<path class="st0" d="M19.01,13.07l-0.89-0.45c-0.74,1.49-1.84,2.01-3.47,1.64l-0.22,0.97c0.4,0.09,0.78,0.14,1.14,0.14
		C17.07,15.38,18.25,14.59,19.01,13.07z"/>
	<path class="st0" d="M11.37,16.69l-0.89-0.45c-0.74,1.49-1.85,2.01-3.47,1.64l-0.22,0.97c0.4,0.09,0.78,0.14,1.14,0.14
		C9.43,18.99,10.61,18.21,11.37,16.69z"/>
	<path class="st0" d="M20.9,20.2l0.64-0.76c-2.08-1.75-5.01-2.13-7.46-0.97c-2.46,1.16-4.02,3.67-3.98,6.39l1-0.01
		c-0.03-2.33,1.3-4.47,3.41-5.47C16.61,18.37,19.12,18.7,20.9,20.2z"/>
</g>
</svg>
