<?xml version="1.0" encoding="utf-8"?>
<!-- Generator: Adobe Illustrator 23.0.4, SVG Export Plug-In . SVG Version: 6.00 Build 0)  -->
<svg version="1.1" id="Layer_1" xmlns="http://www.w3.org/2000/svg" xmlns:xlink="http://www.w3.org/1999/xlink" x="0px" y="0px"
	 viewBox="0 0 56.9 51.8" style="enable-background:new 0 0 56.9 51.8;" xml:space="preserve">
<style type="text/css">
	.st0{fill:none;stroke:#232F5D;stroke-linecap:round;stroke-linejoin:round;}
</style>
<title>Icones Homepage</title>
<path class="st0" d="M43.7,0.5H22.6c-2.4,0-4.2,2-4.2,4.3c0,0,0,0,0,0v9.6h-4.6c-1.5,0-2.7,1.2-2.7,2.7V25c0,1.5,1.2,2.7,2.7,2.7
	h1.5l0.2,3.1c0.1,0.5,0.5,0.9,1.1,0.9c0,0,0,0,0,0c0.2,0,0.3-0.1,0.5-0.2l5.1-3.9h5c1.5,0,2.6-1.3,2.6-2.7v-4.2h3l6.7,6.4
	c0.4,0.4,1,0.3,1.4-0.1c0.1-0.2,0.2-0.4,0.2-0.6l0.2-5.7h2.4c2.4-0.1,4.2-2,4.2-4.4V4.9C48,2.5,46.1,0.5,43.7,0.5z M18.4,14.4v2
	c-0.1,2.4,1.8,4.3,4.2,4.4c0,0,0,0,0,0h7.2"/>
<path class="st0" d="M33.3,7h-9.7"/>
<path class="st0" d="M42.3,12.2H23.6"/>
<path class="st0" d="M23.4,36.2c-0.1,2.8,2.1,5.1,4.9,5.2c2.8,0.1,5.1-2.1,5.2-4.9c0.1-2.8-2.1-5.1-4.9-5.2c-0.1,0-0.1,0-0.2,0
	C25.7,31.2,23.4,33.4,23.4,36.2z"/>
<path class="st0" d="M28.5,41.3c-4.4-0.1-8,3.4-8.1,7.8v1.2c0,0.5,0.4,0.9,0.9,0.9h14.3c0.5,0,0.9-0.4,0.9-0.9v-1.2
	C36.5,44.7,32.8,41.3,28.5,41.3z"/>
<path class="st0" d="M43.3,36.2c-0.1,2.8,2.1,5.1,4.9,5.2c2.8,0.1,5.1-2.1,5.2-4.9c0.1-2.8-2.1-5.1-4.9-5.2c-0.1,0-0.1,0-0.2,0
	C45.6,31.2,43.3,33.4,43.3,36.2z"/>
<path class="st0" d="M48.4,41.3c-4.4-0.1-8,3.4-8.1,7.8v1.2c0,0.5,0.4,0.9,0.9,0.9c0,0,0,0,0,0h14.3c0.5,0,0.9-0.4,1-0.9v-1.2
	C56.4,44.7,52.8,41.3,48.4,41.3z"/>
<path class="st0" d="M3.5,36.2c0,2.8,2.3,5,5.1,4.9c0,0,0,0,0,0c2.7,0,4.9-2.2,4.9-4.9c0-2.7-2.2-4.9-4.9-4.9
	C5.8,31.2,3.5,33.4,3.5,36.2C3.5,36.1,3.5,36.1,3.5,36.2z"/>
<path class="st0" d="M8.6,41.3c-4.4-0.1-8,3.4-8.1,7.8v1.2c0,0.5,0.4,0.9,0.9,0.9h14.3c0.5,0,0.9-0.4,0.9-0.9c0,0,0,0,0,0v-1.2
	C16.5,44.7,12.9,41.3,8.6,41.3z"/>
</svg>
