<?xml version="1.0" encoding="utf-8"?>
<!-- Generator: Adobe Illustrator 24.1.3, SVG Export Plug-In . SVG Version: 6.00 Build 0)  -->
<svg version="1.1" id="Layer_1" xmlns="http://www.w3.org/2000/svg" xmlns:xlink="http://www.w3.org/1999/xlink" x="0px" y="0px"
	 viewBox="0 0 50 50" style="enable-background:new 0 0 50 50;" xml:space="preserve">
<style type="text/css">
	.st0{fill:#222E5E;}
	.st1{fill:#FFFFFF;}
	.st2{fill:#EBBB10;}
	.st3{fill:#666666;}
	.st4{fill:#808080;}
	.st5{fill:#277FB6;}
	.st6{fill:#22AF80;}
	.st7{fill:none;stroke:#222E5E;stroke-linecap:round;stroke-linejoin:round;stroke-miterlimit:10;}
	.st8{fill:#BEBEBE;}
	.st9{fill:#1E3565;}
	.st10{clip-path:url(#SVGID_2_);}
	.st11{fill:none;stroke:#222E5E;stroke-miterlimit:10;}
	.st12{fill:#A5A5A5;}
	.st13{fill:#C0C0C0;}
	.st14{opacity:0.1;}
	.st15{fill:none;stroke:#FFFFFF;stroke-width:0.5;stroke-linecap:round;stroke-linejoin:round;stroke-miterlimit:10;}
</style>
<path class="st0" d="M38.01,22.83c3.92-1.07,6.81-4.57,6.81-8.72c0-2.34-0.93-4.47-2.43-6.08c0.24,0.02,0.47,0.05,0.71,0.05
	c1.03,0,2.06-0.23,3-0.69c2.2-1.07,3.68-3.27,3.86-5.75l0.02-0.29l-0.24-0.16c-2.06-1.38-4.71-1.57-6.9-0.5
	c-1.99,0.97-3.38,2.86-3.76,5.05c-1.1-0.45-2.31-0.7-3.58-0.7c-5.14,0-9.33,4.07-9.33,9.06c0,4.14,2.87,7.63,6.78,8.71
	c-1.95,0.33-3.81,1.05-5.48,2.12c-0.72-0.28-1.49-0.43-2.3-0.45c-2.17-2.28-5.02-3.77-8.13-4.31c3.93-1.07,6.83-4.57,6.83-8.72
	c0-2.59-1.15-5.07-3.16-6.8C19,3.2,16.81,2.4,14.54,2.4c-2.28,0-4.47,0.81-6.17,2.27c-2.01,1.72-3.16,4.2-3.16,6.79
	c0,4.14,2.88,7.64,6.8,8.72C5.2,21.34,0,27.1,0,34.03v2.12c0,0.56,0.22,1.09,0.62,1.49c0.4,0.39,0.92,0.61,1.51,0.61
	c0,0,0.01,0,0.01,0h17.58c-3.04,1.75-5.09,4.97-5.09,8.64v1.49c0,0.44,0.17,0.84,0.48,1.15c0.31,0.3,0.71,0.47,1.17,0.47
	c0,0,0.01,0,0.01,0h17.42c0.01,0,0.03,0,0.04,0c0.42,0,0.81-0.16,1.11-0.44c0.31-0.3,0.49-0.7,0.5-1.18v-1.49
	c0-2.25-0.77-4.32-2.06-5.99h14.57c0.02,0,0.03,0,0.05,0c1.12,0,2.05-0.9,2.08-2.1v-2.11C50,29.76,44.81,24,38.01,22.83z
	 M43.81,13.73c-4.4-0.06-7.98-3.45-8.18-7.68c1.3,0.02,2.53,0.33,3.62,0.87c0.29,0.19,0.59,0.36,0.9,0.5
	C42.26,8.81,43.68,11.11,43.81,13.73z M43.28,1.59c1.82-0.89,3.92-0.78,5.66,0.27c-0.24,2.02-1.45,3.74-3.27,4.63
	c-1.61,0.79-3.44,0.79-5.05,0.05c-0.2-0.13-0.4-0.25-0.61-0.36C40.27,4.18,41.47,2.48,43.28,1.59z M34.62,6.09
	c0.06,1.22,0.36,2.38,0.88,3.43c-1.57,1.58-3.73,2.49-6,2.49c-0.67,0-1.33-0.09-1.97-0.25C28.48,8.72,31.26,6.43,34.62,6.09z
	 M27.17,14.11c0-0.47,0.05-0.92,0.13-1.37c0.72,0.17,1.45,0.28,2.2,0.28c2.44,0,4.77-0.94,6.51-2.59c1.62,2.54,4.5,4.25,7.79,4.3
	c-0.33,4.16-3.92,7.45-8.3,7.45C30.9,22.17,27.17,18.56,27.17,14.11z M19.3,31.01c0-2.96,2.43-5.38,5.46-5.51c0,0,0,0,0,0l0,0
	c0.08,0,0.16-0.01,0.25-0.01c3.15,0,5.71,2.48,5.71,5.53c0,3.05-2.56,5.52-5.71,5.52S19.3,34.05,19.3,31.01z M22.87,11.46
	c0,0.37-0.03,0.73-0.08,1.08C21.06,11.34,20,9.41,20,7.33c0-0.34,0.03-0.68,0.08-1l-0.03,0c0.15-0.15,0.3-0.31,0.44-0.48
	C22,7.34,22.87,9.35,22.87,11.46z M19.74,5.18c-1.26,1.54-3.16,2.45-5.2,2.45c-2.04,0-3.94-0.91-5.2-2.45
	c1.47-1.15,3.3-1.78,5.2-1.78C16.44,3.4,18.26,4.03,19.74,5.18z M8.59,5.84C8.75,6.03,8.92,6.22,9.1,6.4L9.04,6.41
	C9.08,6.71,9.1,7.02,9.1,7.33c0,2.1-1.06,4.04-2.81,5.23c-0.05-0.36-0.09-0.72-0.09-1.1C6.21,9.35,7.08,7.34,8.59,5.84z M6.52,13.6
	c2.22-1.36,3.59-3.71,3.59-6.27c0-0.03-0.01-0.06-0.01-0.09c1.28,0.89,2.82,1.39,4.44,1.39c1.63,0,3.19-0.51,4.47-1.41
	c0,0.04-0.01,0.07-0.01,0.11c0,2.55,1.36,4.9,3.57,6.26c-0.97,3.42-4.19,5.94-8.03,5.94C10.71,19.53,7.49,17.01,6.52,13.6z
	 M2.11,37.25c-0.3,0-0.57-0.11-0.78-0.32C1.12,36.72,1,36.44,1,36.15v-2.11c0-7.21,6.07-13.08,13.52-13.08
	c3.5,0,6.83,1.32,9.34,3.63c-3.15,0.53-5.56,3.21-5.56,6.42c0,2.79,1.81,5.16,4.34,6.1c-0.19,0.04-0.38,0.09-0.56,0.14H2.11z
	 M34.36,48.41c0,0.16-0.07,0.31-0.19,0.43C34.06,48.94,33.91,49,33.73,49l-17.46,0c0,0,0,0,0,0c-0.17,0-0.32-0.06-0.44-0.18
	s-0.19-0.28-0.19-0.44v-1.49c0-4.99,4.2-9.05,9.37-9.05c5.16,0,9.36,4.06,9.36,9.05V48.41z M49,38.84
	c-0.01,0.59-0.52,1.07-1.11,1.05H32.43c-1.36-1.36-3.1-2.34-5.06-2.78c2.54-0.93,4.35-3.31,4.35-6.1c0-2.34-1.28-4.39-3.19-5.54
	c2.09-1.22,4.48-1.86,6.94-1.86C42.93,23.6,49,29.47,49,36.68L49,38.84z"/>
</svg>
