<?xml version="1.0" encoding="utf-8"?>
<!-- Generator: Adobe Illustrator 24.1.3, SVG Export Plug-In . SVG Version: 6.00 Build 0)  -->
<svg version="1.1" id="Layer_1" xmlns="http://www.w3.org/2000/svg" xmlns:xlink="http://www.w3.org/1999/xlink" x="0px" y="0px"
	 viewBox="0 0 50 50" style="enable-background:new 0 0 50 50;" xml:space="preserve">
<style type="text/css">
	.st0{fill:#222E5E;}
	.st1{fill:#FFFFFF;}
	.st2{fill:#EBBB10;}
	.st3{fill:#666666;}
	.st4{fill:#808080;}
	.st5{fill:#277FB6;}
	.st6{fill:#22AF80;}
	.st7{fill:none;stroke:#222E5E;stroke-linecap:round;stroke-linejoin:round;stroke-miterlimit:10;}
	.st8{fill:#BEBEBE;}
	.st9{fill:#1E3565;}
	.st10{clip-path:url(#SVGID_2_);}
	.st11{fill:none;stroke:#222E5E;stroke-miterlimit:10;}
	.st12{fill:#A5A5A5;}
	.st13{fill:#C0C0C0;}
	.st14{opacity:0.1;}
	.st15{fill:none;stroke:#FFFFFF;stroke-width:0.5;stroke-linecap:round;stroke-linejoin:round;stroke-miterlimit:10;}
</style>
<g>
	<ellipse class="st11" cx="34.16" cy="34.15" rx="15.34" ry="15.36"/>
	<ellipse class="st11" cx="34.16" cy="34.15" rx="11.16" ry="11.17"/>
	<path class="st11" d="M28.45,7.17H2.81c-1.27,0-2.31-1.03-2.31-2.31V2.8c0-1.27,1.03-2.31,2.31-2.31l25.64,0
		c1.27,0,2.31,1.03,2.31,2.31v2.06C30.76,6.13,29.72,7.17,28.45,7.17z"/>
	<path class="st11" d="M40.61,13.84H14.97c-1.27,0-2.31-1.03-2.31-2.31V9.47c0-1.27,1.03-2.31,2.31-2.31l25.64,0
		c1.27,0,2.31,1.03,2.31,2.31v2.06C42.92,12.81,41.89,13.84,40.61,13.84z"/>
	<path class="st11" d="M27.1,20.52H8.64c-1.27,0-2.3-1.03-2.3-2.31v-2.06c0-1.27,1.03-2.31,2.3-2.31h25.65c1.27,0,2.3,1.03,2.3,2.31
		v2.06c0,0.16-0.02,0.31-0.05,0.47"/>
	<path class="st11" d="M20.25,27.19H8.64c-1.27,0-2.3-1.03-2.3-2.31v-2.06c0-1.27,1.03-2.31,2.3-2.31H26.4"/>
	<path class="st11" d="M18.83,33.87H8.64c-1.27,0-2.3-1.03-2.3-2.31V29.5c0-1.27,1.03-2.31,2.3-2.31h11.6"/>
	<path class="st11" d="M20.25,40.55H8.64c-1.27,0-2.3-1.03-2.3-2.31v-2.06c0-1.27,1.03-2.31,2.3-2.31h10.18"/>
	<g>
		<line class="st11" x1="26.4" y1="32.4" x2="35.8" y2="32.4"/>
		<line class="st11" x1="26.4" y1="35.22" x2="34.78" y2="35.22"/>
		<path class="st11" d="M38.54,39.81c-0.95,0.54-2.05,0.85-3.22,0.85c-3.59,0-6.5-2.91-6.5-6.5s2.91-6.5,6.5-6.5
			c0.99,0,1.93,0.22,2.78,0.62"/>
	</g>
</g>
</svg>
