<?xml version="1.0" encoding="utf-8"?>
<!-- Generator: Adobe Illustrator 23.0.4, SVG Export Plug-In . SVG Version: 6.00 Build 0)  -->
<svg version="1.1" id="Layer_1" xmlns="http://www.w3.org/2000/svg" xmlns:xlink="http://www.w3.org/1999/xlink" x="0px" y="0px"
	 viewBox="0 0 43.7 60.3" style="enable-background:new 0 0 43.7 60.3;" xml:space="preserve">
<style type="text/css">
	.st0{fill:none;stroke:#232F5D;stroke-width:1.3;stroke-linecap:round;stroke-linejoin:round;}
	.st1{fill:none;stroke:#232F5D;stroke-linecap:round;stroke-linejoin:round;}
</style>
<title>Icones Homepage</title>
<path class="st0" d="M40.3,5.7c-1.2-3.6-5.2-5.5-8.8-4.3c-2.7,0.9-4.6,3.5-4.7,6.4v2H25V25h17.4V9.9H26.8"/>
<path class="st0" d="M36.1,20.6L35.3,17c0.9-0.9,0.9-2.3,0-3.2s-2.3-0.9-3.2,0c-0.9,0.9-0.9,2.3,0,3.2c0,0,0,0,0,0l0,0l-0.7,3.6
	H36.1z"/>
<path class="st1" d="M38,29.7v30.1H0.5V9h20.3"/>
<path class="st1" d="M5.8,29.7h26.9"/>
<path class="st1" d="M5.8,34.2h26.9"/>
<path class="st1" d="M5.8,38.8h26.9"/>
<path class="st1" d="M5.8,43.3h26.9"/>
<path class="st1" d="M5.8,48.6h13.3"/>
<path class="st1" d="M30.3,53.1h2.4"/>
</svg>
