<?xml version="1.0" encoding="utf-8"?>
<!-- Generator: Adobe Illustrator 24.1.3, SVG Export Plug-In . SVG Version: 6.00 Build 0)  -->
<svg version="1.1" id="Layer_1" xmlns="http://www.w3.org/2000/svg" xmlns:xlink="http://www.w3.org/1999/xlink" x="0px" y="0px"
	 viewBox="0 0 50 50" style="enable-background:new 0 0 50 50;" xml:space="preserve">
<style type="text/css">
	.st0{fill:#222E5E;}
	.st1{fill:#FFFFFF;}
	.st2{fill:#EBBB10;}
	.st3{fill:#666666;}
	.st4{fill:#808080;}
	.st5{fill:#277FB6;}
	.st6{fill:#22AF80;}
	.st7{fill:none;stroke:#222E5E;stroke-linecap:round;stroke-linejoin:round;stroke-miterlimit:10;}
	.st8{fill:#BEBEBE;}
	.st9{fill:#1E3565;}
	.st10{clip-path:url(#SVGID_2_);}
	.st11{fill:none;stroke:#222E5E;stroke-miterlimit:10;}
	.st12{fill:#A5A5A5;}
	.st13{fill:#C0C0C0;}
	.st14{opacity:0.1;}
	.st15{fill:none;stroke:#FFFFFF;stroke-width:0.5;stroke-linecap:round;stroke-linejoin:round;stroke-miterlimit:10;}
</style>
<g>
	<g>
		<path class="st0" d="M13.65,9.16H6.67c-1.4,0-2.54-1.14-2.54-2.54c0-1.39,1.13-2.53,2.52-2.54c0.6-1,1.69-1.63,2.87-1.63
			c0.01,0,0.03,0,0.04,0C10.35,0.95,11.91,0,13.62,0c2.52,0,4.58,2.05,4.58,4.58c0,2.34-1.78,4.28-4.05,4.54v0.03L13.65,9.16z
			 M6.67,5.09c-0.86,0-1.54,0.69-1.54,1.53c0,0.85,0.69,1.54,1.54,1.54l6.97,0c1.96-0.01,3.55-1.62,3.55-3.58
			C17.2,2.61,15.59,1,13.62,1c-1.44,0-2.73,0.85-3.29,2.18l-0.15,0.34L9.7,3.46C9.64,3.46,9.58,3.45,9.52,3.45
			c-0.92,0-1.76,0.54-2.14,1.39L7.23,5.17L6.86,5.13C6.8,5.12,6.74,5.1,6.69,5.09C6.68,5.09,6.67,5.09,6.67,5.09z"/>
	</g>
	<g>
		<g>
			<path class="st0" d="M14.28,46.8c-8.08,0-14.17,0-14.28-0.02v-1c0.75,0.03,49.51,0,50,0v1C42.99,46.79,26.44,46.8,14.28,46.8z"/>
		</g>
		<g>
			<g>
				<path class="st0" d="M14.28,43.59c-8.08,0-14.17,0-14.28-0.02v-1c0.75,0.03,49.51,0,50,0v1C42.99,43.58,26.44,43.59,14.28,43.59
					z"/>
			</g>
			<g>
				<path class="st0" d="M14.28,50C6.2,50,0.11,50,0,49.98v-1c0.75,0.03,49.51,0,50,0v1C42.99,49.99,26.44,50,14.28,50z"/>
			</g>
		</g>
	</g>
	<g>
		<path class="st0" d="M49.75,16.99c-0.14-0.49-0.33-0.96-0.58-1.41c-0.12-0.22-0.26-0.43-0.4-0.64c-0.73-1.02-1.72-1.8-2.87-2.28
			c-0.41-3.29-3.25-5.82-6.6-5.82c-1.98,0-3.83,0.88-5.07,2.36l-0.28-2.3c-0.34-2.77-2.69-4.85-5.48-4.85s-5.14,2.09-5.48,4.85
			l-1.09,8.9c-0.41,3.38,1.77,6.5,5.08,7.25l0.22-0.97c-2.81-0.64-4.66-3.29-4.31-6.16l1.09-8.9c0.28-2.27,2.21-3.97,4.49-3.97
			s4.21,1.71,4.49,3.97l0.63,5.18l0.75-1.38c0.99-1.83,2.89-2.98,4.97-2.98c2.94,0,5.41,2.29,5.63,5.22l0.03,0.32l0.31,0.11
			c1.09,0.39,2.02,1.09,2.69,2.03c0.12,0.17,0.24,0.36,0.34,0.54c0.21,0.38,0.38,0.78,0.5,1.2c0.14,0.5,0.21,1.02,0.21,1.55
			c0,0.62-0.1,1.23-0.3,1.82l-0.04,0.13c-0.03,0.09-0.07,0.17-0.1,0.25c-0.04,0.08-0.07,0.17-0.12,0.25
			c-0.08,0.17-0.17,0.32-0.26,0.48l-0.08,0.12c-0.12,0.19-0.25,0.37-0.4,0.55c-0.06,0.07-0.12,0.14-0.18,0.21
			c-0.12,0.13-0.25,0.26-0.38,0.38l-0.1,0.09c-0.1,0.09-0.21,0.17-0.32,0.26l-0.11,0.08c-1.67,1.19-3.95,1.37-5.78,0.45l-0.45,0.89
			c0.92,0.46,1.92,0.69,2.96,0.69c1.39,0,2.72-0.42,3.85-1.23l0.13-0.09c0.13-0.1,0.25-0.2,0.38-0.3l0.12-0.11
			c0.16-0.14,0.31-0.29,0.45-0.45c0.07-0.08,0.14-0.16,0.21-0.24c0.17-0.21,0.33-0.42,0.47-0.64l0.09-0.14
			c0.11-0.18,0.21-0.37,0.3-0.56c0.05-0.1,0.09-0.2,0.14-0.3c0.04-0.1,0.08-0.2,0.12-0.29l0.06-0.16c0.23-0.68,0.35-1.4,0.35-2.13
			C50,18.19,49.92,17.58,49.75,16.99z"/>
		<path class="st0" d="M35.23,24.46c-1.81,0-3.47-0.84-4.55-2.32l-0.81,0.59c1.25,1.71,3.25,2.72,5.36,2.72
			c1.03,0,2.01-0.23,2.92-0.68l-0.44-0.9C36.94,24.27,36.1,24.46,35.23,24.46z"/>
		<polygon class="st0" points="41.48,29.8 39.79,31.5 39.79,18.17 42.85,16.59 42.4,15.71 39.79,17.05 39.79,14.19 38.79,14.19 
			38.79,19.91 36.22,18.58 35.76,19.47 38.79,21.04 38.79,43.55 39.79,43.55 39.79,32.91 42.19,30.51 		"/>
		<polygon class="st0" points="30.33,26.08 28.95,27.46 28.95,18.65 32.06,17.01 31.59,16.13 28.95,17.52 28.95,12.63 32.05,11.05 
			31.59,10.16 28.95,11.51 28.95,8.59 27.95,8.59 27.95,14.3 25.4,12.98 24.94,13.87 27.95,15.43 27.95,43.55 28.95,43.55 
			28.95,28.87 31.04,26.79 		"/>
	</g>
	<g>
		<path class="st0" d="M23.29,26.99v0.45h-3.16v-0.45h-3.46v0.45h-6.04H5.46H5.34c-1.19,0-2.21,0.71-2.67,1.73H2.06
			c-0.76,0-1.38,0.62-1.38,1.38v3.29C0.26,34.19,0,34.7,0,35.25c0,0.66,0.36,1.27,0.93,1.6l0.25,0.15l0.25-0.15
			c0.57-0.33,0.93-0.94,0.93-1.6c0-0.55-0.26-1.06-0.68-1.41v-3.29c0-0.21,0.17-0.38,0.38-0.38h0.36c0,0.07-0.02,0.14-0.02,0.21
			v7.13l-0.94,1.66v4.43h2.75L4.2,40.56l1.03-0.89l1.79,3.92h2.95L8.54,39.4l0.98-1.27l3.14,0l1.08,2.14v3.31h2.74v-4.57l0.71,0.86
			v3.71h2.93V36.5l0.84-2.41l0.27,0.27h3.05v-4.63h0.43c1.12,0,2.04-0.92,2.04-2.04v-0.69H23.29z M1.18,35.77
			C1.06,35.62,1,35.44,1,35.25s0.06-0.37,0.18-0.52c0.11,0.15,0.18,0.33,0.18,0.52C1.36,35.44,1.29,35.62,1.18,35.77z M19.13,27.99
			v0.73H18.7c-0.46,0-0.86-0.31-0.99-0.73H19.13z M9.64,28.44c0.07,0.45,0.46,0.79,0.93,0.79h1.31l0.05,0.88h-1.36
			c-0.52,0-0.95,0.42-0.89,0.89H8.69c-0.52,0-0.95,0.42-0.95,0.95l0.05,1.07l-1.89,0.05l-0.02-4.64H9.64z M8.58,42.59H7.67
			l-1.65-3.61l0.98-0.85l1.26,0l-0.83,1.08L8.58,42.59z M14.74,42.59v-2.55l-0.96-1.9l1.69,0v4.46H14.74z M19.15,36.25l-0.03,6.34
			h-0.93v-3.07l-1.71-2.07v-2.26h-1v1.95l-8.17,0v-1.95h-1v2.22L3.2,40.11l0.01,2.49H2.46v-3.16l0.94-1.66v-7.39
			c0-0.92,0.65-1.69,1.51-1.89v4.58c0,0.52,0.42,0.95,0.95,0.95H7.8c0.52,0,0.95-0.42,0.95-0.95L8.69,32h0.99
			c0.52,0,0.95-0.42,0.89-0.89h1.36c0.52,0,0.95-0.42,0.95-0.95v-0.99c0-0.31-0.16-0.57-0.38-0.74h4.31
			c0.3,0.75,1.03,1.28,1.89,1.28h0.42v2.57l1.05,1.02L19.15,36.25z M23.29,33.35h-1.64l-1.52-1.48v-2.15v-1.28h3.16v1.28V33.35z
			 M24.71,28.72h-0.43v-0.73h1.42C25.57,28.41,25.18,28.72,24.71,28.72z"/>
		<path class="st0" d="M16.05,30.73h-1.68c-0.51,0-0.93,0.42-0.86,0.86h-1.06c-0.51,0-0.93,0.42-0.93,0.93v1.44
			c0,0.51,0.42,0.93,0.93,0.93h2.72c0.51,0,0.93-0.42,0.93-0.93l-0.05-0.59c0.51,0,0.93-0.42,0.93-0.93v-0.77
			C16.98,31.14,16.56,30.73,16.05,30.73z M15.1,33.29l0.07,0.59l-2.65,0.07l-0.07-1.37h1.06c0.51,0,0.93-0.42,0.86-0.86h1.62
			l0.05,0.63C15.52,32.36,15.1,32.78,15.1,33.29z"/>
	</g>
</g>
</svg>
