<?xml version="1.0" encoding="utf-8"?>
<!-- Generator: Adobe Illustrator 24.1.3, SVG Export Plug-In . SVG Version: 6.00 Build 0)  -->
<svg version="1.1" id="Layer_1" xmlns="http://www.w3.org/2000/svg" xmlns:xlink="http://www.w3.org/1999/xlink" x="0px" y="0px"
	 viewBox="0 0 55 55" style="enable-background:new 0 0 55 55;" xml:space="preserve">
<style type="text/css">
	.st0{fill:#222E5E;}
	.st1{fill:#FFFFFF;}
	.st2{fill:#EBBB10;}
	.st3{fill:#666666;}
	.st4{fill:#808080;}
	.st5{fill:#277FB6;}
	.st6{fill:#22AF80;}
	.st7{fill:none;stroke:#222E5E;stroke-linecap:round;stroke-linejoin:round;stroke-miterlimit:10;}
	.st8{fill:#BEBEBE;}
	.st9{fill:#1E3565;}
	.st10{clip-path:url(#SVGID_2_);}
	.st11{fill:none;stroke:#222E5E;stroke-miterlimit:10;}
	.st12{fill:#A5A5A5;}
	.st13{fill:#C0C0C0;}
	.st14{opacity:0.1;}
	.st15{fill:none;stroke:#FFFFFF;stroke-width:0.5;stroke-linecap:round;stroke-linejoin:round;stroke-miterlimit:10;}
</style>
<g>
	<path class="st0" d="M55,54.99H0V0h55V54.99z M1,53.99h53V1H1V53.99z"/>
</g>
<g>
	<path class="st0" d="M49.97,49.97H5.03V5.03h44.94V49.97z M6.03,48.97h42.94V6.03H6.03V48.97z"/>
</g>
<g>
	<path class="st0" d="M39.96,17.81l2.32-9.92l2.32,9.92l-2.32-1.69L39.96,17.81z M42.28,14.88l0.73,0.54l-0.73-3.13l-0.73,3.13
		L42.28,14.88z"/>
</g>
<g>
	<defs>
		<rect id="SVGID_1_" x="5.53" y="5.53" width="43.94" height="43.94"/>
	</defs>
	<clipPath id="SVGID_2_">
		<use xlink:href="#SVGID_1_"  style="overflow:visible;"/>
	</clipPath>
	<g class="st10">
		<g>
			<path class="st0" d="M29.5,36.49c0.11-0.07,0.25-0.08,0.37-0.05c0.17-0.02,0.33,0.03,0.43,0.16l0.07,0.08
				c0.01,0.01,0.01,0.01,0.02,0.02l0.02,0.01c0.04,0.02,0.07,0.04,0.1,0.07c0.06,0.04,0.14,0.09,0.18,0.15l0.05,0.04l0.16-0.01
				c0.09-0.01,0.16,0.01,0.23,0.04l0.11,0.05c0.02,0.01,0.04,0.02,0.06,0.03c0,0,0,0,0,0l0.02,0c0.03-0.02,0.06-0.04,0.1-0.06
				c0.06-0.03,0.2-0.08,0.26-0.08l0.24-0.01c0.1,0,0.2,0.02,0.28,0.07l0.11,0.07c0.01,0.01,0.11,0.07,0.13,0.08l0.09,0.07
				c0.1,0.08,0.19,0.2,0.22,0.33l0.03,0.12c0.01,0.04,0.02,0.08,0.02,0.12l0.01,0.11c0.03,0.02,0.05,0.04,0.08,0.06
				c0.04,0.01,0.08,0.03,0.11,0.04l0.03,0.01c0.04,0.01,0.08,0.03,0.11,0.05c0.01,0.01,0.08,0.05,0.09,0.06l0.08,0.06
				c0.06,0.02,0.11,0.05,0.15,0.09c0.03,0.03,0.07,0.06,0.09,0.1l0.06,0.02c0.01,0,0.03,0.01,0.04,0.01c0.07,0,0.12,0.01,0.17,0.03
				l0.14,0.05c0.11,0.04,0.2,0.11,0.26,0.2c0.09,0.06,0.2,0.15,0.25,0.24c0.03,0.04,0.05,0.08,0.07,0.12
				c0.02,0.01,0.03,0.03,0.04,0.05l0.07,0.09c0.04,0.04,0.06,0.09,0.08,0.14c0.01,0.01,0.03,0.03,0.04,0.04l0.07,0.08
				c0.05,0.06,0.09,0.13,0.11,0.21l0.04,0.14c0.08-0.02,0.16-0.02,0.24,0l0.12,0.03c0.13,0.03,0.24,0.11,0.31,0.22l0.04,0.06
				c0.02,0.01,0.04,0.02,0.05,0.02l0.11,0.05c0.02,0.01,0.04,0.02,0.06,0.03l0,0c0.04,0,0.08,0,0.11,0.01
				c0.04-0.01,0.08-0.02,0.11-0.02l0.28-0.02c0.09-0.02,0.19-0.01,0.27,0.02l0.12,0.05l0,0c0.05,0,0.11,0.01,0.16,0.02
				c0.02,0,0.04,0,0.05,0l0.12,0.01c0.06,0.01,0.12,0.03,0.18,0.05l0.12,0.07c0.06,0.03,0.12,0.08,0.16,0.14l0.02,0
				c0.08-0.01,0.17,0.01,0.24,0.05c0.03,0.01,0.07,0.04,0.1,0.06l0.01,0l0.04,0l0.02,0c0.17-0.07,0.38-0.08,0.52,0.03l0.07,0.06
				l0.32-0.04c0.1-0.04,0.21-0.05,0.32-0.02l0.12,0.03c0.04,0.01,0.08,0.03,0.12,0.05l0.37,0.13c0.06,0.01,0.12,0.02,0.17,0.04
				c0.02,0,0.08,0,0.12,0.01l0.14,0.03c0.09-0.05,0.21-0.08,0.3-0.06c0.05-0.02,0.1-0.04,0.15-0.04c0.03,0,0.15,0,0.18,0
				c0.04,0,0.16,0.01,0.22,0.04c0.03,0.01,0.15,0.06,0.18,0.08l0.09,0.03c0.07,0,0.12,0.01,0.18,0.03l0.02,0
				c0.07-0.01,0.13,0.01,0.2,0.03c0.14,0.05,0.34,0.2,0.39,0.35l0.04,0.12c0.01,0.04,0.02,0.09,0.02,0.13l0,0.01
				c0.01,0.01,0.02,0.02,0.04,0.03c0.12,0.01,0.26,0.06,0.34,0.13c0.07,0.06,0.13,0.16,0.17,0.25c0.04,0.01,0.08,0.02,0.12,0.03
				l0.12,0.05c0.14,0.06,0.25,0.17,0.29,0.31l0.15,0.26c0,0,0.01,0.03,0.03,0.05l0.03,0.03c0.08,0.09,0.12,0.21,0.12,0.33
				c0.01,0.04,0.02,0.08,0.02,0.12l0,0.07c0.05,0.07,0.08,0.16,0.08,0.25l0.02,0.37c0,0.1-0.02,0.2-0.07,0.28l-0.03,0.05
				c-0.02,0.03-0.07,0.09-0.09,0.11l-0.11,0.11c-0.1,0.1-0.25,0.14-0.38,0.13c-0.03,0.03-0.05,0.05-0.06,0.06l-0.08,0.06
				c-0.04,0.02-0.07,0.04-0.11,0.06l-0.12,0.04c-0.08,0.03-0.16,0.03-0.24,0.02c-0.03,0.01-0.06,0.01-0.1,0.01l-0.1,0l0.01,0.03
				L42.18,45c-0.09,0.07-0.21,0.12-0.33,0.14l-0.09,0.1c-0.16,0.18-0.41,0.22-0.62,0.11c-0.04,0.05-0.1,0.11-0.14,0.14
				c-0.09,0.07-0.2,0.12-0.3,0.13l-0.12,0c-0.07,0-0.13-0.01-0.19-0.03l-0.12,0.01c0,0-0.01,0-0.01,0
				c-0.12,0.06-0.26,0.06-0.39,0.01l-0.3-0.13c-0.02,0-0.03-0.01-0.04-0.01l-0.12-0.03c-0.01,0-0.02-0.01-0.04-0.01l-0.12,0.01
				c-0.1,0.01-0.2-0.02-0.29-0.08c-0.04,0-0.08-0.01-0.12-0.01l-0.12-0.03c-0.05-0.01-0.1-0.03-0.14-0.06l-0.01,0l-0.6,0.03
				c-0.04,0-0.09,0-0.13-0.01l-0.02,0.01c-0.1,0.03-0.2,0.03-0.3-0.01c-0.04-0.01-0.11-0.05-0.17-0.08
				c-0.04-0.02-0.08-0.04-0.11-0.06l-0.17,0.04c-0.14,0.11-0.33,0.14-0.49,0.07l-0.12-0.05c-0.02-0.01-0.05-0.02-0.07-0.03
				c-0.02,0-0.04,0-0.05-0.01l-0.17-0.03l-0.05,0.01c-0.05,0.01-0.2,0-0.25-0.02l-0.02-0.01l-0.04,0.01
				c-0.04,0.03-0.08,0.06-0.12,0.08c0,0,0,0,0,0c0,0,0,0.01,0,0.01c-0.03,0.08-0.1,0.23-0.16,0.29l-0.12,0.11
				c-0.01,0.02-0.07,0.11-0.08,0.13l-0.07,0.14c-0.02,0.08-0.06,0.16-0.12,0.22c-0.06,0.06-0.2,0.19-0.28,0.21l-0.28,0.1
				c-0.07,0.02-0.13,0.04-0.21,0.03l-0.01,0.01c-0.02,0.02-0.1,0.09-0.12,0.11l-0.17,0.11c-0.02,0.01-0.04,0.02-0.06,0.03
				l-0.01,0.01c-0.04,0.05-0.16,0.16-0.22,0.19l-0.21,0.15c-0.08,0.07-0.17,0.11-0.27,0.12c-0.01,0-0.02,0.01-0.04,0.02
				c-0.05,0.04-0.1,0.09-0.13,0.11l-0.12,0.06c0,0-0.09,0.04-0.09,0.04c-0.08,0.04-0.23,0.08-0.34,0.08c-0.03,0-0.05,0-0.07-0.01
				l-0.12-0.03c-0.05-0.01-0.1-0.03-0.14-0.06l-0.3-0.2c-0.06-0.03-0.12-0.07-0.16-0.12c-0.15-0.07-0.26-0.2-0.29-0.36
				c-0.01-0.01-0.01-0.01-0.01-0.02l-0.09-0.1c-0.09-0.09-0.15-0.21-0.16-0.34l-0.02-0.48c0-0.03,0-0.06,0-0.09
				c-0.01-0.03-0.03-0.07-0.04-0.1l-0.02-0.03c-0.02-0.04-0.04-0.07-0.05-0.11c-0.07-0.02-0.12-0.06-0.18-0.11l-0.06-0.06
				c-0.07-0.03-0.14-0.07-0.19-0.12c-0.03,0.01-0.05,0.01-0.08,0.01c-0.02,0-0.04,0-0.06,0c-0.05,0.02-0.09,0.02-0.14,0.03
				c-0.02,0-0.04,0-0.06,0c-0.09,0.04-0.2,0.07-0.31,0.04c-0.05-0.01-0.11-0.03-0.15-0.05c-0.01,0-0.01,0-0.02,0
				c-0.04,0.02-0.07,0.03-0.11,0.03c-0.02,0.01-0.05,0.02-0.05,0.02l-0.12,0.04c-0.05,0.02-0.09,0.03-0.14,0.03l-0.07,0
				c-0.05,0.01-0.1,0.02-0.13,0.02l-0.12,0.01c-0.08,0.01-0.16-0.01-0.23-0.04l-0.07-0.03l-0.23,0.03
				c-0.05,0.02-0.09,0.03-0.14,0.03c-0.05,0-0.18,0-0.23-0.01l-0.39-0.12l-0.02,0c-0.03,0-0.06,0-0.09,0
				c-0.09,0.03-0.18,0.04-0.27,0.02c-0.05,0.02-0.12,0.04-0.15,0.04l-0.24,0.01c-0.05,0.01-0.1,0-0.14-0.01l-0.12-0.03
				c-0.03-0.01-0.13-0.05-0.16-0.06c0,0-0.01,0-0.01-0.01c-0.02,0.01-0.03,0.02-0.05,0.03c-0.06,0.05-0.13,0.09-0.2,0.11l-0.24,0.08
				c-0.1,0.04-0.2,0.05-0.3,0.02l-0.25-0.06c-0.12-0.03-0.22-0.11-0.29-0.21l-0.08-0.05c-0.04-0.01-0.08-0.03-0.1-0.04l-0.39-0.15
				c-0.01,0-0.1-0.04-0.11-0.04l-0.06-0.02c-0.09-0.01-0.18-0.05-0.24-0.09l-0.03-0.02c-0.09-0.02-0.17-0.06-0.23-0.13l-0.12-0.1
				c-0.04-0.02-0.08-0.04-0.12-0.06l-0.04-0.03c-0.05-0.02-0.1-0.04-0.12-0.06l-0.12-0.08c-0.02,0-0.04,0-0.06-0.01l-0.03,0
				c-0.02,0.09-0.07,0.18-0.15,0.25l-0.08,0.08c-0.03,0.03-0.07,0.06-0.12,0.08l-0.12,0.06c-0.02,0.01-0.05,0.02-0.08,0.03
				c-0.08,0.05-0.16,0.09-0.24,0.1l-0.16,0.01c-0.04,0.01-0.08,0.02-0.11,0.02l-0.3,0.03c-0.12,0.04-0.26,0.04-0.37-0.02v0
				c-0.09-0.02-0.17-0.06-0.23-0.11l-0.09-0.08c-0.08-0.02-0.16-0.07-0.22-0.13c-0.07-0.07-0.12-0.15-0.15-0.24l-0.18-0.16
				c-0.04-0.03-0.07-0.07-0.1-0.11c-0.05-0.02-0.1-0.05-0.14-0.08l-0.13,0.01c-0.06,0.01-0.11,0-0.17-0.02l-0.1-0.03
				c-0.07-0.02-0.14-0.06-0.19-0.11c-0.04-0.01-0.08-0.03-0.12-0.05c-0.01-0.01-0.1-0.06-0.11-0.06l-0.42-0.27
				c-0.02,0-0.12-0.04-0.14-0.05c-0.05-0.02-0.09-0.04-0.13-0.07l-0.11-0.08c-0.01,0-0.02-0.02-0.04-0.04l-0.07-0.04
				c-0.02-0.01-0.1-0.07-0.12-0.08c-0.03-0.02-0.06-0.04-0.08-0.07c-0.03-0.01-0.06-0.02-0.08-0.03l-0.29-0.17
				c-0.06-0.03-0.11-0.07-0.15-0.12c-0.06-0.01-0.12-0.03-0.17-0.06l-0.02-0.01c-0.11-0.03-0.21-0.11-0.27-0.21l-0.06-0.08
				c-0.04-0.07-0.07-0.15-0.08-0.23L17.5,42c-0.05-0.08-0.08-0.16-0.08-0.25l-0.01-0.12c-0.05-0.08-0.09-0.2-0.1-0.28l0-0.06
				c-0.04-0.04-0.07-0.08-0.1-0.13c-0.01-0.01-0.02-0.02-0.02-0.03l-0.07-0.1c-0.03-0.04-0.05-0.08-0.06-0.12
				c-0.08-0.06-0.16-0.14-0.18-0.18c-0.01-0.03-0.07-0.12-0.08-0.15c-0.01-0.02-0.02-0.05-0.03-0.08l0,0
				c-0.05-0.05-0.08-0.12-0.1-0.19c-0.01-0.04-0.02-0.11-0.03-0.17c-0.02-0.03-0.04-0.06-0.05-0.08c-0.01-0.02-0.04-0.09-0.05-0.13
				c-0.02-0.02-0.04-0.04-0.04-0.05c-0.01-0.01-0.07-0.09-0.07-0.09c-0.04-0.06-0.09-0.16-0.11-0.25c-0.01-0.02-0.02-0.05-0.03-0.06
				c-0.01-0.05-0.03-0.11-0.03-0.17c-0.05-0.08-0.08-0.16-0.09-0.23c0-0.03,0-0.07,0-0.11c-0.01-0.03-0.01-0.06-0.01-0.07
				c0-0.04,0-0.19,0.01-0.24l0.02-0.09c0.01-0.06,0.03-0.12,0.05-0.18c-0.03-0.06-0.06-0.13-0.06-0.19l-0.02-0.45
				c-0.01-0.03-0.03-0.07-0.04-0.1l0,0c-0.02-0.08-0.05-0.23-0.03-0.32c0-0.04,0-0.07,0-0.11l0-0.09c0-0.06,0-0.16,0.02-0.24
				c0-0.02,0-0.03,0-0.04l0.01-0.12l-0.01-0.18c-0.01-0.11,0.03-0.25,0.09-0.35l-0.01-0.14c0-0.07,0.01-0.15,0.04-0.22
				c-0.01-0.09-0.01-0.18,0.01-0.25c0.01-0.04,0.02-0.09,0.04-0.13l0-0.03l0.01-0.2c0.01-0.07,0.03-0.14,0.06-0.2
				c0.08-0.15,0.25-0.26,0.41-0.29c0.02-0.02,0.03-0.04,0.05-0.06l0.08-0.08c0.04-0.04,0.09-0.07,0.13-0.09l0.01-0.1
				c0-0.03,0.02-0.11,0.03-0.13c0.02-0.08,0.06-0.16,0.12-0.22c0.05-0.08,0.11-0.16,0.17-0.19l0.32-0.23c0,0,0.01-0.01,0.01-0.01
				c0.04-0.09,0.11-0.17,0.19-0.22c0.07-0.04,0.16-0.07,0.25-0.08c0.02-0.01,0.04-0.03,0.06-0.04l0.11-0.11
				c0.03-0.03,0.06-0.06,0.09-0.08c0.08-0.05,0.25-0.14,0.34-0.14l0.09,0c0.04-0.02,0.09-0.04,0.14-0.05
				c0.06-0.05,0.14-0.09,0.22-0.1l0,0c0.04-0.04,0.09-0.07,0.14-0.09l0.02-0.02c0.12-0.11,0.28-0.15,0.43-0.12
				c0.07-0.01,0.15-0.01,0.22,0.02c0.04,0,0.09,0,0.11,0.01l0.12,0.03c0.09,0,0.16,0.01,0.23,0.04c0.09,0,0.14,0.04,0.22,0.09
				c0.01,0,0.02,0.01,0.04,0.02c0.11-0.02,0.22-0.01,0.32,0.04c0.05-0.04,0.11-0.07,0.17-0.09c0.02-0.01,0.04-0.02,0.05-0.02
				c0.04-0.03,0.09-0.05,0.14-0.06c0.12-0.04,0.25-0.04,0.37,0.02c0.02,0.01,0.04,0.02,0.06,0.03l0.03,0l0.05,0
				c0.04-0.01,0.08-0.02,0.12-0.03c0.08-0.03,0.16-0.05,0.25-0.04c0.01-0.01,0.02-0.01,0.03-0.02l0.12-0.06
				c0.01,0,0.1-0.04,0.1-0.05c0.02-0.01,0.04-0.02,0.06-0.02c0.08-0.09,0.19-0.14,0.31-0.15c0.11-0.01,0.22,0.01,0.31,0.07
				l0.05,0.02c0.06,0.01,0.12,0.03,0.17,0.06l0.06,0.01c0.03,0,0.05,0.01,0.07,0.01c0.07-0.01,0.14,0.01,0.21,0.04
				c0.02,0.01,0.05,0.02,0.07,0.03c0,0,0,0,0,0l0.05,0c0.07-0.02,0.14-0.02,0.2-0.02c0.01,0,0.13,0,0.14,0
				c0.07,0,0.16,0.02,0.23,0.05c0.06,0.03,0.18,0.1,0.22,0.14c0.03,0.03,0.07,0.08,0.09,0.12l0.03,0.04
				c0.02,0.02,0.04,0.03,0.06,0.05c0,0,0,0,0,0l0.03,0.01c0.03,0,0.06,0.01,0.08,0.02l0.06,0c0.08-0.01,0.16,0.01,0.24,0.05
				c0.02,0.01,0.06,0.03,0.08,0.04c0.01,0,0.02,0,0.02,0c0.06,0.02,0.17,0.06,0.21,0.09c0.04,0.02,0.1,0.06,0.14,0.09
				c0.08,0.03,0.15,0.08,0.19,0.13c0,0,0,0.01,0.01,0.01l0,0c0.08,0.02,0.16,0.06,0.22,0.12c0.01,0,0.02,0.01,0.03,0.02
				c0.14,0.01,0.3,0.07,0.4,0.17l0.1,0.08c0.07,0.03,0.13,0.08,0.17,0.13c0.03,0.02,0.06,0.05,0.08,0.07c0.06,0,0.13,0.02,0.18,0.04
				c0.06,0.03,0.18,0.09,0.22,0.14c0,0,0.01,0.01,0.01,0.01l0.06,0c0.13-0.02,0.23,0.03,0.33,0.1l0.25,0.18
				c0.03,0.02,0.06,0.05,0.08,0.08l0.07,0.09c0.02,0.03,0.05,0.06,0.06,0.1c0.03,0.05,0.07,0.15,0.08,0.22l0.1,0.1
				c0.04,0,0.08,0.01,0.11,0.02c0.14,0.05,0.33,0.19,0.4,0.33c0,0,0,0,0,0.01l0.07,0.09c0,0,0.01,0.01,0.02,0.02
				c0.11,0.08,0.2,0.2,0.22,0.32l0.02,0.1l0.07,0.1c0.04,0.05,0.06,0.11,0.08,0.17c0,0.02,0.02,0.08,0.03,0.13
				c0.02,0.03,0.04,0.06,0.05,0.06c0.03,0.04,0.09,0.13,0.1,0.18 M32.46,46.32c0.06,0.03,0.12,0.06,0.17,0.11l0,0
				c0.05-0.04,0.1-0.08,0.13-0.1l0.14-0.08c0.04-0.02,0.08-0.04,0.13-0.05l0.09-0.07c0.03-0.02,0.06-0.04,0.1-0.06l0.03-0.01
				c0,0,0,0,0,0l0.08-0.09c0.06-0.06,0.13-0.11,0.21-0.14l0.14-0.15c0.07-0.12,0.18-0.2,0.31-0.23c0.07-0.02,0.23-0.04,0.3-0.03
				c0.01,0,0.02,0,0.04,0.01l0.22-0.37c0.03-0.07,0.08-0.13,0.14-0.18c0.01-0.07,0.03-0.14,0.06-0.19l0.06-0.11
				c0.07-0.13,0.2-0.22,0.34-0.25l0.04-0.01c0.04-0.03,0.07-0.06,0.12-0.08l0.12-0.06c0.06-0.03,0.13-0.05,0.2-0.05l0.23-0.01
				c0.06,0,0.11,0,0.17,0.02l0.02,0.01l0.12,0l0.32,0.04c0.07,0,0.14,0.01,0.19,0.03c0.01,0,0.01,0,0.02,0.01
				c0.06-0.03,0.13-0.05,0.2-0.06l0.43-0.02c0.06,0,0.13,0.01,0.19,0.03c0.05,0.02,0.19,0.08,0.24,0.11l0,0
				c0.07-0.01,0.14-0.01,0.2,0.01L38,44.28l0.59-0.03l0.19,0.01c0.08,0.01,0.15,0.03,0.21,0.07l0.03,0.02l0.03,0
				c0.04,0,0.07,0,0.11,0.01c0.06,0.01,0.14,0.04,0.21,0.07l0.04,0c0.06-0.01,0.13,0.01,0.2,0.03l0.15,0.04
				c0.05,0.01,0.19,0.05,0.23,0.07l0.06,0.04c0.07-0.02,0.14-0.03,0.18-0.02h0.12c0.01,0,0.03,0,0.04,0
				c0.01-0.02,0.03-0.04,0.05-0.06c0.02-0.02,0.07-0.07,0.09-0.09c0.08-0.07,0.23-0.14,0.34-0.15l0.12,0c0.05,0,0.1,0,0.14,0.01
				l0.11,0.03l0.08-0.06c0.04-0.03,0.09-0.06,0.14-0.08l0.12-0.04c0.03-0.01,0.05-0.02,0.08-0.02c0.02-0.01,0.04-0.02,0.06-0.03
				l0.18-0.08c0,0,0.09-0.04,0.09-0.04c0.06-0.03,0.21-0.08,0.28-0.09l0.09-0.02c0.05-0.02,0.1-0.03,0.15-0.03l0.09-0.1
				c0.04-0.05,0.1-0.09,0.16-0.12c-0.01-0.04-0.02-0.09-0.02-0.13l0-0.06c-0.03-0.06-0.05-0.13-0.06-0.2c0,0,0,0,0,0l-0.1-0.19
				c-0.02,0-0.03-0.01-0.05-0.01c-0.03-0.01-0.15-0.05-0.18-0.07l-0.09-0.05c-0.03-0.02-0.06-0.04-0.09-0.07l-0.11-0.1
				c-0.03-0.03-0.06-0.06-0.08-0.1c-0.03-0.01-0.06-0.03-0.09-0.05c-0.04-0.03-0.14-0.09-0.17-0.13l-0.02-0.02
				c-0.08-0.05-0.19-0.13-0.22-0.17l-0.07-0.1c-0.04-0.06-0.07-0.12-0.08-0.19c-0.03,0-0.07-0.01-0.07-0.01l-0.11-0.02
				c-0.08-0.01-0.15-0.03-0.21-0.07l-0.02-0.01c-0.07,0.02-0.14,0.04-0.21,0.03c-0.01,0-0.02,0-0.04,0
				c-0.07,0.03-0.15,0.05-0.2,0.05l-0.12,0.01c-0.04,0-0.08,0-0.12-0.01l-0.21-0.05l-0.05,0c-0.09,0-0.17-0.02-0.25-0.06
				c-0.02,0-0.03,0-0.05-0.01l-0.39-0.12c-0.01-0.01-0.08-0.03-0.12-0.04c-0.02,0-0.05,0.01-0.07,0.01l-0.48,0.04l-0.19-0.01
				c-0.07-0.01-0.14-0.03-0.2-0.07c-0.08,0.02-0.17,0.02-0.25-0.01l-0.1-0.03l-0.03,0.01l-0.2-0.04c-0.05-0.01-0.09-0.03-0.13-0.05
				L37.4,41.5c-0.04,0-0.08-0.01-0.12-0.03c-0.07-0.02-0.22-0.09-0.27-0.14c-0.02-0.02-0.05-0.05-0.08-0.09
				c-0.05,0-0.13-0.01-0.19-0.03c-0.06,0-0.12-0.01-0.15-0.03l-0.08-0.03l-0.26,0.03c-0.1,0.03-0.21,0.04-0.3,0.01l-0.02-0.01
				l-0.04,0l-0.2-0.01c-0.12-0.01-0.23-0.07-0.31-0.16h0c-0.02-0.01-0.13-0.05-0.15-0.07c-0.02-0.01-0.09-0.06-0.11-0.08
				c0,0-0.04-0.03-0.06-0.06l0,0c-0.05,0.01-0.11,0.01-0.16,0.01l-0.12-0.01c-0.11,0.01-0.19-0.02-0.28-0.1l-0.09-0.07
				c-0.04-0.03-0.08-0.07-0.11-0.11c-0.04-0.05-0.1-0.16-0.11-0.23l-0.03-0.07c-0.02-0.04-0.04-0.07-0.05-0.11l-0.02-0.07
				c-0.07-0.06-0.15-0.14-0.18-0.21c-0.01-0.02-0.03-0.06-0.04-0.11l0,0c-0.08-0.06-0.15-0.15-0.18-0.25v0
				c-0.04-0.03-0.08-0.06-0.11-0.08c-0.08,0-0.16-0.03-0.23-0.07c-0.14-0.01-0.32-0.06-0.4-0.14c-0.05-0.04-0.1-0.11-0.15-0.19
				l-0.12-0.07c-0.03-0.01-0.05-0.02-0.08-0.03l-0.04-0.01c-0.05-0.01-0.1-0.03-0.14-0.06l-0.11-0.07
				c-0.03-0.02-0.05-0.03-0.07-0.05c-0.1-0.05-0.19-0.13-0.24-0.24l-0.12-0.31c-0.01-0.04-0.02-0.08-0.02-0.13l0-0.03
				c-0.06,0.03-0.13,0.06-0.21,0.06l-0.24,0.03c-0.15,0.05-0.31,0.03-0.44-0.05c-0.06-0.01-0.11-0.03-0.15-0.06l0,0
				C30.74,38,30.69,38,30.64,38l-0.12-0.01c-0.12-0.01-0.23-0.07-0.32-0.16l-0.09-0.05c-0.06-0.04-0.11-0.08-0.16-0.14l-0.02-0.02
				c-0.02-0.01-0.04-0.03-0.06-0.04c-0.06-0.02-0.11-0.05-0.16-0.08c0,0-0.01,0-0.01,0c-0.06,0.01-0.2,0.04-0.26,0.04l-0.28-0.04
				c-0.09-0.01-0.19-0.05-0.26-0.1l-0.11-0.08c-0.06-0.04-0.1-0.1-0.14-0.16l-0.11-0.26l-0.01,0.01l-0.07-0.09
				c-0.07-0.08-0.11-0.19-0.12-0.3l-0.05-0.09c-0.07-0.08-0.11-0.17-0.12-0.27l-0.08-0.09c-0.01-0.01-0.02-0.01-0.02-0.02
				c-0.07,0-0.13-0.02-0.19-0.05c-0.08-0.05-0.24-0.16-0.28-0.25l-0.12-0.14c-0.03-0.03-0.09-0.09-0.11-0.12l-0.06-0.09
				c-0.02-0.04-0.04-0.08-0.06-0.12c-0.09,0.02-0.18,0.03-0.26,0l0,0c-0.15-0.03-0.29-0.12-0.37-0.25
				c-0.01-0.01-0.02-0.03-0.03-0.05c-0.12-0.01-0.27-0.06-0.34-0.13c-0.04-0.04-0.09-0.1-0.13-0.16c-0.03-0.02-0.05-0.04-0.08-0.07
				c-0.02-0.01-0.03-0.02-0.04-0.04l-0.06-0.06c-0.11,0-0.21-0.04-0.3-0.1l-0.1-0.06c-0.02-0.01-0.05-0.02-0.07-0.04
				c-0.03-0.01-0.05-0.02-0.08-0.03l-0.1-0.05c-0.08-0.04-0.14-0.09-0.19-0.16c-0.03-0.02-0.05-0.03-0.07-0.05
				c-0.06-0.01-0.13-0.04-0.19-0.07c-0.02,0-0.04,0-0.07-0.01c-0.03,0-0.08-0.01-0.13-0.03c-0.05,0-0.1-0.01-0.14-0.03l-0.12-0.05
				c-0.04-0.01-0.08-0.04-0.11-0.06c-0.08-0.03-0.16-0.1-0.21-0.17c-0.03-0.02-0.06-0.05-0.07-0.06L24,33.52c-0.01,0-0.02,0-0.03,0
				l-0.13,0.03c-0.16,0.05-0.34,0.01-0.47-0.09c-0.03-0.01-0.06-0.01-0.08-0.02l-0.07-0.01c-0.09,0-0.17-0.01-0.24-0.05
				c-0.05,0.02-0.1,0.03-0.15,0.04l-0.08,0.05c-0.05,0.05-0.12,0.08-0.18,0.11c-0.09,0.03-0.21,0.04-0.31,0.03c0,0-0.01,0-0.01,0
				c-0.05,0.03-0.11,0.04-0.18,0.04l-0.17,0.02c-0.06,0.01-0.12,0.01-0.18,0c-0.01,0-0.04-0.01-0.06-0.01
				c-0.04,0.08-0.1,0.15-0.18,0.19c-0.15,0.09-0.34,0.11-0.5,0.02l-0.06-0.01c-0.06-0.01-0.11-0.04-0.16-0.07c-0.03,0-0.04,0-0.06,0
				c-0.12,0-0.3-0.03-0.39-0.1l-0.09-0.07c-0.01,0-0.06-0.02-0.09-0.04c-0.01,0-0.02,0-0.02,0c-0.01,0-0.11-0.02-0.12-0.02
				l-0.07-0.02c-0.03,0-0.06,0.01-0.1,0.01c0,0-0.01,0-0.02,0c0,0-0.01,0-0.01,0.01c-0.06,0.05-0.12,0.09-0.19,0.11
				c-0.03,0.01-0.05,0.03-0.07,0.03c-0.01,0-0.02,0.01-0.03,0.01l-0.04,0.03c-0.04,0.03-0.09,0.05-0.15,0.07
				c-0.01,0-0.03,0.01-0.05,0.01c-0.02,0.01-0.05,0.02-0.07,0.03c-0.06,0.03-0.13,0.05-0.19,0.06l-0.05,0l-0.11,0.1
				c-0.02,0.02-0.04,0.03-0.06,0.04l0,0c-0.06,0.09-0.16,0.16-0.27,0.19c-0.02,0.01-0.05,0.01-0.08,0.02
				c-0.01,0.01-0.02,0.02-0.03,0.03c-0.05,0.05-0.12,0.1-0.19,0.14l-0.2,0.15l0.01,0.18c0.01,0.16-0.06,0.31-0.18,0.41
				c-0.02,0.02-0.04,0.04-0.06,0.06c-0.06,0.06-0.13,0.12-0.21,0.14c-0.03,0.08-0.08,0.16-0.15,0.21c-0.03,0.02-0.11,0.07-0.14,0.09
				c-0.02,0.01-0.04,0.02-0.07,0.03c0,0.01,0,0.01,0,0.02c0.01,0.05,0.01,0.11,0.01,0.17h0c0,0.05-0.01,0.11-0.03,0.16
				c-0.01,0.03-0.02,0.07-0.03,0.1l0,0.07c0,0.04,0,0.09-0.01,0.13l-0.03,0.13c-0.01,0.04-0.03,0.08-0.05,0.12l0,0.12l-0.01,0.19
				c0,0.06,0,0.13-0.02,0.19l0,0.08c0,0.01,0,0.03,0,0.04c0,0.01,0,0.02,0,0.02c0,0.02,0,0.07,0,0.11c0.02,0.04,0.04,0.09,0.04,0.11
				L17.15,38c0.02,0.03,0.04,0.08,0.04,0.1c0.01,0.04,0.04,0.15,0.04,0.19l0.01,0.12c0,0.09-0.02,0.19-0.06,0.27
				c-0.01,0.03-0.02,0.05-0.03,0.08l0,0.02c0.01,0.03,0.01,0.07,0.01,0.1c0.01,0.02,0.03,0.04,0.03,0.06
				c0.02,0.05,0.05,0.15,0.05,0.2c0,0.01,0,0.02,0,0.03c0.01,0.02,0.02,0.05,0.03,0.08c0.04,0.04,0.12,0.12,0.14,0.17
				c0.02,0.04,0.05,0.11,0.06,0.15l-0.02,0.01c0.04,0.06,0.11,0.15,0.12,0.2l0.04,0.12c0.01,0.03,0.02,0.06,0.02,0.08
				c0.03,0.05,0.06,0.11,0.07,0.17c0,0,0,0,0,0.01c0.05,0.04,0.09,0.07,0.11,0.09l0.07,0.08c0.05,0.05,0.08,0.12,0.1,0.19
				c0.07,0.03,0.12,0.08,0.17,0.14c0.06,0.08,0.14,0.23,0.14,0.33l0.01,0.17c0.01,0.01,0.02,0.03,0.02,0.04
				c0.02,0.06,0.08,0.2,0.08,0.26l0.05,0.17c0.01,0.02,0.03,0.04,0.04,0.07c0.05,0.02,0.09,0.04,0.14,0.07l0.12,0.08
				c0.06,0.03,0.11,0.08,0.16,0.13l0.16,0.09c0.1,0.03,0.21,0.09,0.26,0.15l0.15,0.11c0.04,0.02,0.08,0.05,0.11,0.08l0.15,0.07
				c0.02,0,0.12,0.04,0.13,0.04c0.05,0.02,0.09,0.04,0.13,0.07l0.39,0.27c0.07,0.02,0.13,0.05,0.19,0.09l0.13-0.01
				c0.06,0,0.13,0.01,0.18,0.03c0.03,0.01,0.14,0.05,0.16,0.06l0.09,0.05c0.03,0.01,0.05,0.03,0.07,0.05
				c0.04,0.01,0.07,0.03,0.09,0.04c0.06,0.04,0.19,0.15,0.23,0.22l0.03,0.03c0.01,0.01,0.08,0.07,0.09,0.08l0.09,0.1
				c0.06,0.05,0.14,0.12,0.16,0.17l0.01,0.02c0.02,0.01,0.04,0.03,0.06,0.04l0.03,0.03c0,0,0.01,0,0.01,0l0.24-0.01
				c0.04-0.01,0.08-0.02,0.12-0.02l0.07,0c0.03-0.02,0.05-0.03,0.08-0.04c0.01-0.03,0.02-0.05,0.04-0.08
				c0.02-0.12,0.08-0.23,0.17-0.3c0.08-0.07,0.26-0.17,0.37-0.17l0.31-0.01c0.04,0,0.09,0,0.13,0.01l0.08,0.02l0.04,0
				c0.05-0.01,0.11,0,0.16,0.02c0.02,0.01,0.1,0.03,0.12,0.04c0.07,0.03,0.14,0.08,0.21,0.15l0.02,0.01
				c0.06,0.02,0.12,0.05,0.15,0.07l0.1,0.05c0.06,0.02,0.12,0.06,0.16,0.1c0,0,0.04,0.04,0.06,0.06c0.07,0.02,0.13,0.05,0.18,0.09
				c0.01,0,0.02,0.01,0.03,0.01l0.38,0.12c0.02,0,0.12,0.04,0.13,0.04c0.01,0,0.18,0.09,0.19,0.1l0.06,0.04
				c0.04,0.01,0.08,0.03,0.1,0.04l0.18,0.11c0.03,0.02,0.06,0.04,0.09,0.07c0,0,0,0,0.01,0.01l0.04-0.01c0,0,0,0,0.01,0
				c0.02-0.02,0.05-0.04,0.08-0.05c0.05-0.05,0.11-0.1,0.18-0.13l0.1-0.04c0.05-0.02,0.11-0.03,0.16-0.03c0.05,0,0.18,0,0.23,0.01
				l0.12,0.03c0.08,0.02,0.16,0.06,0.23,0.12l0,0l0.05,0c0.02-0.01,0.03-0.01,0.04-0.02l0.12-0.04c0.06-0.02,0.13-0.03,0.2-0.03
				c0.01,0,0.03,0,0.04,0l0.12-0.01c0.06-0.01,0.13,0.01,0.19,0.03l0.02,0c0.07-0.01,0.13,0.01,0.19,0.03c0.01,0,0.1,0.04,0.11,0.04
				l0.18,0.06l0.02-0.01c0.04-0.02,0.09-0.03,0.14-0.03l0.33-0.02c0.05,0,0.1,0,0.15,0.01l0.2,0.06l0.18-0.04
				c0.02-0.01,0.04-0.02,0.05-0.02l0.02-0.02c0.11-0.09,0.26-0.12,0.39-0.1c0.06-0.01,0.11-0.01,0.16,0c0,0,0.01,0,0.01,0
				c0.04-0.01,0.08-0.02,0.12-0.02c0.06-0.01,0.13,0,0.19,0.02c0.09-0.03,0.18-0.03,0.27,0l0.09,0c0.05,0,0.18,0,0.23,0.01
				l0.12,0.03c0.1,0.03,0.19,0.08,0.26,0.16l0.03,0.03c0.05,0.02,0.09,0.05,0.13,0.08l0.04,0.03c0.16,0.02,0.3,0.12,0.38,0.26
				l0.12,0.2c0.03,0.05,0.05,0.1,0.06,0.15l0.03,0.06c0.04,0.06,0.06,0.12,0.07,0.19c0.02,0.04,0.03,0.07,0.04,0.1l0.01,0.08
				c0.03,0.08,0.04,0.17,0.02,0.25c0.02,0.01,0.03,0.02,0.05,0.04c0.09,0.09,0.19,0.25,0.19,0.37L32.46,46.32z M42.14,44.46
				l0.19,0.37l-0.29-0.12L42.14,44.46z"/>
		</g>
		<g>
			<path class="st0" d="M12.06,37.79h-0.12c-0.06,0-0.12-0.01-0.17-0.03c-0.09,0.01-0.19-0.01-0.26-0.05
				c-0.12-0.02-0.23-0.09-0.31-0.19l-0.07-0.09c-0.03-0.04-0.05-0.08-0.07-0.13c-0.09,0.03-0.2,0.04-0.32,0.01
				c-0.04,0.01-0.08,0.02-0.1,0.02h-0.12c-0.06,0-0.13-0.01-0.19-0.04h-0.04c-0.08,0.05-0.17,0.07-0.26,0.07H9.9
				c-0.04,0-0.09,0-0.13-0.01c-0.07,0.02-0.15,0.02-0.22,0c-0.08,0.05-0.18,0.08-0.28,0.08H8.44c-0.04,0-0.08,0-0.11-0.01
				c-0.01,0-0.02,0.01-0.03,0.01l-0.08,0.01c-0.04,0.01-0.09,0.03-0.13,0.04C8.06,37.5,8.03,37.52,8,37.53
				c-0.04,0.03-0.09,0.06-0.13,0.07l-0.13,0.04c-0.1,0.03-0.21,0.03-0.3-0.01l-0.02,0.01c-0.11,0.05-0.27,0.07-0.38,0.04l-0.09-0.02
				c-0.03,0-0.05,0-0.08-0.01c-0.02,0-0.04,0.01-0.06,0.01H6.7c-0.15,0-0.29-0.07-0.38-0.17c-0.06-0.01-0.13-0.04-0.18-0.07
				c-0.02,0-0.03-0.01-0.04-0.01c-0.06-0.02-0.17-0.08-0.24-0.13l-0.02,0c-0.02,0-0.04-0.01-0.07-0.01
				c-0.03,0.02-0.07,0.04-0.1,0.05l-0.13,0.04c-0.11,0.03-0.23,0.03-0.33-0.02c-0.12-0.05-0.31-0.19-0.36-0.31
				c-0.02-0.06-0.07-0.21-0.07-0.28c0-0.15,0.07-0.32,0.18-0.42l-0.03-0.26c0-0.01-0.02-0.09-0.02-0.11
				c-0.01-0.05-0.01-0.11-0.01-0.16c-0.01-0.04-0.02-0.09-0.02-0.13v-0.24c-0.03-0.06-0.05-0.12-0.05-0.18
				c-0.01-0.02-0.02-0.03-0.03-0.05l-0.05-0.11C4.7,35,4.68,34.93,4.68,34.85c-0.03-0.06-0.06-0.18-0.07-0.26
				c-0.03-0.04-0.06-0.09-0.08-0.14c0,0,0,0,0,0c-0.01,0.01-0.02,0.01-0.03,0.02c-0.12,0.07-0.27,0.1-0.41,0.06
				c-0.03,0-0.05-0.01-0.07-0.02C4,34.5,3.97,34.48,3.94,34.47c-0.21,0.05-0.41-0.05-0.53-0.21c0,0-0.04-0.04-0.07-0.05
				c-0.08-0.02-0.15-0.05-0.21-0.1l-0.09-0.07c0,0-0.01-0.01-0.01-0.01C3.02,34.01,3.01,34,2.99,34c-0.16-0.02-0.31-0.1-0.39-0.23
				l-0.05-0.09c0,0-0.01-0.01-0.01-0.01c-0.13-0.03-0.26-0.1-0.34-0.2c-0.01,0-0.01-0.01-0.02-0.01c-0.02-0.01-0.05-0.02-0.06-0.02
				c-0.07-0.02-0.13-0.06-0.18-0.1c-0.07-0.03-0.14-0.06-0.18-0.11c-0.04-0.02-0.05-0.04-0.09-0.07l-0.26-0.27
				c-0.08-0.06-0.14-0.15-0.18-0.24c-0.03-0.01-0.07-0.03-0.1-0.05C1.07,32.56,1,32.52,0.96,32.47c-0.1-0.12-0.15-0.28-0.13-0.43
				c-0.13-0.1-0.25-0.26-0.25-0.41v-0.26c0-0.05,0.01-0.1,0.02-0.15c0.06-0.17,0.21-0.34,0.39-0.39l0,0
				c0.08-0.06,0.18-0.09,0.28-0.09c0.08-0.03,0.16-0.03,0.23-0.01c0.03,0,0.06-0.01,0.07-0.01h0.2c0.06-0.09,0.14-0.17,0.21-0.2
				c0.03-0.02,0.05-0.04,0.08-0.05c0.08-0.05,0.17-0.08,0.26-0.08h0.01c0.02-0.02,0.04-0.03,0.06-0.04
				c0.15-0.09,0.34-0.11,0.49-0.03l0.03,0L3,30.29c0.06-0.02,0.12-0.03,0.18-0.03l0.08-0.02c0.04-0.01,0.09-0.02,0.14-0.02h0.13
				c0.08,0,0.18,0.02,0.26,0.06c0.04,0.01,0.08,0.02,0.11,0.03l0.05,0.01l0.02,0c0,0,0.01,0,0.01-0.01
				c0.04-0.03,0.09-0.05,0.14-0.07c0.08-0.05,0.16-0.08,0.24-0.08l0.01,0.03c0.08-0.04,0.16-0.06,0.23-0.06h0.13
				c0.08,0,0.16,0.02,0.23,0.06l0,0c0.06,0.02,0.13,0.04,0.18,0.08c0.02-0.01,0.04-0.02,0.05-0.03L5.2,30.2
				c0.02-0.04,0.02-0.05,0.06-0.08l0.03-0.03c0.02-0.02,0.03-0.04,0.05-0.06c0.01-0.02,0.03-0.05,0.04-0.07l0.07-0.09
				c0.03-0.04,0.06-0.07,0.09-0.09c0.03-0.06,0.08-0.12,0.12-0.16c0.02-0.03,0.03-0.05,0.05-0.08c0.02-0.07,0.06-0.14,0.1-0.18
				l0.07-0.07c0.01-0.02,0.01-0.03,0.02-0.04c0.01-0.09,0.04-0.16,0.1-0.22c0.01-0.03,0.02-0.06,0.03-0.08l0.04-0.06
				c0.05-0.11,0.13-0.22,0.22-0.28c0.05-0.04,0.1-0.08,0.15-0.11c0.04-0.06,0.09-0.11,0.15-0.14l0.03-0.02
				c0.09-0.16,0.27-0.29,0.45-0.29h0.08c0.06-0.02,0.12-0.04,0.17-0.04h0.15c0.05,0,0.1,0.01,0.15,0.02l0.1,0.03
				c0.05,0,0.1,0,0.15,0.01c0.14,0,0.27,0.04,0.37,0.14c0.02,0.01,0.05,0.02,0.06,0.03l0.2,0.06c0.02,0,0.03,0.01,0.05,0.02h0.03
				c0.08,0,0.19,0.02,0.26,0.05l0,0c0.04,0.01,0.07,0.02,0.1,0.04c0.01,0.01,0.1,0.05,0.11,0.06l0.09,0.06
				c0.02,0.01,0.06,0.04,0.09,0.06l0.06,0.02c0.03,0.01,0.06,0.03,0.09,0.05c0.07,0,0.14,0.02,0.2,0.05
				c0.02,0.01,0.05,0.03,0.08,0.05c0.04,0.01,0.07,0.02,0.1,0.03c0.03,0.02,0.17,0.09,0.2,0.12c0.06,0,0.09,0.02,0.15,0.06
				c0.09,0.05,0.28,0.19,0.33,0.28c0.01,0.03,0.04,0.1,0.05,0.13c0,0.01,0,0.01,0,0.02l0.06,0.05c0.09,0.05,0.12,0.09,0.17,0.19
				c0,0.01,0.01,0.01,0.01,0.02c0.01,0,0.01,0.01,0.02,0.01l0.11,0.06c0.09,0.04,0.17,0.11,0.22,0.2l0.02,0.04
				c0.01,0,0.01,0.01,0.02,0.01l0.05,0.03c0.03,0.01,0.06,0.02,0.08,0.03c0,0,0,0,0.01,0h0.06c0.07-0.01,0.15-0.02,0.21-0.01
				c0.07,0,0.14,0.02,0.2,0.05c0.14-0.02,0.28,0.05,0.38,0.14c0.04,0.01,0.09,0.03,0.12,0.04c0.03,0.02,0.14,0.08,0.17,0.1
				l0.11,0.09c0.05,0.04,0.09,0.1,0.12,0.16l0.07,0.11c0,0,0,0.01,0.01,0.01c0.02,0.02,0.03,0.03,0.04,0.04l0.03,0.04
				c0.04,0.02,0.08,0.05,0.1,0.06l0.04,0.02c0.04,0.01,0.08,0.03,0.12,0.05l0.09,0.06c0.05,0.03,0.09,0.07,0.13,0.12l0.07,0.09
				c0.01,0.02,0.03,0.04,0.04,0.05c0.02,0.02,0.04,0.04,0.06,0.07l0.19,0.25c0.07,0.07,0.12,0.16,0.13,0.25
				c0.01,0.03,0.03,0.15,0.03,0.19c0,0.15-0.07,0.35-0.18,0.44l-0.09,0.08c-0.02,0.01-0.04,0.03-0.05,0.04
				c-0.01,0.03-0.02,0.06-0.03,0.08l-0.03,0.05c0.01,0.11-0.02,0.23-0.08,0.32c0.01,0.03,0.02,0.05,0.02,0.08
				c0.04,0.06,0.06,0.13,0.06,0.2l0.04,0.09c0.06,0.13,0.06,0.27,0.01,0.4c0,0,0,0,0,0.01c-0.01,0.06-0.03,0.12-0.06,0.17
				c-0.05,0.07-0.12,0.14-0.2,0.19c0,0.01-0.01,0.03-0.02,0.04l0.02,0.06c0.02,0.06,0.03,0.12,0.02,0.18
				c0.01,0.02,0.03,0.04,0.04,0.07l0.15,0.25c0.09,0.09,0.15,0.21,0.15,0.34c0,0.07-0.02,0.2-0.05,0.27l0,0
				c-0.02,0.09-0.05,0.18-0.1,0.24l-0.09,0.11c-0.1,0.11-0.24,0.18-0.38,0.18h-0.47c-0.01,0.01-0.02,0.01-0.04,0.02c0,0,0,0,0,0.01
				c0.12,0.09,0.18,0.24,0.18,0.39v0.13c0,0.04,0,0.07-0.01,0.11c0.01,0.03,0.01,0.06,0.01,0.09l0.04,0.09
				c0.03,0.07,0.05,0.14,0.05,0.21v0.13c0,0.09-0.02,0.17-0.06,0.25l-0.01,0.04c-0.02,0.06-0.05,0.11-0.08,0.16l-0.07,0.09
				C12.36,37.72,12.22,37.79,12.06,37.79z M7.05,36.66L7.05,36.66c0.04,0,0.08,0,0.11,0.01l0.09-0.03c0.05-0.01,0.09-0.02,0.14-0.02
				h0.13c0,0,0.01,0,0.01,0c0.01-0.01,0.02-0.01,0.03-0.02c0.09-0.07,0.2-0.11,0.32-0.11c0.04-0.02,0.1-0.03,0.14-0.03l0.09-0.01
				c0.11-0.03,0.26-0.05,0.34-0.03l0.62,0.02l0.04-0.04c0.14-0.12,0.37-0.14,0.57-0.07c0.07-0.01,0.14,0,0.23,0.01
				c0.07-0.03,0.15-0.05,0.22-0.05h0.12c0.06,0,0.24,0.01,0.32,0.03c0.06-0.02,0.12-0.04,0.15-0.03c0.05-0.02,0.1-0.04,0.15-0.05
				c0.13-0.1,0.31-0.13,0.5-0.07v-0.04c0,0,0,0,0-0.01c-0.02-0.06-0.04-0.12-0.04-0.18c0-0.05,0.01-0.13,0.02-0.18l0.04-0.13
				c0.03-0.09,0.07-0.17,0.14-0.23c0.03-0.09,0.08-0.19,0.15-0.25c0.07-0.08,0.16-0.14,0.26-0.17c0.04-0.01,0.07-0.03,0.1-0.04
				c0.07-0.04,0.15-0.07,0.23-0.07c-0.05-0.08-0.08-0.17-0.08-0.26l0.01,0c-0.01-0.04-0.02-0.09-0.02-0.14
				c-0.04-0.06-0.07-0.13-0.08-0.19c-0.03-0.15,0-0.39,0.09-0.52c0.01-0.05,0.04-0.1,0.07-0.14c0.02-0.03,0.09-0.11,0.13-0.15
				c0,0,0-0.01,0-0.01c-0.02-0.04-0.03-0.08-0.04-0.12l-0.02-0.09c-0.02-0.06-0.04-0.12-0.04-0.19c0-0.06,0.01-0.3,0.03-0.36
				l0.03-0.07c-0.01-0.11,0.01-0.23,0.08-0.33l0.06-0.09c0.02-0.11,0.05-0.23,0.1-0.29l0.02-0.02l0,0
				c-0.04-0.04-0.08-0.08-0.11-0.13l0,0c-0.06-0.02-0.12-0.05-0.18-0.09l-0.09-0.08c-0.06-0.03-0.13-0.07-0.18-0.13l-0.07-0.08
				c-0.03-0.03-0.06-0.06-0.08-0.09l0,0l-0.07-0.09c-0.02-0.02-0.03-0.05-0.05-0.07c-0.08-0.02-0.2-0.06-0.24-0.1c0,0,0,0,0,0
				l-0.08-0.02c-0.02-0.01-0.04-0.01-0.06-0.02c-0.01,0-0.02,0-0.03,0h-0.25c-0.1,0-0.19-0.03-0.27-0.08
				c-0.04-0.01-0.08-0.03-0.11-0.04l-0.08-0.05c-0.12-0.04-0.25-0.12-0.3-0.2l-0.05-0.08c-0.03-0.02-0.06-0.04-0.09-0.06l-0.04-0.04
				c-0.05-0.03-0.11-0.06-0.14-0.09c-0.05-0.05-0.1-0.12-0.15-0.21l-0.02-0.02c-0.1-0.06-0.23-0.17-0.27-0.25
				c-0.01-0.02-0.02-0.05-0.03-0.08c-0.05-0.03-0.11-0.06-0.14-0.08L9.36,29.7c-0.03-0.01-0.05-0.01-0.07-0.02
				c-0.01,0-0.03-0.01-0.05-0.02c-0.07,0-0.13-0.02-0.19-0.04c-0.04-0.02-0.09-0.05-0.13-0.09c-0.02-0.01-0.04-0.02-0.05-0.02
				l-0.1-0.04c-0.06-0.02-0.12-0.06-0.17-0.11L8.52,29.3c-0.01,0-0.02-0.01-0.03-0.01H8.44c-0.06,0-0.13-0.01-0.19-0.04l-0.02-0.01
				l-0.02-0.01l-0.12-0.04c-0.03-0.01-0.13-0.03-0.17-0.05c-0.02,0-0.03-0.01-0.05-0.01l0,0c-0.06-0.01-0.12-0.03-0.17-0.06H7.62
				c-0.08,0-0.15-0.02-0.21-0.05c-0.01,0-0.03,0.01-0.04,0.01c-0.03,0.04-0.07,0.07-0.11,0.09l-0.06,0.04
				c-0.05,0.07-0.1,0.12-0.16,0.15l-0.07,0.04c0,0,0,0,0,0l-0.04,0.13c-0.02,0.08-0.06,0.14-0.11,0.2
				c-0.02,0.03-0.04,0.06-0.06,0.09c-0.03,0.06-0.06,0.11-0.09,0.14l-0.02,0.02C6.64,29.95,6.63,29.98,6.61,30
				c-0.03,0.05-0.08,0.13-0.13,0.18c-0.03,0.04-0.06,0.09-0.09,0.12c-0.05,0.08-0.13,0.18-0.19,0.22l-0.03,0.06
				c-0.04,0.08-0.09,0.14-0.16,0.19C6,30.79,6,30.79,6,30.8l-0.07,0.09C5.91,30.91,5.86,30.99,5.84,31
				c-0.07,0.07-0.17,0.14-0.28,0.17c-0.02,0.02-0.04,0.04-0.06,0.05l-0.09,0.06c-0.08,0.05-0.17,0.08-0.27,0.08H5.02
				c-0.16,0-0.3-0.07-0.4-0.2c-0.03,0.01-0.06,0.01-0.09,0.01l0-0.01c-0.02,0.01-0.04,0.02-0.06,0.03
				c-0.04,0.02-0.07,0.04-0.11,0.05c-0.08,0.04-0.17,0.08-0.25,0.08l-0.45-0.03c-0.05-0.01-0.1-0.02-0.15-0.05v0
				c-0.02,0-0.04-0.01-0.06-0.01l-0.04,0.01c-0.04,0.01-0.09,0.02-0.14,0.02l-0.05,0.02c-0.06,0.02-0.12,0.03-0.18,0.03l-0.22-0.01
				c-0.02,0.01-0.05,0.02-0.07,0.03l-0.13,0.04c-0.03,0.01-0.06,0.01-0.09,0.02c-0.03,0.05-0.07,0.09-0.1,0.11l-0.04,0.04
				c-0.01,0.01-0.01,0.01-0.02,0.02c0,0-0.01,0.01-0.01,0.01c-0.02,0.02-0.03,0.04-0.05,0.05c-0.1,0.12-0.27,0.19-0.42,0.17
				c0.04,0.04,0.1,0.12,0.14,0.19c0.03,0.03,0.05,0.06,0.06,0.08l0.05,0.09c0.01,0.02,0.02,0.04,0.03,0.07l0.17,0.17
				c0.02,0.01,0.04,0.02,0.05,0.03c0.04,0.02,0.11,0.06,0.16,0.1c0.06,0.02,0.12,0.05,0.17,0.08c0.08,0.04,0.16,0.08,0.21,0.14
				c0.07,0.03,0.18,0.08,0.23,0.13c0.02,0.01,0.09,0.08,0.11,0.09c0.01,0.01,0.04,0.04,0.06,0.06c0.11,0.02,0.22,0.09,0.3,0.18
				c0.03,0.02,0.05,0.03,0.07,0.05c0.08,0.02,0.14,0.05,0.2,0.1l0.06,0.05c0.07-0.01,0.15-0.01,0.2,0c0.08-0.05,0.17-0.09,0.27-0.09
				c0.05,0,0.17,0.01,0.21,0.02l0.09,0.03c0.11,0.02,0.22,0.07,0.29,0.15l0.17,0.18c0.07,0.05,0.15,0.12,0.19,0.18l0.05,0.09
				c0.02,0.04,0.04,0.07,0.05,0.11c0.04,0.06,0.08,0.13,0.09,0.17l0.04,0.13c0.01,0.03,0.01,0.05,0.02,0.08c0,0,0,0.01,0,0.01
				c0.02,0.06,0.07,0.21,0.07,0.28l0.02,0.03c0.07,0.09,0.11,0.19,0.11,0.3c0.04,0.07,0.05,0.15,0.05,0.23v0.15
				c0.01,0.02,0.02,0.04,0.03,0.06c0.03,0.1,0.04,0.23,0.01,0.34c0,0,0,0,0,0.01l0.02,0.07c0,0.02,0.03,0.13,0.03,0.14l0,0.11
				C5.97,36.2,5.99,36.23,6,36.27c0,0,0,0,0,0l0.09,0.02c0.12,0,0.19,0.04,0.28,0.11l0.05,0.04c0.06,0.01,0.12,0.03,0.17,0.06
				c0.1,0.01,0.19,0.06,0.27,0.12l0.02,0.01C6.93,36.62,7,36.64,7.05,36.66z"/>
		</g>
		<g>
			<path class="st0" d="M54.56,36.67l-0.29-0.04c-0.09-0.02-0.17-0.05-0.24-0.11l-0.04-0.04c-0.06-0.02-0.11-0.04-0.15-0.07
				l-0.81-0.47c-0.04-0.02-0.08-0.04-0.12-0.07l-0.88-0.67l-0.1-0.01c-0.09-0.01-0.18-0.05-0.25-0.12l-0.24-0.19
				c-0.08-0.02-0.16-0.06-0.21-0.12c-0.02-0.02-0.04-0.04-0.06-0.06l-0.1-0.03c-0.04-0.01-0.07-0.02-0.1-0.04l-0.08-0.04l-0.03,0
				c-0.07,0-0.16-0.01-0.23-0.05l-0.49-0.24c-0.04-0.02-0.08-0.04-0.11-0.07l-0.27-0.19l-0.12-0.01c-0.17-0.01-0.32-0.11-0.4-0.25
				l-0.09-0.16c0-0.01-0.01-0.01-0.01-0.02c-0.03-0.01-0.05-0.02-0.08-0.03l-0.2-0.11c-0.08-0.04-0.15-0.11-0.2-0.19
				c-0.02-0.01-0.05-0.03-0.07-0.05l-0.13-0.11c-0.03-0.03-0.06-0.06-0.09-0.1c-0.01-0.02-0.04-0.06-0.06-0.09l-0.13,0
				c-0.03,0-0.07,0-0.1-0.01l-0.13-0.02l-0.14,0c-0.06,0-0.13-0.01-0.19-0.03l-0.18-0.07c-0.05-0.02-0.09-0.04-0.13-0.08l-0.19-0.14
				c-0.03-0.01-0.07-0.02-0.1-0.03l-0.13-0.05c-0.02-0.01-0.03-0.01-0.05-0.02L46.4,32.6c-0.15,0.07-0.35,0.07-0.49-0.01l-0.11-0.02
				l-0.21-0.03c-0.08-0.01-0.15-0.04-0.21-0.09l-0.24-0.13c0,0-0.01,0-0.02-0.01l-0.14-0.02l-0.2,0.04c-0.14,0.03-0.28,0-0.39-0.08
				l-0.12-0.03l-0.12,0c-0.11,0-0.18-0.02-0.26-0.06l-0.62-0.37c-0.04-0.02-0.08-0.05-0.12-0.09c-0.06-0.06-0.15-0.18-0.17-0.27
				l-0.06-0.09c-0.14-0.04-0.25-0.13-0.32-0.25l-0.18-0.13c-0.04-0.02-0.08-0.05-0.11-0.08l-0.36-0.22
				c-0.08-0.04-0.16-0.1-0.21-0.17l-0.33,0.01c-0.04,0-0.07,0-0.11-0.01l-0.16-0.03c-0.01,0-0.01,0-0.02,0
				c-0.09,0-0.18-0.02-0.25-0.07l-0.42-0.17l-0.01,0c-0.04,0.01-0.07,0.01-0.12,0.01c-0.02,0-0.05,0-0.08,0
				c-0.02,0-0.04,0.01-0.07,0.01l-0.2,0c-0.12,0-0.18-0.02-0.26-0.06l-0.13-0.07c-0.06-0.04-0.12-0.08-0.16-0.14
				c-0.01-0.01-0.02-0.02-0.03-0.03l-0.11-0.09l-0.27-0.05c-0.07-0.01-0.16-0.03-0.21-0.06l-0.16-0.09
				c-0.13-0.07-0.22-0.18-0.25-0.32l-0.18-0.04c-0.11-0.03-0.2-0.09-0.27-0.18h-0.01c-0.05,0-0.1,0-0.14-0.02l-0.11-0.03l-0.05,0
				c-0.04,0-0.07,0-0.11-0.01c-0.09-0.02-0.27-0.08-0.33-0.14c-0.04-0.04-0.09-0.1-0.12-0.16c-0.02-0.01-0.04-0.02-0.06-0.03
				c-0.03-0.02-0.12-0.09-0.15-0.11l-0.1-0.05c0,0-0.01,0-0.02-0.01c-0.1-0.01-0.19-0.05-0.25-0.11l-0.54-0.39l-0.15-0.02
				c0,0-0.01,0-0.02,0c-0.08,0-0.16,0-0.22-0.02c-0.06-0.03-0.21-0.1-0.26-0.15c0,0,0,0,0,0l-0.26-0.13
				c-0.04-0.02-0.07-0.05-0.1-0.08l-0.07-0.07c-0.06-0.03-0.14-0.08-0.17-0.12c-0.05-0.05-0.1-0.13-0.12-0.19
				c-0.01-0.03-0.02-0.07-0.03-0.12c-0.01-0.03-0.02-0.06-0.03-0.09c-0.06,0.02-0.12,0.02-0.17,0.02c-0.06,0.01-0.13,0.01-0.2-0.01
				c-0.07-0.02-0.14-0.06-0.2-0.11c-0.01,0-0.01,0-0.02,0L33.81,27c-0.1,0.02-0.2,0.01-0.29-0.03c-0.13-0.04-0.27-0.12-0.33-0.23
				l-0.09-0.16c-0.04-0.07-0.06-0.15-0.07-0.23c0-0.06,0.01-0.13,0.03-0.2c0,0,0,0-0.01,0c-0.01,0-0.03-0.01-0.04-0.01
				c-0.17-0.08-0.31-0.26-0.32-0.45c-0.02-0.12,0-0.24,0.06-0.35l-0.03-0.01c-0.06-0.03-0.12-0.07-0.17-0.11l-0.09-0.02
				c-0.05-0.01-0.1-0.03-0.15-0.05l-0.16-0.09c-0.08-0.04-0.14-0.1-0.19-0.17l-0.04-0.04c-0.04,0-0.07-0.01-0.1-0.02l-0.1-0.03
				c-0.09,0.01-0.17-0.02-0.25-0.06l-0.31-0.17c-0.08-0.03-0.17-0.07-0.22-0.12l-0.16-0.16c-0.04-0.04-0.07-0.08-0.09-0.13
				l-0.03-0.03l-0.26-0.13c-0.01-0.01-0.08-0.05-0.1-0.06c-0.03-0.02-0.06-0.04-0.09-0.07l-0.09-0.09
				c-0.04-0.04-0.07-0.08-0.09-0.13c-0.01-0.03-0.05-0.1-0.07-0.15c0,0,0,0,0,0c-0.01,0-0.02,0-0.04-0.01l-0.11-0.03
				c-0.08-0.02-0.15-0.07-0.2-0.12l-0.15-0.15c-0.03-0.03-0.05-0.06-0.07-0.09l-0.04-0.06c-0.01-0.01-0.02-0.02-0.02-0.03
				l-0.23-0.27c-0.03-0.04-0.05-0.08-0.07-0.12l-0.09-0.15l-0.17-0.21c-0.03-0.04-0.06-0.08-0.09-0.12L28.59,22
				c-0.06-0.01-0.12-0.03-0.18-0.06c-0.07-0.03-0.18-0.08-0.23-0.13c-0.07-0.07-0.13-0.17-0.15-0.27c-0.02-0.03-0.03-0.06-0.04-0.09
				c-0.06-0.21,0.02-0.44,0.2-0.56l0.09-0.06c0.07-0.04,0.15-0.07,0.24-0.08c0.04,0,0.09,0,0.14,0.01l0.27-0.02
				c0.08-0.02,0.17-0.02,0.24-0.01c0.05,0.01,0.17,0.05,0.21,0.07c0.02,0,0.04,0.01,0.07,0.02l0.05,0.01
				c0.04,0.01,0.08,0.02,0.12,0.04l0.2,0.09l0.04,0c0.04,0,0.09,0,0.13,0.01l0.06,0.01l0.09,0c0.04,0,0.08,0,0.13,0.01l0.21,0.05
				c0.07,0.02,0.14,0.05,0.2,0.1c0.01,0,0.04,0.02,0.08,0.03l0.14,0.02c0.09,0.01,0.18,0.06,0.25,0.12c0.01,0,0.01,0,0.01,0
				l0.27,0.07c0.11,0.01,0.21,0.06,0.29,0.14l0.16,0.13c0.1,0.02,0.2,0.07,0.27,0.15c0.01,0,0.02,0,0.03,0.01l0.18,0.05
				c0.04,0.01,0.07,0.02,0.1,0.04l0.16,0.09c0.02,0.01,0.11,0.08,0.13,0.09l0.03,0.01c0.07,0.01,0.13,0.03,0.18,0.07l0.14,0.09
				c0.03,0.02,0.08,0.06,0.13,0.1c0.06-0.01,0.11,0,0.15,0.02c0.05,0.01,0.18,0.05,0.22,0.07l0.11,0.05
				c0.04,0.01,0.07,0.02,0.11,0.05l0.09,0.04c0.03,0,0.13,0.02,0.15,0.03c0.07,0.01,0.13,0.04,0.19,0.08
				c0.04,0.01,0.08,0.02,0.12,0.04l0.2,0.1c0.06,0.01,0.12,0.04,0.15,0.05l0.25,0.16c0.1,0,0.21,0,0.28,0.04l0.08,0.04
				c0.09-0.01,0.18,0,0.27,0.03l0.13,0.05c0.07,0.03,0.13,0.07,0.18,0.12l0.33,0.17c0.1,0.01,0.2,0.05,0.28,0.11
				c0.08,0,0.2,0.02,0.26,0.06c0.05,0.02,0.16,0.09,0.2,0.12l0.26,0.06c0.09,0,0.15,0.01,0.23,0.06l0.08,0.05l0.09,0
				c0.04,0,0.08,0,0.12,0.01c0.04,0.01,0.14,0.04,0.18,0.05c0.05,0.02,0.14,0.08,0.18,0.12c0.01,0.01,0.08,0.08,0.09,0.1l0.15,0.15
				c0.02,0.01,0.05,0.04,0.08,0.07l0.07,0.04c0.03,0.02,0.06,0.04,0.08,0.07c0.12-0.07,0.28-0.09,0.41-0.05
				c0.15,0.05,0.28,0.15,0.34,0.3l0.02,0.06c0.06-0.01,0.13-0.01,0.2,0.01l0.14,0.01l0.11,0c0.06,0,0.18,0.01,0.25,0.05l0.11,0.03
				c0.05,0.01,0.09,0.03,0.14,0.05l0.58,0.28c0.08,0.04,0.14,0.1,0.19,0.18l0.11,0.04c0.07,0.02,0.13,0.06,0.18,0.11
				c0,0,0,0,0.01,0.01c0.02,0.01,0.04,0.01,0.06,0.02c0.04,0,0.07,0,0.09,0.01l0.21,0.05c0.09,0.02,0.18,0.07,0.25,0.14h0.01
				c0.06-0.06,0.13-0.11,0.22-0.13l0.1-0.02c0.02-0.01,0.04-0.02,0.06-0.02l0.12-0.04c0.15-0.05,0.31-0.03,0.44,0.07
				c0.13,0.09,0.21,0.24,0.21,0.4l0,0.07c0.01,0.01,0.02,0.02,0.02,0.03l0.06,0.08l0.06,0c0.05,0,0.1,0.01,0.15,0.02l0.01,0
				c0,0,0.01,0,0.02,0l0.07-0.04c0.08-0.05,0.16-0.07,0.25-0.07l0.12,0l0.22,0.02c0.1,0.01,0.2,0.05,0.28,0.12l0.13,0.11
				c0.06,0.05,0.11,0.12,0.14,0.19l0.33,0.17c0.11,0.03,0.21,0.09,0.28,0.18l0.08,0.06l0.26,0.09c0.03,0.01,0.06,0.03,0.09,0.04
				l0.29,0.17c0.07,0.04,0.13,0.09,0.17,0.15l0.21,0.25c0.04,0.03,0.07,0.06,0.1,0.09l0.15,0.18c0.04,0.02,0.08,0.05,0.11,0.07
				l0.11,0.1l0.12,0.01l0.28-0.02c0.23-0.03,0.44,0.1,0.52,0.31c0.01,0.03,0.04,0.1,0.05,0.16c0.03,0.01,0.07,0.02,0.1,0.03
				l0.66,0.28c0.13,0.05,0.23,0.16,0.28,0.3l0.03,0.01c0.02,0,0.04,0.01,0.07,0.01c0.03-0.01,0.07-0.02,0.11-0.02
				c0.08-0.01,0.19,0.01,0.27,0.05c0.09,0.04,0.24,0.15,0.29,0.24l0.09,0.16c0.03,0.05,0.05,0.1,0.06,0.15l0.01,0.06
				c0.07,0.04,0.13,0.1,0.17,0.16l0.05,0.01l0.19,0.03l0.27-0.01c0.11,0,0.19,0.02,0.27,0.07l0.23,0.14
				c0.06,0.01,0.12,0.03,0.17,0.05c0.02,0.01,0.09,0.05,0.12,0.06l0.05,0c0.13,0.02,0.24,0.04,0.33,0.11l0.2,0.14
				c0.08,0.03,0.16,0.07,0.21,0.14l0.68,0.29c0.05,0.02,0.13,0.07,0.17,0.1l0.33,0.18c0.12,0.04,0.22,0.12,0.29,0.24
				c0.03,0.01,0.06,0.02,0.09,0.03l0.31,0.13c0.05,0.01,0.1,0.04,0.15,0.07l0.56,0.41c0.03,0,0.06,0.01,0.09,0.02l0.14,0.05
				c0.06,0.02,0.11,0.05,0.15,0.09c0.06,0.02,0.13,0.05,0.18,0.09l0.06,0.04l0.24,0.03c0.04,0.01,0.09,0.02,0.13,0.04l0.35,0.14
				c0.17-0.03,0.36,0,0.47,0.11c0.08,0.08,0.17,0.21,0.19,0.33l0.07,0.06l0.12,0c0.06,0,0.13,0,0.18,0.02l0.37,0.12
				c0.12,0.04,0.21,0.12,0.27,0.23l0.12,0.18l0.33,0.09c0.13,0.04,0.24,0.14,0.3,0.27l0.05,0.12c0.07,0.02,0.13,0.06,0.18,0.11
				l0.26,0.25c0.09,0.1,0.15,0.23,0.14,0.36s-0.06,0.26-0.16,0.36l-0.12,0.11c-0.01,0.06-0.03,0.12-0.06,0.17l-0.05,0.09
				c-0.08,0.14-0.22,0.24-0.38,0.25c-0.06,0.08-0.14,0.15-0.24,0.18l-0.21,0.08c-0.03,0.03-0.06,0.05-0.09,0.07
				c-0.16,0.09-0.36,0.13-0.52,0.03l-0.09-0.04l-0.08,0.02c-0.04,0.01-0.07,0.01-0.11,0.02l-0.15,0c-0.01,0-0.01,0.01-0.02,0.01
				l-0.03,0.01c-0.01,0.01-0.02,0.02-0.04,0.03c-0.12,0.1-0.29,0.16-0.44,0.12l-0.22-0.03l-0.04,0.02
				c-0.08,0.05-0.17,0.08-0.26,0.08l-0.47,0.04c-0.03,0.01-0.07,0.01-0.1,0.01L54.56,36.67z M54.57,35.67l0.06,0.01l0.55-0.05
				c0.03-0.01,0.07-0.01,0.1-0.01l0.28-0.01c0.06-0.04,0.13-0.06,0.2-0.07l0.2-0.02l0.23,0.01c0.07-0.07,0.17-0.12,0.27-0.13
				l0.46-0.05c0.07-0.02,0.13-0.02,0.2-0.01l0.22,0.03l0.14-0.05c0.05-0.09,0.12-0.16,0.2-0.21c0.02-0.01,0.05-0.03,0.08-0.04
				c-0.03-0.02-0.05-0.05-0.07-0.08c-0.03-0.04-0.06-0.1-0.09-0.16l0,0c0,0-0.02-0.03-0.03-0.05l-0.07-0.01
				c-0.05-0.01-0.11-0.03-0.16-0.05l-0.16-0.09c-0.06-0.03-0.11-0.08-0.15-0.13l-0.26-0.26l-0.13,0c-0.11,0-0.26-0.02-0.34-0.07
				l-0.34-0.24l-0.17-0.17c-0.01-0.01-0.02-0.02-0.03-0.03c-0.05-0.01-0.09-0.03-0.14-0.05l-0.34-0.14l-0.29-0.03
				c-0.05,0-0.09-0.01-0.14-0.03c-0.03,0-0.07,0-0.1,0c-0.16-0.02-0.3-0.11-0.38-0.25c-0.11-0.01-0.21-0.06-0.28-0.13l-0.55-0.4
				c-0.04-0.01-0.09-0.03-0.13-0.05l-0.2-0.07c-0.14-0.01-0.26-0.08-0.35-0.19l-0.1-0.13l-0.23-0.11c-0.04-0.02-0.08-0.04-0.11-0.07
				l-0.23-0.15l-0.34-0.12l-0.32-0.15c-0.06-0.02-0.11-0.06-0.15-0.1c-0.02-0.01-0.05-0.02-0.07-0.04l-0.14-0.1
				c-0.11,0-0.25-0.03-0.33-0.09l-0.09-0.05c-0.08-0.01-0.15-0.04-0.22-0.08l-0.17-0.11l-0.21,0L49.65,31
				c-0.08-0.01-0.15-0.05-0.21-0.09l-0.16-0.12c-0.05-0.03-0.08-0.08-0.12-0.12c-0.06-0.04-0.11-0.08-0.15-0.12l-0.09-0.13
				c-0.02-0.03-0.04-0.07-0.06-0.1c-0.05-0.01-0.09-0.03-0.13-0.06l-0.05-0.04l-0.18-0.05c-0.04-0.01-0.08-0.03-0.12-0.05
				l-0.13-0.07c-0.07-0.04-0.13-0.1-0.18-0.17c-0.01-0.02-0.04-0.07-0.06-0.11l-0.57-0.2c-0.02,0-0.1-0.02-0.12-0.03
				c-0.15-0.04-0.27-0.14-0.33-0.27l-0.05-0.11l-0.24-0.01c-0.05,0-0.1-0.01-0.14-0.03l-0.18-0.07c-0.06-0.02-0.12-0.06-0.17-0.11
				l-0.09-0.09c-0.07-0.04-0.14-0.08-0.18-0.13l-0.32-0.32c-0.07-0.05-0.13-0.12-0.17-0.2l-0.08-0.09L45,27.96
				c-0.05-0.01-0.11-0.03-0.15-0.06l-0.09-0.05c-0.05-0.03-0.1-0.07-0.13-0.12l-0.06-0.04c-0.06-0.02-0.12-0.04-0.17-0.08
				l-0.25-0.16c-0.04-0.02-0.08-0.05-0.11-0.08l-0.13-0.13c-0.01-0.01-0.02-0.02-0.03-0.03c-0.06,0.03-0.12,0.05-0.18,0.05
				l-0.06,0.02c-0.05,0.01-0.09,0.02-0.14,0.02l-0.13,0c-0.06,0-0.13-0.01-0.19-0.03l-0.1,0c-0.09,0-0.2-0.03-0.29-0.08l-0.25-0.18
				c-0.04-0.03-0.07-0.06-0.1-0.1l-0.03-0.04c-0.11,0.05-0.24,0.05-0.36,0.01l-0.11-0.04l-0.21,0c-0.16,0.02-0.33-0.08-0.42-0.21
				l0,0c-0.08-0.01-0.17-0.02-0.22-0.04l-0.12-0.03c-0.11-0.02-0.2-0.08-0.27-0.15l-0.11-0.03c-0.13-0.04-0.23-0.12-0.3-0.23
				l-0.06-0.06l-0.12-0.05c-0.01-0.01-0.11-0.05-0.13-0.05l-0.19-0.07c-0.03-0.01-0.05-0.01-0.08-0.02l-0.06,0l-0.14-0.01
				c-0.01,0-0.02,0-0.03,0.01l-0.11,0.02c-0.07,0.01-0.14,0.01-0.21,0c-0.07,0-0.13-0.01-0.19-0.04c-0.01,0-0.12-0.04-0.13-0.05
				c-0.07-0.04-0.17-0.11-0.22-0.17c-0.02-0.02-0.03-0.05-0.05-0.08c-0.03,0-0.05,0-0.08,0l-0.12-0.02c-0.02,0-0.11-0.02-0.12-0.03
				c-0.07-0.02-0.14-0.05-0.19-0.09l-0.09-0.07c-0.01-0.01-0.04-0.03-0.06-0.06l-0.07-0.04c-0.03-0.02-0.06-0.04-0.09-0.07
				l-0.11-0.08c-0.04-0.03-0.08-0.06-0.11-0.1l-0.04-0.06l-0.04,0c-0.08,0.01-0.14-0.01-0.21-0.04l-0.67-0.21
				c-0.02,0-0.1-0.05-0.12-0.05c-0.03-0.01-0.06-0.03-0.08-0.05c-0.12,0-0.29-0.05-0.39-0.13l-0.04,0
				c-0.09-0.01-0.17-0.03-0.24-0.08l-0.37-0.22c-0.03-0.01-0.06-0.03-0.08-0.05c-0.02,0-0.04,0-0.06-0.01
				c-0.04-0.01-0.18-0.04-0.22-0.06l-0.04-0.02c-0.02,0-0.03,0-0.04,0l-0.13-0.01c-0.02,0-0.12-0.02-0.14-0.03
				c-0.07-0.02-0.13-0.04-0.18-0.09l-0.16-0.12c-0.06-0.01-0.13-0.04-0.16-0.05l-0.08-0.04c-0.1,0.01-0.18-0.01-0.26-0.05
				c-0.04-0.02-0.08-0.05-0.12-0.08l-0.04,0c-0.13-0.01-0.25-0.07-0.34-0.16c-0.01-0.01-0.02-0.01-0.03-0.01l-0.05-0.02
				c0,0,0,0-0.01,0c-0.08,0.02-0.16,0.01-0.22,0c-0.04-0.01-0.14-0.04-0.17-0.05c-0.05-0.02-0.13-0.07-0.17-0.11
				c-0.01-0.01-0.08-0.08-0.1-0.1l-0.05-0.03c-0.02,0-0.1-0.03-0.13-0.03c-0.06-0.02-0.11-0.05-0.16-0.08l-0.26-0.15l-0.04,0
				c-0.08,0-0.18-0.02-0.26-0.07l-0.09-0.05c-0.03-0.02-0.07-0.04-0.09-0.07c-0.04-0.02-0.08-0.04-0.12-0.07l-0.3-0.18
				c-0.04-0.01-0.09-0.02-0.13-0.04l-0.16-0.07c-0.03-0.01-0.1-0.04-0.15-0.08l-0.08-0.01c-0.04-0.01-0.07-0.02-0.11-0.03
				l-0.16-0.05c-0.05-0.02-0.1-0.04-0.15-0.08l-0.03-0.01l-0.1,0c-0.05,0-0.09,0-0.13-0.02l-0.01,0c0.02,0.03,0.04,0.06,0.05,0.09
				l0.18,0.27c0.03,0.03,0.06,0.07,0.08,0.11c0.01,0.02,0.02,0.03,0.03,0.04l0.01,0.02c0.07,0,0.14,0.01,0.18,0.04
				c0.04,0.02,0.16,0.09,0.19,0.12c0.04,0.04,0.08,0.09,0.12,0.15l0.06,0.06c0.04,0.04,0.07,0.08,0.09,0.12
				c0.02,0.03,0.04,0.09,0.06,0.13l0.3,0.15c0.07,0.03,0.13,0.08,0.17,0.14l0.13,0.16c0.01,0.01,0.02,0.02,0.02,0.04l0.03,0.03
				c0.03,0.01,0.05,0.02,0.06,0.03l0.21,0.12c0.07,0,0.13,0.02,0.19,0.05l0.01,0l0.08,0c0.19,0,0.33,0.08,0.42,0.21l0.02,0.02
				c0.04,0.03,0.12,0.1,0.16,0.15l0.11,0.02c0.04,0.01,0.07,0.02,0.1,0.03l0.13,0.05c0.08,0.03,0.14,0.08,0.19,0.14l0.25,0.12
				c0.13,0.06,0.22,0.17,0.26,0.31l0.06,0.2c0,0.01,0.01,0.04,0.02,0.07c0.08,0.02,0.15,0.07,0.2,0.12l0.07,0.07
				c0.09,0.09,0.14,0.21,0.15,0.34c0,0.07-0.01,0.15-0.03,0.23c0.06-0.04,0.12-0.08,0.17-0.09c0.07-0.02,0.21-0.04,0.28-0.03
				c0.07,0,0.14,0,0.19,0.01c0.02,0.01,0.1,0.03,0.12,0.04c0.09,0.05,0.21,0.14,0.26,0.23c0.03,0.05,0.07,0.15,0.09,0.23
				c0.02,0.04,0.03,0.07,0.03,0.09l0.04,0.14c0.04,0.08,0.07,0.18,0.07,0.27c0.02,0.01,0.03,0.02,0.04,0.03l0.21,0.13
				c0.05,0.02,0.1,0.04,0.15,0.07c0.01,0,0.01,0,0.02,0l0.15,0.02c0.01,0,0.11,0.02,0.11,0.02c0.04,0.01,0.07,0.02,0.1,0.03
				l0.5,0.25c0.04,0.02,0.08,0.05,0.11,0.08l0.13,0.13c0.03,0.01,0.05,0.01,0.08,0.03c0.02,0.01,0.11,0.05,0.13,0.06l0.18,0.1
				c0.04,0.02,0.07,0.05,0.11,0.08c0.08,0.02,0.14,0.07,0.2,0.13l0.08,0.07c0.01,0.01,0.01,0.01,0.02,0.02
				c0.02,0,0.05,0.01,0.07,0.01l0.11,0.03l0.09,0c0.1-0.01,0.19,0.02,0.27,0.08l0.2,0.12c0.02,0.01,0.04,0.02,0.05,0.04
				c0.07,0,0.13,0.01,0.19,0.04l0.18,0.09c0.07,0.03,0.13,0.08,0.17,0.14l0.13,0.16c0.01,0.02,0.03,0.04,0.04,0.06l0.23,0.04
				c0.06,0.01,0.11,0.03,0.16,0.05l0.16,0.09c0.04,0.02,0.07,0.05,0.11,0.08L40,29.14c0.05,0.02,0.09,0.05,0.13,0.08
				c0.07-0.01,0.14-0.01,0.2,0l0.05-0.01c0.12-0.03,0.24-0.01,0.35,0.04l0.24,0.07c0.05,0.01,0.1,0.03,0.15,0.05l0.14,0.07
				c0.05,0.01,0.09,0.02,0.14,0.04l0.06,0.01l0.44-0.01c0.07,0,0.16,0.01,0.23,0.05l0.18,0.09c0.07,0.03,0.13,0.08,0.17,0.14
				l0.04,0.05l0.2,0.11c0.01,0.01,0.08,0.05,0.09,0.06l0.25,0.19c0.04,0.02,0.08,0.05,0.11,0.08l0.18,0.18
				c0.02,0.01,0.04,0.02,0.06,0.03l0.16,0.09c0.05,0.03,0.1,0.07,0.14,0.12l0.07,0.09c0.05,0.06,0.08,0.12,0.1,0.2l0.01,0.04
				l0.16,0.08c0.03,0.01,0.06,0.03,0.09,0.05l0.12,0.09l0.05,0c0.06,0,0.1,0.01,0.15,0.02l0.29,0.07l0,0l0.27-0.02l0.31,0.04
				c0.07,0.01,0.13,0.03,0.19,0.07l0.4,0.17l0.2,0.03c0.01,0,0.02,0,0.03,0.01l0.49-0.13c0.03-0.01,0.07-0.01,0.1-0.01l0.2,0
				c0.15,0.02,0.27,0.05,0.36,0.14l0,0l0.12,0.02c0.1,0.02,0.19,0.06,0.26,0.13l0.16,0.14l0.09,0c0.03,0,0.07,0,0.1,0.01l0.13,0.02
				l0.14,0c0.04,0,0.08,0,0.11,0.01l0.16,0.03c0.05,0.01,0.1,0.03,0.14,0.05l0.16,0.09c0.1,0.05,0.17,0.14,0.22,0.24l0.09,0.08
				c0.1,0.04,0.18,0.12,0.23,0.21l0.03,0c0.13,0.01,0.26,0.08,0.34,0.19l0.13,0.16c0.02,0.03,0.04,0.06,0.06,0.09
				c0.02,0,0.03,0.01,0.05,0.02l0.88,0.49l0.04,0c0.09-0.01,0.17,0.02,0.25,0.06l0.28,0.12c0.06,0.02,0.12,0.05,0.17,0.09l0.16,0.13
				c0,0,0,0,0,0L51.89,34c0.04,0.02,0.08,0.04,0.12,0.07l0.26,0.17l0.24,0.08c0.07,0.03,0.13,0.06,0.18,0.12l0.5,0.45l1.14,0.66
				c0.08,0.02,0.15,0.05,0.2,0.09L54.57,35.67z M33.02,22.67l-0.08,0.09l0.09-0.07L33.02,22.67z"/>
		</g>
	</g>
</g>
<g>
	<g>
		<path class="st0" d="M18.63,15.35c-0.74,0-1.48-0.18-2.14-0.51c-1.38,0.69-3.06,0.66-4.41-0.07c-1.35,0.73-3.03,0.76-4.41,0.07
			c-0.67,0.33-1.4,0.51-2.14,0.51c-0.28,0-0.5-0.22-0.5-0.5s0.22-0.5,0.5-0.5c0.66,0,1.31-0.18,1.89-0.51c0.16-0.09,0.35-0.09,0.5,0
			c1.19,0.69,2.72,0.67,3.89-0.07c0.16-0.1,0.37-0.1,0.53,0c1.17,0.73,2.69,0.76,3.89,0.07c0.16-0.09,0.35-0.09,0.5,0
			c0.58,0.33,1.23,0.51,1.89,0.51c0.28,0,0.5,0.22,0.5,0.5S18.9,15.35,18.63,15.35z"/>
	</g>
	<g>
		<path class="st0" d="M24.16,18.12c-0.74,0-1.48-0.18-2.14-0.51c-1.38,0.69-3.05,0.67-4.41-0.07c-1.35,0.73-3.03,0.75-4.41,0.07
			c-0.67,0.33-1.4,0.51-2.14,0.51c-0.28,0-0.5-0.22-0.5-0.5s0.22-0.5,0.5-0.5c0.66,0,1.31-0.18,1.89-0.51c0.16-0.09,0.35-0.09,0.5,0
			c1.19,0.69,2.72,0.67,3.89-0.07c0.16-0.1,0.37-0.1,0.53,0c1.17,0.73,2.7,0.76,3.89,0.07c0.16-0.09,0.35-0.09,0.5,0
			c0.58,0.33,1.23,0.51,1.89,0.51c0.28,0,0.5,0.22,0.5,0.5S24.44,18.12,24.16,18.12z"/>
	</g>
</g>
</svg>
