<?xml version="1.0" encoding="utf-8"?>
<!-- Generator: Adobe Illustrator 24.1.3, SVG Export Plug-In . SVG Version: 6.00 Build 0)  -->
<svg version="1.1" id="Layer_1" xmlns="http://www.w3.org/2000/svg" xmlns:xlink="http://www.w3.org/1999/xlink" x="0px" y="0px"
	 viewBox="0 0 50 50" style="enable-background:new 0 0 50 50;" xml:space="preserve">
<style type="text/css">
	.st0{fill:#222E5E;}
	.st1{fill:#FFFFFF;}
	.st2{fill:#EBBB10;}
	.st3{fill:#666666;}
	.st4{fill:#808080;}
	.st5{fill:#277FB6;}
	.st6{fill:#22AF80;}
	.st7{fill:none;stroke:#222E5E;stroke-linecap:round;stroke-linejoin:round;stroke-miterlimit:10;}
	.st8{fill:#BEBEBE;}
	.st9{fill:#1E3565;}
	.st10{clip-path:url(#SVGID_2_);}
	.st11{fill:none;stroke:#222E5E;stroke-miterlimit:10;}
	.st12{fill:#A5A5A5;}
	.st13{fill:#C0C0C0;}
	.st14{opacity:0.1;}
	.st15{fill:none;stroke:#FFFFFF;stroke-width:0.5;stroke-linecap:round;stroke-linejoin:round;stroke-miterlimit:10;}
</style>
<g>
	<path class="st0" d="M47.17,35.07c1.56,0,2.83-1.27,2.83-2.83v-2.18h-2.07v-3.35c0-1.45-1.18-2.63-2.63-2.63h-3.19v-1.19
		c0-2.85-2.31-5.16-5.16-5.16h-3.2V7.24h1.51v-1h-1.51V3.3c0.69-0.21,1.19-0.85,1.19-1.61c0-0.93-0.76-1.69-1.69-1.69
		c-0.93,0-1.69,0.76-1.69,1.69c0,0.76,0.5,1.39,1.19,1.61v2.94h-1.51v1h1.51v10.49h-1.91v-6.63h0.53v-1h-0.53V8.32h-1v1.78h-0.53v1
		h0.53v6.63h-2.99c-1.36,0-2.46,1.1-2.46,2.46v1.29v5.89v2.7h-2.36c-0.14-1.05-0.76-4.88-2.52-9.19
		C16.81,14.26,12.66,9.75,7.51,7.85L6.84,7.6v6.85h1V9.05c10.27,4.35,12.81,18.49,13.19,21.01h-3.09c-0.45,0-0.88-0.17-1.21-0.48
		l-3.07-2.9c-0.54-0.51-1.26-0.8-2-0.8H2.21c-0.68,0-1.31,0.3-1.73,0.83c-0.42,0.53-0.58,1.21-0.43,1.87l8.66,13.99
		c-0.67-0.37-1.29-0.83-1.85-1.39l-0.71,0.71c1.45,1.45,3.3,2.35,5.31,2.61c-1.42,1.08-3.13,1.67-4.95,1.67
		c-2.2,0-4.26-0.85-5.81-2.41L0,44.47c1.74,1.74,4.01,2.64,6.3,2.69L6.16,47.3c1.74,1.74,4.05,2.7,6.52,2.7
		c2.3,0,4.47-0.83,6.16-2.36C20.53,49.17,22.7,50,25,50s4.47-0.83,6.16-2.36c1.7,1.53,3.87,2.36,6.16,2.36
		c2.46,0,4.78-0.96,6.52-2.7l-0.14-0.14c2.38-0.05,4.61-1,6.3-2.69l-0.71-0.71c-1.55,1.55-3.61,2.41-5.81,2.41
		c-1.81,0-3.53-0.59-4.95-1.67c2-0.26,3.85-1.16,5.31-2.61l-0.71-0.71c-0.24,0.24-0.51,0.47-0.77,0.67v-6.79H47.17z M33.26,1
		c0.38,0,0.69,0.31,0.69,0.69c0,0.38-0.31,0.69-0.69,0.69c-0.38,0-0.69-0.31-0.69-0.69C32.57,1.31,32.88,1,33.26,1z M45.3,25.08
		c0.9,0,1.63,0.73,1.63,1.63v3.19h-4.82v-4.82H45.3z M25.4,22.48h3.13c0.42,0,0.76,0.34,0.76,0.76v2.38c0,0.42-0.34,0.76-0.76,0.76
		H25.4V22.48z M25.4,27.36h3.13c0.97,0,1.76-0.79,1.76-1.76v-2.38c0-0.97-0.79-1.76-1.76-1.76H25.4v-1.29c0-0.8,0.66-1.46,1.46-1.46
		h10.1c2.29,0,4.16,1.87,4.16,4.16v1.19v5.98h-2.3v-6.04c0-1.4-1.14-2.54-2.54-2.54H35.3c-1.4,0-2.54,1.14-2.54,2.54v6.04H25.4
		V27.36z M37.82,30.06h-4.06v-6.04c0-0.85,0.69-1.54,1.54-1.54h0.97c0.85,0,1.54,0.69,1.54,1.54V30.06z M31.17,46.17
		c-1.81,0-3.53-0.59-4.95-1.67c1.84-0.24,3.55-1.02,4.94-2.27c1.39,1.26,3.11,2.04,4.95,2.28C34.7,45.58,32.98,46.17,31.17,46.17z
		 M13.9,44.5c1.84-0.24,3.55-1.02,4.94-2.27c1.39,1.26,3.11,2.03,4.95,2.28C20.87,46.71,16.81,46.71,13.9,44.5z M7.43,47.11
		c1.9-0.19,3.74-0.95,5.25-2.3c1.5,1.35,3.34,2.12,5.23,2.31c-1.47,1.22-3.3,1.89-5.24,1.89C10.74,49,8.9,48.33,7.43,47.11z
		 M19.76,47.11c1.89-0.19,3.74-0.96,5.24-2.31c1.5,1.35,3.34,2.12,5.23,2.31C28.77,48.33,26.94,49,25,49
		C23.06,49,21.23,48.33,19.76,47.11z M32.09,47.12c1.89-0.19,3.73-0.97,5.23-2.32c1.47,1.32,3.28,2.13,5.23,2.33
		c-1.47,1.22-3.3,1.88-5.23,1.88C35.39,49,33.56,48.34,32.09,47.12z M41.36,42.53c-1.22,0.69-2.6,1.06-4.04,1.06
		c-2.2,0-4.26-0.85-5.81-2.41l-0.35-0.35l-0.35,0.35c-1.55,1.55-3.62,2.41-5.81,2.41c-2.2,0-4.26-0.85-5.81-2.41l-0.35-0.35
		l-0.35,0.35c-1.55,1.55-3.62,2.41-5.81,2.41c-0.81,0-1.61-0.12-2.37-0.35L2.2,30.19h8.57v-1H1.58l-0.56-0.9
		c-0.05-0.34,0.03-0.68,0.25-0.95c0.23-0.29,0.58-0.46,0.95-0.46h9.44c0.49,0,0.96,0.19,1.32,0.52l3.07,2.9
		c0.51,0.49,1.19,0.75,1.89,0.75h6.46h8.36h6.06h3.3H49v1.18c0,1.01-0.82,1.83-1.83,1.83H22.08v1h19.28V42.53z"/>
	<path class="st0" d="M9.73,24.92l-1.72-2.97c0.93-0.72,1.49-1.83,1.49-3.02c0-1.35-0.73-2.62-1.91-3.3l-0.25-0.15l-0.25,0.15
		c-1.18,0.68-1.91,1.95-1.91,3.3c0,1.19,0.56,2.3,1.49,3.02l-1.72,2.97H9.73z M6.69,23.92l0.65-1.13L8,23.92H6.69z M6.18,18.93
		c0-0.9,0.44-1.75,1.16-2.27c0.72,0.53,1.16,1.37,1.16,2.27c0,0.83-0.38,1.6-1,2.13l-0.16-0.27l-0.16,0.27
		C6.57,20.53,6.18,19.76,6.18,18.93z"/>
	<path class="st0" d="M10.27,32.13c-1.35,0-2.44,1.1-2.44,2.44s1.1,2.44,2.44,2.44c1.35,0,2.44-1.1,2.44-2.44
		S11.61,32.13,10.27,32.13z M10.27,36.02c-0.79,0-1.44-0.65-1.44-1.44s0.65-1.44,1.44-1.44c0.8,0,1.44,0.65,1.44,1.44
		S11.06,36.02,10.27,36.02z"/>
</g>
</svg>
