<?xml version="1.0" encoding="utf-8"?>
<!-- Generator: Adobe Illustrator 24.1.3, SVG Export Plug-In . SVG Version: 6.00 Build 0)  -->
<svg version="1.1" id="Layer_1" xmlns="http://www.w3.org/2000/svg" xmlns:xlink="http://www.w3.org/1999/xlink" x="0px" y="0px"
	 viewBox="0 0 50 50" style="enable-background:new 0 0 50 50;" xml:space="preserve">
<style type="text/css">
	.st0{fill:#222E5E;}
	.st1{fill:#FFFFFF;}
	.st2{fill:#EBBB10;}
	.st3{fill:#666666;}
	.st4{fill:#808080;}
	.st5{fill:#277FB6;}
	.st6{fill:#22AF80;}
	.st7{fill:none;stroke:#222E5E;stroke-linecap:round;stroke-linejoin:round;stroke-miterlimit:10;}
	.st8{fill:#BEBEBE;}
	.st9{fill:#1E3565;}
	.st10{clip-path:url(#SVGID_2_);}
	.st11{fill:none;stroke:#222E5E;stroke-miterlimit:10;}
	.st12{fill:#A5A5A5;}
	.st13{fill:#C0C0C0;}
	.st14{opacity:0.1;}
	.st15{fill:none;stroke:#FFFFFF;stroke-width:0.5;stroke-linecap:round;stroke-linejoin:round;stroke-miterlimit:10;}
</style>
<g>
	<g>
		<path class="st0" d="M29.3,38.33h-1.85c-0.74,0-1.34,0.6-1.34,1.34v1.85c0,0.74,0.6,1.34,1.34,1.34h1.85
			c0.74,0,1.34-0.6,1.34-1.34v-1.85C30.64,38.93,30.04,38.33,29.3,38.33z M29.64,41.51c0,0.19-0.15,0.34-0.34,0.34h-1.85
			c-0.19,0-0.34-0.15-0.34-0.34v-1.85c0-0.19,0.15-0.34,0.34-0.34h1.85c0.19,0,0.34,0.15,0.34,0.34V41.51z"/>
		<path class="st0" d="M43.99,38.33h-1.85c-0.74,0-1.34,0.6-1.34,1.34v1.85c0,0.74,0.6,1.34,1.34,1.34h1.85
			c0.74,0,1.34-0.6,1.34-1.34v-1.85C45.33,38.93,44.73,38.33,43.99,38.33z M44.33,41.51c0,0.19-0.15,0.34-0.34,0.34h-1.85
			c-0.19,0-0.34-0.15-0.34-0.34v-1.85c0-0.19,0.15-0.34,0.34-0.34h1.85c0.19,0,0.34,0.15,0.34,0.34V41.51z"/>
		<path class="st0" d="M48.44,28.25h-0.88v-5.78c0-1.96-1.59-3.55-3.55-3.55H27.45c-1.96,0-3.55,1.59-3.55,3.55v5.78h-0.88
			c-0.86,0-1.56,0.7-1.56,1.56v4.59c0,0.86,0.7,1.56,1.56,1.56h0.88v6.21c0,1.49,0.92,2.76,2.22,3.29v3.1
			c0,0.79,0.64,1.43,1.43,1.43h1.66c0.79,0,1.43-0.64,1.43-1.43v-2.84H40.8v2.84c0,0.79,0.64,1.43,1.43,1.43h1.66
			c0.79,0,1.43-0.64,1.43-1.43v-3.1c1.3-0.53,2.22-1.8,2.22-3.29v-6.21h0.88c0.86,0,1.56-0.7,1.56-1.56v-4.59
			C50,28.96,49.3,28.25,48.44,28.25z M27.45,19.93H44c1.41,0,2.55,1.14,2.55,2.55v1.38H24.89v-1.38
			C24.89,21.07,26.04,19.93,27.45,19.93z M23.01,34.97c-0.31,0-0.56-0.25-0.56-0.56v-4.59c0-0.31,0.25-0.56,0.56-0.56h0.88v5.71
			H23.01z M29.64,48.57c0,0.24-0.19,0.43-0.43,0.43h-1.66c-0.24,0-0.43-0.19-0.43-0.43v-2.87c0.11,0.01,0.22,0.03,0.33,0.03h2.19
			V48.57z M44.33,48.57c0,0.24-0.19,0.43-0.43,0.43h-1.66c-0.24,0-0.43-0.19-0.43-0.43v-2.84H44c0.11,0,0.22-0.02,0.33-0.03V48.57z
			 M44,44.73H27.45c-1.41,0-2.55-1.15-2.55-2.55v-4.55h21.66v4.55C46.55,43.58,45.41,44.73,44,44.73z M46.55,36.62H24.89v-0.65
			v-7.71v-3.4h21.66v3.4v7.71V36.62z M49,34.41c0,0.31-0.25,0.56-0.56,0.56h-0.88v-5.71h0.88c0.31,0,0.56,0.25,0.56,0.56V34.41z"/>
	</g>
	<g>
		<path class="st0" d="M18.51,38.94l-0.49-3.35c-0.31-1.57-1.71-2.71-3.31-2.71H5.24c-1.6,0-3,1.14-3.31,2.74l-0.48,3.33
			C0.62,39.14,0,39.88,0,40.76v3.57c0,0.41,0.14,0.79,0.37,1.11v3.13C0.37,49.36,1.01,50,1.8,50h1.66c0.79,0,1.43-0.64,1.43-1.43
			v-2.35h10.16v2.35c0,0.79,0.64,1.43,1.43,1.43h1.66c0.79,0,1.43-0.64,1.43-1.43v-3.13c0.23-0.31,0.37-0.69,0.37-1.11v-3.57
			C19.95,39.88,19.33,39.14,18.51,38.94z M2.91,35.78c0.22-1.11,1.2-1.91,2.33-1.91h9.47c1.13,0,2.11,0.8,2.32,1.88l0.46,3.12h-0.86
			c-0.24-1.35-1.42-2.39-2.84-2.39c-1.42,0-2.6,1.03-2.84,2.39H2.46L2.91,35.78z M15.6,38.88h-3.62c0.22-0.8,0.95-1.39,1.81-1.39
			S15.38,38.08,15.6,38.88z M1,40.76c0-0.49,0.4-0.89,0.89-0.89h16.17c0.49,0,0.89,0.4,0.89,0.89v3.57c0,0.49-0.4,0.89-0.89,0.89
			H1.89C1.4,45.22,1,44.82,1,44.33V40.76z M3.89,48.57C3.89,48.81,3.7,49,3.46,49H1.8c-0.24,0-0.43-0.19-0.43-0.43v-2.43
			c0.17,0.05,0.34,0.08,0.52,0.08h2V48.57z M18.15,49h-1.66c-0.24,0-0.43-0.19-0.43-0.43v-2.35h2c0.18,0,0.35-0.03,0.52-0.08v2.43
			C18.58,48.81,18.39,49,18.15,49z"/>
		<path class="st0" d="M4.01,44.22c0.92,0,1.67-0.75,1.67-1.67s-0.75-1.67-1.67-1.67s-1.68,0.75-1.68,1.67S3.09,44.22,4.01,44.22z
			 M4.01,41.87c0.37,0,0.67,0.3,0.67,0.67s-0.3,0.67-0.67,0.67c-0.37,0-0.68-0.3-0.68-0.67S3.64,41.87,4.01,41.87z"/>
		<path class="st0" d="M15.94,44.22c0.92,0,1.67-0.75,1.67-1.67s-0.75-1.67-1.67-1.67s-1.68,0.75-1.68,1.67S15.01,44.22,15.94,44.22
			z M15.94,41.87c0.37,0,0.67,0.3,0.67,0.67s-0.3,0.67-0.67,0.67c-0.37,0-0.68-0.3-0.68-0.67S15.56,41.87,15.94,41.87z"/>
		<rect x="7.36" y="41.47" class="st0" width="4.98" height="1"/>
		<rect x="7.36" y="43.36" class="st0" width="4.98" height="1"/>
	</g>
	<g>
		<path class="st0" d="M1.99,7.43v1.7c0,0.68,0.46,1.27,1.11,1.44l9.3,2.47l5.03,0.01l-5.91,6.67h3.6l8.83-6.67h12.66
			c0.67,0,1.22-0.55,1.22-1.22v-0.52c0-0.9-0.65-1.65-1.53-1.79c-0.76-1.3-2.13-2.1-3.64-2.1h-7.69L15.12,0h-3.6l6.58,7.43h-9
			L3.67,2.27H0l3.19,5.16H1.99z M14.79,18.72h-1.04l6.54-7.39h4.28L14.79,18.72z M13.75,1h1.04l8.51,6.43h-3.86L13.75,1z
			 M32.66,8.43c1.22,0,2.32,0.69,2.88,1.8l0.17,0.28h0.31c0.45,0,0.82,0.37,0.82,0.82v0.52c0,0.12-0.1,0.22-0.22,0.22H25.27
			l2.28-1.72h-7.71l-1.53,1.72h-5.72L3.36,9.61C3.14,9.55,2.99,9.36,2.99,9.13v-0.7h0.81h6.36H32.66z M1.79,3.27h1.48l4.38,4.16
			H4.37L1.79,3.27z"/>
	</g>
</g>
</svg>
