<?xml version="1.0" encoding="utf-8"?>
<!-- Generator: Adobe Illustrator 24.1.3, SVG Export Plug-In . SVG Version: 6.00 Build 0)  -->
<svg version="1.1" id="Layer_1" xmlns="http://www.w3.org/2000/svg" xmlns:xlink="http://www.w3.org/1999/xlink" x="0px" y="0px"
	 viewBox="0 0 50 50" style="enable-background:new 0 0 50 50;" xml:space="preserve">
<style type="text/css">
	.st0{fill:#222E5E;}
	.st1{fill:#FFFFFF;}
	.st2{fill:#EBBB10;}
	.st3{fill:#666666;}
	.st4{fill:#808080;}
	.st5{fill:#277FB6;}
	.st6{fill:#22AF80;}
	.st7{fill:none;stroke:#222E5E;stroke-linecap:round;stroke-linejoin:round;stroke-miterlimit:10;}
	.st8{fill:#BEBEBE;}
	.st9{fill:#1E3565;}
	.st10{clip-path:url(#SVGID_2_);}
	.st11{fill:none;stroke:#222E5E;stroke-miterlimit:10;}
	.st12{fill:#A5A5A5;}
	.st13{fill:#C0C0C0;}
	.st14{opacity:0.1;}
	.st15{fill:none;stroke:#FFFFFF;stroke-width:0.5;stroke-linecap:round;stroke-linejoin:round;stroke-miterlimit:10;}
</style>
<g>
	<path class="st0" d="M50,29.86l-2.86-0.78c0.64-2.79,0.28-5.66-1.04-8.2l2.58-1.47l-0.5-0.87l-2.58,1.47
		c-1.52-2.42-3.8-4.2-6.53-5.06l0.78-2.86l-0.96-0.26l-0.78,2.86c-2.86-0.66-5.74-0.22-8.19,1.04l-1.47-2.58l-0.87,0.5l1.47,2.58
		c-2.34,1.46-4.17,3.72-5.06,6.52l-2.86-0.78l-0.26,0.96l2.87,0.78c-0.38,1.66-0.4,3.36-0.07,5.02h-2.74v-2.04
		c0-1.72-1.4-3.12-3.12-3.12h-5.41c-1.72,0-3.12,1.4-3.12,3.12v2.04h-6.9C1.07,28.74,0,29.8,0,31.11v3.96
		c0,1.29,1.04,2.34,2.32,2.37v9.66c0,1.59,1.3,2.89,2.89,2.89h19.86c1.59,0,2.89-1.3,2.89-2.89v-9.66c0.59-0.01,1.12-0.24,1.52-0.61
		c0.73,0.41,1.5,0.75,2.3,1L31,40.7l0.96,0.26l0.78-2.87c0.9,0.21,1.8,0.33,2.7,0.33c1.9,0,3.77-0.48,5.49-1.37l1.47,2.58l0.87-0.5
		l-1.47-2.58c2.42-1.52,4.2-3.8,5.06-6.53l2.86,0.78L50,29.86z M10.27,26.69c0-1.17,0.95-2.12,2.12-2.12h5.41
		c1.17,0,2.12,0.95,2.12,2.12v2.04h-9.65V26.69z M26.96,47.11c0,1.04-0.85,1.89-1.89,1.89H5.21c-1.04,0-1.89-0.85-1.89-1.89v-9.66
		h8.58v2.69h6.38v-2.69h8.67V47.11z M12.9,39.15v-4.38h4.38v4.38H12.9z M27.91,36.45h-9.62v-2.69H11.9v2.69H2.38
		C1.62,36.45,1,35.84,1,35.08v-3.96c0-0.76,0.62-1.38,1.38-1.38h6.9h11.65h6.98c0.76,0,1.38,0.62,1.38,1.38v3.96
		C29.28,35.84,28.66,36.45,27.91,36.45z M40.89,35.97c-2.56,1.46-5.53,1.84-8.37,1.06c-0.86-0.23-1.68-0.57-2.44-1
		c0.13-0.29,0.2-0.62,0.2-0.96v-3.96c0-1.31-1.07-2.38-2.38-2.38h-3.23c-0.38-1.73-0.35-3.53,0.12-5.25
		c0.78-2.84,2.61-5.21,5.17-6.67c2.56-1.46,5.53-1.84,8.37-1.06c2.84,0.78,5.21,2.61,6.67,5.17c1.46,2.56,1.84,5.53,1.06,8.37
		S43.45,34.51,40.89,35.97z"/>
	<path class="st0" d="M36.71,21.73c-1.25-0.34-2.55-0.18-3.67,0.47c-1.12,0.64-1.93,1.68-2.27,2.93c-0.7,2.57,0.82,5.24,3.39,5.94
		c0.42,0.12,0.85,0.17,1.27,0.17c2.13,0,4.08-1.42,4.67-3.56C40.8,25.1,39.28,22.43,36.71,21.73z M39.13,27.41
		c-0.56,2.04-2.67,3.25-4.71,2.69c-2.04-0.56-3.25-2.67-2.69-4.71c0.27-0.99,0.91-1.81,1.8-2.32c0.59-0.33,1.24-0.51,1.9-0.51
		c0.34,0,0.68,0.05,1.02,0.14C38.48,23.25,39.69,25.37,39.13,27.41z"/>
	<path class="st0" d="M17.39,12.79l-1.49,0.85l0.5,0.87l1.49-0.85c0.96,1.46,2.35,2.54,4.01,3.11l-0.45,1.66l0.96,0.26l0.46-1.67
		c0.52,0.11,1.05,0.18,1.58,0.18c0.7,0,1.39-0.09,2.07-0.28l-0.26-0.96c-1.18,0.32-2.43,0.32-3.62,0c-1.77-0.48-3.24-1.62-4.15-3.21
		c-0.91-1.59-1.14-3.44-0.66-5.21c0.48-1.77,1.62-3.24,3.21-4.15s3.44-1.14,5.21-0.66c1.77,0.48,3.24,1.62,4.15,3.21
		c0.91,1.59,1.14,3.44,0.66,5.21c-0.18,0.67-0.46,1.31-0.84,1.89l0.84,0.54c0.34-0.53,0.59-1.1,0.79-1.69l1.67,0.46l0.26-0.96
		l-1.66-0.45c0.35-1.71,0.13-3.46-0.64-5.03l1.49-0.85l-0.5-0.87L31,5.03c-0.96-1.46-2.35-2.54-4.01-3.11l0.45-1.66L26.48,0
		l-0.45,1.66C24.32,1.31,22.57,1.53,21,2.3L20.14,0.8l-0.87,0.5l0.85,1.49c-1.46,0.96-2.54,2.35-3.11,4.01l-1.66-0.45L15.1,7.31
		l1.66,0.45C16.4,9.47,16.63,11.22,17.39,12.79z"/>
	<path class="st0" d="M21.29,8.48c-0.47,1.74,0.55,3.54,2.29,4.01c0.29,0.08,0.58,0.12,0.87,0.12c0.56,0,1.11-0.15,1.61-0.43
		c0.76-0.43,1.3-1.13,1.53-1.98c0.48-1.74-0.55-3.54-2.29-4.01C23.57,5.72,21.77,6.75,21.29,8.48z M26.63,9.94
		c-0.16,0.58-0.54,1.07-1.06,1.37c-0.53,0.3-1.14,0.38-1.72,0.22c-0.58-0.16-1.07-0.54-1.37-1.06c-0.3-0.53-0.38-1.14-0.22-1.72
		c0.28-1.01,1.19-1.67,2.19-1.67c0.2,0,0.4,0.03,0.6,0.08C26.25,7.49,26.96,8.74,26.63,9.94z"/>
</g>
</svg>
