<?xml version="1.0" encoding="utf-8"?>
<!-- Generator: Adobe Illustrator 24.1.3, SVG Export Plug-In . SVG Version: 6.00 Build 0)  -->
<svg version="1.1" id="Layer_1" xmlns="http://www.w3.org/2000/svg" xmlns:xlink="http://www.w3.org/1999/xlink" x="0px" y="0px"
	 viewBox="0 0 50 50" style="enable-background:new 0 0 50 50;" xml:space="preserve">
<style type="text/css">
	.st0{fill:#222E5E;}
	.st1{fill:#FFFFFF;}
	.st2{fill:#EBBB10;}
	.st3{fill:#666666;}
	.st4{fill:#808080;}
	.st5{fill:#277FB6;}
	.st6{fill:#22AF80;}
	.st7{fill:none;stroke:#222E5E;stroke-linecap:round;stroke-linejoin:round;stroke-miterlimit:10;}
	.st8{fill:#BEBEBE;}
	.st9{fill:#1E3565;}
	.st10{clip-path:url(#SVGID_2_);}
	.st11{fill:none;stroke:#222E5E;stroke-miterlimit:10;}
	.st12{fill:#A5A5A5;}
	.st13{fill:#C0C0C0;}
	.st14{opacity:0.1;}
	.st15{fill:none;stroke:#FFFFFF;stroke-width:0.5;stroke-linecap:round;stroke-linejoin:round;stroke-miterlimit:10;}
</style>
<g>
	<path class="st0" d="M6.55,9.16h6.98l0.5,0V9.12c2.27-0.26,4.05-2.21,4.05-4.54C18.07,2.05,16.02,0,13.5,0
		c-1.71,0-3.26,0.95-4.05,2.45c-0.01,0-0.03,0-0.04,0c-1.18,0-2.27,0.63-2.87,1.63C5.14,4.09,4.01,5.22,4.01,6.62
		C4.01,8.02,5.15,9.16,6.55,9.16z M6.55,5.09c0.01,0,0.01,0,0.02,0C6.62,5.1,6.68,5.12,6.74,5.13l0.37,0.05l0.15-0.34
		C7.64,3.99,8.48,3.45,9.4,3.45c0.06,0,0.12,0.01,0.18,0.02l0.48,0.05l0.15-0.34C10.77,1.85,12.06,1,13.5,1
		c1.97,0,3.58,1.61,3.58,3.58c0,1.96-1.59,3.56-3.55,3.58l-6.97,0c-0.85,0-1.54-0.69-1.54-1.54C5.01,5.77,5.69,5.09,6.55,5.09z"/>
	<g>
		<path class="st0" d="M14.63,14.93L23,19.91c0.91,1.32,2.29,2.31,3.97,2.69l0.22-0.97c-2.81-0.64-4.66-3.29-4.31-6.16l1.09-8.9
			c0.28-2.27,2.21-3.97,4.49-3.97s4.21,1.71,4.49,3.97l0.63,5.18l0.75-1.38c0.99-1.83,2.89-2.97,4.97-2.97
			c2.94,0,5.41,2.29,5.63,5.22l0.03,0.32l0.31,0.11c1.09,0.39,2.02,1.09,2.69,2.03c0.12,0.17,0.24,0.35,0.34,0.54
			c0.21,0.38,0.38,0.78,0.5,1.2c0.14,0.5,0.21,1.02,0.21,1.55c0,0.62-0.1,1.23-0.29,1.81l-0.05,0.14c-0.03,0.09-0.07,0.17-0.1,0.25
			c-0.04,0.08-0.07,0.17-0.11,0.25c-0.08,0.17-0.17,0.33-0.26,0.48l-0.07,0.11c-0.12,0.19-0.26,0.38-0.4,0.55
			c-0.06,0.07-0.12,0.14-0.18,0.21c-0.12,0.13-0.25,0.26-0.39,0.39l-0.1,0.09c-0.1,0.09-0.21,0.17-0.32,0.25l-0.11,0.08
			c-1.67,1.19-3.95,1.37-5.78,0.46l-0.45,0.89c0.92,0.46,1.92,0.69,2.96,0.69c1.39,0,2.72-0.42,3.85-1.23l0.13-0.09
			c0.13-0.1,0.25-0.2,0.38-0.3l0.12-0.11c0.16-0.14,0.31-0.29,0.45-0.45c0.07-0.08,0.14-0.16,0.21-0.24
			c0.17-0.21,0.33-0.42,0.47-0.64l0.08-0.14c0.11-0.18,0.21-0.37,0.31-0.57c0.05-0.1,0.09-0.19,0.13-0.3
			c0.04-0.1,0.08-0.2,0.12-0.29l0.06-0.16c0.23-0.69,0.35-1.4,0.35-2.13c0-0.62-0.08-1.23-0.25-1.82c-0.14-0.49-0.34-0.97-0.58-1.41
			c-0.12-0.22-0.26-0.43-0.41-0.64c-0.73-1.02-1.72-1.8-2.87-2.28c-0.41-3.29-3.25-5.82-6.6-5.82c-1.98,0-3.83,0.88-5.07,2.36
			l-0.28-2.3c-0.34-2.77-2.69-4.85-5.48-4.85s-5.14,2.09-5.48,4.85l-1.09,8.9c-0.12,1.01-0.01,2,0.29,2.91l-7.55-4.49L0,22.46
			l0.51,0.86L14.63,14.93z"/>
		<path class="st0" d="M11.32,22.55c0,1.82,1.48,3.3,3.3,3.3s3.3-1.48,3.3-3.3s-1.48-3.3-3.3-3.3S11.32,20.73,11.32,22.55z
			 M16.93,22.55c0,1.27-1.03,2.3-2.3,2.3s-2.3-1.03-2.3-2.3s1.03-2.3,2.3-2.3S16.93,21.28,16.93,22.55z"/>
		<rect x="0" y="45.8" class="st0" width="50" height="1"/>
		<rect x="0" y="49" class="st0" width="50" height="1"/>
		<path class="st0" d="M30.68,21.69l-0.81,0.59c1.25,1.71,3.26,2.72,5.36,2.72c1.03,0,2.01-0.23,2.92-0.68l-0.44-0.9
			C36.94,23.81,36.1,24,35.23,24C33.41,24,31.76,23.16,30.68,21.69z"/>
		<path class="st0" d="M39.79,32.45l2.4-2.4l-0.71-0.71l-1.69,1.69V17.71l3.07-1.58l-0.46-0.89l-2.61,1.34v-2.86h-1v5.72l-2.57-1.33
			l-0.46,0.89l3.03,1.57v22.01h-9.84V27.88l1.58-1.58l-0.71-0.71l-0.88,0.88V18.2l3.1-1.65l-0.47-0.88l-2.63,1.4v-4.89l3.1-1.58
			l-0.46-0.89l-2.64,1.35V8.13h-1v5.72l-2.55-1.32l-0.46,0.89l3.01,1.55v27.62h-2.35V22.55h-1v20.04h-5.73v-12.5h-8.49v12.5H4.65
			V22.55h-1v20.04H0v1h3.65h7.73h6.49h7.73H50v-1H39.79V32.45z M11.38,42.59v-11.5h6.49v11.5H11.38z"/>
	</g>
</g>
</svg>
