<?xml version="1.0" encoding="utf-8"?>
<!-- Generator: Adobe Illustrator 24.1.3, SVG Export Plug-In . SVG Version: 6.00 Build 0)  -->
<svg version="1.1" id="Layer_1" xmlns="http://www.w3.org/2000/svg" xmlns:xlink="http://www.w3.org/1999/xlink" x="0px" y="0px"
	 viewBox="0 0 50 50" style="enable-background:new 0 0 50 50;" xml:space="preserve">
<style type="text/css">
	.st0{fill:#222E5E;}
	.st1{fill:#FFFFFF;}
	.st2{fill:#EBBB10;}
	.st3{fill:#666666;}
	.st4{fill:#808080;}
	.st5{fill:#277FB6;}
	.st6{fill:#22AF80;}
	.st7{fill:none;stroke:#222E5E;stroke-linecap:round;stroke-linejoin:round;stroke-miterlimit:10;}
	.st8{fill:#BEBEBE;}
	.st9{fill:#1E3565;}
	.st10{clip-path:url(#SVGID_2_);}
	.st11{fill:none;stroke:#222E5E;stroke-miterlimit:10;}
	.st12{fill:#A5A5A5;}
	.st13{fill:#C0C0C0;}
	.st14{opacity:0.1;}
	.st15{fill:none;stroke:#FFFFFF;stroke-width:0.5;stroke-linecap:round;stroke-linejoin:round;stroke-miterlimit:10;}
</style>
<g>
	<path class="st0" d="M6.67,20.05h6.98l0.5,0v-0.03c2.27-0.26,4.05-2.21,4.05-4.54c0-2.52-2.05-4.58-4.58-4.58
		c-1.71,0-3.26,0.95-4.05,2.45c-0.01,0-0.03,0-0.04,0c-1.18,0-2.27,0.63-2.87,1.63c-1.39,0.01-2.52,1.14-2.52,2.54
		C4.13,18.91,5.27,20.05,6.67,20.05z M6.67,15.98c0.01,0,0.01,0,0.02,0C6.74,16,6.8,16.01,6.86,16.02l0.37,0.05l0.15-0.34
		c0.38-0.84,1.22-1.39,2.14-1.39c0.06,0,0.13,0.01,0.28,0.03l0.37,0.04l0.15-0.34c0.56-1.32,1.86-2.18,3.29-2.18
		c1.97,0,3.58,1.61,3.58,3.58c0,1.96-1.59,3.56-3.55,3.58l-6.97,0c-0.85,0-1.54-0.69-1.54-1.54C5.13,16.67,5.81,15.98,6.67,15.98z"
		/>
	<path class="st0" d="M41.93,4.32l0.35-0.35c1.32-1.32,2.86-2.34,4.58-3.04L46.49,0c-1.69,0.69-3.22,1.67-4.56,2.92
		C40.59,1.67,39.06,0.68,37.37,0L37,0.93c1.71,0.7,3.26,1.72,4.58,3.04L41.93,4.32z"/>
	<path class="st0" d="M33.93,9.25l0.35-0.35c0.86-0.86,1.86-1.52,2.98-1.98L36.88,6c-1.09,0.44-2.08,1.07-2.95,1.86
		C33.06,7.07,32.07,6.44,30.98,6L30.6,6.93c1.12,0.45,2.12,1.12,2.97,1.98L33.93,9.25z"/>
	<path class="st0" d="M26.97,32.98L27.19,32c-2.81-0.64-4.66-3.29-4.31-6.16l1.09-8.9c0.28-2.27,2.21-3.97,4.49-3.97
		s4.21,1.71,4.49,3.97l0.63,5.18l0.75-1.38c0.99-1.83,2.89-2.98,4.97-2.98c2.94,0,5.41,2.29,5.63,5.22l0.03,0.32l0.31,0.11
		c1.09,0.39,2.02,1.09,2.69,2.03c0.12,0.17,0.24,0.35,0.34,0.54c0.21,0.38,0.38,0.78,0.5,1.2c0.14,0.5,0.21,1.02,0.21,1.55
		c0,0.62-0.1,1.23-0.3,1.82l-0.04,0.13c-0.03,0.09-0.06,0.17-0.1,0.26c-0.03,0.08-0.07,0.16-0.11,0.25
		c-0.08,0.17-0.17,0.32-0.26,0.48l-0.07,0.12c-0.12,0.19-0.25,0.37-0.4,0.55c-0.06,0.07-0.12,0.14-0.17,0.2
		c-0.12,0.13-0.25,0.26-0.39,0.39l-0.1,0.09c-0.1,0.09-0.21,0.17-0.32,0.26l-0.11,0.08c-1.68,1.19-3.95,1.37-5.78,0.45l-0.45,0.89
		c0.92,0.46,1.92,0.69,2.96,0.69c1.39,0,2.72-0.42,3.85-1.23l0.13-0.1c0.13-0.1,0.25-0.2,0.37-0.3l0.12-0.11
		c0.16-0.14,0.31-0.29,0.46-0.45c0.07-0.08,0.14-0.16,0.2-0.24c0.17-0.21,0.33-0.42,0.47-0.64l0.09-0.14
		c0.11-0.18,0.21-0.37,0.3-0.56c0.05-0.1,0.09-0.2,0.13-0.3c0.04-0.1,0.08-0.2,0.12-0.3l0.06-0.16c0.23-0.68,0.35-1.4,0.35-2.13
		c0-0.62-0.08-1.23-0.25-1.82c-0.14-0.49-0.34-0.97-0.58-1.41c-0.12-0.22-0.26-0.43-0.41-0.64c-0.73-1.02-1.72-1.8-2.87-2.28
		c-0.41-3.29-3.25-5.82-6.6-5.82c-1.98,0-3.83,0.88-5.07,2.36l-0.28-2.3c-0.34-2.77-2.69-4.85-5.48-4.85
		c-2.79,0-5.14,2.09-5.48,4.85l-1.09,8.9C21.47,29.1,23.66,32.22,26.97,32.98z"/>
	<path class="st0" d="M30.68,32.07l-0.81,0.59c1.25,1.71,3.25,2.72,5.36,2.72c1.03,0,2.01-0.23,2.92-0.68l-0.44-0.9
		c-0.78,0.38-1.61,0.57-2.48,0.57C33.41,34.38,31.75,33.54,30.68,32.07z"/>
	<path class="st0" d="M39.79,28.1l3.06-1.58l-0.46-0.89l-2.61,1.34v-2.86h-1v5.72l-2.57-1.33l-0.46,0.89l3.03,1.57v8.76H29.5
		l-0.54-0.54V28.58l3.1-1.65l-0.47-0.88l-2.63,1.4v-4.89l3.09-1.58l-0.46-0.89l-2.64,1.35v-2.93h-1v5.72l-2.55-1.32l-0.46,0.89
		l3.01,1.55v12.83l-8.67-8.67c-1.3-1.31-3.1-1.99-4.95-1.83c-1.5,0.12-2.91,0.77-3.97,1.83L0.14,39.73H0v1h50v-1H39.79V28.1z
		 M11.06,30.22c0.89-0.9,2.08-1.44,3.34-1.54c1.54-0.12,3.07,0.44,4.17,1.54l9.38,9.38v0.13H1.55L11.06,30.22z"/>
	<path class="st0" d="M49.29,43.76c-1.55,1.55-3.61,2.41-5.81,2.41c-1.81,0-3.53-0.59-4.95-1.67c2-0.26,3.85-1.16,5.31-2.61
		l-0.71-0.71c-0.24,0.24-0.51,0.47-0.77,0.67c-0.53,0.43-1,0.67-1,0.67c-1.22,0.69-2.6,1.06-4.04,1.06c-2.2,0-4.26-0.85-5.81-2.41
		l-0.35-0.35l-0.35,0.35c-1.55,1.55-3.62,2.41-5.81,2.41c-2.2,0-4.26-0.85-5.81-2.41l-0.35-0.35l-0.35,0.35
		c-1.55,1.55-3.62,2.41-5.81,2.41c-0.81,0-1.61-0.12-2.37-0.35c0,0-0.95-0.28-1.59-0.67c-0.67-0.37-1.29-0.83-1.85-1.39l-0.71,0.71
		c1.45,1.45,3.3,2.35,5.31,2.61c-1.42,1.08-3.13,1.67-4.95,1.67c-2.2,0-4.26-0.85-5.81-2.41L0,44.47c1.74,1.74,4.01,2.64,6.3,2.69
		L6.16,47.3c1.74,1.74,4.05,2.7,6.52,2.7c2.3,0,4.47-0.83,6.16-2.36C20.53,49.17,22.7,50,25,50s4.47-0.83,6.16-2.36
		c1.7,1.53,3.87,2.36,6.16,2.36c2.46,0,4.78-0.96,6.52-2.7l-0.14-0.14c2.38-0.05,4.61-1,6.3-2.69L49.29,43.76z M12.67,49
		c-1.94,0-3.77-0.67-5.24-1.89c1.9-0.19,3.74-0.95,5.25-2.3c1.5,1.35,3.34,2.12,5.23,2.31C16.44,48.33,14.61,49,12.67,49z
		 M13.9,44.5c1.84-0.24,3.55-1.02,4.94-2.27c1.39,1.26,3.11,2.03,4.95,2.28C20.87,46.71,16.81,46.71,13.9,44.5z M25,49
		c-1.94,0-3.77-0.67-5.24-1.89c1.89-0.19,3.74-0.96,5.24-2.31c1.5,1.35,3.34,2.12,5.23,2.31C28.77,48.33,26.94,49,25,49z
		 M26.22,44.5c1.84-0.24,3.55-1.02,4.94-2.27c1.39,1.26,3.11,2.04,4.95,2.28c-1.42,1.08-3.13,1.66-4.95,1.66
		C29.36,46.17,27.64,45.58,26.22,44.5z M37.33,49c-1.93,0-3.77-0.66-5.23-1.88c1.89-0.19,3.73-0.97,5.23-2.32
		c1.47,1.32,3.28,2.13,5.23,2.33C41.09,48.34,39.26,49,37.33,49z"/>
</g>
</svg>
