<?xml version="1.0" encoding="utf-8"?>
<!-- Generator: Adobe Illustrator 24.1.3, SVG Export Plug-In . SVG Version: 6.00 Build 0)  -->
<svg version="1.1" id="Layer_1" xmlns="http://www.w3.org/2000/svg" xmlns:xlink="http://www.w3.org/1999/xlink" x="0px" y="0px"
	 viewBox="0 0 50 50" style="enable-background:new 0 0 50 50;" xml:space="preserve">
<style type="text/css">
	.st0{fill:#222E5E;}
	.st1{fill:#FFFFFF;}
	.st2{fill:#EBBB10;}
	.st3{fill:#666666;}
	.st4{fill:#808080;}
	.st5{fill:#277FB6;}
	.st6{fill:#22AF80;}
	.st7{fill:none;stroke:#222E5E;stroke-linecap:round;stroke-linejoin:round;stroke-miterlimit:10;}
	.st8{fill:#BEBEBE;}
	.st9{fill:#1E3565;}
	.st10{clip-path:url(#SVGID_2_);}
	.st11{fill:none;stroke:#222E5E;stroke-miterlimit:10;}
	.st12{fill:#A5A5A5;}
	.st13{fill:#C0C0C0;}
	.st14{opacity:0.1;}
	.st15{fill:none;stroke:#FFFFFF;stroke-width:0.5;stroke-linecap:round;stroke-linejoin:round;stroke-miterlimit:10;}
</style>
<g>
	<path class="st0" d="M45.54,27.63C45.8,27.61,46,27.4,46,27.14V0.5c0-0.14-0.06-0.27-0.16-0.37S45.61-0.01,45.46,0l-1.01,0.08
		c-4.13,0.34-8.17,1.33-12,2.92l-1.6,0.66l-1.59-0.66c-3.83-1.6-7.87-2.58-12-2.93L16.24,0c-0.15-0.01-0.28,0.04-0.38,0.13
		c-0.1,0.09-0.16,0.23-0.16,0.37v13.73c-0.38-0.05-0.76-0.08-1.16-0.08c-5.14,0-9.33,4.07-9.33,9.06c0,4.15,2.88,7.64,6.8,8.72
		C5.2,33.09,0,38.85,0,45.79v2.12C0,49.06,0.95,50,2.14,50c0,0,0.01,0,0.01,0h24.77c0.02,0,0.04,0,0.05,0c0.54,0,1.04-0.2,1.43-0.57
		c0.4-0.38,0.63-0.9,0.64-1.53v-2.12c0-6.92-5.19-12.68-11.99-13.85c2.08-0.57,3.86-1.82,5.09-3.49c2.49,0.52,4.94,1.27,7.29,2.25
		l1.23,0.51c0.06,0.03,0.13,0.04,0.19,0.04c0.06,0,0.13-0.01,0.19-0.04l1.3-0.54c3.86-1.61,7.94-2.6,12.1-2.94L45.54,27.63z
		 M28.04,45.79v2.16c-0.01,0.29-0.12,0.55-0.33,0.75S27.22,49,26.93,49L2.11,49c0,0,0,0,0,0C1.5,49,1,48.51,1,47.9v-2.12
		c0-7.21,6.07-13.08,13.52-13.08S28.04,38.57,28.04,45.79z M14.54,31.28c-4.59,0-8.33-3.62-8.33-8.06s3.74-8.06,8.33-8.06
		s8.33,3.62,8.33,8.06S19.13,31.28,14.54,31.28z M30.35,30l-0.54-0.22c-2.28-0.96-4.66-1.69-7.09-2.22
		c0.73-1.29,1.14-2.76,1.14-4.34c0-4.28-3.07-7.86-7.17-8.81V1.04l0.48,0.04c4.03,0.33,7.97,1.29,11.7,2.85l1.48,0.61V30z
		 M31.96,29.74L31.35,30V4.55l1.48-0.62c3.73-1.56,7.67-2.52,11.7-2.85L45,1.04v25.63l-0.64,0.05
		C40.09,27.08,35.92,28.1,31.96,29.74z"/>
	<polygon class="st0" points="49,4.44 49,30.58 39.24,30.58 39.24,31.58 50,31.58 50,4.44 	"/>
	<rect x="11.7" y="4.44" class="st0" width="1" height="7.06"/>
</g>
</svg>
