<?xml version="1.0" encoding="utf-8"?>
<!-- Generator: Adobe Illustrator 24.1.3, SVG Export Plug-In . SVG Version: 6.00 Build 0)  -->
<svg version="1.1" id="Layer_1" xmlns="http://www.w3.org/2000/svg" xmlns:xlink="http://www.w3.org/1999/xlink" x="0px" y="0px"
	 viewBox="0 0 50 50" style="enable-background:new 0 0 50 50;" xml:space="preserve">
<style type="text/css">
	.st0{fill:#222E5E;}
	.st1{fill:#FFFFFF;}
	.st2{fill:#EBBB10;}
	.st3{fill:#666666;}
	.st4{fill:#808080;}
	.st5{fill:#277FB6;}
	.st6{fill:#22AF80;}
	.st7{fill:none;stroke:#222E5E;stroke-linecap:round;stroke-linejoin:round;stroke-miterlimit:10;}
	.st8{fill:#BEBEBE;}
	.st9{fill:#1E3565;}
	.st10{clip-path:url(#SVGID_2_);}
	.st11{fill:none;stroke:#222E5E;stroke-miterlimit:10;}
	.st12{fill:#A5A5A5;}
	.st13{fill:#C0C0C0;}
	.st14{opacity:0.1;}
	.st15{fill:none;stroke:#FFFFFF;stroke-width:0.5;stroke-linecap:round;stroke-linejoin:round;stroke-miterlimit:10;}
</style>
<g>
	<g>
		<path class="st0" d="M25,49.99c-13.79,0-25-11.21-25-25s11.21-25,25-25s25,11.21,25,25S38.79,49.99,25,49.99z M25,0.99
			c-13.23,0-24,10.77-24,24s10.77,24,24,24s24-10.77,24-24S38.23,0.99,25,0.99z"/>
	</g>
	<g>
		<path class="st0" d="M25,41.5c-9.1,0-16.51-7.41-16.51-16.51S15.9,8.48,25,8.48s16.51,7.41,16.51,16.51S34.1,41.5,25,41.5z
			 M25,9.48c-8.55,0-15.51,6.96-15.51,15.51S16.45,40.5,25,40.5s15.51-6.96,15.51-15.51S33.55,9.48,25,9.48z"/>
	</g>
	<g>
		<path class="st0" d="M37.17,31.76H12.83L25,10.68L37.17,31.76z M14.56,30.76h20.88L25,12.68L14.56,30.76z"/>
	</g>
</g>
</svg>
