<?xml version="1.0" encoding="utf-8"?>
<!-- Generator: Adobe Illustrator 23.0.4, SVG Export Plug-In . SVG Version: 6.00 Build 0)  -->
<svg version="1.1" id="Layer_1" xmlns="http://www.w3.org/2000/svg" xmlns:xlink="http://www.w3.org/1999/xlink" x="0px" y="0px"
	 viewBox="0 0 51.4 46.8" style="enable-background:new 0 0 51.4 46.8;" xml:space="preserve">
<style type="text/css">
	.st0{fill:none;stroke:#232F5D;stroke-linecap:round;stroke-linejoin:round;}
</style>
<title>Icones Homepage</title>
<path class="st0" d="M50.9,24.1V7.9c0.1-4-3.1-7.3-7.1-7.4c0,0,0,0,0,0h-36c-4,0-7.3,3.3-7.3,7.4v19.7c0,4.1,3.2,7.4,7.3,7.4h4
	l0.3,9.7c0,0.9,0.7,1.7,1.7,1.7c0.5,0,0.9-0.2,1.2-0.5L26.4,35h5 M31.4,35h12.3c4-0.1,7.2-3.4,7.2-7.4c0,0,0,0,0,0v-3.5"/>
<path class="st0" d="M21.7,11.2c0,2.6,2.1,4.6,4.6,4.6s4.6-2.1,4.6-4.6s-2.1-4.6-4.6-4.6S21.7,8.6,21.7,11.2z"/>
<path class="st0" d="M26.3,15.9c-4-0.1-7.3,3.1-7.3,7.1v1.1c0,0.5,0.4,0.8,0.8,0.8h13c0.5,0,0.8-0.4,0.8-0.8c0,0,0,0,0,0V23
	C33.6,19,30.3,15.8,26.3,15.9C26.3,15.9,26.3,15.9,26.3,15.9z"/>
<path class="st0" d="M33.6,13.8c0,2.6,2.1,4.6,4.6,4.6c2.5,0,4.6-2.1,4.6-4.6c0-2.6-2.1-4.6-4.6-4.6C35.7,9.2,33.6,11.3,33.6,13.8z"
	/>
<path class="st0" d="M31,24.9c0,0.2,0,0.5,0,0.7v1.1c0,0.4,0.3,0.8,0.8,0.8c0,0,0,0,0,0h13c0.5,0,0.8-0.3,0.9-0.8c0,0,0,0,0,0v-1.1
	c-0.1-4-3.3-7.2-7.3-7.1c-1.9,0-3.7,0.7-5.1,2"/>
<path class="st0" d="M9.7,13.8c0,2.6,2.1,4.6,4.6,4.6s4.6-2.1,4.6-4.6s-2.1-4.6-4.6-4.6S9.7,11.2,9.7,13.8z"/>
<path class="st0" d="M19.5,20.5c-1.4-1.3-3.2-2-5.1-2c-4-0.1-7.3,3.1-7.4,7.1c0,0,0,0,0,0v1.1c0,0.5,0.4,0.8,0.8,0.8c0,0,0,0,0,0h13
	c0.5,0,0.8-0.3,0.9-0.8c0,0,0,0,0,0v-1.1c0-0.2,0-0.5,0-0.7"/>
</svg>
