<?xml version="1.0" encoding="utf-8"?>
<!-- Generator: Adobe Illustrator 24.1.3, SVG Export Plug-In . SVG Version: 6.00 Build 0)  -->
<svg version="1.1" id="Layer_1" xmlns="http://www.w3.org/2000/svg" xmlns:xlink="http://www.w3.org/1999/xlink" x="0px" y="0px"
	 viewBox="0 0 50 50" style="enable-background:new 0 0 50 50;" xml:space="preserve">
<style type="text/css">
	.st0{fill:#222E5E;}
	.st1{fill:#FFFFFF;}
	.st2{fill:#EBBB10;}
	.st3{fill:#666666;}
	.st4{fill:#808080;}
	.st5{fill:#277FB6;}
	.st6{fill:#22AF80;}
	.st7{fill:none;stroke:#222E5E;stroke-linecap:round;stroke-linejoin:round;stroke-miterlimit:10;}
	.st8{fill:#BEBEBE;}
	.st9{fill:#1E3565;}
	.st10{clip-path:url(#SVGID_2_);}
	.st11{fill:none;stroke:#222E5E;stroke-miterlimit:10;}
	.st12{fill:#A5A5A5;}
	.st13{fill:#C0C0C0;}
	.st14{opacity:0.1;}
	.st15{fill:none;stroke:#FFFFFF;stroke-width:0.5;stroke-linecap:round;stroke-linejoin:round;stroke-miterlimit:10;}
</style>
<g>
	<path class="st0" d="M19.42,38.67c0,0.7-0.57,1.26-1.26,1.26h-7.05c-0.7,0-1.26-0.57-1.26-1.26v-7.54H2.27
		c-0.7,0-1.27-0.57-1.27-1.27V22.8c0-0.7,0.57-1.26,1.27-1.26h7.58v-7.56c0-0.7,0.57-1.26,1.26-1.26h7.05c0.7,0,1.26,0.57,1.26,1.26
		v7.56h7.54c0.7,0,1.26,0.57,1.26,1.26v1.4h1v-1.4c0-1.25-1.02-2.26-2.26-2.26h-6.54v-6.56c0-1.25-1.01-2.26-2.26-2.26h-7.05
		c-1.25,0-2.26,1.02-2.26,2.26v6.56H2.27C1.02,20.54,0,21.55,0,22.8v7.06c0,1.25,1.02,2.27,2.27,2.27h6.58v6.54
		c0,1.25,1.01,2.26,2.26,2.26h7.05c1.25,0,2.26-1.02,2.26-2.26v-6.54h2.24v-1h-3.24V38.67z"/>
	<path class="st0" d="M46.21,0v1H49v9.28c0,5.29-4.3,9.59-9.59,9.59c-5.29,0-9.59-4.3-9.59-9.59V1h2.79V0h-3.79v10.28
		c0,5.67,4.48,10.3,10.09,10.57V45.1c0,2.15-1.75,3.9-3.9,3.9s-3.9-1.75-3.9-3.9v-9.72v-1.43v-0.78c0-1.09-0.8-1.99-1.85-2.17
		c-0.24-2.6-2.41-4.65-5.07-4.65h-0.5v10.24h0.5c2.63,0,4.77-2,5.06-4.55c0.49,0.15,0.86,0.59,0.86,1.13v0.78v1.43v9.72
		c0,2.7,2.2,4.9,4.9,4.9c2.7,0,4.9-2.2,4.9-4.9V20.85C45.52,20.58,50,15.95,50,10.28V0H46.21z M24.69,35.55v-8.18
		c2.04,0.25,3.62,1.99,3.62,4.09S26.72,35.3,24.69,35.55z"/>
</g>
</svg>
