<?xml version="1.0" encoding="utf-8"?>
<!-- Generator: Adobe Illustrator 24.1.3, SVG Export Plug-In . SVG Version: 6.00 Build 0)  -->
<svg version="1.1" id="Layer_1" xmlns="http://www.w3.org/2000/svg" xmlns:xlink="http://www.w3.org/1999/xlink" x="0px" y="0px"
	 viewBox="0 0 55 55" style="enable-background:new 0 0 55 55;" xml:space="preserve">
<style type="text/css">
	.st0{fill:#222E5E;}
	.st1{fill:#FFFFFF;}
	.st2{fill:#EBBB10;}
	.st3{fill:#666666;}
	.st4{fill:#808080;}
	.st5{fill:#277FB6;}
	.st6{fill:#22AF80;}
	.st7{fill:none;stroke:#222E5E;stroke-linecap:round;stroke-linejoin:round;stroke-miterlimit:10;}
	.st8{fill:#BEBEBE;}
	.st9{fill:#1E3565;}
	.st10{clip-path:url(#SVGID_2_);}
	.st11{fill:none;stroke:#222E5E;stroke-miterlimit:10;}
	.st12{fill:#A5A5A5;}
	.st13{fill:#C0C0C0;}
	.st14{opacity:0.1;}
	.st15{fill:none;stroke:#FFFFFF;stroke-width:0.5;stroke-linecap:round;stroke-linejoin:round;stroke-miterlimit:10;}
</style>
<g>
	<g>
		<path class="st9" d="M27.51,55L27.51,55C14.51,55,3.95,44.44,3.95,31.45V0h47.1v31.45C51.05,44.44,40.49,55,27.51,55z M4.95,1
			v30.45C4.95,43.89,15.06,54,27.5,54h0.01c12.43,0,22.55-10.11,22.55-22.55V1H4.95z"/>
	</g>
	<g>
		<path class="st9" d="M27.53,45.92L27.53,45.92c-7.9,0-14.31-6.42-14.31-14.31V9.21h28.62v22.4C41.84,39.5,35.42,45.92,27.53,45.92
			z M14.21,10.21v21.4c0,7.34,5.97,13.31,13.31,13.31h0.01c7.34,0,13.31-5.97,13.31-13.31v-21.4H14.21z"/>
	</g>
	<g>
		<path class="st9" d="M27.64,21.29c-1.94,0-3.52-1.58-3.52-3.52v-5.06h7.04v5.06C31.16,19.71,29.58,21.29,27.64,21.29z
			 M25.12,13.71v4.06c0,1.39,1.13,2.52,2.52,2.52h0c1.39,0,2.52-1.13,2.52-2.52v-4.06H25.12z"/>
	</g>
	<g>
		<path class="st9" d="M27.64,42.14c-1.94,0-3.52-1.58-3.52-3.52v-5.06h7.04v5.06C31.16,40.56,29.58,42.14,27.64,42.14z
			 M25.12,34.56v4.06c0,1.39,1.13,2.52,2.52,2.52h0c1.39,0,2.52-1.13,2.52-2.52v-4.06H25.12z"/>
	</g>
	<g>
		<path class="st9" d="M27.64,31.76c-1.94,0-3.52-1.58-3.52-3.52v-5.06h7.04v5.06C31.16,30.18,29.58,31.76,27.64,31.76z
			 M25.12,24.18v4.06c0,1.39,1.13,2.52,2.52,2.52h0c1.39,0,2.52-1.13,2.52-2.52v-4.06H25.12z"/>
	</g>
	<g>
		<path class="st9" d="M19.26,31.76c-1.94,0-3.52-1.58-3.52-3.52v-5.06h7.04v5.06C22.78,30.18,21.2,31.76,19.26,31.76z M16.74,24.18
			v4.06c0,1.39,1.13,2.52,2.52,2.52h0c1.39,0,2.52-1.13,2.52-2.52v-4.06H16.74z"/>
	</g>
	<g>
		<path class="st9" d="M36.02,31.76c-1.94,0-3.52-1.58-3.52-3.52v-5.06h7.04v5.06C39.54,30.18,37.96,31.76,36.02,31.76z M33.5,24.18
			v4.06c0,1.39,1.13,2.52,2.52,2.52h0c1.39,0,2.52-1.13,2.52-2.52v-4.06H33.5z"/>
	</g>
</g>
</svg>
