<?xml version="1.0" encoding="utf-8"?>
<!-- Generator: Adobe Illustrator 23.0.4, SVG Export Plug-In . SVG Version: 6.00 Build 0)  -->
<svg version="1.1" id="Layer_1" xmlns="http://www.w3.org/2000/svg" xmlns:xlink="http://www.w3.org/1999/xlink" x="0px" y="0px"
	 viewBox="0 0 47.9 54.3" style="enable-background:new 0 0 47.9 54.3;" xml:space="preserve">
<style type="text/css">
	.st0{fill:none;stroke:#232F5D;stroke-linecap:round;stroke-linejoin:round;}
	.st1{fill:#232F5D;}
</style>
<title>Icones Homepage</title>
<path class="st0" d="M7,8.3c0,3,2.5,5.4,5.6,5.4c3,0,5.5-2.4,5.6-5.4c0-3-2.5-5.4-5.6-5.4C9.5,2.9,7,5.3,7,8.3z"/>
<path class="st0" d="M12.5,13.9c-4.8-0.1-8.7,3.7-8.8,8.5v1.3c0,0.6,0.4,1,1,1h15.6c0.6,0,1-0.4,1-1v-1.3
	C21.2,17.7,17.3,13.9,12.5,13.9z"/>
<path class="st0" d="M31.7,32.6c-0.1,3.1,2.3,5.6,5.4,5.7c3.1,0.1,5.6-2.3,5.7-5.4c0.1-3.1-2.3-5.6-5.4-5.7c-0.1,0-0.1,0-0.2,0
	C34.2,27.1,31.8,29.5,31.7,32.6z"/>
<path class="st0" d="M37.2,38.2c-4.8-0.1-8.7,3.7-8.8,8.5v1.3c0,0.6,0.4,1,1,1H45c0.6,0,1-0.4,1-1v-1.3C45.9,42,42,38.2,37.2,38.2z"
	/>
<path class="st0" d="M47.4,27.2c0-12.5-9.9-22.9-22.4-23.4"/>
<polygon class="st1" points="28.7,0 29.3,0.8 25.4,3.8 28.7,7.5 28,8.2 24,3.7 "/>
<path class="st0" d="M0.5,27.2c0,12.5,9.9,22.9,22.4,23.4"/>
<polygon class="st1" points="19.2,54.3 18.6,53.6 22.5,50.5 19.2,46.9 19.9,46.2 24,50.6 "/>
</svg>
