<?xml version="1.0" encoding="utf-8"?>
<!-- Generator: Adobe Illustrator 24.1.3, SVG Export Plug-In . SVG Version: 6.00 Build 0)  -->
<svg version="1.1" id="Layer_1" xmlns="http://www.w3.org/2000/svg" xmlns:xlink="http://www.w3.org/1999/xlink" x="0px" y="0px"
	 viewBox="0 0 55 55" style="enable-background:new 0 0 55 55;" xml:space="preserve">
<style type="text/css">
	.st0{fill:#222E5E;}
	.st1{fill:#FFFFFF;}
	.st2{fill:#EBBB10;}
	.st3{fill:#666666;}
	.st4{fill:#808080;}
	.st5{fill:#277FB6;}
	.st6{fill:#22AF80;}
	.st7{fill:none;stroke:#222E5E;stroke-linecap:round;stroke-linejoin:round;stroke-miterlimit:10;}
	.st8{fill:#BEBEBE;}
	.st9{fill:#1E3565;}
	.st10{clip-path:url(#SVGID_2_);}
	.st11{fill:none;stroke:#222E5E;stroke-miterlimit:10;}
	.st12{fill:#A5A5A5;}
	.st13{fill:#C0C0C0;}
	.st14{opacity:0.1;}
	.st15{fill:none;stroke:#FFFFFF;stroke-width:0.5;stroke-linecap:round;stroke-linejoin:round;stroke-miterlimit:10;}
</style>
<g>
	<path class="st0" d="M52.88,28.25L37.99,13.37V1.99c0-1.1-0.89-1.99-1.99-1.99H3.97c-1.1,0-1.99,0.89-1.99,1.99v41.69
		c0,1.1,0.89,1.99,1.99,1.99h16.75V53c0,1.1,0.89,1.99,1.99,1.99h28.31c1.1,0,1.99-0.89,1.99-1.99v-24.4
		C53.02,28.48,52.97,28.35,52.88,28.25z M37.99,14.78l13.41,13.41H37.99V14.78z M3.97,44.68c-0.55,0-0.99-0.45-0.99-0.99V1.99
		C2.98,1.45,3.42,1,3.97,1h32.02c0.55,0,0.99,0.45,0.99,0.99v11.08H22.72c-1.1,0-1.99,0.89-1.99,1.99v29.61H3.97z M51.03,54H22.72
		c-0.55,0-0.99-0.45-0.99-0.99V15.07c0-0.55,0.45-0.99,0.99-0.99h14.27v14.61c0,0.28,0.22,0.5,0.5,0.5h14.48
		c0.02,0,0.04-0.01,0.06-0.01V53C52.02,53.55,51.58,54,51.03,54z"/>
	<path class="st0" d="M31.87,6.32c0-1.67-1.36-3.03-3.03-3.03H10.97c-1.67,0-3.03,1.36-3.03,3.03c0,1.67,1.36,3.03,3.03,3.03h17.88
		C30.51,9.35,31.87,7.99,31.87,6.32z M8.94,6.32c0-1.12,0.91-2.03,2.03-2.03h17.88c1.12,0,2.03,0.91,2.03,2.03s-0.91,2.03-2.03,2.03
		H10.97C9.85,8.35,8.94,7.44,8.94,6.32z"/>
	<path class="st0" d="M47.86,33.42h-21.9c-0.28,0-0.5,0.22-0.5,0.5s0.22,0.5,0.5,0.5h21.9c0.28,0,0.5-0.22,0.5-0.5
		S48.14,33.42,47.86,33.42z"/>
	<path class="st0" d="M47.86,38.01h-21.9c-0.28,0-0.5,0.22-0.5,0.5s0.22,0.5,0.5,0.5h21.9c0.28,0,0.5-0.22,0.5-0.5
		S48.14,38.01,47.86,38.01z"/>
	<path class="st0" d="M47.86,42.57h-21.9c-0.28,0-0.5,0.22-0.5,0.5s0.22,0.5,0.5,0.5h21.9c0.28,0,0.5-0.22,0.5-0.5
		S48.14,42.57,47.86,42.57z"/>
	<path class="st0" d="M39.24,47.89H25.96c-0.28,0-0.5,0.22-0.5,0.5s0.22,0.5,0.5,0.5h13.28c0.28,0,0.5-0.22,0.5-0.5
		S39.51,47.89,39.24,47.89z"/>
</g>
</svg>
