<?xml version="1.0" encoding="utf-8"?>
<!-- Generator: Adobe Illustrator 23.0.4, SVG Export Plug-In . SVG Version: 6.00 Build 0)  -->
<svg version="1.1" id="Layer_1" xmlns="http://www.w3.org/2000/svg" xmlns:xlink="http://www.w3.org/1999/xlink" x="0px" y="0px"
	 viewBox="0 0 19.8 14.6" style="enable-background:new 0 0 19.8 14.6;" xml:space="preserve">
<style type="text/css">
	.st0{fill:none;stroke:#FFFFFF;stroke-miterlimit:10;}
</style>
<title>Icones Homepage</title>
<path class="st0" d="M2.1,12.6c1.5,1,3.3,1.5,5.1,1.5c5.2,0,9.5-4.2,9.5-9.4c0-0.2,0-0.4,0-0.5c0.7-0.5,1.2-1.1,1.7-1.7
	c-0.6,0.3-1.3,0.5-1.9,0.6c0.7-0.4,1.3-1.1,1.5-1.9c-0.7,0.4-1.4,0.7-2.1,0.8c-1.2-1.4-3.3-1.5-4.7-0.3c-1,0.8-1.4,2.2-1,3.4
	C7.4,4.9,4.9,3.6,3.2,1.5C2.3,3,2.8,5,4.2,6C3.7,6,3.2,5.8,2.7,5.6c0,1.6,1.2,3,2.7,3.3C4.9,9,4.4,9,3.9,8.9
	c0.4,1.4,1.7,2.3,3.1,2.3C5.6,12.3,3.9,12.8,2.1,12.6z"/>
</svg>
