<?xml version="1.0" encoding="utf-8"?>
<!-- Generator: Adobe Illustrator 23.0.4, SVG Export Plug-In . SVG Version: 6.00 Build 0)  -->
<svg version="1.1" id="Layer_1" xmlns="http://www.w3.org/2000/svg" xmlns:xlink="http://www.w3.org/1999/xlink" x="0px" y="0px"
	 viewBox="0 0 17.3 14.2" style="enable-background:new 0 0 17.3 14.2;" xml:space="preserve">
<style type="text/css">
	.st0{fill:none;stroke:#232F5D;stroke-linecap:round;stroke-linejoin:round;}
</style>
<title>Icones</title>
<path class="st0" d="M0.5,12.3c1.5,1,3.3,1.5,5.1,1.5c5.2,0,9.5-4.2,9.5-9.4c0-0.2,0-0.4,0-0.6c0.7-0.5,1.2-1.1,1.7-1.7
	c-0.6,0.3-1.3,0.4-1.9,0.5c0.7-0.4,1.2-1.1,1.5-1.9c-0.7,0.4-1.4,0.7-2.1,0.8C13,0.2,10.8,0.2,9.5,1.4c-0.9,0.8-1.2,2-1,3.2
	C5.8,4.5,3.3,3.2,1.6,1.1c-0.9,1.5-0.5,3.5,1,4.5c-0.5,0-1.1-0.2-1.5-0.4c0,1.6,1.1,3,2.7,3.3c-0.5,0.1-1,0.2-1.5,0.1
	c0.4,1.4,1.7,2.3,3.1,2.3C4.1,12,2.3,12.5,0.5,12.3z"/>
</svg>
