<?xml version="1.0" encoding="utf-8"?>
<!-- Generator: Adobe Illustrator 23.0.4, SVG Export Plug-In . SVG Version: 6.00 Build 0)  -->
<svg version="1.1" id="Layer_1" xmlns="http://www.w3.org/2000/svg" xmlns:xlink="http://www.w3.org/1999/xlink" x="0px" y="0px"
	 viewBox="0 0 20.4 14.7" style="enable-background:new 0 0 20.4 14.7;" xml:space="preserve">
<style type="text/css">
	.st0{fill:none;stroke:#DEDADA;stroke-linecap:round;stroke-linejoin:round;}
</style>
<title>Icones</title>
<path class="st0" d="M19.9,5.2V4.5c0-1-0.3-2-0.9-2.9c-0.6-0.6-1.4-0.9-2.2-0.9c-1-0.1-2-0.2-3.1-0.2c-2.1-0.1-4.2,0-6.3,0
	c-1.1,0-2.1,0.1-3.2,0.2C3,0.8,1.6,1,1,2.3C0.6,3.6,0.4,4.9,0.5,6.2c0,1.1,0,2.3,0,3.4c0.1,1.5,0.1,3.4,1.7,4
	c0.9,0.3,1.8,0.5,2.8,0.5c1,0.1,1.9,0,2.9,0.1c2,0,4,0,6-0.1c1.4,0,2.8-0.1,4.2-0.5c1.2-0.4,1.5-1.6,1.6-2.7
	c0.1-1.1,0.1-2.2,0.1-3.3C19.9,6.8,19.9,6,19.9,5.2z M8.2,10.3V4.4l5,3L8.2,10.3z"/>
</svg>
